<svg xmlns="http://www.w3.org/2000/svg" width="21.5" height="21.5" viewBox="0 0 21.5 21.5">
  <g id="Grupo_4863" data-name="Grupo 4863" transform="translate(242.714 -124.56)">
    <path id="Trazado_7508" data-name="Trazado 7508" d="M-221.464,133.677v3.173a1.51,1.51,0,0,1-1.257.885,12.449,12.449,0,0,0-1.316.288.708.708,0,0,0-.433,1.121c.287.423.581.842.866,1.268a1.1,1.1,0,0,1-.148,1.551c-.584.578-1.179,1.146-1.778,1.71a1.136,1.136,0,0,1-1.562.127c-.429-.278-.848-.572-1.275-.853s-.794-.135-.912.38a12.3,12.3,0,0,0-.261,1.227,1.507,1.507,0,0,1-.884,1.258H-233.6a1.386,1.386,0,0,1-.917-1.276c-.04-.432-.132-.859-.2-1.287-.069-.41-.356-.536-.688-.293-.4.294-.79.6-1.189.9a1.161,1.161,0,0,1-1.674-.07q-.89-.823-1.76-1.667a1.1,1.1,0,0,1-.212-1.475c.277-.486.591-.951.849-1.445a1.02,1.02,0,0,0,.047-.583.74.74,0,0,0-.763-.653c-.368-.038-.724-.186-1.092-.23a1.487,1.487,0,0,1-1.263-.88v-3.173a1.349,1.349,0,0,1,1.226-.911c.478-.048.951-.147,1.426-.22a.622.622,0,0,0,.469-.977c-.3-.505-.62-1-.92-1.512a1.1,1.1,0,0,1,.17-1.482q.9-.885,1.817-1.742a1.106,1.106,0,0,1,1.558-.086c.479.345.945.707,1.421,1.057.366.269.494.213.565-.244.076-.491.172-.98.218-1.474a1.382,1.382,0,0,1,.916-1.276h3.173a1.523,1.523,0,0,1,.885,1.26c.072.521.229,1.029.331,1.546.075.38.238.424.543.207q.759-.539,1.54-1.047a1.152,1.152,0,0,1,1.533.12q.909.836,1.793,1.7a1.121,1.121,0,0,1,.144,1.592c-.283.427-.574.848-.861,1.273-.372.55-.17,1,.49,1.1.445.068.885.17,1.332.214A1.362,1.362,0,0,1-221.464,133.677Zm-4.979-5.815a11.759,11.759,0,0,0-1.347.931,1.581,1.581,0,0,1-2.022.246.9.9,0,0,1-.554-.673c-.14-.744-.318-1.481-.483-2.231h-2.36a13.191,13.191,0,0,0-.261,1.577,1.5,1.5,0,0,1-1.243,1.555.972.972,0,0,1-.986-.143c-.563-.459-1.156-.88-1.786-1.355l-1.6,1.751a11.47,11.47,0,0,0,.787,1.278,1.476,1.476,0,0,1,.124,1.979,1.147,1.147,0,0,0-.14.344.763.763,0,0,1-.7.583c-.715.1-1.426.24-2.119.359v2.368c.548.119,1.058.269,1.579.333a1.306,1.306,0,0,1,1.309,1.142,1.809,1.809,0,0,0,.247.55.89.89,0,0,1-.045,1c-.366.573-.7,1.164-1.067,1.767l1.712,1.618a7.564,7.564,0,0,0,.91-.7,1.7,1.7,0,0,1,2.316-.364,1.051,1.051,0,0,1,.651.814c.086.627.2,1.251.31,1.912h2.357a8.505,8.505,0,0,0,.225-1.037,1.9,1.9,0,0,1,1.543-1.96,1.143,1.143,0,0,1,1.04.107c.529.379,1.08.726,1.656,1.109l1.605-1.76c-.29-.423-.635-.959-1.014-1.468a.922.922,0,0,1-.1-1.117,3.678,3.678,0,0,0,.329-.819.89.89,0,0,1,.776-.695c.668-.123,1.33-.284,2.007-.432v-2.366c-.247-.041-.473-.093-.7-.115-1.138-.107-2.21-.261-2.521-1.67a1.137,1.137,0,0,1,.079-1.037c.413-.576.8-1.171,1.2-1.767Z" fill="#0e2d4f" stroke="#1a1a1a" stroke-width="0.5"/>
    <path id="Trazado_7509" data-name="Trazado 7509" d="M-166.543,197.578a3.8,3.8,0,0,1,3.819,3.817,3.831,3.831,0,0,1-3.81,3.842,3.861,3.861,0,0,1-3.857-3.856A3.831,3.831,0,0,1-166.543,197.578Zm-2.554,3.789a2.545,2.545,0,0,0,2.515,2.581,2.568,2.568,0,0,0,2.591-2.517,2.6,2.6,0,0,0-2.527-2.593A2.571,2.571,0,0,0-169.1,201.367Z" transform="translate(-65.346 -65.976)" fill="#c00" stroke="#c00" stroke-width="0.5"/>
  </g>
</svg>
