<svg xmlns="http://www.w3.org/2000/svg" width="19.962" height="19.96" viewBox="0 0 19.962 19.96">
  <path id="Trazado_686" data-name="Trazado 686" d="M1,19.96a1,1,0,0,1-.709-.289.987.987,0,0,1-.24-1.018l1.766-5.309A9.55,9.55,0,0,1,1,9.481,9.5,9.5,0,0,1,10.459,0h.519A9.462,9.462,0,0,1,19.96,8.922v.559a9.5,9.5,0,0,1-9.481,9.481,9.515,9.515,0,0,1-3.862-.818L1.307,19.91A1.057,1.057,0,0,1,1,19.96ZM10.459,2A7.484,7.484,0,0,0,3.782,12.824a1.025,1.025,0,0,1,.06.768L2.575,17.385l3.792-1.267a.984.984,0,0,1,.768.06,7.023,7.023,0,0,0,3.343.788,7.485,7.485,0,0,0,7.485-7.485h0v-.5A7.442,7.442,0,0,0,10.918,2h-.459Z" transform="translate(0.002)" fill="#fff"/>
</svg>
