<svg id="Grupo_1809" data-name="Grupo 1809" xmlns="http://www.w3.org/2000/svg" width="17.722" height="15.03" viewBox="0 0 17.722 15.03">
  <g id="Grupo_1741" data-name="Grupo 1741">
    <g id="Grupo_1740" data-name="Grupo 1740">
      <path id="Trazado_2822" data-name="Trazado 2822" d="M16.611,2.25H1.111a.941.941,0,0,1-.861-1,.941.941,0,0,1,.861-1h15.5a.941.941,0,0,1,.861,1A.941.941,0,0,1,16.611,2.25Z" fill="#0e2d4f"/>
      <path id="Trazado_2823" data-name="Trazado 2823" d="M16.641,2.5H1.081A1.175,1.175,0,0,1,0,1.25,1.175,1.175,0,0,1,1.081,0h15.56a1.175,1.175,0,0,1,1.081,1.25A1.175,1.175,0,0,1,16.641,2.5ZM1.081.5a.71.71,0,0,0-.648.75A.71.71,0,0,0,1.081,2h15.56a.71.71,0,0,0,.648-.75A.71.71,0,0,0,16.641.5Z" fill="#0e2d4f"/>
    </g>
  </g>
  <g id="Grupo_1743" data-name="Grupo 1743" transform="translate(0 6.16)">
    <g id="Grupo_1742" data-name="Grupo 1742">
      <path id="Trazado_2824" data-name="Trazado 2824" d="M16.611,8.41H1.111a.941.941,0,0,1-.861-1,.941.941,0,0,1,.861-1h15.5a.941.941,0,0,1,.861,1A.941.941,0,0,1,16.611,8.41Z" transform="translate(0 -6.16)" fill="#0e2d4f"/>
      <path id="Trazado_2825" data-name="Trazado 2825" d="M16.641,8.66H1.081A1.175,1.175,0,0,1,0,7.41,1.175,1.175,0,0,1,1.081,6.16h15.56a1.175,1.175,0,0,1,1.081,1.25A1.175,1.175,0,0,1,16.641,8.66Zm-15.56-2a.71.71,0,0,0-.648.75.71.71,0,0,0,.648.75h15.56a.71.71,0,0,0,.648-.75.71.71,0,0,0-.648-.75Z" transform="translate(0 -6.16)" fill="#0e2d4f"/>
    </g>
  </g>
  <g id="Grupo_1745" data-name="Grupo 1745" transform="translate(0 12.53)">
    <g id="Grupo_1744" data-name="Grupo 1744">
      <path id="Trazado_2826" data-name="Trazado 2826" d="M16.611,14.78H1.111a1.011,1.011,0,0,1,0-2h15.5a1.011,1.011,0,0,1,0,2Z" transform="translate(0 -12.53)" fill="#0e2d4f"/>
      <path id="Trazado_2827" data-name="Trazado 2827" d="M16.641,15.03H1.081A1.175,1.175,0,0,1,0,13.78a1.175,1.175,0,0,1,1.081-1.25h15.56a1.175,1.175,0,0,1,1.081,1.25A1.175,1.175,0,0,1,16.641,15.03Zm-15.56-2a.758.758,0,0,0,0,1.5h15.56a.758.758,0,0,0,0-1.5Z" transform="translate(0 -12.53)" fill="#0e2d4f"/>
    </g>
  </g>
</svg>
