<svg xmlns="http://www.w3.org/2000/svg" width="132.91" height="60" viewBox="0 0 132.91 60">
  <g id="Grupo_279" data-name="Grupo 279" transform="translate(-164 -805)">
    <g id="Grupo_186" data-name="Grupo 186" transform="translate(164 805)">
      <g id="Grupo_185" data-name="Grupo 185" transform="translate(0 4.138)">
        <path id="Trazado_325" data-name="Trazado 325" d="M30.828,25H13.241c0,.207,0,.414-.207.414a5.091,5.091,0,0,1-4.966,3.724,2.069,2.069,0,1,0,0,4.138H32.9a10.638,10.638,0,0,1-2.069-6.207Z" transform="translate(6.414 22.586)" fill="#0e2d4f"/>
        <path id="Trazado_326" data-name="Trazado 326" d="M57.931,8.207A6.1,6.1,0,0,0,51.724,2H6.207A6.1,6.1,0,0,0,0,8.207V39.241a6.1,6.1,0,0,0,6.207,6.207H37.241v-26.9A10.244,10.244,0,0,1,47.586,8.207Z" transform="translate(0 -2)" fill="#0e2d4f"/>
      </g>
      <path id="Trazado_327" data-name="Trazado 327" d="M87.964,30.759H48.654V10.069a2.069,2.069,0,1,0-4.138,0v20.69H42.447a6.1,6.1,0,0,0-6.207,6.207V49.379a1.955,1.955,0,0,0,2.069,2.069H92.1a1.955,1.955,0,0,0,2.069-2.069V36.966A6.1,6.1,0,0,0,87.964,30.759ZM69.343,43.172H67.274a2.069,2.069,0,0,1,0-4.138h2.069a2.069,2.069,0,0,1,0,4.138Zm14.483,0H75.55a2.069,2.069,0,1,1,0-4.138h8.276a2.069,2.069,0,1,1,0,4.138Z" transform="translate(38.739 8.552)" fill="#0e2d4f"/>
      <path id="Trazado_328" data-name="Trazado 328" d="M55.768,18.621a20.674,20.674,0,0,1-6.207,14.69,2,2,0,0,0,0,2.9,2.235,2.235,0,0,0,1.448.621,1.878,1.878,0,0,0,1.448-.621,24.977,24.977,0,0,0,0-35.586,2,2,0,0,0-2.9,0,2,2,0,0,0,0,2.9A22.4,22.4,0,0,1,55.768,18.621Z" transform="translate(52.315 0)" fill="#c00"/>
      <path id="Trazado_329" data-name="Trazado 329" d="M50.485,15.414a12.032,12.032,0,0,1-3.724,8.9,2,2,0,0,0,0,2.9,2.235,2.235,0,0,0,1.448.621,1.878,1.878,0,0,0,1.448-.621,16.111,16.111,0,0,0,4.966-11.793A16.957,16.957,0,0,0,49.657,3.621a2,2,0,0,0-2.9,0,2,2,0,0,0,0,2.9A12.032,12.032,0,0,1,50.485,15.414Z" transform="translate(49.322 3.207)" fill="#c00"/>
      <path id="Trazado_330" data-name="Trazado 330" d="M43.861,18.421a2,2,0,0,0,2.9,0,8.5,8.5,0,0,0,2.69-6,8.5,8.5,0,0,0-2.69-6,2.048,2.048,0,1,0-2.9,2.9,3.723,3.723,0,0,1,1.448,3.1,4.211,4.211,0,0,1-1.241,3.1A2,2,0,0,0,43.861,18.421Z" transform="translate(46.222 6.2)" fill="#c00"/>
    </g>
    <rect id="Rectángulo_64" data-name="Rectángulo 64" width="60" height="32.4" rx="5" transform="translate(170.6 815.2)" fill="#fff"/>
    <path id="Trazado_426" data-name="Trazado 426" d="M38.621,7H26.207A6.1,6.1,0,0,0,20,13.207v33.1a6.1,6.1,0,0,0,6.207,6.207H38.621a6.1,6.1,0,0,0,6.207-6.207v-33.1A6.1,6.1,0,0,0,38.621,7ZM40.69,46.31a1.955,1.955,0,0,1-2.069,2.069H26.207a1.955,1.955,0,0,1-2.069-2.069v-33.1a1.955,1.955,0,0,1,2.069-2.069v.621a5.563,5.563,0,0,0,5.586,5.586h1.241a5.563,5.563,0,0,0,5.586-5.586v-.621a1.955,1.955,0,0,1,2.069,2.069S40.69,46.31,40.69,46.31Z" transform="translate(185.379 812.483)" fill="#c00"/>
    <path id="Trazado_427" data-name="Trazado 427" d="M33.345,23H25.069a2.069,2.069,0,1,0,0,4.138h8.276a2.069,2.069,0,1,0,0-4.138Z" transform="translate(188.586 829.586)" fill="#0e2d4f"/>
  </g>
</svg>
