<svg xmlns="http://www.w3.org/2000/svg" width="121.99" height="65" viewBox="0 0 121.99 65">
  <g id="Grupo_614" data-name="Grupo 614" transform="translate(-10363 -5132)">
    <g id="Grupo_470" data-name="Grupo 470" transform="translate(10363 5132)">
      <g id="Grupo_408" data-name="Grupo 408" transform="translate(71.47 0)">
        <g id="Grupo_403" data-name="Grupo 403">
          <path id="Trazado_619" data-name="Trazado 619" d="M64.253,65H30.007a8.131,8.131,0,0,1-8.137-8.137V8.137A8.147,8.147,0,0,1,30.007,0H64.253A8.131,8.131,0,0,1,72.39,8.137V56.863A8.163,8.163,0,0,1,64.253,65ZM30.007,2.458a5.7,5.7,0,0,0-5.679,5.679V56.863a5.7,5.7,0,0,0,5.679,5.679H64.253a5.7,5.7,0,0,0,5.679-5.679V8.137a5.7,5.7,0,0,0-5.679-5.679Z" transform="translate(-21.87)" fill="#0e2d4f"/>
        </g>
        <g id="Grupo_404" data-name="Grupo 404" transform="translate(1.229 24.879)">
          <rect id="Rect치ngulo_192" data-name="Rect치ngulo 192" width="48.062" height="2.458" fill="#0e2d4f"/>
        </g>
        <g id="Grupo_405" data-name="Grupo 405" transform="translate(24.019 26.108)">
          <rect id="Rect치ngulo_193" data-name="Rect치ngulo 193" width="2.458" height="37.663" fill="#0e2d4f"/>
        </g>
        <g id="Grupo_406" data-name="Grupo 406" transform="translate(14.775 36.409)">
          <path id="Trazado_620" data-name="Trazado 620" d="M30.338,31.429A2.466,2.466,0,0,1,27.88,28.97v-11.7a2.458,2.458,0,0,1,4.917,0v11.7A2.466,2.466,0,0,1,30.338,31.429Z" transform="translate(-27.88 -14.81)" fill="#c00"/>
        </g>
        <g id="Grupo_407" data-name="Grupo 407" transform="translate(30.681 36.409)">
          <path id="Trazado_621" data-name="Trazado 621" d="M36.808,31.429A2.466,2.466,0,0,1,34.35,28.97v-11.7a2.458,2.458,0,1,1,4.917,0v11.7A2.45,2.45,0,0,1,36.808,31.429Z" transform="translate(-34.35 -14.81)" fill="#c00"/>
        </g>
      </g>
      <g id="Grupo_469" data-name="Grupo 469" transform="translate(0 0)">
        <g id="Grupo_448" data-name="Grupo 448">
          <g id="Grupo_447" data-name="Grupo 447">
            <path id="Trazado_670" data-name="Trazado 670" d="M51.527,0H6.315A6.322,6.322,0,0,0,0,6.315V58.347a6.322,6.322,0,0,0,6.315,6.315H51.527a6.322,6.322,0,0,0,6.315-6.315V6.315A6.322,6.322,0,0,0,51.527,0Zm3.789,58.347a3.793,3.793,0,0,1-3.789,3.789H6.315a3.793,3.793,0,0,1-3.789-3.789V18.691H45.633a1.263,1.263,0,1,0,0-2.526H2.526V6.315A3.793,3.793,0,0,1,6.315,2.526H51.527a3.793,3.793,0,0,1,3.789,3.789Z" fill="#0e2d4f"/>
          </g>
        </g>
        <g id="Grupo_450" data-name="Grupo 450" transform="translate(49.422 16.165)">
          <g id="Grupo_449" data-name="Grupo 449">
            <path id="Trazado_671" data-name="Trazado 671" d="M393.487,128.37a1.265,1.265,0,1,0,.369.893A1.278,1.278,0,0,0,393.487,128.37Z" transform="translate(-391.33 -128)" fill="#0e2d4f"/>
          </g>
        </g>
        <g id="Grupo_452" data-name="Grupo 452" transform="translate(10.979 22.483)">
          <g id="Grupo_451" data-name="Grupo 451">
            <path id="Trazado_672" data-name="Trazado 672" d="M117.559,183.277A17.782,17.782,0,0,0,107.4,178.2a18.076,18.076,0,0,0-10.956,1.925,1.263,1.263,0,0,0,1.188,2.229,15.4,15.4,0,1,1-6.034,5.777,1.263,1.263,0,0,0-2.176-1.284,17.936,17.936,0,1,0,28.135-3.572Z" transform="translate(-86.937 -178.028)" fill="#c00"/>
          </g>
        </g>
        <g id="Grupo_454" data-name="Grupo 454" transform="translate(15.962 27.246)">
          <g id="Grupo_453" data-name="Grupo 453">
            <path id="Trazado_673" data-name="Trazado 673" d="M128.569,216.112a1.277,1.277,0,1,0-.921,2.177,1.279,1.279,0,0,0,.9-.375l.008-.008A1.255,1.255,0,0,0,128.569,216.112Z" transform="translate(-126.388 -215.737)" fill="#0e2d4f"/>
          </g>
        </g>
        <g id="Grupo_456" data-name="Grupo 456" transform="translate(16.039 27.532)">
          <g id="Grupo_455" data-name="Grupo 455">
            <path id="Trazado_674" data-name="Trazado 674" d="M139.882,218a12.882,12.882,0,1,0,12.882,12.882A12.9,12.9,0,0,0,139.882,218Zm0,2.526a10.367,10.367,0,0,1,10.324,9.591,3.971,3.971,0,0,1-5.549-.284,1.263,1.263,0,0,0-1.856,0,3.972,3.972,0,0,1-5.84,0,1.263,1.263,0,0,0-1.856,0,3.971,3.971,0,0,1-5.549.284A10.372,10.372,0,0,1,139.882,220.526Zm0,20.712a10.372,10.372,0,0,1-10.1-8.065,6.471,6.471,0,0,0,6.25-.8,6.489,6.489,0,0,0,7.7,0,6.471,6.471,0,0,0,6.25.8A10.376,10.376,0,0,1,139.882,241.238Z" transform="translate(-127 -218)" fill="#0e2d4f"/>
          </g>
        </g>
        <g id="Grupo_458" data-name="Grupo 458" transform="translate(44.202 4.736)">
          <g id="Grupo_457" data-name="Grupo 457">
            <path id="Trazado_675" data-name="Trazado 675" d="M354.294,37.5a4.294,4.294,0,1,0,4.294,4.294A4.3,4.3,0,0,0,354.294,37.5Zm0,6.062a1.768,1.768,0,1,1,1.768-1.768A1.77,1.77,0,0,1,354.294,43.562Z" transform="translate(-350 -37.5)" fill="#c00"/>
          </g>
        </g>
        <g id="Grupo_460" data-name="Grupo 460" transform="translate(35.739 5.746)">
          <g id="Grupo_459" data-name="Grupo 459">
            <path id="Trazado_676" data-name="Trazado 676" d="M286.274,45.5a3.284,3.284,0,1,0,3.284,3.284A3.287,3.287,0,0,0,286.274,45.5Zm0,4.041a.758.758,0,1,1,.758-.758A.758.758,0,0,1,286.274,49.541Z" transform="translate(-282.99 -45.5)" fill="#0e2d4f"/>
          </g>
        </g>
        <g id="Grupo_462" data-name="Grupo 462" transform="translate(6.82 5.873)">
          <g id="Grupo_461" data-name="Grupo 461">
            <path id="Trazado_677" data-name="Trazado 677" d="M55.263,46.5A1.263,1.263,0,0,0,54,47.763v3.789a1.263,1.263,0,0,0,2.526,0V47.763A1.263,1.263,0,0,0,55.263,46.5Z" transform="translate(-54 -46.5)" fill="#0e2d4f"/>
          </g>
        </g>
        <g id="Grupo_464" data-name="Grupo 464" transform="translate(11.913 5.873)">
          <g id="Grupo_463" data-name="Grupo 463">
            <path id="Trazado_678" data-name="Trazado 678" d="M95.593,46.5a1.263,1.263,0,0,0-1.263,1.263v3.789a1.263,1.263,0,0,0,2.526,0V47.763A1.263,1.263,0,0,0,95.593,46.5Z" transform="translate(-94.33 -46.5)" fill="#c00"/>
          </g>
        </g>
        <g id="Grupo_466" data-name="Grupo 466" transform="translate(17.008 5.873)">
          <g id="Grupo_465" data-name="Grupo 465">
            <path id="Trazado_679" data-name="Trazado 679" d="M135.933,46.5a1.263,1.263,0,0,0-1.263,1.263v3.789a1.263,1.263,0,1,0,2.526,0V47.763A1.263,1.263,0,0,0,135.933,46.5Z" transform="translate(-134.67 -46.5)" fill="#0e2d4f"/>
          </g>
        </g>
        <g id="Grupo_468" data-name="Grupo 468" transform="translate(22.101 5.873)">
          <g id="Grupo_467" data-name="Grupo 467">
            <path id="Trazado_680" data-name="Trazado 680" d="M176.263,46.5A1.263,1.263,0,0,0,175,47.763v3.789a1.263,1.263,0,0,0,2.526,0V47.763A1.263,1.263,0,0,0,176.263,46.5Z" transform="translate(-175 -46.5)" fill="#c00"/>
          </g>
        </g>
      </g>
    </g>
  </g>
</svg>
