<svg xmlns="http://www.w3.org/2000/svg" width="137.9" height="60" viewBox="0 0 137.9 60">
  <g id="Grupo_619" data-name="Grupo 619" transform="translate(-795 -1585)">
    <path id="Trazado_769" data-name="Trazado 769" d="M54.658,0H1.233A1.231,1.231,0,0,0,0,1.233v52.6a1.231,1.231,0,0,0,1.233,1.233H5.005a1.172,1.172,0,0,0-.074.411v3.288a1.233,1.233,0,0,0,2.466,0V55.479a1.172,1.172,0,0,0-.074-.411H48.567a1.172,1.172,0,0,0-.074.411v3.288a1.233,1.233,0,0,0,2.466,0V55.479a1.172,1.172,0,0,0-.074-.411h3.773a1.231,1.231,0,0,0,1.233-1.233V1.233A1.231,1.231,0,0,0,54.658,0ZM2.466,43.973v-3.7H6.773l2.022,7.4H2.466Zm6.575-4.792V39.1c1.175-1.389,4.364-5.26,7.866-10.332H39.452c3.666,5.088,7.06,9.041,8.219,10.381l-.953,3.592H9.995ZM29.589,26.3V18.082h3.025c1.447,2.622,3.164,5.384,5.1,8.219ZM24.658,15.616a51.8,51.8,0,0,0,3.288-8.433,49.45,49.45,0,0,0,3.37,8.433Zm-1.233,2.466h3.7V26.3H18.551C20.236,23.737,21.912,20.959,23.425,18.082ZM49.94,40.274h3.485v7.4h-5.5ZM53.425,2.466V37.808H49.808A135.2,135.2,0,0,1,41.1,26.819,100.893,100.893,0,0,1,34.66,16.685c-2.975-5.433-4.734-10.208-5.236-14.219Zm-27.049,0C24.658,16.6,8.688,35.7,6.9,37.808H2.466V2.466ZM2.466,52.6V50.137H10.4A1.231,1.231,0,0,0,11.63,48.9a1.428,1.428,0,0,0-.041-.321l-.9-3.378H46.027l-.9,3.378a1.234,1.234,0,0,0,.871,1.512,1.428,1.428,0,0,0,.321.041h7.11V52.6Z" transform="translate(795 1585)" fill="#0e2d4f"/>
    <g id="Grupo_618" data-name="Grupo 618" transform="translate(869 1601.432)">
      <g id="Outlined_1_">
        <g id="Maps_1_">
          <g id="Outlined-_x2F_-Maps-_x2F_-hotel_1_" transform="translate(0 0)">
            <g id="Grupo_617" data-name="Grupo 617" transform="translate(0 0)">
              <path id="_xD83D__xDD39_-Icon-Color_1_" d="M53.281,10.809H30.045V34.045H6.809V5H1V48.568H6.809V39.854H59.09v8.714H64.9V22.427A11.615,11.615,0,0,0,53.281,10.809ZM59.09,34.045H35.854V16.618H53.281a5.826,5.826,0,0,1,5.809,5.809Z" transform="translate(-1 -5)" fill="#0e2d4f" fill-rule="evenodd"/>
            </g>
          </g>
        </g>
      </g>
      <path id="Trazado_770" data-name="Trazado 770" d="M11.714,2.89A8.714,8.714,0,1,0,20.427,11.6,8.7,8.7,0,0,0,11.714,2.89Zm0,12.577A3.863,3.863,0,1,1,15.577,11.6,3.861,3.861,0,0,1,11.714,15.467Z" transform="translate(5.714 5.504)" fill="#c00" fill-rule="evenodd"/>
    </g>
  </g>
</svg>
