<svg xmlns="http://www.w3.org/2000/svg" width="140.452" height="60" viewBox="0 0 140.452 60">
  <g id="Grupo_620" data-name="Grupo 620" transform="translate(-458.298 -1577)">
    <g id="Grupo_615" data-name="Grupo 615" transform="translate(458.298 1577)">
      <path id="Trazado_763" data-name="Trazado 763" d="M1.277,9.106H7.66a1.29,1.29,0,0,1,1.06.562L16,20.6H31.915V5.277A1.28,1.28,0,0,1,33.191,4h6.383a1.3,1.3,0,0,1,1.149.7L48.664,20.6H66.906a6.13,6.13,0,0,1,4.379,1.813L73.9,25.026a3.612,3.612,0,0,0,1.851,1l.97.191a6.187,6.187,0,0,1-1.213,12.255H48.664l-7.94,15.894a1.3,1.3,0,0,1-1.149.7H33.191a1.28,1.28,0,0,1-1.277-1.277V38.468H26.809a1.234,1.234,0,0,1-.37-.051L.906,30.757A1.287,1.287,0,0,1,0,29.532v-7.66c0-.051.026,0,.038,0H0V10.383A1.28,1.28,0,0,1,1.277,9.106ZM2.553,20.6h3.83l-3.83-5.106Zm4.43-8.936H2.872l6.7,8.936h3.357Zm31.8-5.106H34.468V20.6H45.8ZM34.468,52.511h4.315l7.94-15.894L49,32.085H34.468V52.511ZM2.553,28.587,27,35.915h4.915V30.809a1.28,1.28,0,0,1,1.277-1.277H51.064a1.275,1.275,0,0,1,1.085.6A1.259,1.259,0,0,1,52.2,31.37l-2.26,4.545h25.57a3.635,3.635,0,0,0,.715-7.2l-.983-.191a6.208,6.208,0,0,1-3.166-1.7L69.46,24.209a3.592,3.592,0,0,0-2.553-1.06H2.553Z" transform="translate(0 1.106)" fill="#0e2d4f"/>
      <rect id="Rectángulo_267" data-name="Rectángulo 267" width="2.553" height="2.553" transform="translate(62.553 26.809)" fill="#0e2d4f"/>
      <rect id="Rectángulo_268" data-name="Rectángulo 268" width="2.553" height="2.553" transform="translate(57.447 26.809)" fill="#0e2d4f"/>
      <rect id="Rectángulo_269" data-name="Rectángulo 269" width="2.553" height="2.553" transform="translate(52.34 26.809)" fill="#0e2d4f"/>
      <rect id="Rectángulo_270" data-name="Rectángulo 270" width="2.553" height="2.553" transform="translate(47.234 26.809)" fill="#0e2d4f"/>
      <rect id="Rectángulo_271" data-name="Rectángulo 271" width="2.553" height="2.553" transform="translate(42.128 26.809)" fill="#0e2d4f"/>
      <rect id="Rectángulo_272" data-name="Rectángulo 272" width="2.553" height="2.553" transform="translate(37.021 26.809)" fill="#0e2d4f"/>
      <rect id="Rectángulo_273" data-name="Rectángulo 273" width="2.553" height="2.553" transform="translate(31.915 26.809)" fill="#0e2d4f"/>
      <rect id="Rectángulo_274" data-name="Rectángulo 274" width="2.553" height="2.553" transform="translate(26.809 26.809)" fill="#0e2d4f"/>
      <rect id="Rectángulo_275" data-name="Rectángulo 275" width="2.553" height="2.553" transform="translate(21.702 26.809)" fill="#0e2d4f"/>
      <rect id="Rectángulo_276" data-name="Rectángulo 276" width="2.553" height="2.553" transform="translate(16.596 26.809)" fill="#0e2d4f"/>
      <rect id="Rectángulo_277" data-name="Rectángulo 277" width="19.149" height="2.553" transform="translate(42.128)" fill="#c00"/>
      <rect id="Rectángulo_278" data-name="Rectángulo 278" width="2.553" height="2.553" transform="translate(37.021)" fill="#0e2d4f"/>
      <rect id="Rectángulo_279" data-name="Rectángulo 279" width="2.553" height="2.553" transform="translate(31.915)" fill="#0e2d4f"/>
      <rect id="Rectángulo_280" data-name="Rectángulo 280" width="16.596" height="2.553" transform="translate(10.213 43.404)" fill="#c00"/>
      <rect id="Rectángulo_281" data-name="Rectángulo 281" width="2.553" height="2.553" transform="translate(5.106 43.404)" fill="#0e2d4f"/>
      <rect id="Rectángulo_282" data-name="Rectángulo 282" width="2.553" height="2.553" transform="translate(0 43.404)" fill="#0e2d4f"/>
      <rect id="Rectángulo_283" data-name="Rectángulo 283" width="16.596" height="2.553" transform="translate(58.723 57.447)" fill="#c00"/>
      <rect id="Rectángulo_284" data-name="Rectángulo 284" width="2.553" height="2.553" transform="translate(53.617 57.447)" fill="#0e2d4f"/>
      <rect id="Rectángulo_285" data-name="Rectángulo 285" width="2.553" height="2.553" transform="translate(48.511 57.447)" fill="#0e2d4f"/>
      <rect id="Rectángulo_286" data-name="Rectángulo 286" width="2.553" height="2.553" transform="translate(26.809)" fill="#0e2d4f"/>
    </g>
    <g id="Grupo_616" data-name="Grupo 616" transform="translate(550 1577)">
      <path id="Trazado_764" data-name="Trazado 764" d="M15.938,60H32.813A15.96,15.96,0,0,0,48.75,44.063V15.938A15.96,15.96,0,0,0,32.813,0H15.938A15.96,15.96,0,0,0,0,15.938V44.063A15.96,15.96,0,0,0,15.938,60ZM1.875,15.938A14.08,14.08,0,0,1,15.938,1.875H32.813A14.08,14.08,0,0,1,46.875,15.938V44.063A14.08,14.08,0,0,1,32.813,58.125H15.938A14.08,14.08,0,0,1,1.875,44.063Z" fill="#c00"/>
      <path id="Trazado_765" data-name="Trazado 765" d="M16.188,56.5H33.063A12.2,12.2,0,0,0,45.25,44.313V16.188A12.2,12.2,0,0,0,33.063,4H16.188A12.2,12.2,0,0,0,4,16.188V44.313A12.2,12.2,0,0,0,16.188,56.5Zm0-50.625H33.063A10.309,10.309,0,0,1,41.7,10.563H7.553A10.309,10.309,0,0,1,16.188,5.875ZM5.875,16.188a10.38,10.38,0,0,1,.713-3.75H42.653a10.184,10.184,0,0,1,.712,3.75v9.881a5.516,5.516,0,0,0-5.147-1.256A7.493,7.493,0,0,0,25.563,30.25a.94.94,0,0,0,.938.938H43.375V44.313A10.331,10.331,0,0,1,33.063,54.625H16.188A10.325,10.325,0,0,1,5.875,44.313ZM43.253,29.313H27.513a5.62,5.62,0,0,1,9.741-2.8.935.935,0,0,0,1.031.253A3.728,3.728,0,0,1,43.253,29.313Z" transform="translate(-0.25 -0.25)" fill="#0e2d4f"/>
      <rect id="Rectángulo_287" data-name="Rectángulo 287" width="7.5" height="1.875" transform="translate(20.625 7.5)" fill="#0e2d4f"/>
      <path id="Trazado_766" data-name="Trazado 766" d="M19.725,40.9A6.557,6.557,0,0,0,21.563,53.75H35.625a5.624,5.624,0,0,0,.544-11.222,4.675,4.675,0,0,0-3.619-2.794A6.559,6.559,0,0,0,19.725,40.9Zm11.137-.113a.945.945,0,0,0,.928.787.622.622,0,0,0,.122-.009,2.8,2.8,0,0,1,2.672,2.119.935.935,0,0,0,.909.7c.028,0,.1-.009.169-.009a3.75,3.75,0,0,1-.038,7.5H21.563a4.682,4.682,0,0,1-.778-9.3,1.038,1.038,0,0,0,.778-1.013,4.682,4.682,0,0,1,9.3-.778Z" transform="translate(-0.938 -2.188)" fill="#0e2d4f"/>
      <path id="Trazado_767" data-name="Trazado 767" d="M25,44.875a2.821,2.821,0,0,1,2.813,2.813h1.875A4.689,4.689,0,0,0,25,43Z" transform="translate(-1.563 -2.688)" fill="#0e2d4f"/>
      <path id="Trazado_768" data-name="Trazado 768" d="M8.938,23.438H26.75a.94.94,0,0,0,.938-.937,5.595,5.595,0,0,0-7.031-5.437A7.493,7.493,0,0,0,8,22.5.94.94,0,0,0,8.938,23.438ZM15.5,16.875a5.619,5.619,0,0,1,4.191,1.884.935.935,0,0,0,1.031.253,3.747,3.747,0,0,1,4.969,2.55H9.95A5.641,5.641,0,0,1,15.5,16.875Z" transform="translate(-0.5 -0.938)" fill="#0e2d4f"/>
      <rect id="Rectángulo_288" data-name="Rectángulo 288" width="1.875" height="1.875" transform="translate(7.5 25.313)" fill="#0e2d4f"/>
      <rect id="Rectángulo_289" data-name="Rectángulo 289" width="1.875" height="1.875" transform="translate(11.25 25.313)" fill="#0e2d4f"/>
      <rect id="Rectángulo_290" data-name="Rectángulo 290" width="1.875" height="1.875" transform="translate(15 25.313)" fill="#0e2d4f"/>
      <rect id="Rectángulo_291" data-name="Rectángulo 291" width="1.875" height="1.875" transform="translate(11.25 29.063)" fill="#0e2d4f"/>
      <rect id="Rectángulo_292" data-name="Rectángulo 292" width="1.875" height="1.875" transform="translate(15 29.063)" fill="#0e2d4f"/>
      <rect id="Rectángulo_293" data-name="Rectángulo 293" width="1.875" height="1.875" transform="translate(18.75 29.063)" fill="#0e2d4f"/>
    </g>
  </g>
</svg>
