<svg xmlns="http://www.w3.org/2000/svg" width="130.342" height="60" viewBox="0 0 130.342 60">
  <g id="Grupo_270" data-name="Grupo 270" transform="translate(-0.25 -0.25)">
    <g id="XMLID_4_" transform="translate(0.25 0.25)">
      <g id="Grupo_202" data-name="Grupo 202">
        <path id="Trazado_345" data-name="Trazado 345" d="M16.929,25.344H51.117a1.411,1.411,0,0,0,1.424-1.424V15.372a7.122,7.122,0,1,1,7.122,7.122H58.24v2.849h1.368a8.7,8.7,0,0,0,1.481-.142v7.265A4.516,4.516,0,0,1,56.53,36.74H10.947a4.043,4.043,0,0,1-3.989-4.1V25.2a8.049,8.049,0,0,0,1.424.142H9.807V22.495H8.382A7.122,7.122,0,1,1,15.5,15.372v8.547A1.411,1.411,0,0,0,16.929,25.344Z" transform="translate(1.618 14.542)" fill="#c00"/>
        <path id="Trazado_346" data-name="Trazado 346" d="M52.985,40.136H18.8a1.411,1.411,0,0,1-1.424-1.424V30.165a7.122,7.122,0,1,0-7.122,7.122h1.424v2.849H10.25a8.049,8.049,0,0,1-1.424-.142v7.436a4.044,4.044,0,0,0,3.989,4.1H58.4a4.516,4.516,0,0,0,4.558-4.273V39.994a8.7,8.7,0,0,1-1.481.142H60.108V37.287h1.424a7.122,7.122,0,1,0-7.122-7.122v8.547A1.411,1.411,0,0,1,52.985,40.136ZM52.7.25a7.348,7.348,0,0,1,7.407,7.094V20.336a8.049,8.049,0,0,1,1.424-.142A9.933,9.933,0,0,1,65.806,39.11v8.148a7.319,7.319,0,0,1-5.7,6.895v5.926H57.259v-5.7H14.524v5.7H11.675v-5.7a6.936,6.936,0,0,1-5.7-7.122v-8.12A9.942,9.942,0,0,1,10.25,20.193a8.048,8.048,0,0,1,1.424.142V7.2A6.882,6.882,0,0,1,18.512.25Zm4.558,7.094A4.532,4.532,0,0,0,52.7,3.1H18.341a4.066,4.066,0,0,0-3.818,4.273V21.19a9.935,9.935,0,0,1,5.7,8.974v7.122H51.561V30.165a9.935,9.935,0,0,1,5.7-8.974Z" transform="translate(-0.25 -0.25)" fill="#0e2d4f"/>
      </g>
    </g>
    <g id="Grupo_204" data-name="Grupo 204" transform="translate(78.484 0.25)">
      <g id="XMLID_3_">
        <g id="Grupo_203" data-name="Grupo 203">
          <path id="Trazado_347" data-name="Trazado 347" d="M69.562,18.556H39.391v4.5H69.562ZM55.744,16.02h22.82a1.268,1.268,0,0,1,0,2.536H72.1V29.838a1.271,1.271,0,0,1-1.282,1.254,1.246,1.246,0,0,1-1.254-1.254V25.593H39.391v4.245a1.246,1.246,0,0,1-1.254,1.254,1.271,1.271,0,0,1-1.282-1.254V18.556H28.992a1.268,1.268,0,1,1,0-2.536H55.744Z" transform="translate(-27.71 28.909)" fill="#0e2d4f"/>
          <path id="Trazado_348" data-name="Trazado 348" d="M34.6,24.21H63.916A1.561,1.561,0,0,0,65.4,22.244L58.617,3.982a.1.1,0,0,0-.028-.085,1.53,1.53,0,0,0-1.481-1.111H40.327a1.551,1.551,0,0,0-1.51,1.2c0,.028-.028.057-.028.085L33.09,22.33a1.6,1.6,0,0,0,.313,1.282A1.54,1.54,0,0,0,34.6,24.21Zm21,2.536v2.536a1.268,1.268,0,0,1-2.536,0V26.746H50.526V45.179H47.991V26.746H34.6A4.1,4.1,0,0,1,30.64,21.7v-.085L36.367,3.355A4.058,4.058,0,0,1,40.327.25H57.107a4.069,4.069,0,0,1,3.9,2.877l6.781,18.291a.1.1,0,0,1,.028.085,4.043,4.043,0,0,1-.627,3.59,4.171,4.171,0,0,1-3.276,1.652Z" transform="translate(-22.492 -0.25)" fill="#c00"/>
        </g>
      </g>
    </g>
    <path id="Trazado_349" data-name="Trazado 349" d="M10.363,13.3a3.932,3.932,0,1,0-3.932,3.932A3.939,3.939,0,0,0,10.363,13.3Z" transform="translate(4.16 16.863)" fill="#fff"/>
    <path id="Trazado_350" data-name="Trazado 350" d="M28.123,13.3a3.932,3.932,0,1,0-3.932,3.932A3.939,3.939,0,0,0,28.123,13.3Z" transform="translate(36.999 16.863)" fill="#fff"/>
  </g>
</svg>
