<svg xmlns="http://www.w3.org/2000/svg" width="132.251" height="60" viewBox="0 0 113.251 60">
  <g id="Grupo_278" data-name="Grupo 278" transform="translate(0 -0.25)">
    <rect id="Rectángulo_51" data-name="Rectángulo 51" width="9.206" height="2.481" transform="translate(72.85 49.864) rotate(-53.933)" fill="#c00"/>
    <rect id="Rectángulo_52" data-name="Rectángulo 52" width="2.481" height="9.206" transform="translate(86.75 43.878) rotate(-36.067)" fill="#c00"/>
    <path id="Trazado_351" data-name="Trazado 351" d="M36.351,4.584a12,12,0,0,1-4.541-.72,12.672,12.672,0,0,1,4.541-.695,12.672,12.672,0,0,1,4.541.695,12,12,0,0,1-4.541.72" transform="translate(47.123 4.326)" fill="#c00" fill-rule="evenodd"/>
    <g id="XMLID_4_" transform="translate(53.697 0.25)">
      <g id="Grupo_206" data-name="Grupo 206">
        <path id="Trazado_352" data-name="Trazado 352" d="M71.516,14.841l9.677,39.876-9.429,2.308L66.4,41.913,66.355,59.8H36.528l.025-17.891L31.119,56.975,21.64,54.717l9.727-39.876,8.561-3.424A7.085,7.085,0,0,1,38.712,6.85c.273-2.407,3.151-6.576,12.73-6.6.422,0,12.184.025,12.73,6.774A7.115,7.115,0,0,1,63,11.441Zm6.675,38.065L69.407,16.677,58.638,12.384c2.953-2.233,3.151-4,3.077-5.161-.223-2.779-4.243-3.9-7.37-4.293a24.9,24.9,0,0,0-2.928-.2c-2.407,0-9.777.4-10.248,4.417-.124,1.166.323,3,2.928,5.31l-10.62,4.218-8.834,36.2,4.888,1.166,7.122-19.677,2.407.422-.05,22.531H50.2V11.367c-3.1-.174-6.228-1.067-6.228-3.151,0-2.357,4.02-3.176,7.444-3.176a18.732,18.732,0,0,1,2.63.174c2.556.323,4.814,1.241,4.814,3,0,2.06-3.1,2.953-6.179,3.151V57.322H63.873l.05-22.531,2.407-.422,7.022,19.7Z" transform="translate(-21.64 -0.25)" fill="#c00"/>
        <path id="Trazado_353" data-name="Trazado 353" d="M50.875,15.077l8.784,36.228L54.82,52.471,47.8,32.769l-2.407.422-.05,22.531H34.15V9.767c3.077-.2,6.179-1.092,6.179-3.151,0-1.762-2.258-2.68-4.814-3l.3-2.283c3.127.4,7.146,1.514,7.37,4.293.074,1.166-.124,2.928-3.077,5.161Z" transform="translate(-3.108 1.35)" fill="#fff"/>
        <path id="Trazado_354" data-name="Trazado 354" d="M52.552,1.449l-.3,2.283a18.732,18.732,0,0,0-2.63-.174c-3.424,0-7.444.819-7.444,3.176,0,2.084,3.127,2.978,6.228,3.151V55.841H37.217l.05-22.531-2.407-.422L27.738,52.565,22.85,51.4l8.834-36.2L42.3,10.977c-2.605-2.308-3.052-4.144-2.928-5.31.471-4.02,7.841-4.417,10.248-4.417A24.9,24.9,0,0,1,52.552,1.449Z" transform="translate(-19.848 1.231)" fill="#fff"/>
      </g>
    </g>
    <g id="Grupo_208" data-name="Grupo 208" transform="translate(0 0.672)">
      <g id="XMLID_3_">
        <g id="Grupo_207" data-name="Grupo 207">
          <path id="Trazado_355" data-name="Trazado 355" d="M35.534,11.43,49.628,39.445l-1.241.5c-.372.149-9.4,3.747-23.623,3.747-14.243,0-23.127-3.524-23.5-3.672L0,39.495,14.417,11.43H17.2L3.5,38.155a62.254,62.254,0,0,0,10.769,2.357L18.734,28.8l-1.315,12.06c2.233.223,4.69.347,7.345.347,2.754,0,5.285-.149,7.618-.372L31.067,28.8l4.442,11.663a60.42,60.42,0,0,0,10.67-2.382L32.754,11.43Z" transform="translate(0 15.89)" fill="#0e2d4f"/>
          <path id="Trazado_356" data-name="Trazado 356" d="M46.5,11.586,41.763,19.1l-5.409-1.787-2.481,9.5.447.918H13.2l.447-.918-2.68-9.5L5.535,19.1.82,11.586,14.046.42C24.195,5.408,31.019,1.487,33.2.42ZM40.7,16.152l2.531-4.045L32.9,3.4c-.546,1.737-2.953,8.213-9.256,8.213-5.955,0-8.66-5.955-9.429-8.089L4.071,12.107,6.6,16.152l6.055-2.01,3.127,11.117H31.713l2.9-11.117ZM29.8,4.465a18.81,18.81,0,0,1-12.457-.05c1.067,2.06,3.077,4.715,6.3,4.715C26.949,9.13,28.86,6.45,29.8,4.465Z" transform="translate(1.215 -0.42)" fill="#0e2d4f"/>
          <path id="Trazado_357" data-name="Trazado 357" d="M30.666,11.43,44.09,38.08a60.42,60.42,0,0,1-10.67,2.382L28.978,28.8l1.315,12.035c-2.333.223-4.864.372-7.618.372-2.655,0-5.112-.124-7.345-.347L16.646,28.8,12.179,40.512A62.254,62.254,0,0,1,1.41,38.155l13.7-26.725H30.666Z" transform="translate(2.089 15.89)" fill="#c00"/>
        </g>
      </g>
    </g>
    <g id="Grupo_209" data-name="Grupo 209" transform="translate(86.537 45.919)">
      <rect id="Rectángulo_53" data-name="Rectángulo 53" width="8.834" height="2.481" transform="translate(0 5.57) rotate(-39.087)" fill="#0e2d4f"/>
    </g>
    <g id="Grupo_210" data-name="Grupo 210" transform="translate(72.355 45.899)">
      <rect id="Rectángulo_54" data-name="Rectángulo 54" width="2.481" height="8.834" transform="translate(0 1.926) rotate(-50.926)" fill="#0e2d4f"/>
    </g>
    <ellipse id="Elipse_9" data-name="Elipse 9" cx="3.945" cy="1.191" rx="3.945" ry="1.191" transform="translate(79.529 7.024)" fill="#0e2d4f"/>
  </g>
</svg>
