<svg xmlns="http://www.w3.org/2000/svg" width="177.244" height="60" viewBox="0 0 177.244 60">
  <g id="Grupo_608" data-name="Grupo 608" transform="translate(-10438 -4551)">
    <circle id="Elipse_10" data-name="Elipse 10" cx="18.089" cy="18.089" r="18.089" transform="translate(10494.951 4574.822)" fill="#0e2d4f"/>
    <circle id="Elipse_11" data-name="Elipse 11" cx="18.089" cy="18.089" r="18.089" transform="translate(10438 4574.822)" fill="#0e2d4f"/>
    <g id="Grupo_212" data-name="Grupo 212" transform="translate(10496.791 4551)">
      <path id="Trazado_358" data-name="Trazado 358" d="M45.871,43.92a2.009,2.009,0,0,1-1.373-.545l-3.977-3.694a2,2,0,0,1-.565-.929L29.7,2.574A2.065,2.065,0,0,1,30.023.8,2.017,2.017,0,0,1,31.638-.01H47.3a6.386,6.386,0,0,1,6.3,6.3,6.386,6.386,0,0,1-6.3,6.3H45.871a2.019,2.019,0,1,1,0-4.038H47.3a2.384,2.384,0,0,0,2.261-2.261A2.365,2.365,0,0,0,47.3,4.048H34.323L43.691,37.1l3.573,3.311a2.038,2.038,0,0,1-1.393,3.513Z" transform="translate(-29.621 0.01)" fill="#c00"/>
    </g>
    <g id="Grupo_213" data-name="Grupo 213" transform="translate(10454.07 4565.273)">
      <path id="Trazado_359" data-name="Trazado 359" d="M36.1,36.717H10.479a2.014,2.014,0,0,1-1.7-.929,2.082,2.082,0,0,1-.162-1.918L20.008,8.251A2.015,2.015,0,0,1,21.845,7.06H56.024a2.043,2.043,0,0,1,1.817,1.131,2.018,2.018,0,0,1-.222,2.12L37.693,35.95A2.093,2.093,0,0,1,36.1,36.717Zm-22.51-4.038H35.129L51.926,11.1H23.177Z" transform="translate(-8.46 -7.06)" fill="#c00"/>
    </g>
    <g id="Grupo_214" data-name="Grupo 214" transform="translate(10456.916 4553.867)">
      <path id="Trazado_360" data-name="Trazado 360" d="M34.682,42.473a2.014,2.014,0,0,1-1.777-1.05L19.8,17.2a13.058,13.058,0,0,1-.384-11.75h-7.53a2.019,2.019,0,1,1,0-4.038H23.275a2.02,2.02,0,0,1,1.413,3.452A8.686,8.686,0,0,0,23.336,15.3l13.1,24.186a2.044,2.044,0,0,1-.808,2.746A2.009,2.009,0,0,1,34.682,42.473Z" transform="translate(-9.87 -1.41)" fill="#c00"/>
    </g>
    <g id="Grupo_218" data-name="Grupo 218" transform="translate(10542.354 4554.674)">
      <g id="Grupo_215" data-name="Grupo 215" transform="translate(42.133)">
        <path id="Trazado_361" data-name="Trazado 361" d="M84.79,25.269a11.73,11.73,0,1,1,11.73-11.73A11.752,11.752,0,0,1,84.79,25.269Zm0-19.421a7.692,7.692,0,1,0,7.692,7.692A7.7,7.7,0,0,0,84.79,5.848Z" transform="translate(-73.06 -1.81)" fill="#c00"/>
      </g>
      <g id="Grupo_216" data-name="Grupo 216" transform="translate(0 3.573)">
        <path id="Trazado_362" data-name="Trazado 362" d="M93.92,45.33a2.068,2.068,0,0,1-1.433-.585,2.011,2.011,0,0,1,0-2.847l2.423-2.423a8.309,8.309,0,0,0,2.5-6.077,7.8,7.8,0,0,0-2.463-5.592L76.7,9.556a6.642,6.642,0,0,0-9.287,0l-10.68,10.68a1.792,1.792,0,0,0,0,2.483,1.953,1.953,0,0,0,2.423.162l11.77-7.934a2.019,2.019,0,0,1,2.564.242l7.288,7.288a2,2,0,0,1,.585,1.433,2.085,2.085,0,0,1-.585,1.433l-8.5,8.5A2.013,2.013,0,0,1,69.431,31L76.5,23.93l-4.684-4.684L61.3,26.332a6.034,6.034,0,0,1-7.409-.727,5.8,5.8,0,0,1,0-8.2l10.68-10.68a10.481,10.481,0,0,1,14.98,0l18.21,18.21a11.782,11.782,0,0,1,3.694,8.439,12.255,12.255,0,0,1-3.694,8.984l-2.423,2.423A2.17,2.17,0,0,1,93.92,45.33Z" transform="translate(-52.19 -3.58)" fill="#c00"/>
      </g>
      <g id="Grupo_217" data-name="Grupo 217" transform="translate(0.859 30.398)">
        <path id="Trazado_363" data-name="Trazado 363" d="M107.356,35.406a29.909,29.909,0,0,1-20.088-7.773,26.045,26.045,0,0,0-25.68-5.411l-6.3,2.18a2.017,2.017,0,0,1-1.312-3.816l6.319-2.18a30.137,30.137,0,0,1,29.7,6.238,25.956,25.956,0,0,0,25.7,5.411l6.279-2.18a2.017,2.017,0,0,1,1.312,3.816l-6.319,2.18A31.233,31.233,0,0,1,107.356,35.406Z" transform="translate(-52.615 -16.867)" fill="#0e2d4f"/>
      </g>
    </g>
  </g>
</svg>
