<svg xmlns="http://www.w3.org/2000/svg" width="147.448" height="60" viewBox="0 0 147.448 60">
  <g id="Grupo_609" data-name="Grupo 609" transform="translate(-10815 -4551.098)">
    <g id="Grupo_187" data-name="Grupo 187" transform="translate(10934.592 4576.813)">
      <path id="Trazado_331" data-name="Trazado 331" d="M43.843,47.186A2.149,2.149,0,0,1,41.7,45.043V40.757a2.149,2.149,0,0,1,2.143-2.143h6.429a2.149,2.149,0,0,1,2.143,2.143,3.2,3.2,0,0,1-.043.45,20.6,20.6,0,0,0,12.9-18.879V15.043a2.143,2.143,0,0,1,4.286,0v7.286C69.557,36.021,58.029,47.186,43.843,47.186Z" transform="translate(-41.7 -12.9)" fill="#c00"/>
    </g>
    <g id="Grupo_258" data-name="Grupo 258" transform="translate(10815 4563.689)">
      <g id="Grupo_189" data-name="Grupo 189" transform="translate(0 0)">
        <g id="XMLID_2_" transform="translate(0 0)">
          <g id="Grupo_188" data-name="Grupo 188">
            <path id="Unión_1" data-name="Unión 1" d="M43.673,28.389c-.06-.274-.363-1-1.064-1s-1,.729-1.065.974A22.032,22.032,0,0,1,21.309,42.6a21.31,21.31,0,0,1-21.3-22C.345,9.251,10.326,0,22.223,0H63.907A21.093,21.093,0,0,1,84.873,24.13,21.466,21.466,0,0,1,67.1,42.567a23.366,23.366,0,0,1-2.921.183A21.655,21.655,0,0,1,43.673,28.389Zm20.433,8.3h0Zm.011,0a15.948,15.948,0,0,0,1.909-.117A15.948,15.948,0,0,1,64.116,36.688Zm2.134-.146q.229-.036.456-.078Q66.479,36.507,66.25,36.543Zm-44.941-.029A15.892,15.892,0,0,0,35.824,26.29a7.109,7.109,0,0,1,6.785-4.99,7.109,7.109,0,0,0-6.785,4.99A15.894,15.894,0,0,1,21.309,36.514q-.732,0-1.452-.067Q20.576,36.513,21.309,36.514ZM49.7,27.071l-.013-.033Zm-.246-.66c-.008-.024-.016-.048-.025-.073C49.438,26.363,49.446,26.387,49.455,26.411Zm29.392-3.042A16.744,16.744,0,0,0,79,21.158,16.744,16.744,0,0,1,78.847,23.369ZM6.142,22.538q-.051-.627-.052-1.264Q6.091,21.91,6.142,22.538Z" fill="#0e2d4f"/>
          </g>
        </g>
      </g>
      <g id="Grupo_190" data-name="Grupo 190" transform="translate(18.267 12.171)">
        <path id="Trazado_334" data-name="Trazado 334" d="M9.293,37.256A3.052,3.052,0,0,1,6.25,34.213V22.043a3.043,3.043,0,1,1,6.085,0V34.213A3.052,3.052,0,0,1,9.293,37.256Z" transform="translate(-6.25 -19)" fill="#fff"/>
      </g>
      <g id="Grupo_191" data-name="Grupo 191" transform="translate(12.181 18.256)">
        <path id="Trazado_335" data-name="Trazado 335" d="M19.463,27.085H7.293a3.043,3.043,0,1,1,0-6.085H19.463a3.043,3.043,0,1,1,0,6.085Z" transform="translate(-4.25 -21)" fill="#fff"/>
      </g>
      <g id="Grupo_194" data-name="Grupo 194" transform="translate(60.865 12.209)">
        <path id="Trazado_338" data-name="Trazado 338" d="M23.293,25.06a3.013,3.013,0,0,1-3.043-3.043,3.043,3.043,0,0,1,5.2-2.16,3.2,3.2,0,0,1,.882,2.16,3.013,3.013,0,0,1-3.043,3.043Z" transform="translate(-20.25 -19.013)" fill="#fff"/>
      </g>
      <g id="Grupo_195" data-name="Grupo 195" transform="translate(60.865 24.38)">
        <path id="Trazado_339" data-name="Trazado 339" d="M23.293,29.06a3.029,3.029,0,0,1-1.156-.243,3.141,3.141,0,0,1-1-.639,3.012,3.012,0,0,1-.639-3.317,2.981,2.981,0,0,1,4.929-1,3.094,3.094,0,0,1,.913,2.16,3.065,3.065,0,0,1-3.043,3.043Z" transform="translate(-20.25 -23.013)" fill="#fff"/>
      </g>
      <g id="Grupo_196" data-name="Grupo 196" transform="translate(54.779 18.294)">
        <path id="Trazado_340" data-name="Trazado 340" d="M21.293,27.06a3.013,3.013,0,0,1-3.043-3.043,3.043,3.043,0,0,1,5.2-2.16,3.2,3.2,0,0,1,.882,2.16,3.013,3.013,0,0,1-3.043,3.043Z" transform="translate(-18.25 -21.013)" fill="#fff"/>
      </g>
      <g id="Grupo_197" data-name="Grupo 197" transform="translate(66.95 18.272)">
        <path id="Trazado_341" data-name="Trazado 341" d="M25.293,27.075a3.065,3.065,0,0,1-3.043-3.043,2.551,2.551,0,0,1,.243-1.156,2.743,2.743,0,0,1,1.643-1.643,3.043,3.043,0,0,1,2.312,0,3.513,3.513,0,0,1,1,.639,3.141,3.141,0,0,1,.639,1,3.029,3.029,0,0,1,.243,1.156,3.065,3.065,0,0,1-3.043,3.043Z" transform="translate(-22.25 -21.005)" fill="#fff"/>
      </g>
    </g>
    <g id="Grupo_198" data-name="Grupo 198" transform="translate(10911.021 4551.098)">
      <path id="Trazado_342" data-name="Trazado 342" d="M79.986,36.043A2.149,2.149,0,0,1,77.843,33.9V26.4a21.43,21.43,0,0,0-42.857,0v7.5a2.143,2.143,0,0,1-4.286,0V26.4a25.715,25.715,0,0,1,51.428,0v7.5A2.135,2.135,0,0,1,79.986,36.043Z" transform="translate(-30.7 -0.9)" fill="#0e2d4f"/>
    </g>
    <g id="Grupo_199" data-name="Grupo 199" transform="translate(10911.021 4574.669)">
      <path id="Trazado_343" data-name="Trazado 343" d="M41.414,33.329a10.714,10.714,0,1,1,0-21.429,2.149,2.149,0,0,1,2.143,2.143V31.186A2.135,2.135,0,0,1,41.414,33.329ZM39.271,16.55a6.433,6.433,0,0,0,0,12.129Z" transform="translate(-30.7 -11.9)" fill="#0e2d4f"/>
    </g>
    <g id="Grupo_200" data-name="Grupo 200" transform="translate(10949.592 4574.669)">
      <path id="Trazado_344" data-name="Trazado 344" d="M50.843,33.329A2.149,2.149,0,0,1,48.7,31.186V14.043A2.149,2.149,0,0,1,50.843,11.9a10.714,10.714,0,1,1,0,21.429ZM52.986,16.55V28.679a6.433,6.433,0,0,0,0-12.129Z" transform="translate(-48.7 -11.9)" fill="#0e2d4f"/>
    </g>
  </g>
</svg>
