<svg xmlns="http://www.w3.org/2000/svg" width="115.172" height="60" viewBox="0 0 115.172 60">
  <g id="Grupo_610" data-name="Grupo 610" transform="translate(-11184 -4548)">
    <g id="Grupo_220" data-name="Grupo 220" transform="translate(11228.719 4562.299)">
      <path id="Trazado_364" data-name="Trazado 364" d="M23.906,19.141A2.052,2.052,0,0,1,21.86,17.1v-4.03A6.315,6.315,0,0,1,28.386,6.99a2.046,2.046,0,0,1,0,4.091,2.247,2.247,0,0,0-2.434,1.984V17.1A2.052,2.052,0,0,1,23.906,19.141Z" transform="translate(-21.86 -6.99)" fill="#0e2d4f"/>
    </g>
    <g id="Grupo_221" data-name="Grupo 221" transform="translate(11264.934 4590.249)">
      <path id="Trazado_365" data-name="Trazado 365" d="M45.387,26.13a7.949,7.949,0,0,1-5.073-1.841,2.05,2.05,0,1,1,2.6-3.171,3.931,3.931,0,0,0,4.644.266,2.046,2.046,0,0,1,2.189,3.457A8.121,8.121,0,0,1,45.387,26.13Z" transform="translate(-39.563 -20.653)" fill="#c00"/>
    </g>
    <g id="Grupo_222" data-name="Grupo 222" transform="translate(11262.329 4577.233)">
      <path id="Trazado_366" data-name="Trazado 366" d="M40.336,22.473a2.052,2.052,0,0,1-2.046-2.046V16.336a2.046,2.046,0,1,1,4.091,0v4.091A2.039,2.039,0,0,1,40.336,22.473Z" transform="translate(-38.29 -14.29)" fill="#c00"/>
    </g>
    <g id="Grupo_223" data-name="Grupo 223" transform="translate(11274.604 4577.233)">
      <path id="Trazado_367" data-name="Trazado 367" d="M46.336,22.473a2.052,2.052,0,0,1-2.046-2.046V16.336a2.046,2.046,0,1,1,4.091,0v4.091A2.039,2.039,0,0,1,46.336,22.473Z" transform="translate(-44.29 -14.29)" fill="#c00"/>
    </g>
    <g id="Grupo_224" data-name="Grupo 224" transform="translate(11241.872 4555.417)">
      <path id="Trazado_368" data-name="Trazado 368" d="M56.93,52.036a24.32,24.32,0,0,1-23.3-16.9,7.944,7.944,0,0,1-5.339-7.651,7.944,7.944,0,0,1,5.339-7.651C35.92,13.27,42.385,6.642,49.463,3.778A2.042,2.042,0,1,1,51,7.562c-6.4,2.6-12.213,8.715-13.788,14.524a2.069,2.069,0,0,1-1.677,1.493,3.765,3.765,0,0,0-3.15,3.907,3.765,3.765,0,0,0,3.15,3.907,2.046,2.046,0,0,1,1.677,1.473,20.436,20.436,0,0,0,39.441,0,2.042,2.042,0,0,1,1.677-1.473,3.765,3.765,0,0,0,3.15-3.907,3.765,3.765,0,0,0-3.15-3.907,2.039,2.039,0,0,1-1.677-1.493C74.932,15.766,67.976,9.915,62.31,7.6a2.042,2.042,0,0,1,1.534-3.785c6.383,2.6,13.849,8.837,16.386,16.018a7.935,7.935,0,0,1,5.36,7.651,7.918,7.918,0,0,1-5.339,7.651A24.357,24.357,0,0,1,56.93,52.036Z" transform="translate(-28.29 -3.626)" fill="#0e2d4f"/>
    </g>
    <g id="Grupo_225" data-name="Grupo 225" transform="translate(11184 4570.359)">
      <path id="Trazado_369" data-name="Trazado 369" d="M1,11.93a22.359,22.359,0,0,0,44.719,0H14.42" transform="translate(1.046 -9.884)" fill="#c00"/>
      <path id="Trazado_370" data-name="Trazado 370" d="M24.405,37.381A24.428,24.428,0,0,1,0,12.976a2.046,2.046,0,0,1,4.091,0,20.314,20.314,0,0,0,40.525,2.046H15.465a2.046,2.046,0,1,1,0-4.091h31.3a2.052,2.052,0,0,1,2.046,2.046A24.428,24.428,0,0,1,24.405,37.381Z" transform="translate(0 -10.93)" fill="#c00"/>
    </g>
    <g id="Grupo_226" data-name="Grupo 226" transform="translate(11186.23 4594.949)">
      <path id="Trazado_371" data-name="Trazado 371" d="M7.616,36a6.526,6.526,0,1,1,6.526-6.526A6.53,6.53,0,0,1,7.616,36Zm0-8.94A2.434,2.434,0,1,0,10.05,29.5,2.44,2.44,0,0,0,7.616,27.062Z" transform="translate(-1.09 -22.95)" fill="#0e2d4f"/>
    </g>
    <g id="Grupo_227" data-name="Grupo 227" transform="translate(11217.528 4594.949)">
      <path id="Trazado_372" data-name="Trazado 372" d="M22.916,36a6.526,6.526,0,1,1,6.526-6.526A6.53,6.53,0,0,1,22.916,36Zm0-8.94A2.434,2.434,0,1,0,25.35,29.5,2.44,2.44,0,0,0,22.916,27.062Z" transform="translate(-16.39 -22.95)" fill="#0e2d4f"/>
    </g>
    <g id="Grupo_228" data-name="Grupo 228" transform="translate(11184 4548)">
      <path id="Trazado_373" data-name="Trazado 373" d="M24.405,26.451H2.046A2.052,2.052,0,0,1,0,24.405,24.428,24.428,0,0,1,24.405,0a2.052,2.052,0,0,1,2.046,2.046V24.405A2.052,2.052,0,0,1,24.405,26.451ZM4.194,22.359H22.359V4.194A20.346,20.346,0,0,0,4.194,22.359Z" fill="#0e2d4f"/>
    </g>
    <g id="Grupo_229" data-name="Grupo 229" transform="translate(11189.821 4555.397)">
      <path id="Trazado_374" data-name="Trazado 374" d="M19.2,20.44a1.99,1.99,0,0,1-1.35-.511L3.529,7.184A2.043,2.043,0,0,1,6.25,4.136L20.57,16.88a2.041,2.041,0,0,1,.164,2.884A2.161,2.161,0,0,1,19.2,20.44Z" transform="translate(-2.846 -3.616)" fill="#0e2d4f"/>
    </g>
    <g id="Grupo_230" data-name="Grupo 230" transform="translate(11261.204 4550.014)">
      <path id="Trazado_375" data-name="Trazado 375" d="M45.187,17.77a8,8,0,0,1-3.785-.961,6.66,6.66,0,0,1-3.355-4.05,7.056,7.056,0,0,1,.45-5.237,5.982,5.982,0,0,1,8.019-2.6,5.232,5.232,0,0,1,2.762,3.825,5.766,5.766,0,0,0-2.107-4.132A2.026,2.026,0,0,1,46.9,1.732a2.026,2.026,0,0,1,2.884-.266,9.794,9.794,0,0,1,2.557,11.967A7.987,7.987,0,0,1,47.58,17.4,7.485,7.485,0,0,1,45.187,17.77Zm-1.35-9.39a1.824,1.824,0,0,0-1.657.982A2.842,2.842,0,0,0,43.3,13.209a3.943,3.943,0,0,0,3.069.327,4.315,4.315,0,0,0,1.227-.614,1.959,1.959,0,0,1-1.616-.143,2.037,2.037,0,0,1-.839-2.762,1,1,0,0,0-.491-1.412A1.5,1.5,0,0,0,43.836,8.381Z" transform="translate(-37.74 -0.984)" fill="#c00"/>
    </g>
  </g>
</svg>
