<svg xmlns="http://www.w3.org/2000/svg" width="109.881" height="70" viewBox="0 0 109.881 70">
  <g id="Grupo_611" data-name="Grupo 611" transform="translate(-10491 -4810.326)">
    <g id="Grupo_276" data-name="Grupo 276" transform="translate(10491 4810.326)">
      <g id="XMLID_4_" transform="translate(39.874 0)">
        <g id="Grupo_232" data-name="Grupo 232">
          <path id="Trazado_376" data-name="Trazado 376" d="M147.062,18.53v6.562h-17.5V18.53Z" transform="translate(-89.087 -6.498)" fill="#c00"/>
          <path id="Trazado_377" data-name="Trazado 377" d="M138.077,30.876v33.9a5.478,5.478,0,0,1-5.47,5.47H75.725a5.478,5.478,0,0,1-5.47-5.47V54.94H69.163a1.1,1.1,0,0,1-1.093-1.1V47.279a1.094,1.094,0,0,1,1.093-1.093h3.284V16.652a5.478,5.478,0,0,1,4.377-5.358V7.9a1.09,1.09,0,0,1,1.093-1.093h1.093V1.343A1.09,1.09,0,0,1,80.1.25h6.562a1.09,1.09,0,0,1,1.093,1.093v5.47h1.1A1.094,1.094,0,0,1,89.949,7.9v3.39a5.478,5.478,0,0,1,4.37,5.358V46.186h2.192V30.876a5.473,5.473,0,0,1,5.47-5.47h7.655V21.03H107.45a1.1,1.1,0,0,1-1.1-1.093V11.183a1.1,1.1,0,0,1,1.1-1.093h19.687a1.09,1.09,0,0,1,1.093,1.093v8.754a1.09,1.09,0,0,1-1.093,1.093h-2.192v4.377h7.662A5.473,5.473,0,0,1,138.077,30.876Zm-2.192,33.9v-33.9A3.265,3.265,0,0,0,133.7,27.8V41.809h-2.185V27.592h-2.192V41.809h-2.185V27.592h-2.192V41.809H122.76V27.592h-2.185V41.809h-2.192V27.592H116.2V41.809h-2.185V27.592h-2.192V41.809h-2.185V27.592H107.45V41.809h-2.192V27.592h-2.185V41.809h-2.185V27.8a3.271,3.271,0,0,0-2.192,3.08v15.31h5.47a1.09,1.09,0,0,1,1.093,1.093v6.562a1.1,1.1,0,0,1-1.093,1.1h-1.093v9.84a5.412,5.412,0,0,1-1.126,3.284h30.659A3.284,3.284,0,0,0,135.885,64.78Zm-9.84-45.936V12.282h-17.5v6.562h17.5Zm-3.284,6.562V21.03H111.821v4.377ZM103.073,52.748V48.371H70.255v4.377h18.6V50.563h2.185v2.185h2.185V50.563h2.192v2.185H97.6V50.563h2.185v2.185h3.284ZM100.888,64.78V54.94H72.447v2.185H86.664a1.09,1.09,0,0,1,1.093,1.093V64.78a1.09,1.09,0,0,1-1.093,1.093H72.645a3.284,3.284,0,0,0,3.08,2.192H97.6A3.289,3.289,0,0,0,100.888,64.78ZM92.134,46.186v-17.5H80.1v17.5Zm0-19.687V16.652a3.282,3.282,0,0,0-3.278-3.278H77.917a3.284,3.284,0,0,0-3.284,3.278V46.186h3.284V27.592A1.09,1.09,0,0,1,79.009,26.5ZM87.757,11.183V9H79.009v2.185ZM85.572,63.688V59.311H72.447v4.377Zm0-56.875V2.435H81.195V6.812Z" transform="translate(-68.07 -0.25)" fill="#0e2d4f"/>
          <path id="Trazado_378" data-name="Trazado 378" d="M95.542,23.468v9.847H82.417a1.09,1.09,0,0,0-1.093,1.093V53H78.04V23.468a3.284,3.284,0,0,1,3.284-3.278H92.264A3.282,3.282,0,0,1,95.542,23.468Z" transform="translate(-71.478 -7.065)" fill="#c00"/>
          <rect id="Rectángulo_55" data-name="Rectángulo 55" width="13.125" height="4.377" transform="translate(4.377 59.061)" fill="#c00"/>
        </g>
      </g>
      <path id="Trazado_379" data-name="Trazado 379" d="M147.062,68.38H130.653a1.09,1.09,0,0,0-1.093,1.093v17.5a1.09,1.09,0,0,0,1.093,1.093h16.409a1.09,1.09,0,0,0,1.093-1.093v-17.5A1.1,1.1,0,0,0,147.062,68.38Zm-1.093,17.5H131.752V70.572h14.217Z" transform="translate(-49.213 -23.536)" fill="#c00"/>
      <rect id="Rectángulo_56" data-name="Rectángulo 56" width="7.655" height="2.185" transform="translate(54.098 30.626)" fill="#c00"/>
      <rect id="Rectángulo_57" data-name="Rectángulo 57" width="7.655" height="2.185" transform="translate(54.098 35.003)" fill="#c00"/>
      <rect id="Rectángulo_58" data-name="Rectángulo 58" width="7.655" height="2.185" transform="translate(54.098 39.374)" fill="#c00"/>
      <rect id="Rectángulo_59" data-name="Rectángulo 59" width="2.185" height="2.185" transform="translate(83.632 14.217)" fill="#0e2d4f"/>
      <rect id="Rectángulo_60" data-name="Rectángulo 60" width="2.185" height="2.185" transform="translate(88.002 14.217)" fill="#0e2d4f"/>
      <rect id="Rectángulo_61" data-name="Rectángulo 61" width="2.185" height="2.185" transform="translate(92.379 14.217)" fill="#0e2d4f"/>
      <g id="Grupo_234" data-name="Grupo 234" transform="translate(0 11.44)">
        <g id="XMLID_3_">
          <g id="Grupo_233" data-name="Grupo 233">
            <path id="Trazado_380" data-name="Trazado 380" d="M21.17,28.547V37.63h-5.7V22.84Z" transform="translate(-10.218 -19.411)" fill="#c00"/>
            <path id="Trazado_381" data-name="Trazado 381" d="M22.746,60.54V88.027H10.49V60.54H22.706Z" transform="translate(-8.515 -32.296)" fill="#c00"/>
            <rect id="Rectángulo_62" data-name="Rectángulo 62" width="7.602" height="5.529" transform="translate(26.322 22.748)" fill="#c00"/>
            <path id="Trazado_382" data-name="Trazado 382" d="M54.446,47.881H45.225V73.36h9.221Zm-.81-7.5h-7.6v5.529h7.6Zm2.784,6.516V74.348a.986.986,0,0,1-.987.987h-11.2a.986.986,0,0,1-.987-.987V46.894a.99.99,0,0,1,.81-.974V39.39a.986.986,0,0,1,.987-.987h3.8V30.676H46.929a.987.987,0,1,1,0-1.975h1.922v-2.31H46.929a.987.987,0,1,1,0-1.975h1.922v-2.3H46.929a.987.987,0,1,1,0-1.975h1.922v-1.52a.987.987,0,0,1,1.975,0v1.52h1.922a.987.987,0,1,1,0,1.975H50.826v2.3h1.922a.987.987,0,1,1,0,1.975H50.826V28.7h1.922a.987.987,0,1,1,0,1.975H50.826V38.4h3.8a.986.986,0,0,1,.987.987V45.92A.99.99,0,0,1,56.421,46.894Z" transform="translate(-19.713 -17.63)" fill="#0e2d4f"/>
            <path id="Trazado_383" data-name="Trazado 383" d="M22.119,26.388v9.491H20.145V26.8l-5.7-5.707v14.79H12.47V18.707a1,1,0,0,1,.612-.915.985.985,0,0,1,1.073.217l7.681,7.681A.98.98,0,0,1,22.119,26.388Z" transform="translate(-9.192 -17.66)" fill="#c00"/>
            <path id="Trazado_384" data-name="Trazado 384" d="M10.5,53.366h10.2V47.285H10.5ZM21.72,55.334H9.465V82.821H21.72Zm1.975-.981V83.815a.99.99,0,0,1-.987.987H8.477a.99.99,0,0,1-.987-.987V54.354a.986.986,0,0,1,.987-.987h.046V46.3a.986.986,0,0,1,.987-.987h12.17a.986.986,0,0,1,.987.987v7.069h.039A.986.986,0,0,1,23.7,54.354Z" transform="translate(-7.49 -27.091)" fill="#0e2d4f"/>
          </g>
        </g>
      </g>
    </g>
  </g>
</svg>
