<svg xmlns="http://www.w3.org/2000/svg" width="138.125" height="60" viewBox="0 0 138.125 60">
  <g id="Grupo_612" data-name="Grupo 612" transform="translate(-10812 -4821.475)">
    <g id="Grupo_253" data-name="Grupo 253" transform="translate(10891.563 4822.695)">
      <g id="XMLID_4_">
        <g id="Grupo_252" data-name="Grupo 252">
          <path id="Trazado_428" data-name="Trazado 428" d="M573.335,24.144a21.089,21.089,0,0,1-.271,4.92c-1.73,13.094-6.106,25.321-12.173,36.993a1.363,1.363,0,0,1-1.413.857c-5.1-.037-10.206-.02-15.31-.02-5.027,0-10.053-.031-15.078.028a1.8,1.8,0,0,1-1.843-1.1,108.422,108.422,0,0,1-7.622-17.371,91.554,91.554,0,0,1-4.6-20.762,15.7,15.7,0,0,1-.116-3.7,6.672,6.672,0,0,1,5.235-5.745c2.724-.759,5.475-1.435,8.233-2.069a7.212,7.212,0,0,0,5.088-3.895q.951-1.855,2-3.66a1.049,1.049,0,0,1,.751-.462q8-.039,16.006,0a1.1,1.1,0,0,1,.789.513c.642,1.172,1.228,2.376,1.815,3.581a6.785,6.785,0,0,0,4.556,3.751q3.994,1.048,8.009,2.022C570.7,18.842,573,21.03,573.335,24.144Zm-2.718,1.518a4.192,4.192,0,0,0-2.741-4.533c-2.774-.843-5.608-1.487-8.428-2.22-1.9,7.074-6.135,11.629-13.512,12.988.192.21.352.4.529.577,1.164,1.169,2.335,2.332,3.5,3.5a1.525,1.525,0,0,1,.253,2.319q-2.317,3.562-4.649,7.115c-.829,1.26-1.9,1.249-2.734-.02q-2.31-3.521-4.609-7.05a1.538,1.538,0,0,1,.243-2.378c1.328-1.331,2.659-2.658,4.057-4.056-7.437-1.378-11.669-5.934-13.54-12.964a.922.922,0,0,0-.216,0c-2.743.694-5.5,1.341-8.225,2.1a3.912,3.912,0,0,0-2.9,4.294c.124,1.566.252,3.134.465,4.691A99.166,99.166,0,0,0,529.186,63.5a1.041,1.041,0,0,0,1.092.6q13.8-.019,27.6.008a1.135,1.135,0,0,0,1.174-.731,116.01,116.01,0,0,0,8.5-21.42A86.591,86.591,0,0,0,570.617,25.662Zm-14.019-7.1c.1-.479-.1-.634-.438-.9a17.907,17.907,0,0,1-2.84-2.573,17.95,17.95,0,0,1-1.885-3.354,1.209,1.209,0,0,0-1.277-.807c-3.763.037-7.527.076-11.288-.017a2.081,2.081,0,0,0-2.281,1.382,11.158,11.158,0,0,1-4.6,5.469.644.644,0,0,0-.187.564,18.886,18.886,0,0,0,.648,2.3,12.946,12.946,0,0,0,11.714,8.516C551.055,29.1,555.615,23.449,556.6,18.562Zm-12.392,23.8q1.67-2.567,3.129-4.816l-3.14-3.244-3.12,3.241Z" transform="translate(-514.832 -8.141)" fill="#0e2d4f"/>
          <path id="Trazado_429" data-name="Trazado 429" d="M690.82,180.584q-1.459,2.245-3.129,4.816l-3.131-4.819,3.12-3.241Z" transform="translate(-658.318 -151.179)" fill="#c00"/>
        </g>
      </g>
    </g>
    <g id="Grupo_255" data-name="Grupo 255" transform="translate(10812 4821.475)">
      <g id="XMLID_3_" transform="translate(0 0)">
        <g id="Grupo_254" data-name="Grupo 254">
          <path id="Trazado_430" data-name="Trazado 430" d="M452.923,128.5a1.948,1.948,0,0,1-1.973-1.934,1.977,1.977,0,0,1,1.95-1.97,1.952,1.952,0,0,1,1.962,1.947A1.922,1.922,0,0,1,452.923,128.5Z" transform="translate(-381.265 -105.373)" fill="#c00"/>
          <path id="Trazado_431" data-name="Trazado 431" d="M452.935,172.229a1.95,1.95,0,1,1-.046-3.9,1.95,1.95,0,1,1,.046,3.9Z" transform="translate(-381.265 -142.342)" fill="#c00"/>
          <path id="Trazado_432" data-name="Trazado 432" d="M450.948,214a1.947,1.947,0,0,1,1.928-1.978,1.919,1.919,0,0,1,1.984,1.909,1.953,1.953,0,0,1-1.916,1.993A1.982,1.982,0,0,1,450.948,214Z" transform="translate(-381.264 -179.276)" fill="#c00"/>
          <path id="Trazado_433" data-name="Trazado 433" d="M440.46,80.938a1.961,1.961,0,1,1,.076,3.921,1.961,1.961,0,0,1-.076-3.921Z" transform="translate(-370.782 -68.462)" fill="#c00"/>
          <path id="Trazado_434" data-name="Trazado 434" d="M440.5,259.5a1.959,1.959,0,0,1,0-3.918,1.959,1.959,0,1,1,0,3.918Z" transform="translate(-370.783 -216.102)" fill="#c00"/>
          <path id="Trazado_435" data-name="Trazado 435" d="M427.9,41.294a1.98,1.98,0,0,1-1.948-1.973,1.946,1.946,0,0,1,1.976-1.931,1.918,1.918,0,0,1,1.936,1.957A1.953,1.953,0,0,1,427.9,41.294Z" transform="translate(-360.13 -31.647)" fill="#c00"/>
          <path id="Trazado_436" data-name="Trazado 436" d="M427.927,303.133a1.95,1.95,0,0,1-1.978-1.931,1.978,1.978,0,0,1,1.947-1.973,1.951,1.951,0,0,1,1.965,1.943A1.922,1.922,0,0,1,427.927,303.133Z" transform="translate(-360.13 -253.003)" fill="#c00"/>
          <path id="Trazado_437" data-name="Trazado 437" d="M390.463,328.082a1.92,1.92,0,0,1-1.914-1.982,1.946,1.946,0,0,1,1.984-1.922,1.982,1.982,0,0,1,1.928,1.993A1.953,1.953,0,0,1,390.463,328.082Z" transform="translate(-328.512 -274.093)" fill="#c00"/>
          <path id="Trazado_438" data-name="Trazado 438" d="M390.51,16.344a1.95,1.95,0,0,1-1.96-1.948,1.917,1.917,0,0,1,1.937-1.956,1.952,1.952,0,0,1,1.974,1.934A1.983,1.983,0,0,1,390.51,16.344Z" transform="translate(-328.513 -10.555)" fill="#c00"/>
          <path id="Trazado_439" data-name="Trazado 439" d="M352.937,303.133a1.952,1.952,0,0,1-1.988-1.92,1.978,1.978,0,0,1,1.936-1.984,1.954,1.954,0,0,1,1.978,1.933A1.924,1.924,0,0,1,352.937,303.133Z" transform="translate(-296.726 -253.002)" fill="#c00"/>
          <path id="Trazado_440" data-name="Trazado 440" d="M350.948,39.367a1.946,1.946,0,0,1,1.928-1.979A1.918,1.918,0,0,1,354.86,39.3a1.952,1.952,0,0,1-1.916,1.995A1.983,1.983,0,0,1,350.948,39.367Z" transform="translate(-296.725 -31.646)" fill="#c00"/>
          <path id="Trazado_441" data-name="Trazado 441" d="M340.476,259.488a1.96,1.96,0,0,1,.043-3.919,1.96,1.96,0,1,1-.043,3.919Z" transform="translate(-286.244 -216.093)" fill="#c00"/>
          <path id="Trazado_442" data-name="Trazado 442" d="M340.5,84.861a1.961,1.961,0,0,1,0-3.921,1.961,1.961,0,1,1,0,3.921Z" transform="translate(-286.244 -68.464)" fill="#c00"/>
          <path id="Trazado_443" data-name="Trazado 443" d="M335.068,21.445a1.948,1.948,0,0,0,1.973,1.934,1.922,1.922,0,0,0,1.939-1.957,1.952,1.952,0,0,0-1.962-1.947A1.977,1.977,0,0,0,335.068,21.445Zm0,13.524a1.982,1.982,0,0,0,2,1.925A1.953,1.953,0,0,0,338.98,34.9,1.919,1.919,0,0,0,337,32.991,1.947,1.947,0,0,0,335.068,34.969Zm0-6.761a1.962,1.962,0,0,0,1.985,1.928,1.95,1.95,0,0,0-.046-3.9A1.954,1.954,0,0,0,335.068,28.207Zm-1.917,13.476a1.946,1.946,0,0,0,1.948,1.961,1.959,1.959,0,1,0,0-3.918A1.943,1.943,0,0,0,333.151,41.684Zm0-26.962a1.951,1.951,0,0,0,1.987,1.923,1.961,1.961,0,1,0-.076-3.921A1.948,1.948,0,0,0,333.151,14.722Zm.029,35.657a1.922,1.922,0,0,0,1.934-1.961,1.952,1.952,0,0,0-1.965-1.944,1.978,1.978,0,0,0-1.947,1.973A1.95,1.95,0,0,0,333.18,50.379ZM331.2,7.922a1.98,1.98,0,0,0,1.948,1.973,1.953,1.953,0,0,0,1.964-1.947,1.918,1.918,0,0,0-1.936-1.957A1.946,1.946,0,0,0,331.2,7.922Zm-3.868,46.315a1.953,1.953,0,0,0,2-1.911,1.982,1.982,0,0,0-1.928-1.993,1.946,1.946,0,0,0-1.984,1.922A1.92,1.92,0,0,0,327.334,54.237Zm.046-48.2a1.983,1.983,0,0,0,1.951-1.97,1.952,1.952,0,0,0-1.974-1.934,1.917,1.917,0,0,0-1.937,1.956A1.951,1.951,0,0,0,327.381,6.037Zm-5.786,44.342a1.924,1.924,0,0,0,1.925-1.971,1.954,1.954,0,0,0-1.978-1.933,1.978,1.978,0,0,0-1.936,1.984A1.952,1.952,0,0,0,321.595,50.379ZM319.606,7.97a1.983,1.983,0,0,0,2,1.925A1.952,1.952,0,0,0,323.518,7.9a1.918,1.918,0,0,0-1.984-1.909A1.946,1.946,0,0,0,319.606,7.97Zm.033,8.675a1.961,1.961,0,1,0,0-3.921,1.961,1.961,0,0,0,0,3.921Zm-1.95,25.018a1.945,1.945,0,0,0,1.927,1.981,1.96,1.96,0,1,0,.043-3.919A1.946,1.946,0,0,0,317.689,41.664Zm.039-4.77a1.95,1.95,0,0,0,1.925-1.982,1.918,1.918,0,0,0-1.974-1.92,1.947,1.947,0,0,0-1.937,1.968A1.98,1.98,0,0,0,317.728,36.894Zm-1.987-15.466a1.948,1.948,0,0,0,1.956,1.951,1.921,1.921,0,0,0,1.956-1.94,1.952,1.952,0,0,0-1.945-1.964A1.978,1.978,0,0,0,315.741,21.428Zm0,6.754a1.961,1.961,0,0,0,1.959,1.954,1.95,1.95,0,1,0,.006-3.9A1.954,1.954,0,0,0,315.741,28.181ZM338.905,24.8a4.083,4.083,0,0,1,1.959,3.4,4.009,4.009,0,0,1-1.92,3.323c2.984,2.868,2.584,5.169-1.2,7.267,1.987,3.32,1.385,5.422-2,6.715,1.444,1.7,1.834,3.538.354,5.351-1.286,1.576-3,1.729-4.821.952-.41,2.837-1.651,4.229-3.8,4.309s-3.432-1.263-4.046-4.292c-1.968.8-3.742.552-4.993-1.249-1.212-1.746-.826-3.454.6-5.074a4.043,4.043,0,0,1-3.077-2.785,3.851,3.851,0,0,1,1.186-3.955,3.972,3.972,0,0,1-3.2-3.166,3.882,3.882,0,0,1,1.879-4.028,4.116,4.116,0,0,1-1.942-3.347,3.994,3.994,0,0,1,1.948-3.4,3.883,3.883,0,0,1,1.285-7.193,4.009,4.009,0,0,1-1.16-3.98,3.949,3.949,0,0,1,3.077-2.758c-1.475-1.729-1.852-3.547-.411-5.35,1.274-1.594,2.978-1.77,4.807-.994.608-3.018,1.823-4.32,3.97-4.3s3.286,1.274,3.9,4.283c2.033-.8,3.816-.51,5.088,1.373,1.019,1.507.806,2.9-.651,4.957a4.081,4.081,0,0,1,3.03,2.765A3.974,3.974,0,0,1,337.63,17.6a4,4,0,0,1,3.157,3.168A3.884,3.884,0,0,1,338.905,24.8Zm-3.805-.043a4.03,4.03,0,0,1-1.88-2.947,4.173,4.173,0,0,1,1.3-3.321,3.885,3.885,0,0,1-1.944-6.741A4.064,4.064,0,0,1,329.3,7.4a3.969,3.969,0,0,1-3.873-.034,4.1,4.1,0,0,1-3.281,4.4,3.921,3.921,0,0,1,1.167,3.946,4.075,4.075,0,0,1-3.117,2.809,3.977,3.977,0,0,1,1.311,3.333,4.244,4.244,0,0,1-1.934,2.972,3.981,3.981,0,0,1,1.961,3.391,4.07,4.07,0,0,1-1.961,3.352,4.14,4.14,0,0,1,1.943,3.013,4.287,4.287,0,0,1-1.293,3.31,3.939,3.939,0,0,1,3.085,2.755,4.054,4.054,0,0,1-1.139,3.984A4.1,4.1,0,0,1,325.446,49a3.983,3.983,0,0,1,3.873-.036,4.048,4.048,0,0,1,3.267-4.363,3.9,3.9,0,0,1-1.17-3.955,3.977,3.977,0,0,1,3.041-2.769c-1.917-2.308-1.566-4.614.6-6.311C332.52,28.8,332.518,27.507,335.1,24.756Z" transform="translate(-265.383 -0.248)" fill="#0e2d4f"/>
          <path id="Trazado_444" data-name="Trazado 444" d="M327.909,172.229a1.95,1.95,0,1,1,.006-3.9,1.95,1.95,0,1,1-.006,3.9Z" transform="translate(-275.592 -142.342)" fill="#c00"/>
          <path id="Trazado_445" data-name="Trazado 445" d="M327.936,215.922a1.98,1.98,0,0,1-1.987-1.934,1.947,1.947,0,0,1,1.937-1.968,1.918,1.918,0,0,1,1.974,1.92A1.95,1.95,0,0,1,327.936,215.922Z" transform="translate(-275.591 -179.276)" fill="#c00"/>
          <path id="Trazado_446" data-name="Trazado 446" d="M327.906,128.5a1.948,1.948,0,0,1-1.956-1.951,1.978,1.978,0,0,1,1.967-1.953,1.952,1.952,0,0,1,1.945,1.964A1.921,1.921,0,0,1,327.906,128.5Z" transform="translate(-275.592 -105.373)" fill="#c00"/>
          <path id="Trazado_447" data-name="Trazado 447" d="M28.78,7.835a.817.817,0,0,0,.583.357c.915.039,1.832.017,3.034.017-1-1.511-1.838-2.774-2.683-4.032C28.676,2.631,28.44,2.546,26.346,3,27.163,4.63,27.954,6.241,28.78,7.835Zm-1.6,7.619c.711-.057,1.4.088,1.61-.164,1.152-1.362,2.186-2.825,3.442-4.492-1.136,0-1.973-.025-2.8.019a.776.776,0,0,0-.547.407C28.333,12.518,27.827,13.829,27.181,15.454Zm-6.839-2.318c.683,1.722.685,1.718,2.483,1.724.388,0,.778.065,1.164.046.226-.011.586-.066.648-.206.546-1.237,1.037-2.5,1.591-3.867H19.446C19.772,11.673,20.053,12.405,20.343,13.137ZM16.46,14.873c.515.745,1.051.849,1.9.271-.526-1.323-1.022-2.605-1.555-3.872a.791.791,0,0,0-.52-.445c-.86-.048-1.724-.022-2.845-.022C14.575,12.32,15.557,13.568,16.46,14.873Zm-3.2-6.662c1.183,0,2.067.019,2.948-.012a.832.832,0,0,0,.623-.288c.852-1.619,1.664-3.258,2.486-4.892-.056-.1-.111-.2-.169-.3-.832.138-2.008-.02-2.431.468A51.423,51.423,0,0,0,13.263,8.211ZM2.829,37.283A20.005,20.005,0,1,0,22.943,17.458,19.956,19.956,0,0,0,2.829,37.283Zm41.491-6.8a21.577,21.577,0,0,1,0,13.892,22.616,22.616,0,0,1-43.266-.858A22.864,22.864,0,0,1,14.41,16.4c-1.521-2.03-2.958-4-4.464-5.926a1.293,1.293,0,0,1-.09-1.838c1.749-2.5,3.42-5.045,5.085-7.6A1.554,1.554,0,0,1,16.42.25C20.715.276,25.01.24,29.306.3a1.926,1.926,0,0,1,1.353.73C32.443,3.583,34.125,6.21,35.9,8.773a1.122,1.122,0,0,1-.087,1.576c-1.327,1.705-2.61,3.446-3.906,5.176-.206.274-.388.564-.643.94A22.749,22.749,0,0,1,44.32,30.478ZM19.628,8.147h6.4c-.886-1.763-1.668-3.412-2.57-4.992a1.459,1.459,0,0,0-1.272.017C21.289,4.75,20.508,6.4,19.628,8.147Z" transform="translate(-0.25 -0.249)" fill="#0e2d4f"/>
          <path id="Trazado_448" data-name="Trazado 448" d="M51.885,129.129A17.245,17.245,0,1,1,34.55,146.342,17.335,17.335,0,0,1,51.885,129.129Zm14.622,17.338a14.677,14.677,0,1,0-14.8,14.552A14.628,14.628,0,0,0,66.507,146.468Z" transform="translate(-29.247 -109.202)" fill="#0e2d4f"/>
          <path id="Trazado_449" data-name="Trazado 449" d="M172.4,17.9c.844,1.259,1.679,2.522,2.683,4.032-1.2,0-2.118.022-3.034-.017a.817.817,0,0,1-.583-.357c-.826-1.594-1.617-3.205-2.434-4.838C171.123,16.265,171.36,16.35,172.4,17.9Z" transform="translate(-142.934 -13.968)" fill="#c00"/>
          <path id="Trazado_450" data-name="Trazado 450" d="M176.04,72.933c-.213.252-.9.107-1.61.164.646-1.625,1.152-2.936,1.7-4.23a.776.776,0,0,1,.547-.407c.832-.043,1.668-.019,2.8-.019C178.226,70.108,177.191,71.571,176.04,72.933Z" transform="translate(-147.499 -57.892)" fill="#c00"/>
          <path id="Trazado_451" data-name="Trazado 451" d="M128.142,18.3a1.459,1.459,0,0,1,1.272-.017c.9,1.58,1.684,3.23,2.57,4.992h-6.4C126.46,21.529,127.241,19.882,128.142,18.3Z" transform="translate(-106.202 -15.381)" fill="#c00"/>
          <path id="Trazado_452" data-name="Trazado 452" d="M37.043,111.55a19.963,19.963,0,1,1-20.114,19.825A19.961,19.961,0,0,1,37.043,111.55Zm-.113,37.208a17.245,17.245,0,1,0-17.277-17.277A17.346,17.346,0,0,0,36.93,148.758Z" transform="translate(-14.35 -94.341)" fill="#c00"/>
          <path id="Trazado_453" data-name="Trazado 453" d="M125.3,71.012c-.289-.731-.571-1.464-.9-2.3h6.783c-.554,1.37-1.045,2.63-1.591,3.867-.062.139-.422.195-.648.206-.387.019-.776-.045-1.164-.046C125.982,72.73,125.98,72.735,125.3,71.012Z" transform="translate(-105.205 -58.125)" fill="#c00"/>
          <path id="Trazado_454" data-name="Trazado 454" d="M88.435,68.5a.791.791,0,0,1,.52.445c.533,1.266,1.03,2.548,1.555,3.872-.853.578-1.39.475-1.9-.271-.9-1.3-1.885-2.553-3.015-4.068C86.711,68.481,87.575,68.454,88.435,68.5Z" transform="translate(-72.395 -57.925)" fill="#c00"/>
          <path id="Trazado_455" data-name="Trazado 455" d="M84.41,21.7a51.424,51.424,0,0,1,3.459-5.025c.422-.489,1.6-.331,2.431-.468.057.1.113.2.169.3-.823,1.634-1.634,3.273-2.486,4.892a.832.832,0,0,1-.623.288C86.477,21.722,85.593,21.7,84.41,21.7Z" transform="translate(-71.398 -13.742)" fill="#c00"/>
        </g>
      </g>
    </g>
  </g>
</svg>
