<svg xmlns="http://www.w3.org/2000/svg" width="194.077" height="62.075" viewBox="0 0 194.077 62.075">
  <g id="Grupo_613" data-name="Grupo 613" transform="translate(-11138.128 -4836.126)">
    <g id="Grupo_267" data-name="Grupo 267" transform="translate(11139.243 4837.202)">
      <g id="XMLID_6_" transform="translate(68.623 2.544)">
        <g id="Grupo_261" data-name="Grupo 261" transform="translate(0 0)">
          <path id="Trazado_456" data-name="Trazado 456" d="M140.63,15.773c-.052-3.71-1.594-6.423-4.36-7.641a8.4,8.4,0,0,0-3.38-.678A10.237,10.237,0,0,0,126.05,10.1c-5.038,4.69-5.513,10.963-3.38,14.731.922,1.635,3.629,5.415,4.986,7.287Zm11.7,34.354c3.159,0,5.82-1.565,5.82-3.426s-2.661-3.426-5.82-3.426-5.82,1.565-5.82,3.426S149.176,50.128,152.329,50.128Zm24.534-16.058v9.878a18.537,18.537,0,0,1-18.58,18.458H144.764a18.54,18.54,0,0,1-18.58-18.458V33.994a1.073,1.073,0,0,1,.052-.313c-1.252-1.728-4.319-5.977-5.368-7.832-3.339-5.9-.638-13.148,3.774-17.241A11.789,11.789,0,0,1,137.088,6.26c2.006.881,5.281,3.206,5.56,8.91h18.076c.278-5.7,3.554-8.023,5.554-8.91a11.82,11.82,0,0,1,12.458,2.348c4.412,4.093,7.113,11.339,3.774,17.241C181.374,27.866,177.855,32.724,176.863,34.069Zm-18.58,26.29a16.487,16.487,0,0,0,16.522-16.406v-9.71L161.2,17.118a1.026,1.026,0,0,1-.441.1H142.277a1.528,1.528,0,0,1-.162-.012L128.421,34.458a1.274,1.274,0,0,1-.18.174V43.96a16.483,16.483,0,0,0,16.522,16.406h6.76V52.157c-4.029-.272-7.073-2.568-7.073-5.449,0-3.073,3.467-5.478,7.873-5.478s7.873,2.406,7.873,5.478c0,2.771-2.823,5-6.62,5.4V60.36h4.707ZM180.73,24.834c2.128-3.768,1.658-10.041-3.38-14.731a9.872,9.872,0,0,0-10.232-1.971c-2.759,1.223-4.3,3.931-4.354,7.641l12.98,16.342C177.1,30.249,179.808,26.469,180.73,24.834Z" transform="translate(-119.375 -5.391)" fill="#0e2d4f"/>
          <path id="Trazado_457" data-name="Trazado 457" d="M184.908,50.8a1.71,1.71,0,1,0,1.71-1.71A1.713,1.713,0,0,0,184.908,50.8Zm1.71-3.768A3.768,3.768,0,1,1,182.85,50.8,3.772,3.772,0,0,1,186.618,47.03Z" transform="translate(-146.052 -22.891)" fill="#0e2d4f"/>
          <ellipse id="Elipse_15" data-name="Elipse 15" cx="5.82" cy="3.426" rx="5.82" ry="3.426" transform="translate(27.134 37.89)" fill="#c00"/>
          <path id="Trazado_458" data-name="Trazado 458" d="M161.636,50.8a3.768,3.768,0,1,1-3.768-3.768A3.776,3.776,0,0,1,161.636,50.8Zm-5.478,0a1.71,1.71,0,1,0,1.71-1.71A1.713,1.713,0,0,0,156.158,50.8Z" transform="translate(-133.969 -22.891)" fill="#0e2d4f"/>
        </g>
        <g id="Grupo_262" data-name="Grupo 262" transform="translate(0.012)">
          <circle id="Elipse_16" data-name="Elipse 16" cx="3.768" cy="3.768" r="3.768" transform="translate(20.12 24.139)" fill="none" stroke="#0e2d4f" stroke-miterlimit="10" stroke-width="2"/>
          <circle id="Elipse_17" data-name="Elipse 17" cx="1.71" cy="1.71" r="1.71" transform="translate(22.178 26.197)" fill="none" stroke="#0e2d4f" stroke-miterlimit="10" stroke-width="2"/>
          <circle id="Elipse_18" data-name="Elipse 18" cx="3.768" cy="3.768" r="3.768" transform="translate(36.787 24.139)" fill="none" stroke="#0e2d4f" stroke-miterlimit="10" stroke-width="2"/>
          <circle id="Elipse_19" data-name="Elipse 19" cx="1.71" cy="1.71" r="1.71" transform="translate(38.845 26.197)" fill="none" stroke="#0e2d4f" stroke-miterlimit="10" stroke-width="2"/>
          <path id="Trazado_459" data-name="Trazado 459" d="M178.756,8.608A11.809,11.809,0,0,0,166.3,6.26c-2,.881-5.27,3.206-5.554,8.91H142.668c-.278-5.7-3.554-8.023-5.56-8.91a11.8,11.8,0,0,0-12.447,2.348c-4.412,4.093-7.113,11.339-3.774,17.241,1.049,1.855,4.116,6.11,5.368,7.832a.934.934,0,0,0-.052.313v9.954a18.536,18.536,0,0,0,18.58,18.458H158.3a18.54,18.54,0,0,0,18.58-18.458V34.069c.991-1.351,4.51-6.2,5.658-8.226C185.869,19.947,183.162,12.7,178.756,8.608Z" transform="translate(-119.395 -5.391)" fill="none" stroke="#0e2d4f" stroke-miterlimit="10" stroke-width="2"/>
          <path id="Trazado_460" data-name="Trazado 460" d="M127.563,11.6A10.236,10.236,0,0,1,134.4,8.95a8.383,8.383,0,0,1,3.38.678c2.765,1.217,4.307,3.931,4.36,7.641L129.169,33.617c-1.357-1.867-4.058-5.647-4.986-7.287C122.055,22.562,122.525,16.289,127.563,11.6Z" transform="translate(-120.904 -6.887)" fill="none" stroke="#0e2d4f" stroke-miterlimit="10" stroke-width="2"/>
          <ellipse id="Elipse_20" data-name="Elipse 20" cx="5.82" cy="3.426" rx="5.82" ry="3.426" transform="translate(27.123 37.89)" fill="none" stroke="#0e2d4f" stroke-miterlimit="10" stroke-width="2"/>
          <path id="Trazado_461" data-name="Trazado 461" d="M164.716,68.857h-4.7V60.608c3.8-.406,6.62-2.632,6.62-5.4,0-3.073-3.455-5.478-7.873-5.478s-7.873,2.406-7.873,5.478c0,2.881,3.049,5.177,7.073,5.449v8.2H151.2A16.483,16.483,0,0,1,134.68,52.451V43.123a1.263,1.263,0,0,0,.18-.174L148.553,25.7a1.527,1.527,0,0,0,.162.012H167.2a1.047,1.047,0,0,0,.441-.1l13.6,17.131v9.71A16.492,16.492,0,0,1,164.716,68.857Z" transform="translate(-125.819 -13.889)" fill="none" stroke="#0e2d4f" stroke-miterlimit="10" stroke-width="2"/>
          <path id="Trazado_462" data-name="Trazado 462" d="M212.186,26.33c-.922,1.635-3.629,5.415-4.986,7.287L194.22,17.269c.052-3.71,1.594-6.418,4.354-7.641A9.876,9.876,0,0,1,208.806,11.6C213.844,16.289,214.319,22.562,212.186,26.33Z" transform="translate(-150.842 -6.887)" fill="none" stroke="#0e2d4f" stroke-miterlimit="10" stroke-width="2"/>
        </g>
      </g>
      <g id="XMLID_5_" transform="translate(138.314 2.697)">
        <g id="Grupo_263" data-name="Grupo 263">
          <path id="Trazado_463" data-name="Trazado 463" d="M277.389,76.681a5.879,5.879,0,0,1-11.009-2.875.928.928,0,0,1,1.855,0,4.023,4.023,0,0,0,8.041.2l-3.368-5.055a.925.925,0,0,1,.771-1.444h7.432a.931.931,0,0,1,.817.493.908.908,0,0,1-.052.951L278.5,74.015a4.023,4.023,0,0,0,8.041-.2.928.928,0,0,1,1.855,0,5.876,5.876,0,0,1-11.009,2.87Z" transform="translate(-250.849 -31.651)" fill="#0e2d4f"/>
          <path id="Trazado_464" data-name="Trazado 464" d="M299.021,53.325a2.956,2.956,0,0,0-3.1,2.788.928.928,0,0,1-1.855,0,4.961,4.961,0,0,1,9.9,0,.928.928,0,1,1-1.855,0A2.956,2.956,0,0,0,299.021,53.325Z" transform="translate(-262.487 -24.91)" fill="#0e2d4f"/>
          <path id="Trazado_465" data-name="Trazado 465" d="M265.551,51.47a4.812,4.812,0,0,1,4.951,4.644.928.928,0,1,1-1.855,0,3.113,3.113,0,0,0-6.191,0,.928.928,0,0,1-1.855,0A4.808,4.808,0,0,1,265.551,51.47Z" transform="translate(-248.42 -24.91)" fill="#0e2d4f"/>
          <path id="Trazado_466" data-name="Trazado 466" d="M276.536,5.8c11.229,7.131,16.684,16.824,16.684,29.612a26.815,26.815,0,1,1-53.63,0c0-12.3,5.478-21.734,16.754-28.835a.911.911,0,0,1,.939-.023.923.923,0,0,1,.481.812V22.336a26.772,26.772,0,0,1,17.311.012L275.1,6.585a.923.923,0,0,1,.481-.812A.941.941,0,0,1,276.536,5.8Zm14.829,29.618c0-11.554-4.713-20.441-14.4-27.1l-.023,15.374a.915.915,0,0,1-.406.765.943.943,0,0,1-.87.093,24.9,24.9,0,0,0-18.429-.035.937.937,0,0,1-.719-.012.926.926,0,0,1-.487-.516l-.052-.116a.944.944,0,0,1-.064-.342V9.078c-9.728,6.62-14.464,15.253-14.464,26.331a24.957,24.957,0,1,0,49.914.006Z" transform="translate(-239.59 -5.654)" fill="#0e2d4f"/>
        </g>
        <g id="Grupo_264" data-name="Grupo 264" transform="translate(0.017 0)">
          <path id="Trazado_467" data-name="Trazado 467" d="M276.548,5.8a.911.911,0,0,0-.939-.023.923.923,0,0,0-.481.812L275.1,22.348a26.772,26.772,0,0,0-17.311-.012V7.368a.923.923,0,0,0-.481-.812.911.911,0,0,0-.939.023c-11.276,7.1-16.754,16.54-16.754,28.835a26.815,26.815,0,1,0,53.63,0C293.239,22.62,287.784,12.933,276.548,5.8Z" transform="translate(-239.62 -5.654)" fill="none" stroke="#0e2d4f" stroke-miterlimit="10" stroke-width="2"/>
          <path id="Trazado_468" data-name="Trazado 468" d="M267.767,62.447a25.055,25.055,0,0,1-24.957-25.1c0-11.084,4.736-19.716,14.464-26.331V25.472a.855.855,0,0,0,.064.342l.052.116a.925.925,0,0,0,.487.516.937.937,0,0,0,.719.012,24.9,24.9,0,0,1,18.429.035.944.944,0,0,0,.87-.093.909.909,0,0,0,.406-.765l.023-15.374c9.687,6.661,14.4,15.548,14.4,27.1A25.06,25.06,0,0,1,267.767,62.447Z" transform="translate(-240.961 -7.59)" fill="none" stroke="#0e2d4f" stroke-miterlimit="10" stroke-width="2"/>
          <path id="Trazado_469" data-name="Trazado 469" d="M268.647,56.114a.928.928,0,1,0,1.855,0,4.961,4.961,0,0,0-9.9,0,.928.928,0,0,0,1.855,0,3.113,3.113,0,0,1,6.191,0Z" transform="translate(-248.437 -24.91)" fill="none" stroke="#0e2d4f" stroke-miterlimit="10" stroke-width="2"/>
          <path id="Trazado_470" data-name="Trazado 470" d="M299.021,51.47a4.812,4.812,0,0,0-4.951,4.644.928.928,0,0,0,1.855,0,3.113,3.113,0,0,1,6.191,0,.928.928,0,1,0,1.855,0A4.812,4.812,0,0,0,299.021,51.47Z" transform="translate(-262.504 -24.91)" fill="none" stroke="#0e2d4f" stroke-miterlimit="10" stroke-width="2"/>
          <path id="Trazado_471" data-name="Trazado 471" d="M287.485,72.874a.93.93,0,0,0-.928.928,4.023,4.023,0,0,1-8.041.2l3.374-5.061a.925.925,0,0,0-.765-1.444h-7.432a.933.933,0,0,0-.823.493.908.908,0,0,0,.052.951L276.3,74a4.023,4.023,0,0,1-8.041-.2.928.928,0,0,0-1.855,0,5.879,5.879,0,0,0,11.009,2.875A5.882,5.882,0,0,0,288.424,73.8.948.948,0,0,0,287.485,72.874Z" transform="translate(-250.875 -31.647)" fill="none" stroke="#0e2d4f" stroke-miterlimit="10" stroke-width="2"/>
        </g>
      </g>
      <g id="Grupo_241_1_">
        <g id="XMLID_4_">
          <g id="Grupo_265" data-name="Grupo 265">
            <path id="Trazado_472" data-name="Trazado 472" d="M59.291,71.214v.151a6.1,6.1,0,0,1-1.838,4.429,7.174,7.174,0,0,1-.748.632,7.039,7.039,0,0,1-1.809.939c-.11.041-.226.075-.336.11a.02.02,0,0,1-.012.006c-.226.07-.458.128-.69.18a9.268,9.268,0,0,1-1.913.191H43.279a8.588,8.588,0,0,1-3.606-.759c-.11-.046-.209-.1-.313-.151a6.548,6.548,0,0,1-.591-.342,6.167,6.167,0,0,1-2.939-5.235v-.151c0-6.052,5.264-10.974,11.734-10.974S59.291,65.162,59.291,71.214Zm-2.012.151v-.151c0-4.939-4.365-8.963-9.722-8.963s-9.716,4.023-9.716,8.963v.151c0,2.6,2.284,4.481,5.444,4.481h8.661C55.036,75.846,57.28,73.962,57.28,71.365Z" transform="translate(-15.64 -25.899)" fill="#c00"/>
            <path id="Trazado_473" data-name="Trazado 473" d="M33.1,52.4c.852,2.47-.116,5.078-2.151,5.82a3.935,3.935,0,0,1-.557.145,3.846,3.846,0,0,1-.58.046,1.027,1.027,0,0,1-.133-.006,2.241,2.241,0,0,1-.278-.017,2.375,2.375,0,0,1-.406-.07c-.093-.023-.186-.046-.278-.075a2.884,2.884,0,0,1-.313-.116c-.064-.023-.128-.052-.191-.081a5.145,5.145,0,0,1-2.533-3,4.917,4.917,0,0,1,.9-5.009,3.376,3.376,0,0,1,1.246-.806,3.535,3.535,0,0,1,2.736.174,5.28,5.28,0,0,1,1.223.875A5.02,5.02,0,0,1,33.1,52.4Zm-2.835,3.931c.991-.359,1.42-1.861.939-3.275a3.183,3.183,0,0,0-1.5-1.832,1.579,1.579,0,0,0-1.183-.1c-.991.359-1.42,1.861-.939,3.275a3.183,3.183,0,0,0,1.5,1.832A1.579,1.579,0,0,0,30.264,56.334Z" transform="translate(-11.245 -21.192)" fill="#c00"/>
            <path id="Trazado_474" data-name="Trazado 474" d="M48.02,43.621a5.043,5.043,0,0,1-.939,3.728,3.642,3.642,0,0,1-2.435,1.438,3.719,3.719,0,0,1-.429.029,4.512,4.512,0,0,1-4.145-4.191c-.017-.128-.035-.255-.041-.383a5.038,5.038,0,0,1,.974-3.351,2.108,2.108,0,0,1,.232-.278,3.9,3.9,0,0,1,.539-.487,3.6,3.6,0,0,1,2.1-.7A4.516,4.516,0,0,1,48.02,43.621Zm-2.528,2.5a3.006,3.006,0,0,0,.533-2.244,2.563,2.563,0,0,0-2.151-2.435c-.058,0-.116,0-.174.006a1.635,1.635,0,0,0-1.1.672,3.035,3.035,0,0,0-.539,2.244c.191,1.449,1.258,2.568,2.336,2.429A1.679,1.679,0,0,0,45.492,46.12Z" transform="translate(-17.401 -17.153)" fill="#c00"/>
            <path id="Trazado_475" data-name="Trazado 475" d="M66.01,40.954a5.044,5.044,0,0,1,.858,3.751,4.546,4.546,0,0,1-4.157,4.11,2.959,2.959,0,0,1-.5-.041,3.638,3.638,0,0,1-2.4-1.478,5.068,5.068,0,0,1-.4-.678,5.478,5.478,0,0,1-.29-.719,5.019,5.019,0,0,1-.168-2.365,5.28,5.28,0,0,1,.522-1.641,4.239,4.239,0,0,1,.336-.562,3.961,3.961,0,0,1,3.8-1.867A3.679,3.679,0,0,1,66.01,40.954ZM64.874,44.4a3.032,3.032,0,0,0-.481-2.261,1.652,1.652,0,0,0-1.078-.69.842.842,0,0,0-.209-.012,2.579,2.579,0,0,0-2.168,2.394,3.035,3.035,0,0,0,.487,2.261,1.638,1.638,0,0,0,1.078.69C63.576,46.937,64.66,45.853,64.874,44.4Z" transform="translate(-25.327 -17.152)" fill="#c00"/>
            <path id="Trazado_476" data-name="Trazado 476" d="M82.338,52.571a5.582,5.582,0,0,1-.261,2.481,5.138,5.138,0,0,1-1.31,2.116,5.789,5.789,0,0,1-.783.626,4.816,4.816,0,0,1-.441.255c-.064.029-.128.058-.191.081a3.417,3.417,0,0,1-.342.122,2,2,0,0,1-.249.07,2.478,2.478,0,0,1-.406.07,1.5,1.5,0,0,1-.278.017,1.117,1.117,0,0,1-.139.006,3.83,3.83,0,0,1-.574-.046,3.935,3.935,0,0,1-.557-.145,3.305,3.305,0,0,1-1.246-.806,4.868,4.868,0,0,1-.945-4.875,1.168,1.168,0,0,1,.041-.133,5.02,5.02,0,0,1,1.31-2.116,4.151,4.151,0,0,1,.377-.33,5.173,5.173,0,0,1,.846-.551,3.522,3.522,0,0,1,2.73-.174,3.6,3.6,0,0,1,.545.255,3.7,3.7,0,0,1,.487.348,3.976,3.976,0,0,1,.771.922,3.145,3.145,0,0,1,.151.278,4.266,4.266,0,0,1,.243.574c.035.1.064.209.093.313A5.743,5.743,0,0,1,82.338,52.571ZM80.17,54.4c.481-1.415.052-2.916-.939-3.275a1.313,1.313,0,0,0-.446-.075,1.757,1.757,0,0,0-.73.174,3.162,3.162,0,0,0-1.5,1.832c-.481,1.415-.052,2.916.933,3.275a1.526,1.526,0,0,0,1.183-.1A3.161,3.161,0,0,0,80.17,54.4Z" transform="translate(-31.829 -21.192)" fill="#c00"/>
            <path id="Trazado_477" data-name="Trazado 477" d="M65,27.825a1.011,1.011,0,0,1-.649,1.78,1.094,1.094,0,0,1-.649-.232l-7.647-6.464V59.7a1.033,1.033,0,0,1-.22.632l-.232.3a1.039,1.039,0,0,1-.8.371h-44a1,1,0,0,1-1-1V23.135L2.671,29.268a1.009,1.009,0,1,1-1.316-1.53L32.2,1.245a1,1,0,0,1,1.3-.006ZM54.041,58.991V21.21h-.006L32.857,3.326,11.755,21.46H11.75a1.077,1.077,0,0,1,.058.336v37.2H54.041Z" transform="translate(-1.004 -1.002)" fill="#0e2d4f"/>
            <rect id="Rectángulo_66" data-name="Rectángulo 66" width="0.006" height="37.781" transform="translate(53.031 20.208)" fill="#0e2d4f"/>
            <path id="Trazado_478" data-name="Trazado 478" d="M84.07,63.686a5.789,5.789,0,0,0,.783-.626A5.01,5.01,0,0,1,84.07,63.686Z" transform="translate(-35.914 -27.084)" fill="#0e2d4f"/>
            <path id="Trazado_479" data-name="Trazado 479" d="M82.39,64.842a3.417,3.417,0,0,0,.342-.122A1.852,1.852,0,0,1,82.39,64.842Z" transform="translate(-35.208 -27.781)" fill="#0e2d4f"/>
            <path id="Trazado_480" data-name="Trazado 480" d="M80.263,65.171a.564.564,0,0,1-.139.012,3.2,3.2,0,0,1-.574-.052,3.83,3.83,0,0,0,.574.046A1.117,1.117,0,0,0,80.263,65.171Z" transform="translate(-34.015 -27.954)" fill="#0e2d4f"/>
            <path id="Trazado_481" data-name="Trazado 481" d="M78.59,64.88a3.936,3.936,0,0,0,.557.145A3.281,3.281,0,0,1,78.59,64.88Z" transform="translate(-33.611 -27.849)" fill="#0e2d4f"/>
            <path id="Trazado_482" data-name="Trazado 482" d="M74.616,55.08a4.868,4.868,0,0,0,.945,4.875A4.852,4.852,0,0,1,74.616,55.08Z" transform="translate(-31.828 -23.73)" fill="#0e2d4f"/>
            <path id="Trazado_483" data-name="Trazado 483" d="M72.588,87.07a5.665,5.665,0,0,1-.748.632A7.173,7.173,0,0,0,72.588,87.07Z" transform="translate(-30.774 -37.175)" fill="#0e2d4f"/>
            <path id="Trazado_484" data-name="Trazado 484" d="M68.14,89.89c.11-.035.226-.07.336-.11A3.259,3.259,0,0,1,68.14,89.89Z" transform="translate(-29.219 -38.314)" fill="#0e2d4f"/>
            <path id="Trazado_485" data-name="Trazado 485" d="M66.93,90.16c.232-.052.464-.11.69-.18C67.4,90.05,67.168,90.108,66.93,90.16Z" transform="translate(-28.711 -38.398)" fill="#0e2d4f"/>
            <path id="Trazado_486" data-name="Trazado 486" d="M54.733,90.069a9.268,9.268,0,0,0,1.913-.191,9.263,9.263,0,0,1-1.913.2H46.066a8.5,8.5,0,0,1-3.606-.765,8.588,8.588,0,0,0,3.606.759Z" transform="translate(-18.427 -38.116)" fill="#0e2d4f"/>
            <path id="Trazado_487" data-name="Trazado 487" d="M60.236,42.71a4.24,4.24,0,0,0-.336.562A4.24,4.24,0,0,1,60.236,42.71Z" transform="translate(-25.756 -18.531)" fill="#0e2d4f"/>
            <path id="Trazado_488" data-name="Trazado 488" d="M59.29,50.59a5.479,5.479,0,0,0,.29.719A4.779,4.779,0,0,1,59.29,50.59Z" transform="translate(-25.5 -21.843)" fill="#0e2d4f"/>
            <path id="Trazado_489" data-name="Trazado 489" d="M42.659,40.63a3.9,3.9,0,0,0-.539.487A3.591,3.591,0,0,1,42.659,40.63Z" transform="translate(-18.284 -17.657)" fill="#0e2d4f"/>
            <path id="Trazado_490" data-name="Trazado 490" d="M40.9,88.46a6.551,6.551,0,0,0,.591.342A6.551,6.551,0,0,1,40.9,88.46Z" transform="translate(-17.771 -37.759)" fill="#0e2d4f"/>
            <path id="Trazado_491" data-name="Trazado 491" d="M31.443,49.4a4.98,4.98,0,0,1,1.223.881,5.48,5.48,0,0,0-1.223-.881,3.56,3.56,0,0,0-2.736-.168,3.376,3.376,0,0,0-1.246.806,3.23,3.23,0,0,1,1.246-.812A3.535,3.535,0,0,1,31.443,49.4Z" transform="translate(-12.123 -21.188)" fill="#0e2d4f"/>
            <path id="Trazado_492" data-name="Trazado 492" d="M31.62,65.05a2.375,2.375,0,0,0,.406.07C31.887,65.1,31.753,65.079,31.62,65.05Z" transform="translate(-13.871 -27.92)" fill="#0e2d4f"/>
          </g>
          <g id="Grupo_266" data-name="Grupo 266">
            <path id="Trazado_493" data-name="Trazado 493" d="M19.608,73.821v-37.2a1.276,1.276,0,0,0-.058-.336" transform="translate(-8.798 -15.833)" fill="none" stroke="#0e2d4f" stroke-miterlimit="10" stroke-width="2"/>
            <path id="Trazado_494" data-name="Trazado 494" d="M92.48,35.86h.006V73.641H92.48" transform="translate(-39.449 -15.652)" fill="none" stroke="#0e2d4f" stroke-miterlimit="10" stroke-width="2"/>
            <path id="Trazado_495" data-name="Trazado 495" d="M54.8,61h-44a1,1,0,0,1-1-1V23.135L2.671,29.268a1.009,1.009,0,1,1-1.316-1.53L32.2,1.245a1,1,0,0,1,1.3-.006L65,27.825a1.011,1.011,0,0,1-.649,1.78,1.094,1.094,0,0,1-.649-.232l-7.647-6.464V59.7a1.033,1.033,0,0,1-.22.632l-.232.3A1.039,1.039,0,0,1,54.8,61Z" transform="translate(-1.004 -1.002)" fill="none" stroke="#0e2d4f" stroke-miterlimit="10" stroke-width="2"/>
            <path id="Trazado_496" data-name="Trazado 496" d="M61.825,22.894,40.648,5.01l-21.1,18.134H19.54a1.077,1.077,0,0,1,.058.336v37.2H61.825Z" transform="translate(-8.794 -2.687)" fill="none" stroke="#0e2d4f" stroke-miterlimit="10" stroke-width="2"/>
          </g>
        </g>
      </g>
    </g>
    <path id="Trazado_497" data-name="Trazado 497" d="M286.463,68.69l-3.96,5.936L278.55,68.69Z" transform="translate(11021.594 4807.752)" fill="#c00"/>
  </g>
</svg>
