<svg xmlns="http://www.w3.org/2000/svg" width="18.296" height="15.246" viewBox="0 0 18.296 15.246">
  <g id="Grupo_1684" data-name="Grupo 1684" transform="translate(-331.656 -22.851)">
    <path id="Trazado_15" data-name="Trazado 15" d="M945.287,44.312a.764.764,0,0,0-.762.762v8.385a.764.764,0,0,0,.762.762h13.722a.763.763,0,0,0,.762-.762V45.074a.763.763,0,0,0-.762-.762H955.96a.768.768,0,0,1-.634-.339l-1.3-1.948h-3.757l-1.3,1.948a.76.76,0,0,1-.634.339Zm13.722,11.435H945.287A2.29,2.29,0,0,1,943,53.459V45.074a2.29,2.29,0,0,1,2.287-2.287h2.643l1.3-1.948a.759.759,0,0,1,.634-.339h4.574a.768.768,0,0,1,.633.339l1.3,1.948h2.643a2.29,2.29,0,0,1,2.287,2.287v8.385A2.29,2.29,0,0,1,959.009,55.746Z" transform="translate(-611.344 -17.649)" fill="#0e2d4f"/>
    <path id="Trazado_16" data-name="Trazado 16" d="M962.013,54.64a2.456,2.456,0,1,0,2.456,2.456A2.458,2.458,0,0,0,962.013,54.64Zm0,6.546a4.093,4.093,0,1,1,4.093-4.093A4.1,4.1,0,0,1,962.013,61.186Z" transform="translate(-621.208 -25.982)" fill="#0e2d4f"/>
  </g>
</svg>
