<svg id="Grupo_1734" data-name="Grupo 1734" xmlns="http://www.w3.org/2000/svg" width="18.371" height="20.208" viewBox="0 0 18.371 20.208">
  <g id="Grupo_1731" data-name="Grupo 1731" transform="translate(0 0)">
    <path id="Trazado_2819" data-name="Trazado 2819" d="M15.615,20.208H2.756A2.764,2.764,0,0,1,0,17.452V4.593a.9.9,0,0,1,.184-.551L2.939.367A.931.931,0,0,1,3.674,0H14.7a.931.931,0,0,1,.735.367l2.756,3.674a.9.9,0,0,1,.184.551v12.86A2.764,2.764,0,0,1,15.615,20.208ZM1.837,4.9V17.452a.921.921,0,0,0,.919.919h12.86a.921.921,0,0,0,.919-.919V4.9l-2.3-3.059H4.133Z" transform="translate(0 0)" fill="#0e2d4f"/>
  </g>
  <g id="Grupo_1732" data-name="Grupo 1732" transform="translate(0 3.674)">
    <path id="Trazado_2820" data-name="Trazado 2820" d="M17.452,5.837H.919A.919.919,0,0,1,.919,4H17.452a.919.919,0,1,1,0,1.837Z" transform="translate(0 -4)" fill="#0e2d4f"/>
  </g>
  <g id="Grupo_1733" data-name="Grupo 1733" transform="translate(4.593 7.348)">
    <path id="Trazado_2821" data-name="Trazado 2821" d="M9.593,13.511A4.594,4.594,0,0,1,5,8.919a.919.919,0,1,1,1.837,0,2.756,2.756,0,1,0,5.511,0,.919.919,0,1,1,1.837,0A4.594,4.594,0,0,1,9.593,13.511Z" transform="translate(-5 -8)" fill="#0e2d4f"/>
  </g>
</svg>
