<svg xmlns="http://www.w3.org/2000/svg" width="101.328" height="67.093" viewBox="0 0 101.328 67.093">
  <g id="Grupo_1032" data-name="Grupo 1032" transform="translate(-443 -1323)">
    <path id="Trazado_956" data-name="Trazado 956" d="M-16059.333-10823.333l43.333-15.334s5.333,20.666-15.667,28S-16059.333-10823.333-16059.333-10823.333Z" transform="translate(16549 12188.667)" fill="#c00"/>
    <path id="Trazado_562" data-name="Trazado 562" d="M97.493,21.671a1.523,1.523,0,0,0-1.916-.948l-8.551,2.884h0L60.9,32.42c-.434-13.956-5.587-21.63-14.632-21.63a20.5,20.5,0,0,0-9.156,2.249,16.629,16.629,0,0,1-5.314,1.6A11.741,11.741,0,0,1,43.523,3.025a1.513,1.513,0,0,0,0-3.025A14.752,14.752,0,0,0,28.77,14.592a11.093,11.093,0,0,1-3.822-1.462,16.948,16.948,0,0,0-9.287-2.34C5.577,10.79,0,19.17,0,34.377A30.485,30.485,0,0,0,30.494,64.821,30.176,30.176,0,0,0,47.93,59.284,32.384,32.384,0,0,0,51.8,61.553,32.8,32.8,0,0,0,97.493,21.671Zm-11.9,18.293L75.449,34.286A1.512,1.512,0,1,0,73.927,36.9l.061.03,10.256,5.748a20.648,20.648,0,0,1-9.6,8.5L70.488,39.257a1.518,1.518,0,1,0-2.864,1.008h0l1.636,4.662L71.8,52.165a20.663,20.663,0,0,1-24.5-11.97l39.177-13.21A20.6,20.6,0,0,1,85.594,39.963ZM30.494,61.8A27.444,27.444,0,0,1,3.066,34.367c0-9.378,2.188-20.561,12.635-20.561a14.031,14.031,0,0,1,7.825,2.017,13.483,13.483,0,0,0,5.244,1.805v6.787c-4.447-.5-6.2-2.612-6.3-2.733a1.513,1.513,0,0,0-2.41,1.825c.121.161,3.116,4.034,10.649,4.034a13.716,13.716,0,0,0,9.7-3.933,1.513,1.513,0,0,0-2.239-2.017A10.583,10.583,0,0,1,31.8,24.464V17.677a19.072,19.072,0,0,0,6.545-1.926,17.34,17.34,0,0,1,7.926-1.946c9.731,0,11.516,11.869,11.647,19.614L44.8,37.825h0L36.252,40.71a1.523,1.523,0,0,0-.948,1.916,32.656,32.656,0,0,0,10.1,14.783A27.172,27.172,0,0,1,30.494,61.8Zm45.378-1.412A29.813,29.813,0,0,1,38.7,43.089l5.728-1.936a24.048,24.048,0,0,0,6.131,8.709,23.741,23.741,0,0,0,39.6-17.745,23.948,23.948,0,0,0-.8-6.1l5.708-1.886a29.818,29.818,0,0,1-19.15,36.242Z" transform="translate(444 1324)" fill="#0e2d4f" stroke="#0e2d4f" stroke-width="2"/>
  </g>
</svg>
