<svg xmlns="http://www.w3.org/2000/svg" width="81.702" height="60" viewBox="0 0 81.702 60">
  <g id="Grupo_620" data-name="Grupo 620" transform="translate(-487.298 -1577)">
    <g id="Grupo_615" data-name="Grupo 615" transform="translate(487.298 1577)">
      <path id="Trazado_763" data-name="Trazado 763" d="M1.277,9.106H7.66a1.29,1.29,0,0,1,1.06.562L16,20.6H31.915V5.277A1.28,1.28,0,0,1,33.191,4h6.383a1.3,1.3,0,0,1,1.149.7L48.664,20.6H66.906a6.13,6.13,0,0,1,4.379,1.813L73.9,25.026a3.612,3.612,0,0,0,1.851,1l.97.191a6.187,6.187,0,0,1-1.213,12.255H48.664l-7.94,15.894a1.3,1.3,0,0,1-1.149.7H33.191a1.28,1.28,0,0,1-1.277-1.277V38.468H26.809a1.234,1.234,0,0,1-.37-.051L.906,30.757A1.287,1.287,0,0,1,0,29.532v-7.66c0-.051.026,0,.038,0H0V10.383A1.28,1.28,0,0,1,1.277,9.106ZM2.553,20.6h3.83l-3.83-5.106Zm4.43-8.936H2.872l6.7,8.936h3.357Zm31.8-5.106H34.468V20.6H45.8ZM34.468,52.511h4.315l7.94-15.894L49,32.085H34.468V52.511ZM2.553,28.587,27,35.915h4.915V30.809a1.28,1.28,0,0,1,1.277-1.277H51.064a1.275,1.275,0,0,1,1.085.6A1.259,1.259,0,0,1,52.2,31.37l-2.26,4.545h25.57a3.635,3.635,0,0,0,.715-7.2l-.983-.191a6.208,6.208,0,0,1-3.166-1.7L69.46,24.209a3.592,3.592,0,0,0-2.553-1.06H2.553Z" transform="translate(0 1.106)" fill="#0e2d4f"/>
      <rect id="Rectángulo_267" data-name="Rectángulo 267" width="2.553" height="2.553" transform="translate(62.553 26.809)" fill="#0e2d4f"/>
      <rect id="Rectángulo_268" data-name="Rectángulo 268" width="2.553" height="2.553" transform="translate(57.447 26.809)" fill="#0e2d4f"/>
      <rect id="Rectángulo_269" data-name="Rectángulo 269" width="2.553" height="2.553" transform="translate(52.34 26.809)" fill="#0e2d4f"/>
      <rect id="Rectángulo_270" data-name="Rectángulo 270" width="2.553" height="2.553" transform="translate(47.234 26.809)" fill="#0e2d4f"/>
      <rect id="Rectángulo_271" data-name="Rectángulo 271" width="2.553" height="2.553" transform="translate(42.128 26.809)" fill="#0e2d4f"/>
      <rect id="Rectángulo_272" data-name="Rectángulo 272" width="2.553" height="2.553" transform="translate(37.021 26.809)" fill="#0e2d4f"/>
      <rect id="Rectángulo_273" data-name="Rectángulo 273" width="2.553" height="2.553" transform="translate(31.915 26.809)" fill="#0e2d4f"/>
      <rect id="Rectángulo_274" data-name="Rectángulo 274" width="2.553" height="2.553" transform="translate(26.809 26.809)" fill="#0e2d4f"/>
      <rect id="Rectángulo_275" data-name="Rectángulo 275" width="2.553" height="2.553" transform="translate(21.702 26.809)" fill="#0e2d4f"/>
      <rect id="Rectángulo_276" data-name="Rectángulo 276" width="2.553" height="2.553" transform="translate(16.596 26.809)" fill="#0e2d4f"/>
      <rect id="Rectángulo_277" data-name="Rectángulo 277" width="19.149" height="2.553" transform="translate(42.128)" fill="#c00"/>
      <rect id="Rectángulo_278" data-name="Rectángulo 278" width="2.553" height="2.553" transform="translate(37.021)" fill="#0e2d4f"/>
      <rect id="Rectángulo_279" data-name="Rectángulo 279" width="2.553" height="2.553" transform="translate(31.915)" fill="#0e2d4f"/>
      <rect id="Rectángulo_280" data-name="Rectángulo 280" width="16.596" height="2.553" transform="translate(10.213 43.404)" fill="#c00"/>
      <rect id="Rectángulo_281" data-name="Rectángulo 281" width="2.553" height="2.553" transform="translate(5.106 43.404)" fill="#0e2d4f"/>
      <rect id="Rectángulo_282" data-name="Rectángulo 282" width="2.553" height="2.553" transform="translate(0 43.404)" fill="#0e2d4f"/>
      <rect id="Rectángulo_283" data-name="Rectángulo 283" width="16.596" height="2.553" transform="translate(58.723 57.447)" fill="#c00"/>
      <rect id="Rectángulo_284" data-name="Rectángulo 284" width="2.553" height="2.553" transform="translate(53.617 57.447)" fill="#0e2d4f"/>
      <rect id="Rectángulo_285" data-name="Rectángulo 285" width="2.553" height="2.553" transform="translate(48.511 57.447)" fill="#0e2d4f"/>
      <rect id="Rectángulo_286" data-name="Rectángulo 286" width="2.553" height="2.553" transform="translate(26.809)" fill="#0e2d4f"/>
    </g>
  </g>
</svg>
