<svg id="Grupo_292" data-name="Grupo 292" xmlns="http://www.w3.org/2000/svg" width="75.796" height="68.139" viewBox="0 0 75.796 68.139">
  <g id="Grupo_291" data-name="Grupo 291" transform="translate(20.749 22.221)">
    <path id="Trazado_521" data-name="Trazado 521" d="M45.922,28.54V44.16H60.95v3.987H45.922V63.9H41.67V48.155H26.65V44.16H41.67V28.54Z" transform="translate(-26.65 -28.54)" fill="#c00"/>
  </g>
  <path id="Trazado_522" data-name="Trazado 522" d="M75.111,36.247l-9.57-9.57h0L39.549.686a2.336,2.336,0,0,0-3.3,0L10.263,26.67h0L.686,36.247a2.335,2.335,0,0,0,3.3,3.3L9.57,33.966v31.84a2.333,2.333,0,0,0,2.336,2.336H63.882a2.333,2.333,0,0,0,2.336-2.336V33.966L71.8,39.549a2.337,2.337,0,0,0,3.309-3.3ZM61.554,63.469H14.242V29.294L37.9,5.638,61.554,29.294V63.469Z" transform="translate(-0.003 -0.003)" fill="#0e2d4f"/>
</svg>
