<svg id="Grupo_959" data-name="Grupo 959" xmlns="http://www.w3.org/2000/svg" xmlns:xlink="http://www.w3.org/1999/xlink" width="64" height="45.919" viewBox="0 0 64 45.919">
  <defs>
    <clipPath id="clip-path">
      <rect id="Rectángulo_382" data-name="Rectángulo 382" width="64" height="45.919" fill="#0e2d4f"/>
    </clipPath>
  </defs>
  <g id="Grupo_904" data-name="Grupo 904" clip-path="url(#clip-path)">
    <path id="Trazado_930" data-name="Trazado 930" d="M32.064,45.9q-12.013,0-24.026-.007a15.92,15.92,0,0,1-2.773-.167A6.221,6.221,0,0,1,.187,40.689a6.269,6.269,0,0,1,2.851-7.1q12.248-7.759,24.552-15.43c1.218-.756,1.869-1.525,1.674-3.012a4.714,4.714,0,0,1,2.624-4.973,10.977,10.977,0,0,0,1.795-1.261,1.941,1.941,0,0,0-.6-3.407,3,3,0,0,0-4.4,2.636c-.072.8.154,1.91-.972,2a21.246,21.246,0,0,1-3.979-.277c-.139-.016-.31-.481-.324-.744C23.134,3.873,26.653.165,31.074.007c5.2-.186,9.068,3.316,8.87,8.106a6.314,6.314,0,0,1-2.922,4.99c-.553.4-1.172.718-1.688,1.16a2.058,2.058,0,0,0,.275,3.5Q48.02,25.536,60.444,33.289a6.852,6.852,0,0,1,3.332,4.255c1.05,4.268-1.688,8.17-6.076,8.28-6.052.152-12.109.072-18.164.087-2.491.006-4.981,0-7.472,0Zm.08-5.6c8.059,0,16.118.021,24.176-.04.642-.005,1.28-.583,1.921-.895-.368-.511-.626-1.194-1.119-1.506Q45.052,30.222,32.908,22.705a2.047,2.047,0,0,0-1.78.026q-12.022,7.432-23.957,15c-.55.349-.809,1.157-1.2,1.752a6.213,6.213,0,0,0,2,.776c8.059.054,16.118.035,24.176.036" transform="translate(0 0)" fill="#0e2d4f"/>
  </g>
</svg>
