<svg id="Grupo_469" data-name="Grupo 469" xmlns="http://www.w3.org/2000/svg" width="52.163" height="58.313" viewBox="0 0 52.163 58.313">
  <g id="Grupo_448" data-name="Grupo 448">
    <g id="Grupo_447" data-name="Grupo 447">
      <path id="Trazado_670" data-name="Trazado 670" d="M46.468,0H5.695A5.7,5.7,0,0,0,0,5.695V52.619a5.7,5.7,0,0,0,5.695,5.695H46.468a5.7,5.7,0,0,0,5.695-5.695V5.695A5.7,5.7,0,0,0,46.468,0Zm3.417,52.619a3.421,3.421,0,0,1-3.417,3.417H5.695a3.421,3.421,0,0,1-3.417-3.417V16.856H41.153a1.139,1.139,0,0,0,0-2.278H2.278V5.695A3.421,3.421,0,0,1,5.695,2.278H46.468a3.421,3.421,0,0,1,3.417,3.417Z" fill="#0e2d4f"/>
    </g>
  </g>
  <g id="Grupo_450" data-name="Grupo 450" transform="translate(44.57 14.578)">
    <g id="Grupo_449" data-name="Grupo 449">
      <path id="Trazado_671" data-name="Trazado 671" d="M393.275,128.334a1.141,1.141,0,1,0,.333.805A1.152,1.152,0,0,0,393.275,128.334Z" transform="translate(-391.33 -128)" fill="#0e2d4f"/>
    </g>
  </g>
  <g id="Grupo_452" data-name="Grupo 452" transform="translate(9.902 20.276)">
    <g id="Grupo_451" data-name="Grupo 451">
      <path id="Trazado_672" data-name="Trazado 672" d="M114.553,182.762a16.037,16.037,0,0,0-9.16-4.576,16.3,16.3,0,0,0-9.88,1.736,1.139,1.139,0,0,0,1.072,2.01,13.892,13.892,0,1,1-5.442,5.209,1.139,1.139,0,0,0-1.962-1.158,16.175,16.175,0,1,0,25.373-3.221Z" transform="translate(-86.937 -178.028)" fill="#c00"/>
    </g>
  </g>
  <g id="Grupo_454" data-name="Grupo 454" transform="translate(14.395 24.571)">
    <g id="Grupo_453" data-name="Grupo 453">
      <path id="Trazado_673" data-name="Trazado 673" d="M128.355,216.075a1.152,1.152,0,1,0-.83,1.964,1.153,1.153,0,0,0,.811-.338l.007-.007A1.132,1.132,0,0,0,128.355,216.075Z" transform="translate(-126.388 -215.737)" fill="#0e2d4f"/>
    </g>
  </g>
  <g id="Grupo_456" data-name="Grupo 456" transform="translate(14.464 24.829)">
    <g id="Grupo_455" data-name="Grupo 455">
      <path id="Trazado_674" data-name="Trazado 674" d="M138.617,218a11.617,11.617,0,1,0,11.617,11.617A11.631,11.631,0,0,0,138.617,218Zm0,2.278a9.35,9.35,0,0,1,9.311,8.649,3.582,3.582,0,0,1-5-.256,1.139,1.139,0,0,0-1.674,0,3.582,3.582,0,0,1-5.266,0,1.139,1.139,0,0,0-1.674,0,3.582,3.582,0,0,1-5,.256A9.353,9.353,0,0,1,138.617,220.278Zm0,18.678a9.353,9.353,0,0,1-9.106-7.273,5.835,5.835,0,0,0,5.637-.721,5.852,5.852,0,0,0,6.941,0,5.835,5.835,0,0,0,5.637.721A9.358,9.358,0,0,1,138.617,238.956Z" transform="translate(-127 -218)" fill="#0e2d4f"/>
    </g>
  </g>
  <g id="Grupo_458" data-name="Grupo 458" transform="translate(39.863 4.271)">
    <g id="Grupo_457" data-name="Grupo 457">
      <path id="Trazado_675" data-name="Trazado 675" d="M353.872,37.5a3.872,3.872,0,1,0,3.872,3.872A3.876,3.876,0,0,0,353.872,37.5Zm0,5.467a1.595,1.595,0,1,1,1.595-1.595A1.6,1.6,0,0,1,353.872,42.967Z" transform="translate(-350 -37.5)" fill="#c00"/>
    </g>
  </g>
  <g id="Grupo_460" data-name="Grupo 460" transform="translate(32.231 5.182)">
    <g id="Grupo_459" data-name="Grupo 459">
      <path id="Trazado_676" data-name="Trazado 676" d="M285.951,45.5a2.961,2.961,0,1,0,2.961,2.961A2.964,2.964,0,0,0,285.951,45.5Zm0,3.645a.683.683,0,1,1,.683-.683A.684.684,0,0,1,285.951,49.145Z" transform="translate(-282.99 -45.5)" fill="#0e2d4f"/>
    </g>
  </g>
  <g id="Grupo_462" data-name="Grupo 462" transform="translate(6.15 5.296)">
    <g id="Grupo_461" data-name="Grupo 461">
      <path id="Trazado_677" data-name="Trazado 677" d="M55.139,46.5A1.139,1.139,0,0,0,54,47.639v3.417a1.139,1.139,0,0,0,2.278,0V47.639A1.139,1.139,0,0,0,55.139,46.5Z" transform="translate(-54 -46.5)" fill="#0e2d4f"/>
    </g>
  </g>
  <g id="Grupo_464" data-name="Grupo 464" transform="translate(10.744 5.296)">
    <g id="Grupo_463" data-name="Grupo 463">
      <path id="Trazado_678" data-name="Trazado 678" d="M95.469,46.5a1.139,1.139,0,0,0-1.139,1.139v3.417a1.139,1.139,0,1,0,2.278,0V47.639A1.139,1.139,0,0,0,95.469,46.5Z" transform="translate(-94.33 -46.5)" fill="#c00"/>
    </g>
  </g>
  <g id="Grupo_466" data-name="Grupo 466" transform="translate(15.338 5.296)">
    <g id="Grupo_465" data-name="Grupo 465">
      <path id="Trazado_679" data-name="Trazado 679" d="M135.809,46.5a1.139,1.139,0,0,0-1.139,1.139v3.417a1.139,1.139,0,1,0,2.278,0V47.639A1.139,1.139,0,0,0,135.809,46.5Z" transform="translate(-134.67 -46.5)" fill="#0e2d4f"/>
    </g>
  </g>
  <g id="Grupo_468" data-name="Grupo 468" transform="translate(19.931 5.296)">
    <g id="Grupo_467" data-name="Grupo 467">
      <path id="Trazado_680" data-name="Trazado 680" d="M176.139,46.5A1.139,1.139,0,0,0,175,47.639v3.417a1.139,1.139,0,1,0,2.278,0V47.639A1.139,1.139,0,0,0,176.139,46.5Z" transform="translate(-175 -46.5)" fill="#c00"/>
    </g>
  </g>
</svg>
