<svg id="Grupo_911" data-name="Grupo 911" xmlns="http://www.w3.org/2000/svg" xmlns:xlink="http://www.w3.org/1999/xlink" width="43.395" height="75.146" viewBox="0 0 43.395 75.146">
  <defs>
    <clipPath id="clip-path">
      <rect id="Rectángulo_385" data-name="Rectángulo 385" width="43.395" height="75.146" fill="#0e2d4f"/>
    </clipPath>
  </defs>
  <g id="Grupo_910" data-name="Grupo 910" clip-path="url(#clip-path)">
    <path id="Trazado_942" data-name="Trazado 942" d="M27.951,52.092c.538,4,1.21,8.487,1.73,12.993.532,4.611-1.425,8.127-5.118,9.526A8.05,8.05,0,0,1,13.642,66.9a66.837,66.837,0,0,1,.775-7.624c.327-2.531.762-5.049,1.152-7.573-.067-.12-.111-.31-.211-.348C3.974,47.026-1.077,33.8.19,23,1,16.128,3.489,10.074,8.641,5.343c8.15-7.484,19.45-7.048,27.106.937,9.947,10.374,10.279,28.82.483,39.321-2.271,2.434-5.281,4.176-8.278,6.49M4.552,26.28a24.01,24.01,0,0,0,5.693,16.053c6.4,7.4,16.423,7.4,22.871.034,7.612-8.689,7.626-23.533.03-32.256-6.413-7.365-16.488-7.395-22.882-.02-4,4.613-5.656,10.088-5.713,16.189" transform="translate(0 0)" fill="#0e2d4f"/>
    <path id="Trazado_943" data-name="Trazado 943" d="M42.606,33.973A13.315,13.315,0,0,1,41.472,35.5c-3.5,3.534-6.994,7.081-10.588,10.522-.485.464-1.52.354-2.3.509.194-.781.139-1.8.623-2.305,3.443-3.591,6.972-7.1,10.542-10.567a3.882,3.882,0,0,1,2.016-.718c.19-.031.485.577.841,1.032" transform="translate(-16.32 -18.807)" fill="#c00"/>
    <path id="Trazado_944" data-name="Trazado 944" d="M29.028,41.911c-.272-.2-.813-.409-.97-.778a1.507,1.507,0,0,1,.159-1.332c1.388-1.5,2.828-2.964,4.342-4.338a1.546,1.546,0,0,1,1.479-.088c.339.233.643,1.2.468,1.388-1.562,1.716-3.232,3.335-4.88,4.973-.087.086-.264.082-.6.175" transform="translate(-15.97 -20.113)" fill="#c00"/>
    <path id="Trazado_945" data-name="Trazado 945" d="M44.28,57.163c-.272-.2-.813-.409-.97-.778a1.507,1.507,0,0,1,.159-1.332c1.388-1.5,2.828-2.964,4.342-4.338a1.547,1.547,0,0,1,1.479-.088c.339.233.643,1.2.468,1.388-1.562,1.716-3.232,3.335-4.879,4.973-.087.086-.264.082-.6.175" transform="translate(-24.679 -28.821)" fill="#c00"/>
  </g>
</svg>
