<svg xmlns="http://www.w3.org/2000/svg" width="62.771" height="67.438" viewBox="0 0 62.771 67.438">
  <g id="Grupo_1029" data-name="Grupo 1029" transform="translate(-782 -1621)">
    <g id="Grupo_679" data-name="Grupo 679" transform="translate(782 1621)">
      <g id="Grupo_675" data-name="Grupo 675" transform="translate(24.663 11.399)">
        <path id="Trazado_795" data-name="Trazado 795" d="M26.694,20.768a2.215,2.215,0,0,1-2-1.233L21.6,13.348l-2.287,2.287a2.219,2.219,0,0,1-1.592.65H13.242a2.242,2.242,0,0,1,0-4.484h3.565L20.64,7.967a2.225,2.225,0,0,1,1.95-.628A2.18,2.18,0,0,1,24.227,8.55l2.242,4.506,2.623-6.569a2.262,2.262,0,0,1,3.968-.4l4.484,6.726A2.248,2.248,0,1,1,33.8,15.3l-2.13-3.184-2.892,7.264a2.247,2.247,0,0,1-2,1.412C26.761,20.746,26.716,20.768,26.694,20.768Z" transform="translate(-11 -5.084)" fill="#c00"/>
      </g>
      <g id="Grupo_676" data-name="Grupo 676" transform="translate(0 33.809)">
        <path id="Trazado_796" data-name="Trazado 796" d="M2.243,37.5a2.332,2.332,0,0,1-1.188-.336,2.253,2.253,0,0,1-.717-3.094l5.829-9.416A20.535,20.535,0,0,1,23.317,15.08h14.8a2.249,2.249,0,0,1,2.242,2.242,11.214,11.214,0,0,1-11.21,11.21H24.662a2.242,2.242,0,0,1,0-4.484h4.484a6.756,6.756,0,0,0,6.345-4.484H23.317A16,16,0,0,0,9.955,27.074L4.149,36.423A2.243,2.243,0,0,1,2.243,37.5Z" transform="translate(0.001 -15.08)" fill="#0e2d4f"/>
      </g>
      <g id="Grupo_677" data-name="Grupo 677" transform="translate(6.73 33.786)">
        <path id="Trazado_797" data-name="Trazado 797" d="M5.241,48.722A2.252,2.252,0,0,1,4.008,44.6a55.378,55.378,0,0,1,30.827-9.349A15.968,15.968,0,0,0,48.779,27.02L52.5,20.406a10.953,10.953,0,0,0-4.641,3.61l-2.713,3.61a2.273,2.273,0,0,1-1.794.9H25.418a2.242,2.242,0,0,1,0-4.484H42.233l2.018-2.69A15.587,15.587,0,0,1,56.805,15.07a2.214,2.214,0,0,1,1.928,1.121,2.283,2.283,0,0,1,.022,2.242L52.7,29.194a20.532,20.532,0,0,1-17.868,10.56A51.169,51.169,0,0,0,6.474,48.34,2.277,2.277,0,0,1,5.241,48.722Z" transform="translate(-3.001 -15.07)" fill="#0e2d4f"/>
      </g>
      <g id="Grupo_678" data-name="Grupo 678" transform="translate(13.439)">
        <path id="Trazado_798" data-name="Trazado 798" d="M31.118,44.1a2.169,2.169,0,0,1-1.547-.628A2.233,2.233,0,0,1,29.5,40.31L48.089,21.074a9.962,9.962,0,0,0,.022-13.743,9.026,9.026,0,0,0-13.138-.022L32.687,9.6a2.91,2.91,0,0,1-4.058,0L26.387,7.354a9.027,9.027,0,0,0-13.16-.045,9.956,9.956,0,0,0,0,13.721L25.8,34.5a2.237,2.237,0,1,1-3.273,3.049L9.976,24.078A14.319,14.319,0,0,1,10,4.237a13.445,13.445,0,0,1,19.595,0l1.076,1.054,1.1-1.1a13.468,13.468,0,0,1,19.572.045,14.425,14.425,0,0,1,0,19.908l-2.668,2.892L32.732,43.449A2.35,2.35,0,0,1,31.118,44.1Z" transform="translate(-5.994 0)" fill="#0e2d4f"/>
      </g>
    </g>
  </g>
</svg>
