<svg id="Grupo_320" data-name="Grupo 320" xmlns="http://www.w3.org/2000/svg" width="65.392" height="65.391" viewBox="0 0 65.392 65.391">
  <circle id="Elipse_23" data-name="Elipse 23" cx="1.606" cy="1.606" r="1.606" transform="translate(51.395 53.919)" fill="#0e2d4f"/>
  <path id="Trazado_530" data-name="Trazado 530" d="M63.992,18.86c-1.111-1.978-3.175-5.653-6.932-12.59v-2.1A4.17,4.17,0,0,0,52.894,0H12.5A4.17,4.17,0,0,0,8.332,4.166v2.1C4.523,13.3,2.463,16.972,1.355,18.945.025,21.312,0,21.357,0,21.839v2.525a6.667,6.667,0,0,0,3.282,5.6V63.75a1.643,1.643,0,0,0,1.641,1.641H60.468a1.643,1.643,0,0,0,1.641-1.641V29.959a6.693,6.693,0,0,0,3.282-5.595V21.838C65.392,21.351,65.339,21.257,63.992,18.86ZM14.139,48.728v-10.1H26.005v10.1ZM26.005,52.01v10.1H14.139V52.01Zm36.1-28.53v.884a3.551,3.551,0,0,1-2.371,3.129,3.814,3.814,0,0,1-1.416.279,3.756,3.756,0,0,1-3.787-3.408V23.48h7.574ZM27.646,35.347H12.5a1.643,1.643,0,0,0-1.641,1.641V62.109H6.564V31.036c.17.013.34.019.5.019a7.341,7.341,0,0,0,4.861-1.9c.17-.155.336-.319.492-.491a6.717,6.717,0,0,0,5.124,2.395A6.632,6.632,0,0,0,22.6,28.75a6.683,6.683,0,0,0,10.1,0,6.683,6.683,0,0,0,10.1,0,6.632,6.632,0,0,0,5.05,2.305,6.714,6.714,0,0,0,5.124-2.4,6.948,6.948,0,0,0,.492.491,7.336,7.336,0,0,0,4.861,1.9c.167,0,.335-.006.5-.019V62.109H29.287V36.988A1.643,1.643,0,0,0,27.646,35.347ZM7.069,27.772a3.85,3.85,0,0,1-1.5-.316,3.546,3.546,0,0,1-2.286-3.093V23.48h7.574v.884A3.756,3.756,0,0,1,7.069,27.772ZM54.077,20.2,50.122,8.332h4.327L60.976,20.2Zm-39.3,0L18.73,8.332h4.454L21.206,20.2Zm-.636,4.166V23.48h6.817v.884a3.408,3.408,0,0,1-6.817,0Zm16.916-.884v.884a3.408,3.408,0,0,1-6.817,0V23.48ZM24.534,20.2,26.513,8.332h4.542V20.2Zm9.8,0V8.332H38.88L40.858,20.2Zm9.848,0L42.207,8.332H46.66L50.615,20.2Zm7.068,4.166a3.408,3.408,0,1,1-6.817,0V23.48h6.817ZM34.337,23.48h6.817v.884a3.408,3.408,0,0,1-6.817,0ZM15.27,8.332,11.315,20.2h-6.9L10.944,8.332ZM11.614,5.05V4.166a.885.885,0,0,1,.884-.884h40.4a.885.885,0,0,1,.884.884V5.05Z" transform="translate(0)" fill="#0e2d4f"/>
  <path id="Trazado_531" data-name="Trazado 531" d="M267.641,296.663h20.2a1.641,1.641,0,1,0,0-3.282h-.884v-11.74A1.643,1.643,0,0,0,285.314,280H270.166a1.643,1.643,0,0,0-1.641,1.641v11.74h-.884a1.641,1.641,0,1,0,0,3.282Zm4.166-3.282v-10.1h11.866v10.1Z" transform="translate(-232.421 -244.653)" fill="#c00"/>
  <path id="Trazado_532" data-name="Trazado 532" d="M297.74,426h-10.1a1.641,1.641,0,0,0,0,3.282h10.1a1.641,1.641,0,0,0,0-3.282Z" transform="translate(-249.896 -372.222)" fill="#c00"/>
</svg>
