<svg xmlns="http://www.w3.org/2000/svg" width="109.511" height="67.179" viewBox="0 0 109.511 67.179">
  <g id="Grupo_1030" data-name="Grupo 1030" transform="translate(-427 -1621)">
    <g id="Grupo_674" data-name="Grupo 674" transform="translate(427 1621)">
      <g id="Grupo_666" data-name="Grupo 666" transform="translate(35.039 0)">
        <path id="Trazado_784" data-name="Trazado 784" d="M121.534,67.183H75.3a4.983,4.983,0,0,1-4.966-4.914,189.852,189.852,0,0,0-3.213-33.086h-.985a4.963,4.963,0,0,1-.006-9.925h7.382L87.365,2.121a5.7,5.7,0,1,1,8.866,7.171l-8.058,9.971h20.492L100.606,9.3a5.7,5.7,0,1,1,8.86-7.171l13.854,17.136H130.7a4.963,4.963,0,0,1,0,9.925h-1a189.787,189.787,0,0,0-3.213,33.081A4.975,4.975,0,0,1,121.534,67.183ZM69.015,24.6a2.283,2.283,0,0,1,2.245,1.85,194.393,194.393,0,0,1,3.654,35.773.383.383,0,0,0,.384.378h46.236a.386.386,0,0,0,.384-.378,194.891,194.891,0,0,1,3.654-35.773,2.288,2.288,0,0,1,2.245-1.85H130.7a.381.381,0,0,0-.006-.762h-8.516a2.3,2.3,0,0,1-1.987-1.151,1.079,1.079,0,0,0-.092-.132L105.91,5a1.093,1.093,0,0,0-.75-.407,1.119,1.119,0,0,0-.819.241,1.093,1.093,0,0,0-.407.75,1.113,1.113,0,0,0,.241.819l11.076,13.7a2.293,2.293,0,0,1-1.781,3.734h-30.1A2.293,2.293,0,0,1,81.592,20.1L92.668,6.4a1.093,1.093,0,0,0,.241-.819,1.142,1.142,0,0,0-.407-.75,1.093,1.093,0,0,0-.819-.241,1.117,1.117,0,0,0-.75.407L76.724,22.567a.939.939,0,0,0-.086.126,2.287,2.287,0,0,1-1.982,1.145H66.134a.382.382,0,0,0-.372.384.378.378,0,0,0,.378.378Z" transform="translate(-61.18 -0.004)" fill="#0e2d4f"/>
      </g>
      <g id="Grupo_667" data-name="Grupo 667" transform="translate(82.913 32.878)">
        <path id="Trazado_785" data-name="Trazado 785" d="M148.965,61.41a.193.193,0,0,0-.195.195V76.347a.195.195,0,1,0,.389,0V61.6A.19.19,0,0,0,148.965,61.41Z" transform="translate(-146.479 -59.119)" fill="#0e2d4f"/>
        <path id="Trazado_786" data-name="Trazado 786" d="M147.256,77.129a2.487,2.487,0,0,1-2.486-2.486V59.9a2.486,2.486,0,1,1,4.971,0V74.638A2.485,2.485,0,0,1,147.256,77.129Z" transform="translate(-144.77 -57.41)" fill="#0e2d4f"/>
      </g>
      <g id="Grupo_668" data-name="Grupo 668" transform="translate(70.016 32.878)">
        <path id="Trazado_787" data-name="Trazado 787" d="M126.445,61.41a.193.193,0,0,0-.195.195V76.347a.195.195,0,0,0,.389,0V61.6A.193.193,0,0,0,126.445,61.41Z" transform="translate(-123.959 -59.119)" fill="#0e2d4f"/>
        <path id="Trazado_788" data-name="Trazado 788" d="M124.736,77.129a2.487,2.487,0,0,1-2.486-2.486V59.9a2.486,2.486,0,1,1,4.971,0V74.638A2.488,2.488,0,0,1,124.736,77.129Z" transform="translate(-122.25 -57.41)" fill="#0e2d4f"/>
      </g>
      <g id="Grupo_669" data-name="Grupo 669" transform="translate(57.118 32.878)">
        <path id="Trazado_789" data-name="Trazado 789" d="M103.925,61.41a.193.193,0,0,0-.195.195V76.347a.195.195,0,1,0,.389,0V61.6A.193.193,0,0,0,103.925,61.41Z" transform="translate(-101.439 -59.119)" fill="#0e2d4f"/>
        <path id="Trazado_790" data-name="Trazado 790" d="M102.216,77.129a2.487,2.487,0,0,1-2.486-2.486V59.9a2.486,2.486,0,1,1,4.971,0V74.638A2.492,2.492,0,0,1,102.216,77.129Z" transform="translate(-99.73 -57.41)" fill="#0e2d4f"/>
      </g>
      <g id="Grupo_670" data-name="Grupo 670" transform="translate(0 27.787)">
        <path id="Trazado_791" data-name="Trazado 791" d="M34.919,51.956H1.082c-.6,0-1.082-.767-1.082-1.718S.487,48.52,1.082,48.52H34.919c.6,0,1.082.767,1.082,1.718S35.52,51.956,34.919,51.956Z" transform="translate(0 -48.52)" fill="#c00"/>
      </g>
      <g id="Grupo_671" data-name="Grupo 671" transform="translate(14.032 40.037)">
        <path id="Trazado_792" data-name="Trazado 792" d="M50.238,73.346H25.582c-.6,0-1.082-.767-1.082-1.718s.487-1.718,1.082-1.718h24.65c.6,0,1.082.767,1.082,1.718S50.834,73.346,50.238,73.346Z" transform="translate(-24.5 -69.91)" fill="#c00"/>
      </g>
      <g id="Grupo_672" data-name="Grupo 672" transform="translate(6.214 51.097)">
        <path id="Trazado_793" data-name="Trazado 793" d="M44.039,92.656H11.932c-.6,0-1.082-.767-1.082-1.718s.487-1.718,1.082-1.718H44.039c.6,0,1.082.767,1.082,1.718S44.635,92.656,44.039,92.656Z" transform="translate(-10.85 -89.22)" fill="#c00"/>
      </g>
      <g id="Grupo_673" data-name="Grupo 673" transform="translate(29.358 59.71)">
        <path id="Trazado_794" data-name="Trazado 794" d="M61.306,107.7H52.342c-.6,0-1.082-.767-1.082-1.718s.487-1.718,1.082-1.718h8.963c.6,0,1.082.767,1.082,1.718S61.9,107.7,61.306,107.7Z" transform="translate(-51.26 -104.26)" fill="#c00"/>
      </g>
    </g>
  </g>
</svg>
