<svg xmlns="http://www.w3.org/2000/svg" width="104.167" height="52.342" viewBox="0 0 104.167 52.342">
  <g id="Grupo_258" data-name="Grupo 258" transform="translate(0 0)">
    <g id="Grupo_189" data-name="Grupo 189" transform="translate(0 0)">
      <g id="XMLID_2_" transform="translate(0 0)">
        <g id="Grupo_188" data-name="Grupo 188" transform="translate(0 0)">
          <path id="Unión_1" data-name="Unión 1" d="M53.472,34.758c-.074-.335-.445-1.229-1.3-1.229s-1.229.893-1.3,1.193c-4.1,10.505-14.045,17.434-24.775,17.434A26.091,26.091,0,0,1,.013,25.222C.422,11.326,12.642,0,27.208,0H78.246a25.826,25.826,0,0,1,25.67,29.544A26.282,26.282,0,0,1,82.158,52.118a28.609,28.609,0,0,1-3.577.224A26.514,26.514,0,0,1,53.472,34.758ZM78.489,44.92h0Zm.013,0a19.527,19.527,0,0,0,2.337-.143A19.527,19.527,0,0,1,78.5,44.92Zm2.613-.178q.281-.044.558-.1Q81.4,44.7,81.115,44.742ZM26.09,44.706A19.458,19.458,0,0,0,43.862,32.188a8.7,8.7,0,0,1,8.307-6.11,8.7,8.7,0,0,0-8.307,6.11A19.46,19.46,0,0,1,26.09,44.706q-.9,0-1.777-.083Q25.192,44.705,26.09,44.706ZM60.852,33.145l-.016-.04Zm-.3-.808c-.01-.03-.02-.059-.03-.089C60.531,32.278,60.541,32.307,60.551,32.337Zm35.987-3.725a20.5,20.5,0,0,0,.184-2.707A20.5,20.5,0,0,1,96.538,28.612ZM7.519,27.594q-.062-.768-.064-1.547Q7.457,26.826,7.519,27.594Z" fill="#0e2d4f"/>
        </g>
      </g>
    </g>
    <g id="Grupo_190" data-name="Grupo 190" transform="translate(22.366 14.902)">
      <path id="Trazado_334" data-name="Trazado 334" d="M9.975,41.353A3.736,3.736,0,0,1,6.25,37.627v-14.9a3.725,3.725,0,1,1,7.451,0v14.9A3.736,3.736,0,0,1,9.975,41.353Z" transform="translate(-6.25 -19)" fill="#fff"/>
    </g>
    <g id="Grupo_191" data-name="Grupo 191" transform="translate(14.915 22.353)">
      <path id="Trazado_335" data-name="Trazado 335" d="M22.877,28.451H7.975a3.725,3.725,0,1,1,0-7.451h14.9a3.725,3.725,0,1,1,0,7.451Z" transform="translate(-4.25 -21)" fill="#fff"/>
    </g>
    <g id="Grupo_194" data-name="Grupo 194" transform="translate(74.521 14.948)">
      <path id="Trazado_338" data-name="Trazado 338" d="M23.975,26.417a3.689,3.689,0,0,1-3.725-3.725,3.725,3.725,0,0,1,6.37-2.645,3.917,3.917,0,0,1,1.08,2.645,3.689,3.689,0,0,1-3.725,3.725Z" transform="translate(-20.25 -19.013)" fill="#fff"/>
    </g>
    <g id="Grupo_195" data-name="Grupo 195" transform="translate(74.521 29.85)">
      <path id="Trazado_339" data-name="Trazado 339" d="M23.975,30.417a3.708,3.708,0,0,1-1.416-.3,3.846,3.846,0,0,1-1.229-.782,3.687,3.687,0,0,1-.782-4.061,3.65,3.65,0,0,1,6.035-1.229A3.788,3.788,0,0,1,27.7,26.691a3.752,3.752,0,0,1-3.725,3.725Z" transform="translate(-20.25 -23.013)" fill="#fff"/>
    </g>
    <g id="Grupo_196" data-name="Grupo 196" transform="translate(67.071 22.399)">
      <path id="Trazado_340" data-name="Trazado 340" d="M21.975,28.417a3.689,3.689,0,0,1-3.725-3.725,3.725,3.725,0,0,1,6.37-2.645,3.917,3.917,0,0,1,1.08,2.645,3.689,3.689,0,0,1-3.725,3.725Z" transform="translate(-18.25 -21.013)" fill="#fff"/>
    </g>
    <g id="Grupo_197" data-name="Grupo 197" transform="translate(81.972 22.371)">
      <path id="Trazado_341" data-name="Trazado 341" d="M25.975,28.437a3.752,3.752,0,0,1-3.725-3.725,3.124,3.124,0,0,1,.3-1.416,3.359,3.359,0,0,1,2.012-2.012,3.726,3.726,0,0,1,2.831,0,4.3,4.3,0,0,1,1.229.782A3.846,3.846,0,0,1,29.4,23.3a3.708,3.708,0,0,1,.3,1.416,3.752,3.752,0,0,1-3.725,3.725Z" transform="translate(-22.25 -21.005)" fill="#fff"/>
    </g>
  </g>
</svg>
