<svg id="Grupo_903" data-name="Grupo 903" xmlns="http://www.w3.org/2000/svg" xmlns:xlink="http://www.w3.org/1999/xlink" width="80.94" height="64.362" viewBox="0 0 80.94 64.362">
  <defs>
    <clipPath id="clip-path">
      <rect id="Rectángulo_381" data-name="Rectángulo 381" width="80.94" height="64.362" fill="#0e2d4f"/>
    </clipPath>
  </defs>
  <g id="Grupo_902" data-name="Grupo 902" clip-path="url(#clip-path)">
    <path id="Trazado_928" data-name="Trazado 928" d="M118.587,102.316h0m-2.751,2.287c.675.557,1.348,1.11,2.01,1.655l1.515,1.247,3.551,2.925c5.639,4.645,11.457,9.438,17.208,14.167,0,3.733,0,7.5-.005,11.157,0,3.132,0,6.359,0,9.553-2.545.008-5.088.008-7.5.008h-5.687q0-5.133,0-10.265v-4.311a4.648,4.648,0,0,0-4.648-4.648H109.4a4.648,4.648,0,0,0-4.648,4.648v14.572H91.567q0-2.678,0-5.357c0-5.035,0-10.227-.006-15.362,7.038-5.784,14.16-11.654,21.06-17.34l3.215-2.649M91.574,146.4h0m24.254-47.688a.649.649,0,0,0-.434.222c-.368.348-.781.649-1.174.973q-13.381,11.026-26.77,22.043a1.362,1.362,0,0,0-.539,1.185q.018,11.567.009,23.134a3.331,3.331,0,0,0,3.7,3.686H109.4v-19.22h12.882v.882q0,8.816,0,17.632c0,.385-.049.717.545.717h.005q3.784-.012,7.568-.009h2.217q4.394,0,8.789-.013a3.233,3.233,0,0,0,3.356-3.416q.013-11.766.012-23.532a1.179,1.179,0,0,0-.494-1.005q-10.987-9.03-21.96-18.079c-2.013-1.658-4.032-3.309-6.032-4.982a.741.741,0,0,0-.456-.217" transform="translate(-75.37 -85.609)" fill="#0e2d4f"/>
    <path id="Trazado_929" data-name="Trazado 929" d="M40.454,8.579c-1.643,1.367-3.271,2.72-4.9,4.075Q20.784,24.96,6.011,37.265a1.735,1.735,0,0,1-2.8-.274Q1.924,35.472.654,33.942C-.284,32.813-.223,31.99.9,31.053q6.718-5.608,13.448-11.2Q25.073,10.923,35.8,1.991A7.152,7.152,0,0,1,39.826.026,6.2,6.2,0,0,1,44.5,1.469q5.7,4.763,11.4,9.518c.164.137.336.263.635.5v-.828q0-4.209,0-8.418c0-1.573.544-2.123,2.1-2.125q4.312,0,8.623,0c1.592,0,2.132.551,2.132,2.166q0,9.611-.012,19.221a1.351,1.351,0,0,0,.554,1.168q4.862,4,9.7,8.04c.221.184.448.361.659.556a1.618,1.618,0,0,1,.206,2.411q-1.43,1.784-2.936,3.507a1.656,1.656,0,0,1-2.57.131Q67.7,31.254,60.418,25.18L41.062,9.055c-.184-.154-.378-.3-.608-.476" transform="translate(0 0)" fill="#c00"/>
  </g>
</svg>
