<svg id="Grupo_744" data-name="Grupo 744" xmlns="http://www.w3.org/2000/svg" width="78.697" height="49.186" viewBox="0 0 78.697 49.186">
  <path id="i-2188_1_" d="M18.445,19.674a4.919,4.919,0,1,0,4.919,4.919A4.933,4.933,0,0,0,18.445,19.674Zm0,6.558a1.64,1.64,0,1,1,1.64-1.64A1.644,1.644,0,0,1,18.445,26.232Zm41.808-6.558a4.919,4.919,0,1,0,4.919,4.919A4.933,4.933,0,0,0,60.252,19.674Zm0,6.558a1.64,1.64,0,1,1,1.64-1.64A1.644,1.644,0,0,1,60.252,26.232Zm-34.02-6.558v9.837H52.465V19.674Zm18.182,3.279a9.182,9.182,0,0,0,0,3.279H35.938a9.182,9.182,0,0,0,0-3.279Zm-14.9,0H32.5a3.118,3.118,0,0,1,.3,1.64,3.118,3.118,0,0,1-.3,1.64H29.511Zm19.674,3.279H47.841a3.118,3.118,0,0,1-.3-1.64,3.118,3.118,0,0,1,.3-1.64h1.344ZM8.2,6.558a1.64,1.64,0,1,1-1.64-1.64A1.644,1.644,0,0,1,8.2,6.558Zm65.581,0a1.64,1.64,0,1,1-1.64-1.64A1.644,1.644,0,0,1,73.778,6.558ZM8.2,42.627a1.64,1.64,0,1,1-1.64-1.64A1.644,1.644,0,0,1,8.2,42.627Zm65.581,0a1.64,1.64,0,1,1-1.64-1.64A1.644,1.644,0,0,1,73.778,42.627Zm-44.267-1.64a1.644,1.644,0,0,1-1.64,1.64h-1.64a1.64,1.64,0,1,1,0-3.279h1.64A1.644,1.644,0,0,1,29.511,40.988Zm24.593,0a1.644,1.644,0,0,1-1.64,1.64h-1.64a1.64,1.64,0,1,1,0-3.279h1.64A1.644,1.644,0,0,1,54.1,40.988ZM73.778,0H4.919A4.933,4.933,0,0,0,0,4.919V44.267a4.933,4.933,0,0,0,4.919,4.919h68.86A4.933,4.933,0,0,0,78.7,44.267V4.919A4.933,4.933,0,0,0,73.778,0ZM18.887,45.907l3.509-8.2H56.3l3.509,8.2Zm56.531-1.64a1.644,1.644,0,0,1-1.64,1.64H63.384L58.465,34.43H20.232L15.313,45.907H4.919a1.644,1.644,0,0,1-1.64-1.64V4.919a1.644,1.644,0,0,1,1.64-1.64h68.86a1.644,1.644,0,0,1,1.64,1.64Z" fill="#0e2d4f"/>
</svg>
