<svg xmlns="http://www.w3.org/2000/svg" width="66.6" height="55.862" viewBox="0 0 66.6 55.862">
  <g id="Grupo_901" data-name="Grupo 901" transform="translate(-121 -1160.138)">
    <g id="Grupo_279" data-name="Grupo 279" transform="translate(-43 351)">
      <g id="Grupo_186" data-name="Grupo 186" transform="translate(164 805)">
        <g id="Grupo_185" data-name="Grupo 185" transform="translate(0 4.138)">
          <path id="Trazado_325" data-name="Trazado 325" d="M30.828,25H13.241c0,.207,0,.414-.207.414a5.091,5.091,0,0,1-4.966,3.724,2.069,2.069,0,1,0,0,4.138H32.9a10.638,10.638,0,0,1-2.069-6.207Z" transform="translate(6.414 22.586)" fill="#0e2d4f"/>
          <path id="Trazado_326" data-name="Trazado 326" d="M57.931,8.207A6.1,6.1,0,0,0,51.724,2H6.207A6.1,6.1,0,0,0,0,8.207V39.241a6.1,6.1,0,0,0,6.207,6.207H37.241v-26.9A10.244,10.244,0,0,1,47.586,8.207Z" transform="translate(0 -2)" fill="#0e2d4f"/>
        </g>
      </g>
      <rect id="Rectángulo_64" data-name="Rectángulo 64" width="60" height="32.4" rx="5" transform="translate(170.6 815.2)" fill="#fff"/>
      <path id="Trazado_426" data-name="Trazado 426" d="M38.621,7H26.207A6.1,6.1,0,0,0,20,13.207v33.1a6.1,6.1,0,0,0,6.207,6.207H38.621a6.1,6.1,0,0,0,6.207-6.207v-33.1A6.1,6.1,0,0,0,38.621,7ZM40.69,46.31a1.955,1.955,0,0,1-2.069,2.069H26.207a1.955,1.955,0,0,1-2.069-2.069v-33.1a1.955,1.955,0,0,1,2.069-2.069v.621a5.563,5.563,0,0,0,5.586,5.586h1.241a5.563,5.563,0,0,0,5.586-5.586v-.621a1.955,1.955,0,0,1,2.069,2.069S40.69,46.31,40.69,46.31Z" transform="translate(185.379 812.483)" fill="#c00"/>
      <path id="Trazado_427" data-name="Trazado 427" d="M33.345,23H25.069a2.069,2.069,0,1,0,0,4.138h8.276a2.069,2.069,0,1,0,0-4.138Z" transform="translate(188.586 829.586)" fill="#0e2d4f"/>
    </g>
  </g>
</svg>
