<svg id="Grupo_294" data-name="Grupo 294" xmlns="http://www.w3.org/2000/svg" width="75.142" height="70" viewBox="0 0 75.142 70">
  <path id="Trazado_523" data-name="Trazado 523" d="M59.833,53.217a8.525,8.525,0,0,1,5.708,5,8.13,8.13,0,0,1,.375,5.422,8.523,8.523,0,0,1-16.53-.2,8.716,8.716,0,0,1,6.05-10.3H29.66A8.9,8.9,0,0,1,35,57.563a8.216,8.216,0,0,1,.41,6.886,8.511,8.511,0,0,1-16.382-1.618,8.755,8.755,0,0,1,6.189-9.689,4.812,4.812,0,0,0-.553-.061c-1.983,0-3.966-.01-5.948.014a2.087,2.087,0,0,1-2.1-1.252,7.03,7.03,0,0,1-.381-1.569q-.853-4.416-1.69-8.835c-.514-2.71-1.011-5.423-1.528-8.133-.39-2.047-.808-4.088-1.2-6.135-.427-2.223-.834-4.45-1.259-6.674-.6-3.121-1.208-6.241-1.806-9.362q-.63-3.289-1.236-6.585c-.057-.31-.19-.375-.477-.372-1.622.014-3.245.012-4.867.008A2.107,2.107,0,0,1,0,2.081,2.1,2.1,0,0,1,2.156.008C4.409,0,6.663,0,8.915.005a2.133,2.133,0,0,1,2.361,1.876c.527,2.646,1.013,5.3,1.518,7.952.118.618.225,1.24.384,1.849.029.112.281.233.431.234,1.968.017,3.935.014,5.9.014l19.918,0,20.1,0q6.692,0,13.384,0a2.129,2.129,0,0,1,2.172,2.711q-.9,4.452-1.772,8.91c-.661,3.338-1.313,6.677-1.978,10.014-.507,2.543-1.032,5.083-1.544,7.624-.151.749-.274,1.5-.429,2.252a2.141,2.141,0,0,1-2.231,1.813c-1.907-.007-3.815,0-5.723,0H44.824l-16.313,0q-4.213,0-8.427,0c-.131,0-.26.021-.435.035.215,1.214.425,2.388.641,3.606h3.12l27.13-.006c4.927,0,9.854.023,14.78-.014a2.224,2.224,0,0,1,2.352,2.266,2.046,2.046,0,0,1-1.788,1.893c-1.514.059-3.032.034-4.549.042-.491,0-.982,0-1.473,0C59.855,53.126,59.845,53.171,59.833,53.217ZM14.066,16.142c.048.32.079.6.132.875.307,1.6.633,3.205.921,4.812.06.338.207.4.508.4q10.993-.011,21.986-.006H68.879c.2,0,.425.052.484-.258.33-1.722.671-3.441,1-5.163.041-.212.066-.427.1-.656ZM56.191,26.455c-.259-.014-.434-.032-.611-.032-1.111,0-2.222.005-3.333.005q-3.738,0-7.477-.009c-.286,0-.433.048-.432.393q.015,6.914,0,13.828c0,.376.14.462.475.452.615-.019,1.231-.008,1.846-.009q3.559,0,7.116,0c.225,0,.35-.041.384-.309.151-1.174.329-2.345.5-3.518q.588-4.072,1.175-8.145C55.954,28.249,56.064,27.389,56.191,26.455Zm-27.985-.032c.044.339.068.577.106.811.221,1.331.451,2.661.667,3.993q.757,4.66,1.5,9.323c.063.4.224.539.644.537q4.279-.022,8.557.011c.4,0,.5-.116.5-.509q-.022-6.779-.013-13.558c0-.616,0-.609-.6-.608q-4.662,0-9.324,0Zm-12.12,0c.02.239.018.416.05.587q.544,2.847,1.1,5.692c.518,2.661,1.049,5.319,1.554,7.981.063.332.2.409.506.407,2.176-.008,4.352,0,6.528-.005.146,0,.291-.015.475-.025-.011-.188-.006-.336-.03-.48q-.31-1.908-.627-3.814c-.553-3.311-1.114-6.619-1.65-9.933-.053-.33-.165-.413-.479-.411-1.951.011-3.9,0-5.852,0Zm52.336.061a1.436,1.436,0,0,0-.213-.05c-2.477,0-4.953,0-7.43-.011-.282,0-.352.133-.387.374-.236,1.647-.487,3.292-.722,4.938-.419,2.937-.818,5.878-1.257,8.812-.066.439.018.549.451.546q3.129-.024,6.259,0c.344,0,.47-.124.531-.443.415-2.132.845-4.261,1.268-6.391q.671-3.372,1.337-6.745C68.324,27.183,68.366,26.843,68.422,26.486ZM31.763,61.46a4.321,4.321,0,1,0-4.321,4.334A4.345,4.345,0,0,0,31.763,61.46ZM62,61.5a4.344,4.344,0,0,0-4.376-4.367A4.324,4.324,0,1,0,62,61.5Z" transform="translate(0 -0.003)" fill="#0e2d4f"/>
  <circle id="Elipse_50" data-name="Elipse 50" cx="6" cy="6" r="6" transform="translate(22 56)" fill="#c00"/>
  <circle id="Elipse_51" data-name="Elipse 51" cx="6" cy="6" r="6" transform="translate(52 56)" fill="#c00"/>
</svg>
