<svg xmlns="http://www.w3.org/2000/svg" width="57.3" height="53.813" viewBox="0 0 57.3 53.813">
  <g id="Grupo_610" data-name="Grupo 610" transform="translate(-11241.872 -4550.014)">
    <g id="Grupo_221" data-name="Grupo 221" transform="translate(11264.934 4590.249)">
      <path id="Trazado_365" data-name="Trazado 365" d="M45.387,26.13a7.949,7.949,0,0,1-5.073-1.841,2.05,2.05,0,1,1,2.6-3.171,3.931,3.931,0,0,0,4.644.266,2.046,2.046,0,0,1,2.189,3.457A8.121,8.121,0,0,1,45.387,26.13Z" transform="translate(-39.563 -20.653)" fill="#c00"/>
    </g>
    <g id="Grupo_222" data-name="Grupo 222" transform="translate(11262.329 4577.233)">
      <path id="Trazado_366" data-name="Trazado 366" d="M40.336,22.473a2.052,2.052,0,0,1-2.046-2.046V16.336a2.046,2.046,0,1,1,4.091,0v4.091A2.039,2.039,0,0,1,40.336,22.473Z" transform="translate(-38.29 -14.29)" fill="#c00"/>
    </g>
    <g id="Grupo_223" data-name="Grupo 223" transform="translate(11274.604 4577.233)">
      <path id="Trazado_367" data-name="Trazado 367" d="M46.336,22.473a2.052,2.052,0,0,1-2.046-2.046V16.336a2.046,2.046,0,1,1,4.091,0v4.091A2.039,2.039,0,0,1,46.336,22.473Z" transform="translate(-44.29 -14.29)" fill="#c00"/>
    </g>
    <g id="Grupo_224" data-name="Grupo 224" transform="translate(11241.872 4555.417)">
      <path id="Trazado_368" data-name="Trazado 368" d="M56.93,52.036a24.32,24.32,0,0,1-23.3-16.9,7.944,7.944,0,0,1-5.339-7.651,7.944,7.944,0,0,1,5.339-7.651C35.92,13.27,42.385,6.642,49.463,3.778A2.042,2.042,0,1,1,51,7.562c-6.4,2.6-12.213,8.715-13.788,14.524a2.069,2.069,0,0,1-1.677,1.493,3.765,3.765,0,0,0-3.15,3.907,3.765,3.765,0,0,0,3.15,3.907,2.046,2.046,0,0,1,1.677,1.473,20.436,20.436,0,0,0,39.441,0,2.042,2.042,0,0,1,1.677-1.473,3.765,3.765,0,0,0,3.15-3.907,3.765,3.765,0,0,0-3.15-3.907,2.039,2.039,0,0,1-1.677-1.493C74.932,15.766,67.976,9.915,62.31,7.6a2.042,2.042,0,0,1,1.534-3.785c6.383,2.6,13.849,8.837,16.386,16.018a7.935,7.935,0,0,1,5.36,7.651,7.918,7.918,0,0,1-5.339,7.651A24.357,24.357,0,0,1,56.93,52.036Z" transform="translate(-28.29 -3.626)" fill="#0e2d4f"/>
    </g>
    <g id="Grupo_230" data-name="Grupo 230" transform="translate(11261.204 4550.014)">
      <path id="Trazado_375" data-name="Trazado 375" d="M45.187,17.77a8,8,0,0,1-3.785-.961,6.66,6.66,0,0,1-3.355-4.05,7.056,7.056,0,0,1,.45-5.237,5.982,5.982,0,0,1,8.019-2.6,5.232,5.232,0,0,1,2.762,3.825,5.766,5.766,0,0,0-2.107-4.132A2.026,2.026,0,0,1,46.9,1.732a2.026,2.026,0,0,1,2.884-.266,9.794,9.794,0,0,1,2.557,11.967A7.987,7.987,0,0,1,47.58,17.4,7.485,7.485,0,0,1,45.187,17.77Zm-1.35-9.39a1.824,1.824,0,0,0-1.657.982A2.842,2.842,0,0,0,43.3,13.209a3.943,3.943,0,0,0,3.069.327,4.315,4.315,0,0,0,1.227-.614,1.959,1.959,0,0,1-1.616-.143,2.037,2.037,0,0,1-.839-2.762,1,1,0,0,0-.491-1.412A1.5,1.5,0,0,0,43.836,8.381Z" transform="translate(-37.74 -0.984)" fill="#c00"/>
    </g>
  </g>
</svg>
