<svg xmlns="http://www.w3.org/2000/svg" width="66.669" height="59.026" viewBox="0 0 66.669 59.026">
  <g id="Grupo_613" data-name="Grupo 613" transform="translate(-11206.858 -4838.735)">
    <g id="Grupo_267" data-name="Grupo 267" transform="translate(11139.243 4837.202)">
      <g id="XMLID_6_" transform="translate(68.623 2.544)">
        <g id="Grupo_261" data-name="Grupo 261" transform="translate(0 0)">
          <path id="Trazado_456" data-name="Trazado 456" d="M140.63,15.773c-.052-3.71-1.594-6.423-4.36-7.641a8.4,8.4,0,0,0-3.38-.678A10.237,10.237,0,0,0,126.05,10.1c-5.038,4.69-5.513,10.963-3.38,14.731.922,1.635,3.629,5.415,4.986,7.287Zm11.7,34.354c3.159,0,5.82-1.565,5.82-3.426s-2.661-3.426-5.82-3.426-5.82,1.565-5.82,3.426S149.176,50.128,152.329,50.128Zm24.534-16.058v9.878a18.537,18.537,0,0,1-18.58,18.458H144.764a18.54,18.54,0,0,1-18.58-18.458V33.994a1.073,1.073,0,0,1,.052-.313c-1.252-1.728-4.319-5.977-5.368-7.832-3.339-5.9-.638-13.148,3.774-17.241A11.789,11.789,0,0,1,137.088,6.26c2.006.881,5.281,3.206,5.56,8.91h18.076c.278-5.7,3.554-8.023,5.554-8.91a11.82,11.82,0,0,1,12.458,2.348c4.412,4.093,7.113,11.339,3.774,17.241C181.374,27.866,177.855,32.724,176.863,34.069Zm-18.58,26.29a16.487,16.487,0,0,0,16.522-16.406v-9.71L161.2,17.118a1.026,1.026,0,0,1-.441.1H142.277a1.528,1.528,0,0,1-.162-.012L128.421,34.458a1.274,1.274,0,0,1-.18.174V43.96a16.483,16.483,0,0,0,16.522,16.406h6.76V52.157c-4.029-.272-7.073-2.568-7.073-5.449,0-3.073,3.467-5.478,7.873-5.478s7.873,2.406,7.873,5.478c0,2.771-2.823,5-6.62,5.4V60.36h4.707ZM180.73,24.834c2.128-3.768,1.658-10.041-3.38-14.731a9.872,9.872,0,0,0-10.232-1.971c-2.759,1.223-4.3,3.931-4.354,7.641l12.98,16.342C177.1,30.249,179.808,26.469,180.73,24.834Z" transform="translate(-119.375 -5.391)" fill="#0e2d4f"/>
          <path id="Trazado_457" data-name="Trazado 457" d="M184.908,50.8a1.71,1.71,0,1,0,1.71-1.71A1.713,1.713,0,0,0,184.908,50.8Zm1.71-3.768A3.768,3.768,0,1,1,182.85,50.8,3.772,3.772,0,0,1,186.618,47.03Z" transform="translate(-146.052 -22.891)" fill="#0e2d4f"/>
          <ellipse id="Elipse_15" data-name="Elipse 15" cx="5.82" cy="3.426" rx="5.82" ry="3.426" transform="translate(27.134 37.89)" fill="#c00"/>
          <path id="Trazado_458" data-name="Trazado 458" d="M161.636,50.8a3.768,3.768,0,1,1-3.768-3.768A3.776,3.776,0,0,1,161.636,50.8Zm-5.478,0a1.71,1.71,0,1,0,1.71-1.71A1.713,1.713,0,0,0,156.158,50.8Z" transform="translate(-133.969 -22.891)" fill="#0e2d4f"/>
        </g>
        <g id="Grupo_262" data-name="Grupo 262" transform="translate(0.012)">
          <circle id="Elipse_16" data-name="Elipse 16" cx="3.768" cy="3.768" r="3.768" transform="translate(20.12 24.139)" fill="none" stroke="#0e2d4f" stroke-miterlimit="10" stroke-width="2"/>
          <circle id="Elipse_17" data-name="Elipse 17" cx="1.71" cy="1.71" r="1.71" transform="translate(22.178 26.197)" fill="none" stroke="#0e2d4f" stroke-miterlimit="10" stroke-width="2"/>
          <circle id="Elipse_18" data-name="Elipse 18" cx="3.768" cy="3.768" r="3.768" transform="translate(36.787 24.139)" fill="none" stroke="#0e2d4f" stroke-miterlimit="10" stroke-width="2"/>
          <circle id="Elipse_19" data-name="Elipse 19" cx="1.71" cy="1.71" r="1.71" transform="translate(38.845 26.197)" fill="none" stroke="#0e2d4f" stroke-miterlimit="10" stroke-width="2"/>
          <path id="Trazado_459" data-name="Trazado 459" d="M178.756,8.608A11.809,11.809,0,0,0,166.3,6.26c-2,.881-5.27,3.206-5.554,8.91H142.668c-.278-5.7-3.554-8.023-5.56-8.91a11.8,11.8,0,0,0-12.447,2.348c-4.412,4.093-7.113,11.339-3.774,17.241,1.049,1.855,4.116,6.11,5.368,7.832a.934.934,0,0,0-.052.313v9.954a18.536,18.536,0,0,0,18.58,18.458H158.3a18.54,18.54,0,0,0,18.58-18.458V34.069c.991-1.351,4.51-6.2,5.658-8.226C185.869,19.947,183.162,12.7,178.756,8.608Z" transform="translate(-119.395 -5.391)" fill="none" stroke="#0e2d4f" stroke-miterlimit="10" stroke-width="2"/>
          <path id="Trazado_460" data-name="Trazado 460" d="M127.563,11.6A10.236,10.236,0,0,1,134.4,8.95a8.383,8.383,0,0,1,3.38.678c2.765,1.217,4.307,3.931,4.36,7.641L129.169,33.617c-1.357-1.867-4.058-5.647-4.986-7.287C122.055,22.562,122.525,16.289,127.563,11.6Z" transform="translate(-120.904 -6.887)" fill="none" stroke="#0e2d4f" stroke-miterlimit="10" stroke-width="2"/>
          <ellipse id="Elipse_20" data-name="Elipse 20" cx="5.82" cy="3.426" rx="5.82" ry="3.426" transform="translate(27.123 37.89)" fill="none" stroke="#0e2d4f" stroke-miterlimit="10" stroke-width="2"/>
          <path id="Trazado_461" data-name="Trazado 461" d="M164.716,68.857h-4.7V60.608c3.8-.406,6.62-2.632,6.62-5.4,0-3.073-3.455-5.478-7.873-5.478s-7.873,2.406-7.873,5.478c0,2.881,3.049,5.177,7.073,5.449v8.2H151.2A16.483,16.483,0,0,1,134.68,52.451V43.123a1.263,1.263,0,0,0,.18-.174L148.553,25.7a1.527,1.527,0,0,0,.162.012H167.2a1.047,1.047,0,0,0,.441-.1l13.6,17.131v9.71A16.492,16.492,0,0,1,164.716,68.857Z" transform="translate(-125.819 -13.889)" fill="none" stroke="#0e2d4f" stroke-miterlimit="10" stroke-width="2"/>
          <path id="Trazado_462" data-name="Trazado 462" d="M212.186,26.33c-.922,1.635-3.629,5.415-4.986,7.287L194.22,17.269c.052-3.71,1.594-6.418,4.354-7.641A9.876,9.876,0,0,1,208.806,11.6C213.844,16.289,214.319,22.562,212.186,26.33Z" transform="translate(-150.842 -6.887)" fill="none" stroke="#0e2d4f" stroke-miterlimit="10" stroke-width="2"/>
        </g>
      </g>
    </g>
  </g>
</svg>
