<svg id="Grupo_428" data-name="Grupo 428" xmlns="http://www.w3.org/2000/svg" width="71.791" height="58.174" viewBox="0 0 71.791 58.174">
  <g id="Grupo_411" data-name="Grupo 411" transform="translate(40.119 27.414)">
    <path id="Trazado_636" data-name="Trazado 636" d="M37.391,43.059a2.25,2.25,0,0,1-2.117-1.516c-.4-1.181-1.048-1.828-1.449-1.828s-1.048.646-1.449,1.828a2.249,2.249,0,0,1-2.764,1.426,17.208,17.208,0,0,1-6.954-4.123,2.233,2.233,0,0,1-.111-3.031c.892-1.048,1.07-1.828.958-1.984a2.43,2.43,0,0,1-.134-.245,2.826,2.826,0,0,0-2.207-.156,2.165,2.165,0,0,1-1.694-.312,2.3,2.3,0,0,1-.981-1.426A19.92,19.92,0,0,1,18,27.68a20.13,20.13,0,0,1,.49-4.012,2.254,2.254,0,0,1,2.675-1.739c1.092.245,2.028.089,2.34-.4.111-.156-.067-.936-.958-1.984a2.233,2.233,0,0,1,.022-2.92,14.923,14.923,0,0,1,7.065-4.235A2.259,2.259,0,0,1,32.4,13.816c.4,1.181,1.048,1.828,1.449,1.828S34.895,15,35.3,13.816A2.249,2.249,0,0,1,38.06,12.39a17.208,17.208,0,0,1,6.954,4.123,2.233,2.233,0,0,1,.111,3.031c-.892,1.048-1.07,1.828-.958,1.984a2.43,2.43,0,0,1,.134.245,2.826,2.826,0,0,0,2.207.156,2.165,2.165,0,0,1,1.694.312,2.3,2.3,0,0,1,.981,1.426,19.919,19.919,0,0,1,.49,4.012,20.131,20.131,0,0,1-.49,4.012,2.254,2.254,0,0,1-2.675,1.739c-1.092-.245-2.028-.089-2.34.4-.111.156.067.936.958,1.984a2.233,2.233,0,0,1-.022,2.92,14.923,14.923,0,0,1-7.065,4.235A2.255,2.255,0,0,1,37.391,43.059Zm-3.566-7.8a5.612,5.612,0,0,1,4.681,2.786,10.991,10.991,0,0,0,1.961-1.114,5.279,5.279,0,0,1-.045-5.572,5.8,5.8,0,0,1,4.681-2.5,10.468,10.468,0,0,0,0-2.363,5.412,5.412,0,0,1-4.747-2.608,5.26,5.26,0,0,1,.067-5.394,12.271,12.271,0,0,0-1.961-1.159A5.661,5.661,0,0,1,33.8,20.1a5.612,5.612,0,0,1-4.681-2.786,10.992,10.992,0,0,0-1.961,1.114A5.279,5.279,0,0,1,27.205,24a5.8,5.8,0,0,1-4.681,2.5,10.469,10.469,0,0,0,0,2.363,5.412,5.412,0,0,1,4.747,2.608,5.26,5.26,0,0,1-.067,5.394,12.27,12.27,0,0,0,1.961,1.159A5.6,5.6,0,0,1,33.825,35.258Z" transform="translate(-18 -12.3)" fill="#0e2d4f"/>
  </g>
  <g id="Grupo_412" data-name="Grupo 412" transform="translate(53.492 40.126)">
    <path id="Trazado_637" data-name="Trazado 637" d="M26.229,22.454a2.222,2.222,0,0,1-1.582-3.789,2.281,2.281,0,0,1,2.028-.624l.4.134.4.2a3.875,3.875,0,0,1,.334.29,2.233,2.233,0,0,1,0,3.143A2.206,2.206,0,0,1,26.229,22.454Z" transform="translate(-24 -18.003)" fill="#0e2d4f"/>
  </g>
  <g id="Grupo_413" data-name="Grupo 413" transform="translate(6.687)">
    <path id="Trazado_638" data-name="Trazado 638" d="M49.806,20.06H5.229a2.257,2.257,0,0,1-1.872-1,2.3,2.3,0,0,1-.178-2.117L7.636,6.687A10.987,10.987,0,0,1,17.71,0H37.1a11.513,11.513,0,0,1,10.23,6.575l4.5,10.364a2.3,2.3,0,0,1-.178,2.117A2.189,2.189,0,0,1,49.806,20.06ZM8.639,15.6H46.418L43.32,8.47A7.226,7.226,0,0,0,37.1,4.458H17.71a6.618,6.618,0,0,0-5.973,3.99Z" transform="translate(-3 0)" fill="#0e2d4f"/>
  </g>
  <g id="Grupo_414" data-name="Grupo 414" transform="translate(2.229 37.891)">
    <path id="Trazado_639" data-name="Trazado 639" d="M12.144,30.373H7.687A6.706,6.706,0,0,1,1,23.687V19.229A2.235,2.235,0,0,1,3.229,17H16.6a2.235,2.235,0,0,1,2.229,2.229v4.458A6.706,6.706,0,0,1,12.144,30.373ZM5.458,21.458v2.229a2.235,2.235,0,0,0,2.229,2.229h4.458a2.235,2.235,0,0,0,2.229-2.229V21.458Z" transform="translate(-1 -17)" fill="#0e2d4f"/>
  </g>
  <g id="Grupo_415" data-name="Grupo 415" transform="translate(0 13.373)">
    <path id="Trazado_640" data-name="Trazado 640" d="M9.807,10.458H2.229A2.229,2.229,0,1,1,2.229,6H9.807a2.229,2.229,0,0,1,0,4.458Z" transform="translate(0 -6)" fill="#c00"/>
  </g>
  <g id="Grupo_416" data-name="Grupo 416" transform="translate(51.264 13.373)">
    <path id="Trazado_641" data-name="Trazado 641" d="M31.915,10.458H25.229a2.229,2.229,0,0,1,0-4.458h6.687a2.229,2.229,0,1,1,0,4.458Z" transform="translate(-23 -6)" fill="#c00"/>
  </g>
  <g id="Grupo_417" data-name="Grupo 417" transform="translate(17.831 28.975)">
    <path id="Trazado_642" data-name="Trazado 642" d="M32.518,26.373H10.229a2.284,2.284,0,0,1-1.895-1.048,2.258,2.258,0,0,1-.111-2.162l3.12-6.464A6.362,6.362,0,0,1,17.361,13h7.8a6.389,6.389,0,0,1,6.062,3.811L34.5,23.119a2.221,2.221,0,0,1-1.984,3.254ZM13.773,21.915H28.84l-1.672-3.21a1.988,1.988,0,0,0-2.006-1.248h-7.8A2.028,2.028,0,0,0,15.4,18.55Z" transform="translate(-8 -13)" fill="#0e2d4f"/>
  </g>
  <g id="Grupo_418" data-name="Grupo 418" transform="translate(6.687 26.746)">
    <path id="Trazado_643" data-name="Trazado 643" d="M11.915,16.458H5.229a2.229,2.229,0,1,1,0-4.458h6.687a2.229,2.229,0,1,1,0,4.458Z" transform="translate(-3 -12)" fill="#c00"/>
  </g>
  <g id="Grupo_419" data-name="Grupo 419" transform="translate(0 15.602)">
    <path id="Trazado_644" data-name="Trazado 644" d="M43.017,33.746H6.687A6.706,6.706,0,0,1,0,27.06V18.144A11.148,11.148,0,0,1,11.144,7H51.264A11.148,11.148,0,0,1,62.408,18.144v2.9a2.229,2.229,0,1,1-4.458,0v-2.9a6.706,6.706,0,0,0-6.687-6.687H11.144a6.706,6.706,0,0,0-6.687,6.687V27.06a2.235,2.235,0,0,0,2.229,2.229h36.33a2.229,2.229,0,0,1,0,4.458Z" transform="translate(0 -7)" fill="#0e2d4f"/>
  </g>
</svg>
