<svg xmlns="http://www.w3.org/2000/svg" width="59.699" height="67.485" viewBox="0 0 59.699 67.485">
  <g id="Grupo_1026" data-name="Grupo 1026" transform="translate(-67.997 -1471)">
    <path id="Trazado_957" data-name="Trazado 957" d="M-16466.4-10697s.4-11,12.4-10.4,17.2,2,16.4,9,3.8,18.2-7.4,24.4-19.8-4-20.2-8.2S-16466.4-10697-16466.4-10697Z" transform="translate(16549 12179.424)" fill="#c00"/>
    <path id="Trazado_561" data-name="Trazado 561" d="M59.284,39.844a2.808,2.808,0,0,0-1.771-1.255c-3.528-.753-10.306-1.562-16.108,1.6-5.146,2.8-8.019,7.866-9.386,11.031V39.886a16.594,16.594,0,0,0,14-16.359V9.065a2.152,2.152,0,0,0-.335-1.144C44.153,3.347,37.57,0,29.454,0c-.056,0-.112.014-.153.014S29.189,0,29.133,0c-4.365,0-6.5,1.464-7.545,3.026A2.093,2.093,0,0,0,18.91,2.2a14.413,14.413,0,0,0-2.733,1.687A7.805,7.805,0,0,0,13.29,7.81a2.048,2.048,0,0,0-.418,1.241V23.513a16.6,16.6,0,0,0,14.95,16.5V51.5C26.5,48.337,23.6,43.051,18.3,40.179c-6.122-3.333-13.318-2.231-16.136-1.6A2.785,2.785,0,0,0,.069,41.894a3.029,3.029,0,0,0,.1.335c.976,2.706,3.9,9.358,10.055,12.719h0a20.629,20.629,0,0,0,9.832,2.287,30.588,30.588,0,0,0,6.276-.683c.028,0,.042-.014.07-.014l1.422.781v8.075a2.092,2.092,0,0,0,4.184,0V57.235l1.283-.7c.028,0,.042.014.07.014a30.771,30.771,0,0,0,6.3.683,20.221,20.221,0,0,0,9.8-2.287c6.08-3.319,9.065-9.971,10.069-12.719a2.308,2.308,0,0,0,.084-.293A2.7,2.7,0,0,0,59.284,39.844ZM18.631,7.294c.042-.028.07-.056.112-.084a9.674,9.674,0,0,1,1.883-1.171v.237c0,3.64,4.337,6.276,10.306,6.276.488,0,4.8-.07,7.419-2.719a2.091,2.091,0,1,0-2.971-2.943c-1.2,1.2-3.626,1.478-4.463,1.478-3.975,0-6.122-1.478-6.122-2.092,0-1.729,2.357-2.092,4.337-2.092.056,0,.112-.014.153-.014s.112.014.153.014c7.1,0,12.4,3.068,12.4,5.8s-5.3,5.8-12.384,5.8-12.356-3.04-12.4-5.648v-.056A3.632,3.632,0,0,1,18.631,7.294ZM17.056,23.527V16.666a22.475,22.475,0,0,0,12.4,3.305,22.459,22.459,0,0,0,12.384-3.305v6.861a12.391,12.391,0,1,1-24.782,0ZM12.23,51.28c-4-2.19-6.387-6.4-7.5-8.925C7.6,41.922,12.314,41.7,16.3,43.86a16.36,16.36,0,0,1,5.648,5.467l-7.768-4.24a2.094,2.094,0,0,0-1.994,3.682l7.824,4.267A16.277,16.277,0,0,1,12.23,51.28Zm35.228,0h0A16.171,16.171,0,0,1,39.7,53.037l7.838-4.267a2.1,2.1,0,0,0-2.008-3.682l-7.768,4.24A16.072,16.072,0,0,1,43.4,43.86c3.919-2.134,8.688-1.911,11.575-1.492C53.775,45.046,51.4,49.132,47.458,51.28Z" transform="translate(67.996 1471)" fill="#0e2d4f"/>
  </g>
</svg>
