<svg id="Grupo_907" data-name="Grupo 907" xmlns="http://www.w3.org/2000/svg" xmlns:xlink="http://www.w3.org/1999/xlink" width="65.318" height="65.304" viewBox="0 0 65.318 65.304">
  <defs>
    <clipPath id="clip-path">
      <rect id="Rectángulo_383" data-name="Rectángulo 383" width="65.318" height="65.304" fill="#0e2d4f"/>
    </clipPath>
  </defs>
  <g id="Grupo_906" data-name="Grupo 906" clip-path="url(#clip-path)">
    <path id="Trazado_931" data-name="Trazado 931" d="M0,34.547V30.718c.1-.839.18-1.68.3-2.516A31.551,31.551,0,0,1,8.029,11.223C15.8,2.56,25.552-1.1,37.1.284A30.269,30.269,0,0,1,54.033,7.942c9.221,8.291,12.8,18.649,10.706,30.857a30.976,30.976,0,0,1-8.865,16.827A32.01,32.01,0,0,1,38.307,64.8c-1.23.216-2.477.34-3.716.506H30.762c-.206-.038-.411-.087-.619-.114-1.179-.154-2.37-.24-3.536-.463A32.061,32.061,0,0,1,9.623,55.769,31.961,31.961,0,0,1,.5,38.191C.288,36.984.163,35.762,0,34.547M37.792,52.325l-.029.268c3.1-.384,6.194-.782,9.295-1.139a1.224,1.224,0,0,0,1.041-.762q3.17-5.966,6.388-11.906a1.133,1.133,0,0,0-.009-1.279c-1.658-2.744-3.312-5.492-4.92-8.266a1.247,1.247,0,0,0-1.432-.681q-6.562.721-13.131,1.367a.849.849,0,0,0-.774.512q-2.447,4.689-4.932,9.359a.879.879,0,0,0,.03.986C31.3,44.179,33.3,47.562,35.206,51c.6,1.084,1.2,1.821,2.585,1.323M39.6,6.842l.033-.184c-2.7.271-5.409.548-8.115.806-.389.037-.528.236-.639.574q-1.8,5.471-3.635,10.932a.694.694,0,0,0,.176.838c.721.716,1.413,1.463,2.09,2.221,1.642,1.839,3.263,3.7,4.915,5.527a1,1,0,0,0,.69.26c.593-.013,1.184-.1,1.776-.161,3.846-.392,7.694-.778,11.538-1.194a.847.847,0,0,0,.581-.446c1-2.571,1.954-5.156,2.937-7.732a.719.719,0,0,0-.17-.845c-2.649-2.963-5.358-5.877-7.888-8.939C42.71,7.072,41.473,6.33,39.6,6.842M29.934,59.288a2.193,2.193,0,0,0,.426-.373c1.217-1.638,2.408-3.3,3.638-4.924a.726.726,0,0,0,.036-.953Q30.9,47.669,27.815,42.276a1.331,1.331,0,0,0-1.035-.688c-3.544-.685-7.086-1.379-10.62-2.11a.674.674,0,0,0-.862.359q-2.532,4.019-5.109,8.009a.817.817,0,0,0-.022.976,48.75,48.75,0,0,0,5.053,7.573,1.14,1.14,0,0,0,.617.367c1.752.336,3.51.646,5.267.959,2.886.514,5.773,1.025,8.83,1.568M29.023,7.064c-.132-.11-.275-.249-.435-.36a23.459,23.459,0,0,0-5.467-2.835,1.137,1.137,0,0,0-.7-.046A29.774,29.774,0,0,0,12.344,9.782,10.292,10.292,0,0,0,9.934,12.3C8.809,14.427,7.961,16.7,7,18.92a.628.628,0,0,0,.332.921C9.47,21.067,11.588,22.325,13.7,23.6a.737.737,0,0,0,.908-.007A63.32,63.32,0,0,1,24.9,18.294a1.183,1.183,0,0,0,.6-.641c1.143-3.375,2.256-6.76,3.377-10.142.04-.121.081-.241.15-.448M5.607,21.211c-.908,1.506-1.8,2.975-2.678,4.448a1.2,1.2,0,0,0-.116.361,31.036,31.036,0,0,0,.4,14.826,5.5,5.5,0,0,0,.773,2.13A17.659,17.659,0,0,0,8.52,46.585c.155-.229.288-.417.412-.611,1.647-2.579,3.28-5.167,4.95-7.73a1.7,1.7,0,0,0,.244-1.372,41.229,41.229,0,0,1-.973-9.11,3.079,3.079,0,0,0-1.943-3.288c-1.9-.927-3.671-2.121-5.6-3.263m45.11,36.155A30.63,30.63,0,0,0,63.151,35.308c-1.969,1.085-3.973,2.183-5.967,3.3a1.38,1.38,0,0,0-.524.509q-3.477,6.446-6.924,12.908a.95.95,0,0,0-.135.585c.346,1.549.721,3.091,1.116,4.759M44.273,4.3c-.031.657-.327,1.208.162,1.756q4.5,5.048,8.989,10.109a2.447,2.447,0,0,0,.7.52c1.959,1.012,3.926,2.008,5.89,3.009l.512.261A30.748,30.748,0,0,0,44.273,4.3m-10.7,58.774c-1.081-.475-2.156-.961-3.245-1.418a6.536,6.536,0,0,0-1.32-.425c-2.548-.472-5.1-.919-7.653-1.372-1.132-.2-2.266-.393-3.4-.59a28,28,0,0,0,15.617,3.8" transform="translate(0 0)" fill="#0e2d4f"/>
  </g>
</svg>
