<svg id="Grupo_446" data-name="Grupo 446" xmlns="http://www.w3.org/2000/svg" width="66.061" height="57.365" viewBox="0 0 66.061 57.365">
  <g id="Grupo_431" data-name="Grupo 431" transform="translate(0.197 23.371)">
    <path id="Trazado_655" data-name="Trazado 655" d="M17.1,44.994a17,17,0,1,1,17-17A17.02,17.02,0,0,1,17.1,44.994Zm0-29.745A12.748,12.748,0,1,0,29.845,28,12.758,12.758,0,0,0,17.1,15.249Z" transform="translate(-0.1 -11)" fill="#0e2d4f"/>
  </g>
  <g id="Grupo_432" data-name="Grupo 432" transform="translate(44.815 36.119)">
    <path id="Trazado_656" data-name="Trazado 656" d="M31.723,38.246A10.623,10.623,0,1,1,42.346,27.623,10.627,10.627,0,0,1,31.723,38.246Zm0-17A6.374,6.374,0,1,0,38.1,27.623,6.393,6.393,0,0,0,31.723,21.249Z" transform="translate(-21.1 -17)" fill="#0e2d4f"/>
  </g>
  <g id="Grupo_433" data-name="Grupo 433" transform="translate(0 16.997)">
    <path id="Trazado_657" data-name="Trazado 657" d="M38.448,35.62A2.131,2.131,0,0,1,36.323,33.5V31.371A19.151,19.151,0,0,0,17.2,12.249,18.349,18.349,0,0,0,3.668,17.965,2.119,2.119,0,0,1,.587,15.054,22.593,22.593,0,0,1,17.2,8,23.385,23.385,0,0,1,40.573,31.371V33.5A2.131,2.131,0,0,1,38.448,35.62Z" transform="translate(-0.007 -8)" fill="#0e2d4f"/>
  </g>
  <g id="Grupo_434" data-name="Grupo 434" transform="translate(6.996)">
    <path id="Trazado_658" data-name="Trazado 658" d="M60.241,44.617H59.178a2.13,2.13,0,0,1-1.062-3.973v-19.4H35.17a2.124,2.124,0,0,1-1.976-1.339L26.926,4.249H10.991l-3.484,17a2.125,2.125,0,0,1-4.164-.85L7.167,1.7A2.133,2.133,0,0,1,9.249,0H28.371a2.124,2.124,0,0,1,1.976,1.339L36.615,17H60.241a2.131,2.131,0,0,1,2.125,2.125V42.493A2.131,2.131,0,0,1,60.241,44.617Z" transform="translate(-3.3)" fill="#0e2d4f"/>
  </g>
  <g id="Grupo_435" data-name="Grupo 435" transform="translate(36.316 40.368)">
    <path id="Trazado_659" data-name="Trazado 659" d="M28.786,23.249H19.225a2.125,2.125,0,1,1,0-4.249h9.561a2.125,2.125,0,0,1,0,4.249Z" transform="translate(-17.1 -19)" fill="#0e2d4f"/>
  </g>
  <g id="Grupo_436" data-name="Grupo 436" transform="translate(10.821 33.994)">
    <path id="Trazado_660" data-name="Trazado 660" d="M11.474,28.748a6.374,6.374,0,1,1,6.374-6.374A6.393,6.393,0,0,1,11.474,28.748Zm0-8.5A2.125,2.125,0,1,0,13.6,22.374,2.131,2.131,0,0,0,11.474,20.249Z" transform="translate(-5.1 -16)" fill="#c00"/>
  </g>
  <g id="Grupo_437" data-name="Grupo 437" transform="translate(44.815 6.374)">
    <path id="Trazado_661" data-name="Trazado 661" d="M27.474,24.246a2.131,2.131,0,0,1-2.125-2.125V9.374a2.131,2.131,0,0,0-2.125-2.125,2.125,2.125,0,1,1,0-4.249A6.393,6.393,0,0,1,29.6,9.374V22.122A2.131,2.131,0,0,1,27.474,24.246Z" transform="translate(-21.1 -3)" fill="#c00"/>
  </g>
</svg>
