<svg xmlns="http://www.w3.org/2000/svg" width="56.692" height="61.997" viewBox="0 0 56.692 61.997">
  <g id="Grupo_409" data-name="Grupo 409" transform="translate(-40.677)">
    <g id="_x33_6.-Office-chair_1_" transform="translate(40.677)">
      <g id="Layer-1_1_" transform="translate(7.957 36.071)">
        <path id="Trazado_627" data-name="Trazado 627" d="M475.705,192.921H438.573a1.823,1.823,0,0,1-1.823-1.823v-5.3a1.823,1.823,0,0,1,1.823-1.823h37.132a1.823,1.823,0,0,1,1.823,1.823v5.3A1.824,1.824,0,0,1,475.705,192.921ZM440.4,189.274h33.485v-1.657H440.4Z" transform="translate(-436.75 -183.97)" fill="#0e2d4f"/>
      </g>
      <g id="Layer-2_1_" transform="translate(0 25.462)">
        <path id="Trazado_628" data-name="Trazado 628" d="M405.95,149.42h-3.978a5.806,5.806,0,0,1-5.8-5.8v-7.964a5.8,5.8,0,0,1,11.6,0V147.6A1.824,1.824,0,0,1,405.95,149.42Zm-3.98-15.913a2.155,2.155,0,0,0-2.155,2.151v7.964a2.155,2.155,0,0,0,2.155,2.151h2.155V135.658A2.153,2.153,0,0,0,401.97,133.507Z" transform="translate(-396.17 -129.86)" fill="#0e2d4f"/>
      </g>
      <g id="Layer-3_1_" transform="translate(45.088 25.462)">
        <path id="Trazado_629" data-name="Trazado 629" d="M631.932,149.42h-3.978a1.822,1.822,0,0,1-1.823-1.823V135.658a5.8,5.8,0,0,1,11.6,0v7.964A5.806,5.806,0,0,1,631.932,149.42Zm-2.155-3.647h2.155a2.155,2.155,0,0,0,2.155-2.151v-7.964a2.155,2.155,0,0,0-4.31,0Z" transform="translate(-626.13 -129.86)" fill="#0e2d4f"/>
      </g>
      <g id="Layer-4_1_" transform="translate(26.522 41.375)">
        <path id="Trazado_630" data-name="Trazado 630" d="M533.263,224.99a1.822,1.822,0,0,1-1.823-1.823V212.843a1.823,1.823,0,1,1,3.647,0v10.323A1.824,1.824,0,0,1,533.263,224.99Z" transform="translate(-531.44 -211.02)" fill="#0e2d4f"/>
      </g>
      <g id="Layer-6_1_" transform="translate(7.568 52.272)">
        <path id="Trazado_632" data-name="Trazado 632" d="M439.633,276.325a4.863,4.863,0,1,1,4.863-4.863A4.869,4.869,0,0,1,439.633,276.325Zm0-6.078a1.216,1.216,0,1,0,1.216,1.216A1.217,1.217,0,0,0,439.633,270.247Z" transform="translate(-434.77 -266.6)" fill="#c00"/>
      </g>
      <g id="Layer-7_1_" transform="translate(39.396 52.272)">
        <path id="Trazado_633" data-name="Trazado 633" d="M601.963,276.325a4.863,4.863,0,1,1,4.863-4.863A4.869,4.869,0,0,1,601.963,276.325Zm0-6.078a1.216,1.216,0,1,0,1.216,1.216A1.217,1.217,0,0,0,601.963,270.247Z" transform="translate(-597.1 -266.6)" fill="#c00"/>
      </g>
      <g id="Layer-8_1_" transform="translate(23.483 52.272)">
        <path id="Trazado_634" data-name="Trazado 634" d="M520.8,276.325a4.863,4.863,0,1,1,4.863-4.863A4.869,4.869,0,0,1,520.8,276.325Zm0-6.078a1.216,1.216,0,1,0,1.216,1.216A1.217,1.217,0,0,0,520.8,270.247Z" transform="translate(-515.94 -266.6)" fill="#c00"/>
      </g>
      <g id="Layer-9_1_" transform="translate(7.957)">
        <path id="Trazado_635" data-name="Trazado 635" d="M475.705,39.718H438.573a1.823,1.823,0,0,1-1.823-1.823V13.986A14,14,0,0,1,450.732,0h12.815a14,14,0,0,1,13.982,13.986V37.894A1.824,1.824,0,0,1,475.705,39.718ZM440.4,36.071h33.485V13.986A10.35,10.35,0,0,0,463.547,3.647H450.732A10.349,10.349,0,0,0,440.4,13.986Z" transform="translate(-436.75)" fill="#0e2d4f"/>
      </g>
      <g id="Layer-5_1_" transform="translate(12.143 51.455)">
        <path id="Trazado_631" data-name="Trazado 631" d="M459.928,266.865a1.823,1.823,0,0,1-.823-3.451,10.394,10.394,0,0,1,4.6-.984h21.209a10.539,10.539,0,0,1,4.463.918,1.824,1.824,0,0,1-1.576,3.29,6.977,6.977,0,0,0-2.886-.559H463.7a6.838,6.838,0,0,0-2.953.592A1.856,1.856,0,0,1,459.928,266.865Z" transform="translate(-458.103 -262.43)" fill="#0e2d4f"/>
      </g>
    </g>
  </g>
</svg>
