<svg id="Grupo_757" data-name="Grupo 757" xmlns="http://www.w3.org/2000/svg" width="48.612" height="59.415" viewBox="0 0 48.612 59.415">
  <g id="Grupo_755" data-name="Grupo 755" transform="translate(0 40.51)">
    <path id="Trazado_870" data-name="Trazado 870" d="M2.7,27.153a2.709,2.709,0,0,1-2.7-2.7A9.463,9.463,0,0,1,9.452,15H45.911a2.7,2.7,0,1,1,0,5.4H9.452A4.046,4.046,0,0,0,5.4,24.452,2.709,2.709,0,0,1,2.7,27.153Z" transform="translate(0 -15)" fill="#0e2d4f"/>
  </g>
  <g id="Grupo_756" data-name="Grupo 756" transform="translate(0 0)">
    <path id="Trazado_871" data-name="Trazado 871" d="M45.911,59.415H9.452A9.463,9.463,0,0,1,0,49.962V9.452A9.463,9.463,0,0,1,9.452,0H45.911a2.709,2.709,0,0,1,2.7,2.7V56.714A2.709,2.709,0,0,1,45.911,59.415ZM9.452,5.4A4.046,4.046,0,0,0,5.4,9.452v40.51a4.046,4.046,0,0,0,4.051,4.051H43.211V5.4Z" transform="translate(0 0)" fill="#0e2d4f"/>
  </g>
</svg>
