<svg xmlns="http://www.w3.org/2000/svg" width="89.211" height="47.794" viewBox="0 0 89.211 47.794">
  <g id="Grupo_393_1_" transform="translate(3.002 -9.273)">
    <g id="Grupo_258_1_" transform="translate(0 12.273)">
      <g id="Grupo_189_1_" transform="translate(0 0)">
        <g id="XMLID_1_">
          <g id="Grupo_188_1_">
            <path id="Unión_1_1_" d="M42.688,27.688c-.061-.268-.353-.98-1.041-.98s-.98.712-1.041.949A21.541,21.541,0,0,1,20.83,41.575,20.821,20.821,0,0,1,.012,20.076C.341,8.983,10.1-.06,21.724-.06H62.471a20.625,20.625,0,0,1,20.5,23.592A20.988,20.988,0,0,1,65.592,41.557a22.39,22.39,0,0,1-2.854.176A21.179,21.179,0,0,1,42.688,27.688Z" transform="translate(0 0.06)" fill="none" stroke="#0e2d4f" stroke-linecap="round" stroke-width="6"/>
          </g>
        </g>
      </g>
      <g id="Grupo_190_1_" transform="translate(17.857 11.898)">
        <path id="Trazado_334_1_" d="M2.97,17.788A2.983,2.983,0,0,1,0,14.812V2.916a2.976,2.976,0,0,1,5.951,0v11.9A2.993,2.993,0,0,1,2.97,17.788Z" transform="translate(0 0.06)" fill="#c00"/>
      </g>
      <g id="Grupo_191_1_" transform="translate(11.902 17.846)">
        <path id="Trazado_335_1_" d="M14.868,5.891H2.966a2.976,2.976,0,1,1,0-5.951h11.9a2.976,2.976,0,0,1,.006,5.951Z" transform="translate(0.01 0.06)" fill="#c00"/>
      </g>
      <g id="Grupo_194_1_" transform="translate(59.498 11.874)">
        <path id="Trazado_338_1_" d="M2.97,5.81A2.939,2.939,0,0,1,0,2.895V2.834A2.973,2.973,0,0,1,5.087.722a3.148,3.148,0,0,1,.864,2.112A2.949,2.949,0,0,1,3.03,5.81Z" transform="translate(0 0.16)" fill="#c00"/>
      </g>
      <g id="Grupo_195_1_" transform="translate(59.498 23.765)">
        <path id="Trazado_339_1_" d="M2.969,5.806a2.873,2.873,0,0,1-1.126-.237,2.965,2.965,0,0,1-.98-.627A2.946,2.946,0,0,1,.237,1.7,2.91,2.91,0,0,1,4,.025a2.876,2.876,0,0,1,1.059.7,3.06,3.06,0,0,1,.895,2.112A3,3,0,0,1,2.969,5.806Z" transform="translate(0.001 0.17)" fill="#c00"/>
      </g>
      <g id="Grupo_196_1_" transform="translate(53.549 17.885)">
        <path id="Trazado_340_1_" d="M2.97,5.85A2.939,2.939,0,0,1,0,2.935V2.874A3.115,3.115,0,0,1,.858.769a3.112,3.112,0,0,1,4.223,0A3.148,3.148,0,0,1,5.945,2.88,2.939,2.939,0,0,1,3.03,5.85Z" transform="translate(0 0.058)" fill="#c00"/>
      </g>
      <g id="Grupo_197_1_" transform="translate(65.445 17.863)">
        <path id="Trazado_341_1_" d="M2.969,5.874A3,3,0,0,1,0,2.9,2.508,2.508,0,0,1,.237,1.767,2.664,2.664,0,0,1,1.843.166,2.961,2.961,0,0,1,4.1.166a3.45,3.45,0,0,1,.98.627,2.965,2.965,0,0,1,.627.98A2.986,2.986,0,0,1,5.945,2.9,3,3,0,0,1,2.969,5.874Z" transform="translate(0.002 0.058)" fill="#c00"/>
      </g>
    </g>
  </g>
</svg>
