<svg xmlns="http://www.w3.org/2000/svg" width="58.563" height="58.78" viewBox="0 0 58.563 58.78">
  <g id="Grupo_612" data-name="Grupo 612" transform="translate(-10851.563 -4822.695)">
    <g id="Grupo_253" data-name="Grupo 253" transform="translate(10851.563 4822.695)">
      <g id="XMLID_4_">
        <g id="Grupo_252" data-name="Grupo 252">
          <path id="Trazado_428" data-name="Trazado 428" d="M573.335,24.144a21.089,21.089,0,0,1-.271,4.92c-1.73,13.094-6.106,25.321-12.173,36.993a1.363,1.363,0,0,1-1.413.857c-5.1-.037-10.206-.02-15.31-.02-5.027,0-10.053-.031-15.078.028a1.8,1.8,0,0,1-1.843-1.1,108.422,108.422,0,0,1-7.622-17.371,91.554,91.554,0,0,1-4.6-20.762,15.7,15.7,0,0,1-.116-3.7,6.672,6.672,0,0,1,5.235-5.745c2.724-.759,5.475-1.435,8.233-2.069a7.212,7.212,0,0,0,5.088-3.895q.951-1.855,2-3.66a1.049,1.049,0,0,1,.751-.462q8-.039,16.006,0a1.1,1.1,0,0,1,.789.513c.642,1.172,1.228,2.376,1.815,3.581a6.785,6.785,0,0,0,4.556,3.751q3.994,1.048,8.009,2.022C570.7,18.842,573,21.03,573.335,24.144Zm-2.718,1.518a4.192,4.192,0,0,0-2.741-4.533c-2.774-.843-5.608-1.487-8.428-2.22-1.9,7.074-6.135,11.629-13.512,12.988.192.21.352.4.529.577,1.164,1.169,2.335,2.332,3.5,3.5a1.525,1.525,0,0,1,.253,2.319q-2.317,3.562-4.649,7.115c-.829,1.26-1.9,1.249-2.734-.02q-2.31-3.521-4.609-7.05a1.538,1.538,0,0,1,.243-2.378c1.328-1.331,2.659-2.658,4.057-4.056-7.437-1.378-11.669-5.934-13.54-12.964a.922.922,0,0,0-.216,0c-2.743.694-5.5,1.341-8.225,2.1a3.912,3.912,0,0,0-2.9,4.294c.124,1.566.252,3.134.465,4.691A99.166,99.166,0,0,0,529.186,63.5a1.041,1.041,0,0,0,1.092.6q13.8-.019,27.6.008a1.135,1.135,0,0,0,1.174-.731,116.01,116.01,0,0,0,8.5-21.42A86.591,86.591,0,0,0,570.617,25.662Zm-14.019-7.1c.1-.479-.1-.634-.438-.9a17.907,17.907,0,0,1-2.84-2.573,17.95,17.95,0,0,1-1.885-3.354,1.209,1.209,0,0,0-1.277-.807c-3.763.037-7.527.076-11.288-.017a2.081,2.081,0,0,0-2.281,1.382,11.158,11.158,0,0,1-4.6,5.469.644.644,0,0,0-.187.564,18.886,18.886,0,0,0,.648,2.3,12.946,12.946,0,0,0,11.714,8.516C551.055,29.1,555.615,23.449,556.6,18.562Zm-12.392,23.8q1.67-2.567,3.129-4.816l-3.14-3.244-3.12,3.241Z" transform="translate(-514.832 -8.141)" fill="#0e2d4f"/>
          <path id="Trazado_429" data-name="Trazado 429" d="M690.82,180.584q-1.459,2.245-3.129,4.816l-3.131-4.819,3.12-3.241Z" transform="translate(-658.318 -151.179)" fill="#c00"/>
        </g>
      </g>
    </g>
  </g>
</svg>
