<svg id="Grupo_905" data-name="Grupo 905" xmlns="http://www.w3.org/2000/svg" xmlns:xlink="http://www.w3.org/1999/xlink" width="90.206" height="64.721" viewBox="0 0 90.206 64.721">
  <defs>
    <clipPath id="clip-path">
      <rect id="Rectángulo_382" data-name="Rectángulo 382" width="90.206" height="64.721" fill="#0e2d4f"/>
    </clipPath>
  </defs>
  <g id="Grupo_904" data-name="Grupo 904" clip-path="url(#clip-path)">
    <path id="Trazado_930" data-name="Trazado 930" d="M45.192,64.693q-16.932,0-33.864-.01a22.438,22.438,0,0,1-3.908-.236,8.769,8.769,0,0,1-7.157-7.1c-.876-4.292.437-7.734,4.018-10Q21.544,36.411,38.886,25.6c1.717-1.065,2.634-2.15,2.359-4.245-.413-3.147.989-5.434,3.7-7.009a15.472,15.472,0,0,0,2.53-1.777,2.736,2.736,0,0,0-.839-4.8c-3.136-1.282-5.9.377-6.2,3.715-.1,1.122.218,2.692-1.369,2.812a29.946,29.946,0,0,1-5.608-.391c-.2-.022-.437-.677-.456-1.049C32.607,5.459,37.566.233,43.8.01c7.336-.262,12.781,4.674,12.5,11.425a8.9,8.9,0,0,1-4.118,7.033c-.779.565-1.652,1.012-2.379,1.635a2.9,2.9,0,0,0,.387,4.933q17.494,10.956,35,21.883a9.658,9.658,0,0,1,4.7,6c1.48,6.015-2.379,11.515-8.564,11.671-8.529.215-17.068.1-25.6.123-3.51.009-7.021,0-10.531,0ZM45.3,56.8c11.359,0,22.717.03,34.075-.057.905-.007,1.8-.822,2.707-1.261-.518-.72-.882-1.683-1.577-2.123Q63.5,42.6,46.383,32a2.885,2.885,0,0,0-2.509.036Q26.929,42.514,10.107,53.185c-.775.492-1.14,1.631-1.7,2.469.939.381,1.876,1.087,2.818,1.093,11.358.077,22.717.05,34.075.051" transform="translate(0 0)" fill="#0e2d4f"/>
  </g>
</svg>
