<svg xmlns="http://www.w3.org/2000/svg" width="74.973" height="75" viewBox="0 0 74.973 75">
  <g id="Grupo_1025" data-name="Grupo 1025" transform="translate(-47 -1170)">
    <path id="Trazado_514" data-name="Trazado 514" d="M69.305,59.423l-16.57,9.822L47.8,66.129H54.37a5.054,5.054,0,0,0,0-10.109H40.58a13.51,13.51,0,0,0-4.818.876L25.636,61.5v-.421a1.69,1.69,0,0,0-1.685-1.685H14.685A1.69,1.69,0,0,0,13,61.074v21.06a1.69,1.69,0,0,0,1.685,1.685h9.266a1.69,1.69,0,0,0,1.685-1.685v-.842H51.421a8.234,8.234,0,0,0,4.852-1.567L74.208,66.87a4.5,4.5,0,0,0-4.9-7.447ZM40.293,64.435a1.685,1.685,0,0,0,.792,1.432l10.724,6.739a1.659,1.659,0,0,0,1.761,0L71.007,62.254a1.118,1.118,0,0,1,1.221,1.87l-.143.1-.008.059L54.3,76.979a4.922,4.922,0,0,1-2.881.935H25.636V65.194L37.059,60.03a9.753,9.753,0,0,1,3.5-.649H54.37a1.685,1.685,0,0,1,0,3.37H41.978A1.69,1.69,0,0,0,40.293,64.435ZM22.266,62.751v17.69h-5.9V62.751Z" transform="translate(44.951 1161.182)" fill="#0e2d4f"/>
    <path id="Trazado_515" data-name="Trazado 515" d="M73.288,40.441H70.744A32.728,32.728,0,0,0,42.777,9.222a5.913,5.913,0,0,0-.935-7.733,5.907,5.907,0,0,0-8.331.463,5.888,5.888,0,0,0-.472,7.261A32.729,32.729,0,0,0,5.071,40.441H1.685a1.685,1.685,0,0,0,0,3.37h71.6a1.685,1.685,0,1,0,0-3.37Zm-35.38-28.22a29.363,29.363,0,0,1,29.467,28.22H8.441A29.368,29.368,0,0,1,37.908,12.221Zm0-3.791A2.527,2.527,0,1,1,40.435,5.9,2.535,2.535,0,0,1,37.908,8.43Z" transform="translate(47 1170.013)" fill="#c00"/>
    <path id="Trazado_516" data-name="Trazado 516" d="M18.327,36.743a1.633,1.633,0,0,0,.809.211,1.7,1.7,0,0,0,1.483-.876,1.555,1.555,0,0,0,.1-.219A21.843,21.843,0,0,1,34.678,23.871a1.685,1.685,0,1,0-.918-3.243A25.164,25.164,0,0,0,17.67,34.452,1.685,1.685,0,0,0,18.327,36.743Z" transform="translate(44.248 1166.77)" fill="#0e2d4f"/>
  </g>
</svg>
