<svg id="computer_x5F_settings_1_" xmlns="http://www.w3.org/2000/svg" width="58.591" height="54.962" viewBox="0 0 58.591 54.962">
  <path id="Trazado_611" data-name="Trazado 611" d="M73.05,48.093A16.442,16.442,0,0,0,68,26.1V1.31H24.005V34.276H43.294a16.186,16.186,0,0,0-.837,3.657H24.033L16.72,52.588H48.514a16.071,16.071,0,0,0,10.3,3.685A16.418,16.418,0,0,0,69.17,52.615h6.141ZM27.69,30.619V4.967H64.313V24.255a16.476,16.476,0,0,0-19.2,6.364ZM46.2,39.775A12.617,12.617,0,1,1,58.814,52.392,12.658,12.658,0,0,1,46.2,39.775Z" transform="translate(-16.72 -1.31)" fill="#0e2d4f"/>
  <path id="Trazado_612" data-name="Trazado 612" d="M46.831,22.79V19.133H43.789a7.762,7.762,0,0,0-.447-1.117l2.177-2.177-2.6-2.6L40.8,15.393a5.19,5.19,0,0,0-1.284-.53V11.82H35.861v3.043a4.982,4.982,0,0,0-1.2.5l-2.094-2.094-2.6,2.6,2.094,2.094a9.074,9.074,0,0,0-.5,1.2H28.52v3.657h3.043a7.322,7.322,0,0,0,.53,1.284l-2.121,2.121,2.6,2.6,2.177-2.177a5.487,5.487,0,0,0,1.117.447v3.043h3.657V27.089a4.982,4.982,0,0,0,1.2-.5l2.233,2.233,2.6-2.6-2.233-2.205a9.074,9.074,0,0,0,.5-1.2C43.789,22.79,46.831,22.79,46.831,22.79Zm-9.156.921a2.75,2.75,0,1,1,0-5.5,2.746,2.746,0,0,1,2.736,2.763A2.7,2.7,0,0,1,37.676,23.711Z" transform="translate(4.418 17.517)" fill="#c00"/>
</svg>
