<svg xmlns="http://www.w3.org/2000/svg" width="63.9" height="43.568" viewBox="0 0 63.9 43.568">
  <g id="Grupo_619" data-name="Grupo 619" transform="translate(-831 -1593.432)">
    <g id="Grupo_618" data-name="Grupo 618" transform="translate(831 1593.432)">
      <g id="Outlined_1_">
        <g id="Maps_1_">
          <g id="Outlined-_x2F_-Maps-_x2F_-hotel_1_" transform="translate(0 0)">
            <g id="Grupo_617" data-name="Grupo 617" transform="translate(0 0)">
              <path id="_xD83D__xDD39_-Icon-Color_1_" d="M53.281,10.809H30.045V34.045H6.809V5H1V48.568H6.809V39.854H59.09v8.714H64.9V22.427A11.615,11.615,0,0,0,53.281,10.809ZM59.09,34.045H35.854V16.618H53.281a5.826,5.826,0,0,1,5.809,5.809Z" transform="translate(-1 -5)" fill="#0e2d4f" fill-rule="evenodd"/>
            </g>
          </g>
        </g>
      </g>
      <path id="Trazado_770" data-name="Trazado 770" d="M11.714,2.89A8.714,8.714,0,1,0,20.427,11.6,8.7,8.7,0,0,0,11.714,2.89Zm0,12.577A3.863,3.863,0,1,1,15.577,11.6,3.861,3.861,0,0,1,11.714,15.467Z" transform="translate(5.714 5.504)" fill="#c00" fill-rule="evenodd"/>
    </g>
  </g>
</svg>
