<svg xmlns="http://www.w3.org/2000/svg" width="75.725" height="67.012" viewBox="0 0 75.725 67.012">
  <g id="Grupo_1028" data-name="Grupo 1028" transform="translate(-778.992 -1471.988)">
    <g id="Grupo_664" data-name="Grupo 664" transform="translate(780 1473)">
      <g id="Grupo_267" data-name="Grupo 267" transform="translate(0 0)">
        <g id="XMLID_6_" transform="translate(0 0)">
          <g id="Grupo_261" data-name="Grupo 261" transform="translate(0 0)">
            <path id="Trazado_456" data-name="Trazado 456" d="M143.607,17.227c-.059-4.23-1.818-7.323-4.97-8.711a9.58,9.58,0,0,0-3.853-.773,11.67,11.67,0,0,0-7.8,3.02c-5.743,5.347-6.285,12.5-3.853,16.794,1.051,1.864,4.137,6.173,5.684,8.308Zm13.337,39.166c3.6,0,6.636-1.784,6.636-3.906s-3.034-3.906-6.636-3.906-6.636,1.784-6.636,3.906S153.349,56.393,156.945,56.393Zm27.97-18.307V49.348a21.132,21.132,0,0,1-21.182,21.043H148.32a21.137,21.137,0,0,1-21.182-21.043V38a1.223,1.223,0,0,1,.059-.357c-1.428-1.97-4.924-6.814-6.12-8.929-3.807-6.728-.727-14.989,4.3-19.656a13.44,13.44,0,0,1,14.19-2.677c2.287,1,6.021,3.655,6.338,10.158h20.607c.317-6.5,4.051-9.147,6.332-10.158a13.475,13.475,0,0,1,14.2,2.677c5.03,4.666,8.109,12.927,4.3,19.656C190.056,31.014,186.044,36.552,184.914,38.086ZM163.732,68.058a18.8,18.8,0,0,0,18.836-18.7V38.284L167.063,18.761a1.17,1.17,0,0,1-.5.119H145.484a1.742,1.742,0,0,1-.185-.013L129.688,38.529a1.453,1.453,0,0,1-.2.2V49.361a18.791,18.791,0,0,0,18.836,18.7h7.706V58.706c-4.593-.311-8.063-2.928-8.063-6.213,0-3.5,3.952-6.246,8.975-6.246s8.975,2.743,8.975,6.246c0,3.159-3.219,5.7-7.548,6.16v9.4Zm25.591-40.5c2.426-4.3,1.89-11.447-3.853-16.794A11.254,11.254,0,0,0,173.8,8.516c-3.146,1.395-4.9,4.481-4.963,8.711l14.8,18.631C185.185,33.73,188.272,29.421,189.323,27.557Z" transform="translate(-119.375 -5.391)" fill="#0e2d4f"/>
            <path id="Trazado_457" data-name="Trazado 457" d="M185.2,51.326a1.95,1.95,0,1,0,1.95-1.95A1.953,1.953,0,0,0,185.2,51.326Zm1.95-4.3a4.3,4.3,0,1,1-4.3,4.3A4.3,4.3,0,0,1,187.146,47.03Z" transform="translate(-140.898 -19.51)" fill="#0e2d4f"/>
            <path id="Trazado_458" data-name="Trazado 458" d="M162.692,51.326a4.3,4.3,0,1,1-4.3-4.3A4.3,4.3,0,0,1,162.692,51.326Zm-6.246,0a1.95,1.95,0,1,0,1.95-1.95A1.953,1.953,0,0,0,156.446,51.326Z" transform="translate(-131.15 -19.51)" fill="#0e2d4f"/>
          </g>
          <g id="Grupo_262" data-name="Grupo 262" transform="translate(0.013)">
            <circle id="Elipse_16" data-name="Elipse 16" cx="4.296" cy="4.296" r="4.296" transform="translate(22.937 27.52)" fill="none" stroke="#0e2d4f" stroke-miterlimit="10" stroke-width="2"/>
            <circle id="Elipse_17" data-name="Elipse 17" cx="1.95" cy="1.95" r="1.95" transform="translate(25.283 29.866)" fill="#c00" stroke="#c00" stroke-miterlimit="10" stroke-width="2"/>
            <circle id="Elipse_18" data-name="Elipse 18" cx="4.296" cy="4.296" r="4.296" transform="translate(41.938 27.52)" fill="none" stroke="#0e2d4f" stroke-miterlimit="10" stroke-width="2"/>
            <circle id="Elipse_19" data-name="Elipse 19" cx="1.95" cy="1.95" r="1.95" transform="translate(44.285 29.866)" fill="#c00" stroke="#c00" stroke-miterlimit="10" stroke-width="2"/>
            <path id="Trazado_459" data-name="Trazado 459" d="M187.069,9.058a13.462,13.462,0,0,0-14.2-2.677c-2.28,1-6.008,3.655-6.332,10.158H145.927c-.317-6.5-4.051-9.147-6.338-10.158A13.453,13.453,0,0,0,125.4,9.058c-5.03,4.666-8.109,12.927-4.3,19.656,1.2,2.115,4.692,6.966,6.12,8.929a1.065,1.065,0,0,0-.059.357V49.348A21.132,21.132,0,0,0,148.34,70.391h15.413a21.137,21.137,0,0,0,21.182-21.043V38.086c1.13-1.54,5.142-7.072,6.451-9.378C195.178,21.986,192.092,13.724,187.069,9.058Z" transform="translate(-119.395 -5.391)" fill="none" stroke="#0e2d4f" stroke-miterlimit="10" stroke-width="2"/>
            <path id="Trazado_460" data-name="Trazado 460" d="M128.2,11.97A11.67,11.67,0,0,1,136,8.95a9.557,9.557,0,0,1,3.853.773c3.153,1.388,4.911,4.481,4.97,8.711L130.034,37.072c-1.547-2.128-4.626-6.437-5.684-8.308C121.925,24.468,122.46,17.317,128.2,11.97Z" transform="translate(-120.613 -6.598)" fill="none" stroke="#0e2d4f" stroke-miterlimit="10" stroke-width="2"/>
            <ellipse id="Elipse_20" data-name="Elipse 20" cx="6.636" cy="3.906" rx="6.636" ry="3.906" transform="translate(30.921 43.197)" fill="none" stroke="#0e2d4f" stroke-miterlimit="10" stroke-width="2"/>
            <path id="Trazado_461" data-name="Trazado 461" d="M168.922,74.914h-5.36v-9.4c4.336-.463,7.548-3,7.548-6.16,0-3.5-3.939-6.246-8.975-6.246s-8.975,2.743-8.975,6.246c0,3.285,3.476,5.9,8.063,6.213v9.352h-7.706a18.791,18.791,0,0,1-18.836-18.7V45.576a1.439,1.439,0,0,0,.2-.2L150.5,25.716a1.741,1.741,0,0,0,.185.013h21.077a1.193,1.193,0,0,0,.5-.119l15.505,19.53V56.21A18.8,18.8,0,0,1,168.922,74.914Z" transform="translate(-124.578 -12.247)" fill="none" stroke="#0e2d4f" stroke-miterlimit="10" stroke-width="2"/>
            <path id="Trazado_462" data-name="Trazado 462" d="M214.7,28.764c-1.051,1.864-4.137,6.173-5.684,8.308l-14.8-18.638c.059-4.23,1.818-7.316,4.963-8.711a11.259,11.259,0,0,1,11.665,2.247C216.592,17.317,217.134,24.468,214.7,28.764Z" transform="translate(-144.767 -6.598)" fill="none" stroke="#0e2d4f" stroke-miterlimit="10" stroke-width="2"/>
          </g>
        </g>
      </g>
    </g>
  </g>
</svg>
