<svg xmlns="http://www.w3.org/2000/svg" width="66.394" height="66.383" viewBox="0 0 66.394 66.383">
  <g id="Grupo_1027" data-name="Grupo 1027" transform="translate(-425 -1472)">
    <g id="Grupo_322" data-name="Grupo 322" transform="translate(425 1472)">
      <path id="Trazado_533" data-name="Trazado 533" d="M62.586,46.554a11.2,11.2,0,0,0-10.77-2.518L22.361,14.581A11.024,11.024,0,0,0,19.921,3.9,11.077,11.077,0,0,0,9.229.247,1.661,1.661,0,0,0,7.914,1.72a1.686,1.686,0,0,0,.472,1.372l4.261,4.261L11.5,11.478,7.318,12.591,3.012,8.3A1.8,1.8,0,0,0,1.731,7.9,1.66,1.66,0,0,0,.258,9.23,11.023,11.023,0,0,0,3.946,19.944a10.933,10.933,0,0,0,10.669,2.417L44.036,51.8a11.016,11.016,0,0,0,2.44,10.669,11.225,11.225,0,0,0,8.409,3.912,10.584,10.584,0,0,0,2.282-.247,1.7,1.7,0,0,0,.854-2.844l-4.261-4.261,1.158-4.126,4.171-1.113L63.4,58.089a2.041,2.041,0,0,0,1.2.472A1.679,1.679,0,0,0,66.116,57.3v-.011A10.972,10.972,0,0,0,62.586,46.554ZM51.906,53.1l-1.619,6.037a1.675,1.675,0,0,0,.438,1.686l1.821,1.821A8.054,8.054,0,0,1,47,54.233a8.229,8.229,0,0,1,.528-2.226,1.542,1.542,0,0,0,.022-.956,1.4,1.4,0,0,0-.438-.854L16.256,19.314a1.36,1.36,0,0,0-.821-.427,1.64,1.64,0,0,0-1.012.011A8.071,8.071,0,0,1,3.957,14.39c-.067-.18-.135-.36-.191-.54l1.821,1.821a1.605,1.605,0,0,0,1.135.483,1.959,1.959,0,0,0,.506-.011l6.048-1.619a1.68,1.68,0,0,0,1.192-1.192L16.087,7.3a1.728,1.728,0,0,0-.45-1.675L13.805,3.743a8.074,8.074,0,0,1,5.587,8.432,8.23,8.23,0,0,1-.528,2.226,1.628,1.628,0,0,0-.022.956,1.4,1.4,0,0,0,.438.854L50.14,47.128a1.462,1.462,0,0,0,.854.438,1.575,1.575,0,0,0,.989-.034,8.073,8.073,0,0,1,10.478,4.5,3.508,3.508,0,0,1,.169.483l-1.8-1.8a1.694,1.694,0,0,0-1.7-.438L53.1,51.895A1.715,1.715,0,0,0,51.906,53.1Z" transform="translate(-0.005 -0.003)" fill="#0e2d4f"/>
      <path id="Trazado_534" data-name="Trazado 534" d="M32.88,25.75H32.9a1.676,1.676,0,0,0,1.192-.506L42.942,16.4a1.814,1.814,0,0,0,.4-1.776,7.213,7.213,0,0,1,3-8.792,7.224,7.224,0,0,1,9.241.956,7.183,7.183,0,0,1,.989,9.2,7.261,7.261,0,0,1-8.859,3.035,1.817,1.817,0,0,0-1.776.416l-8.87,8.87a1.687,1.687,0,0,0,.18,2.372,1.661,1.661,0,0,0,1.091.4,1.739,1.739,0,0,0,1.135-.438l8.151-8.151a10.568,10.568,0,0,0,11.951-4.98,10.577,10.577,0,0,0-1.6-13.142A10.417,10.417,0,0,0,45,2.669,10.6,10.6,0,0,0,39.884,14.71L31.7,22.894a1.687,1.687,0,0,0,.09,2.383A1.612,1.612,0,0,0,32.88,25.75Z" transform="translate(3.877 0.138)" fill="#0e2d4f"/>
      <path id="Trazado_535" data-name="Trazado 535" d="M28.294,37.094h0l-8.848,8.848a1.809,1.809,0,0,0-.4,1.8,7.223,7.223,0,0,1-2.99,8.792,7.21,7.21,0,0,1-9.241-.956,7.183,7.183,0,0,1-.989-9.2,7.261,7.261,0,0,1,8.859-3.035,1.791,1.791,0,0,0,1.765-.416l8.87-8.87a1.7,1.7,0,0,0-.18-2.383,1.668,1.668,0,0,0-2.226.034l-8.173,8.207A10.6,10.6,0,0,0,2.785,44.9,10.6,10.6,0,0,0,4.359,58.027a10.425,10.425,0,0,0,7.487,3.238,10.887,10.887,0,0,0,5.531-1.551A10.56,10.56,0,0,0,22.47,47.684l8.162-8.162a1.7,1.7,0,0,0,.045-2.383A1.677,1.677,0,0,0,28.294,37.094Z" transform="translate(0.144 3.881)" fill="#0e2d4f"/>
      <path id="Trazado_536" data-name="Trazado 536" d="M11.964,43.568l-3.6.967a1.661,1.661,0,0,0-1.192,1.192l-.967,3.6a1.681,1.681,0,0,0,.438,1.686l2.642,2.642a1.684,1.684,0,0,0,1.675.438l3.553-1.012a1.68,1.68,0,0,0,1.192-1.192l.967-3.6a1.675,1.675,0,0,0-.438-1.686l-2.664-2.664A1.678,1.678,0,0,0,11.964,43.568Zm1.2,4.767-.461,1.731-1.731.461L9.715,49.268l.461-1.731,1.731-.461Z" transform="translate(0.757 5.401)" fill="#c00"/>
      <path id="Trazado_537" data-name="Trazado 537" d="M47.7,17.556c.045,0,.09.011.146.011.09,0,.191-.011.3-.022l4.362-1.124a1.691,1.691,0,0,0,1.2-1.2l1.124-4.34A1.675,1.675,0,0,0,54.409,9.2L51.261,5.977a1.685,1.685,0,0,0-1.664-.45L45.235,6.651a1.71,1.71,0,0,0-1.2,1.2l-1.124,4.34a1.681,1.681,0,0,0,.438,1.686l3.193,3.193A1.692,1.692,0,0,0,47.7,17.556Zm-1.3-5.374L47.056,9.7l2.485-.663,1.788,1.788-.663,2.485-2.485.663Z" transform="translate(5.317 0.675)" fill="#c00"/>
    </g>
  </g>
</svg>
