<svg id="Grupo_754" data-name="Grupo 754" xmlns="http://www.w3.org/2000/svg" width="61.749" height="67.362" viewBox="0 0 61.749 67.362">
  <g id="Grupo_745" data-name="Grupo 745" transform="translate(0 25.261)">
    <path id="Trazado_861" data-name="Trazado 861" d="M56.135,51.1H5.614A5.63,5.63,0,0,1,0,45.488V20.227a5.63,5.63,0,0,1,5.614-5.614H19.647a6.311,6.311,0,0,0,3.845-1.628l3.565-3.565A1.424,1.424,0,0,1,28.068,9H44.908a1.317,1.317,0,0,1,.982.421l3.621,3.621a6.381,6.381,0,0,0,3.873,1.572h2.751a5.63,5.63,0,0,1,5.614,5.614V45.488A5.63,5.63,0,0,1,56.135,51.1ZM28.657,11.807l-3.228,3.228a9.34,9.34,0,0,1-5.7,2.386H5.614a2.815,2.815,0,0,0-2.807,2.807V45.488a2.815,2.815,0,0,0,2.807,2.807H56.135a2.815,2.815,0,0,0,2.807-2.807V20.227a2.815,2.815,0,0,0-2.807-2.807H53.328a9.343,9.343,0,0,1-5.726-2.33l-3.284-3.284Z" transform="translate(0 -9)" fill="#0e2d4f"/>
  </g>
  <g id="Grupo_746" data-name="Grupo 746" transform="translate(5.614 25.261)">
    <path id="Trazado_862" data-name="Trazado 862" d="M11.824,17.42a1.39,1.39,0,0,1-1.4-1.4V13.21a1.39,1.39,0,0,0-1.4-1.4H6.21a1.39,1.39,0,0,0-1.4,1.4v2.807a1.4,1.4,0,1,1-2.807,0V13.21A4.2,4.2,0,0,1,6.21,9H9.017a4.2,4.2,0,0,1,4.21,4.21v2.807A1.39,1.39,0,0,1,11.824,17.42Z" transform="translate(-2 -9)" fill="#0e2d4f"/>
  </g>
  <g id="Grupo_747" data-name="Grupo 747" transform="translate(5.614 36.488)">
    <path id="Trazado_863" data-name="Trazado 863" d="M7.614,24.227a5.614,5.614,0,1,1,5.614-5.614A5.63,5.63,0,0,1,7.614,24.227Zm0-8.42a2.807,2.807,0,1,0,2.807,2.807A2.815,2.815,0,0,0,7.614,15.807Z" transform="translate(-2 -13)" fill="#c00"/>
  </g>
  <g id="Grupo_748" data-name="Grupo 748" transform="translate(29.471 39.295)">
    <path id="Trazado_864" data-name="Trazado 864" d="M18.92,30.841a8.42,8.42,0,1,1,8.42-8.42A8.445,8.445,0,0,1,18.92,30.841Zm0-14.034a5.614,5.614,0,1,0,5.614,5.614A5.63,5.63,0,0,0,18.92,16.807Z" transform="translate(-10.5 -14)" fill="#0e2d4f"/>
  </g>
  <g id="Grupo_749" data-name="Grupo 749" transform="translate(23.857 33.681)">
    <path id="Trazado_865" data-name="Trazado 865" d="M22.534,40.068A14.034,14.034,0,1,1,36.568,26.034,14.039,14.039,0,0,1,22.534,40.068Zm0-25.261A11.227,11.227,0,1,0,33.761,26.034,11.224,11.224,0,0,0,22.534,14.807Z" transform="translate(-8.5 -12)" fill="#0e2d4f"/>
  </g>
  <g id="Grupo_750" data-name="Grupo 750" transform="translate(19.647)">
    <path id="Trazado_866" data-name="Trazado 866" d="M36.471,19.647H11.21A4.2,4.2,0,0,1,7,15.437V4.21A4.2,4.2,0,0,1,11.21,0H36.471a4.2,4.2,0,0,1,4.21,4.21V15.437A4.2,4.2,0,0,1,36.471,19.647ZM11.21,2.807a1.39,1.39,0,0,0-1.4,1.4V15.437a1.39,1.39,0,0,0,1.4,1.4H36.471a1.39,1.39,0,0,0,1.4-1.4V4.21a1.39,1.39,0,0,0-1.4-1.4Z" transform="translate(-7)" fill="#0e2d4f"/>
  </g>
  <g id="Grupo_751" data-name="Grupo 751" transform="translate(25.261 5.614)">
    <path id="Trazado_867" data-name="Trazado 867" d="M30.051,10.42H10.4A1.39,1.39,0,0,1,9,9.017V3.4A1.39,1.39,0,0,1,10.4,2H30.051a1.39,1.39,0,0,1,1.4,1.4V9.017A1.39,1.39,0,0,1,30.051,10.42ZM11.807,7.614H28.647V4.807H11.807Z" transform="translate(-9 -2)" fill="#c00"/>
  </g>
  <g id="Grupo_752" data-name="Grupo 752" transform="translate(23.865 16.848)">
    <path id="Trazado_868" data-name="Trazado 868" d="M12.705,17.222a1.381,1.381,0,0,1-1.319-.954L8.579,7.847a1.389,1.389,0,1,1,2.638-.87l2.807,8.42a1.372,1.372,0,0,1-.9,1.768A1.91,1.91,0,0,1,12.705,17.222Z" transform="translate(-8.503 -6.003)" fill="#0e2d4f"/>
  </g>
  <g id="Grupo_753" data-name="Grupo 753" transform="translate(43.498 16.834)">
    <path id="Trazado_869" data-name="Trazado 869" d="M16.908,17.231a1.271,1.271,0,0,1-.449-.084,1.429,1.429,0,0,1-.9-1.768l2.807-8.42a1.4,1.4,0,1,1,2.666.87l-2.807,8.42A1.372,1.372,0,0,1,16.908,17.231Z" transform="translate(-15.498 -5.998)" fill="#0e2d4f"/>
  </g>
</svg>
