<svg xmlns="http://www.w3.org/2000/svg" width="58.85" height="67.118" viewBox="0 0 58.85 67.118">
  <g id="Grupo_1031" data-name="Grupo 1031" transform="translate(-102 -1621)">
    <g id="Grupo_665" data-name="Grupo 665" transform="translate(102 1621)">
      <path id="Trazado_781" data-name="Trazado 781" d="M49.686,18.841h-1.2V12.007a5.038,5.038,0,0,0-2-4.126C44.825,6.624,42.31,6.221,38.8,6.65c-.415.05-.818.11-1.2.173a6.073,6.073,0,0,0-.259-.577c-.965-1.887-2.846-3.23-5.592-3.992a7.953,7.953,0,0,0-6.3.618,7.3,7.3,0,0,0-.856.581A10.493,10.493,0,0,0,18.574.188a7.575,7.575,0,0,0-6.267,1.219A9.093,9.093,0,0,0,9.291,5.785a19.389,19.389,0,0,0-4.242.39c-3.015.581-4.7,3.626-5,9.053A43.417,43.417,0,0,0,.22,21.57V59.123A8,8,0,0,0,8.206,67.11H40.853a7.644,7.644,0,0,0,7.636-7.636v-6.11a24.385,24.385,0,0,0,3.661-1.3c3.057-1.388,6.7-4,6.7-8.547V28.007A9.176,9.176,0,0,0,49.686,18.841ZM5.194,16.327c.087-3.348.683-4.745.964-5.087a9.994,9.994,0,0,1,4.047-.146,2.352,2.352,0,0,0,2.353.025,2.548,2.548,0,0,0,1.287-2.165c.067-.64.492-2.6,1.574-3.4a2.46,2.46,0,0,1,2.124-.285C21.165,6,21.471,8.186,21.491,8.7a2.533,2.533,0,0,0,2.171,2.667,2.638,2.638,0,0,0,2.932-1.983,3.94,3.94,0,0,1,1.458-2.033,2.754,2.754,0,0,1,2.311-.106c.633.176,2.651.824,2.449,1.878a2.422,2.422,0,0,0,.424,2.633,2.619,2.619,0,0,0,2.735.713,25.544,25.544,0,0,1,3.615-.7c2.536-.289,3.483.08,3.721.207v6.86H5.22C5.187,18.1,5.171,17.229,5.194,16.327Zm38.114,43.15a2.457,2.457,0,0,1-2.454,2.454H8.206a2.808,2.808,0,0,1-2.8-2.8v-35.1H43.308V59.476ZM53.671,43.521c0,1.419-1.2,2.694-3.581,3.791a16.892,16.892,0,0,1-1.6.637V24.023h1.2a3.989,3.989,0,0,1,3.984,3.984Z" transform="translate(-0.002 0.008)" fill="#0e2d4f"/>
      <path id="Trazado_782" data-name="Trazado 782" d="M112.661,197.42a2.591,2.591,0,0,0-2.591,2.591v25.841a2.591,2.591,0,1,0,5.181,0V200.011A2.591,2.591,0,0,0,112.661,197.42Z" transform="translate(-95.062 -170.5)" fill="#c00"/>
      <path id="Trazado_783" data-name="Trazado 783" d="M223.321,197.42a2.591,2.591,0,0,0-2.591,2.591v25.841a2.591,2.591,0,1,0,5.181,0V200.011A2.591,2.591,0,0,0,223.321,197.42Z" transform="translate(-190.633 -170.5)" fill="#c00"/>
    </g>
  </g>
</svg>
