<svg id="Grupo_931" data-name="Grupo 931" xmlns="http://www.w3.org/2000/svg" xmlns:xlink="http://www.w3.org/1999/xlink" width="76.499" height="74.432" viewBox="0 0 76.499 74.432">
  <defs>
    <clipPath id="clip-path">
      <rect id="Rectángulo_386" data-name="Rectángulo 386" width="76.499" height="74.432" fill="#0e2d4f"/>
    </clipPath>
  </defs>
  <g id="Grupo_930" data-name="Grupo 930" clip-path="url(#clip-path)">
    <path id="Trazado_946" data-name="Trazado 946" d="M2,28.332c1.008-2.5,1.64-5.251,3.1-7.456a15.528,15.528,0,0,1,17.024-6.253c.528.135,1.055.273,1.708.441A16.251,16.251,0,0,1,30.69,4.72,15.529,15.529,0,0,1,39.82,2c7.5.121,12.635,4.434,15.634,13.055,5.758-1.738,11.2-1.2,16,2.728a15.278,15.278,0,0,1,5.645,10.794c.686,7.389-4.166,16.1-15.251,17.293-.335,4.158-.674,8.355-1.011,12.553-.334,4.16-.633,8.322-1.008,12.478-.231,2.559-2.106,4.139-4.95,4.165-4.566.041-9.132.012-13.7.012q-8.436,0-16.873,0c-3.807-.006-5.381-1.62-5.648-5.44-.529-7.549-1.172-15.09-1.722-22.637-.075-1.023-.472-1.4-1.472-1.569A15.513,15.513,0,0,1,2.278,32.609,9.747,9.747,0,0,0,2,31.673ZM57.927,61.6c.492-6.226.977-12.355,1.458-18.446,6.663-.624,8.737-1.33,11.3-3.97a12.739,12.739,0,0,0,3.675-11.15,12.647,12.647,0,0,0-6.02-9.2c-5.03-3.155-10.111-2.634-15.3.433-.1-3.9-.932-7.256-3.376-10.015a12.15,12.15,0,0,0-9.17-4.527c-9.385.012-13.74,5.443-14.48,14.487-5.787-3.389-11.333-3.571-16.466.683C5.382,23.341,3.655,27.955,5.136,33.2c1.951,6.916,7.084,9.86,14.1,9.939L20.7,61.6ZM57.7,64.494H20.923c.164,2.094.3,4.031.473,5.965a1.974,1.974,0,0,0,2.241,1.946q15.678,0,31.356,0a2.022,2.022,0,0,0,2.248-2.125c.14-1.882.3-3.761.464-5.787" transform="translate(-1.329 -1.329)" fill="#0e2d4f"/>
    <path id="Trazado_947" data-name="Trazado 947" d="M47.886,74.432c-1.342,0-2.677,0-3.993,0-1.349,0-2.7.01-4.046-.005H34.926q-5.976,0-11.953,0c-4.131-.007-6.02-1.82-6.317-6.065-.292-4.168-.625-8.4-.946-12.5-.26-3.32-.53-6.754-.776-10.132-.05-.69-.187-.833-.915-.957A16.113,16.113,0,0,1,.29,31.409a4.766,4.766,0,0,0-.161-.558c-.034-.1-.069-.208-.1-.312A.665.665,0,0,1,0,30.345V27a.669.669,0,0,1,.048-.251c.309-.767.59-1.58.861-2.366a22.836,22.836,0,0,1,2.3-5.209,16.13,16.13,0,0,1,17.75-6.533l1.049.271A16.879,16.879,0,0,1,28.984,2.836,16.143,16.143,0,0,1,38.5,0C46.147.126,51.4,4.35,54.544,12.909c6.112-1.68,11.494-.663,16,3.028a15.923,15.923,0,0,1,5.888,11.251c.716,7.7-4.405,16.51-15.294,17.956l-.251,3.11q-.357,4.434-.716,8.9-.156,1.948-.306,3.9c-.219,2.815-.444,5.726-.7,8.588-.263,2.917-2.413,4.747-5.612,4.776-1.881.017-3.78.022-5.666.022m-8-1.352q2.007,0,4.014.005c3.161.006,6.43.012,9.643-.017,2.486-.022,4.089-1.351,4.287-3.554.257-2.854.483-5.76.7-8.571q.151-1.95.306-3.9.357-4.455.716-8.9l.3-3.657a.671.671,0,0,1,.6-.614c10.526-1.137,15.34-9.193,14.655-16.564a14.625,14.625,0,0,0-5.4-10.337c-4.35-3.563-9.38-4.415-15.376-2.6a.671.671,0,0,1-.828-.422C50.58,5.585,45.67,1.462,38.48,1.345a14.884,14.884,0,0,0-8.742,2.6,15.5,15.5,0,0,0-6.583,9.935.671.671,0,0,1-.823.5l-.624-.162-1.082-.279a14.8,14.8,0,0,0-16.3,5.973,21.5,21.5,0,0,0-2.149,4.907c-.263.761-.534,1.547-.836,2.308v3.11c.019.062.04.124.061.186a5.886,5.886,0,0,1,.2.723A14.828,14.828,0,0,0,14.244,43.44a2.115,2.115,0,0,1,2.029,2.182c.246,3.375.515,6.807.776,10.125.322,4.1.654,8.34.947,12.514.245,3.5,1.6,4.81,4.98,4.816q5.975.011,11.95,0h4.957Zm-.055-1.331H22.309A2.645,2.645,0,0,1,19.4,69.19c-.12-1.35-.223-2.687-.33-4.1-.047-.612-.094-1.235-.144-1.872a.671.671,0,0,1,.669-.724H56.376a.672.672,0,0,1,.669.725l-.15,1.837c-.11,1.347-.217,2.646-.314,3.946a2.682,2.682,0,0,1-2.917,2.746H39.827M20.32,63.836l.088,1.151c.108,1.41.209,2.743.329,4.084.084.935.554,1.335,1.572,1.335q15.678,0,31.356,0c1.041,0,1.5-.436,1.578-1.5.1-1.3.2-2.606.314-3.956l.09-1.11ZM56.6,60.943H19.372a.672.672,0,0,1-.669-.618L17.285,42.471c-7.5-.261-12.248-3.762-14.124-10.414-1.5-5.32.142-10.3,4.626-14.011,4.842-4.012,10.33-4.431,16.327-1.251C25.192,7.466,30.25,2.733,39.16,2.722a12.845,12.845,0,0,1,9.674,4.753c2.138,2.413,3.234,5.326,3.495,9.341,5.4-2.878,10.324-2.837,15.035.117a13.391,13.391,0,0,1,6.328,9.675,13.358,13.358,0,0,1-3.857,11.714C67.244,41,65.1,41.807,58.681,42.44L57.268,60.325a.672.672,0,0,1-.67.618M19.992,59.6H55.978l1.409-17.828a.672.672,0,0,1,.607-.616c6.533-.612,8.464-1.281,10.876-3.769A12.076,12.076,0,0,0,72.363,26.8a11.931,11.931,0,0,0-5.712-8.731c-4.523-2.836-9.3-2.692-14.6.442a.671.671,0,0,1-1.013-.56c-.114-4.256-1.1-7.213-3.208-9.588-2.529-2.854-5.44-4.3-8.653-4.3h-.013c-8.531.011-13.049,4.548-13.812,13.871a.671.671,0,0,1-1.008.525c-5.895-3.451-11.03-3.249-15.7.62-4.109,3.4-5.558,7.766-4.191,12.612,1.746,6.19,6.275,9.369,13.461,9.45a.672.672,0,0,1,.662.618Z" transform="translate(0 0)" fill="#0e2d4f"/>
    <path id="Trazado_948" data-name="Trazado 948" d="M95.163,188.2c-.163,2.026-.324,3.905-.464,5.787a2.022,2.022,0,0,1-2.248,2.125q-15.678,0-31.356,0a1.974,1.974,0,0,1-2.241-1.946c-.173-1.934-.309-3.872-.473-5.965Z" transform="translate(-38.786 -125.03)" fill="#c00"/>
  </g>
</svg>
