<svg id="Grupo_341" data-name="Grupo 341" xmlns="http://www.w3.org/2000/svg" width="115.329" height="115.318" viewBox="0 0 115.329 115.318">
  <path id="Trazado_544" data-name="Trazado 544" d="M310.55,88.274,337.474,61.35l4.771,4.771L315.321,93.045Z" transform="translate(-240.598 -47.531)" fill="#0e2d4f"/>
  <path id="Trazado_545" data-name="Trazado 545" d="M261.926,21.165,254.9,28.19l4.773,4.771,7.026-7.026a15.493,15.493,0,0,0,0-21.883L262.646,0l-4.773,4.771,4.052,4.052A8.739,8.739,0,0,1,261.926,21.165Z" transform="translate(-197.483)" fill="#0e2d4f"/>
  <path id="Trazado_546" data-name="Trazado 546" d="M372.706,189.162l-7.026,7.026,4.771,4.771,7.026-7.026a8.725,8.725,0,0,1,12.339,0h0l4.052,4.052,4.771-4.769-4.052-4.052h0a15.471,15.471,0,0,0-21.881,0Z" transform="translate(-283.31 -143.042)" fill="#0e2d4f"/>
  <path id="Trazado_547" data-name="Trazado 547" d="M193.52,47.05h6.749V53.8H193.52Z" transform="translate(-149.929 -36.452)" fill="#0e2d4f"/>
  <path id="Trazado_548" data-name="Trazado 548" d="M463.15,16.97H469.9v6.749H463.15Z" transform="translate(-358.824 -13.147)" fill="#0e2d4f"/>
  <path id="Trazado_549" data-name="Trazado 549" d="M463.54,135.8h6.749v6.749H463.54Z" transform="translate(-359.127 -105.211)" fill="#0e2d4f"/>
  <path id="Trazado_550" data-name="Trazado 550" d="M448.56,285.6h6.749v6.749H448.56Z" transform="translate(-347.521 -221.268)" fill="#0e2d4f"/>
  <path id="Trazado_551" data-name="Trazado 551" d="M77.479,194.98l36.284,36.284-20.25,6.875-22.98-22.98,6.947-20.178m-2.3-9.94L64.32,216.593,92.067,244.34l31.666-10.749L75.184,185.04Z" transform="translate(-49.832 -143.359)" fill="#0e2d4f"/>
  <path id="Trazado_552" data-name="Trazado 552" d="M129.58,73.96l-6.17,17.921,53.229,53.229,17.98-6.1Z" transform="translate(-95.612 -57.3)" fill="#c00"/>
  <path id="Trazado_553" data-name="Trazado 553" d="M0,391.616,35.11,379.7,12.044,356.63Z" transform="translate(0 -276.298)" fill="#c00"/>
</svg>
