<svg id="Grupo_1172" data-name="Grupo 1172" xmlns="http://www.w3.org/2000/svg" width="30.995" height="30.992" viewBox="0 0 30.995 30.992">
  <g id="Grupo_1140" data-name="Grupo 1140">
    <g id="Grupo_151" data-name="Grupo 151" transform="translate(0)">
      <path id="Trazado_252" data-name="Trazado 252" d="M1.551,30.992a1.56,1.56,0,0,1-1.1-.449,1.533,1.533,0,0,1-.372-1.581l2.743-8.244a14.828,14.828,0,0,1-1.271-6A14.747,14.747,0,0,1,16.241,0h.806A14.691,14.691,0,0,1,30.993,13.853v.868A14.747,14.747,0,0,1,16.272,29.442a14.774,14.774,0,0,1-6-1.271L2.031,30.914A1.641,1.641,0,0,1,1.551,30.992ZM16.241,3.1A11.621,11.621,0,0,0,5.874,19.912a1.592,1.592,0,0,1,.093,1.193L4,26.994l5.888-1.968a1.527,1.527,0,0,1,1.193.093,10.905,10.905,0,0,0,5.191,1.224A11.623,11.623,0,0,0,27.894,14.721h0v-.775A11.555,11.555,0,0,0,16.954,3.1h-.713Z" transform="translate(0.002 0)" fill="#777"/>
    </g>
    <g id="Grupo_154" data-name="Grupo 154" transform="translate(8.805 10.01)">
      <g id="Grupo_152" data-name="Grupo 152">
        <path id="Trazado_253" data-name="Trazado 253" d="M19.58,9.559H7.23a1.55,1.55,0,1,1,0-3.1H19.564a1.55,1.55,0,0,1,.015,3.1Z" transform="translate(-5.68 -6.46)" fill="#777"/>
      </g>
      <g id="Grupo_153" data-name="Grupo 153" transform="translate(0 6.338)">
        <path id="Trazado_254" data-name="Trazado 254" d="M19.58,13.649H7.23a1.55,1.55,0,1,1,0-3.1H19.564a1.55,1.55,0,0,1,.015,3.1Z" transform="translate(-5.68 -10.55)" fill="#777"/>
      </g>
    </g>
  </g>
</svg>
