<svg id="Grupo_505" data-name="Grupo 505" xmlns="http://www.w3.org/2000/svg" width="54.566" height="81.862" viewBox="0 0 54.566 81.862">
  <g id="Grupo_504" data-name="Grupo 504" transform="translate(6.825 43.931)">
    <path id="Trazado_695" data-name="Trazado 695" d="M39.511,50.8a3.417,3.417,0,0,1-1.739-.477L22.459,41.148,7.146,50.322a3.378,3.378,0,0,1-3.615-.068,3.428,3.428,0,0,1-1.5-3.308L6.157,15.877a3.405,3.405,0,1,1,6.752.887L9.7,40.807l10.981-6.582a3.417,3.417,0,0,1,3.513,0l10.981,6.582L31.974,16.73a3.405,3.405,0,0,1,6.752-.887l4.127,31.1a3.428,3.428,0,0,1-1.5,3.308A3.236,3.236,0,0,1,39.511,50.8Z" transform="translate(-2.001 -12.882)" fill="#fff"/>
  </g>
  <g id="Grupo_503" data-name="Grupo 503">
    <path id="Trazado_694" data-name="Trazado 694" d="M27.283,54.566A27.283,27.283,0,1,1,54.566,27.283,27.319,27.319,0,0,1,27.283,54.566Zm0-47.745A20.462,20.462,0,1,0,47.745,27.283,20.478,20.478,0,0,0,27.283,6.821Z" fill="#fff"/>
  </g>
</svg>
