<svg id="Grupo_623" data-name="Grupo 623" xmlns="http://www.w3.org/2000/svg" width="84.889" height="75" viewBox="0 0 84.889 75">
  <path id="Trazado_772" data-name="Trazado 772" d="M42.449,75a3.829,3.829,0,0,1-2.632-1.075L7.044,41.152a24.166,24.166,0,0,1,0-34.108,24.166,24.166,0,0,1,34.108,0l1.3,1.3,1.3-1.3.074-.074A24.046,24.046,0,0,1,60.8,0h0A24.069,24.069,0,0,1,77.855,7.044h0a24.144,24.144,0,0,1,0,34.071L45.082,73.888A3.559,3.559,0,0,1,42.449,75ZM24.1,7.415a16.7,16.7,0,0,0-11.789,28.51L42.449,66.065,72.59,35.924a16.648,16.648,0,0,0,0-23.579h0A16.46,16.46,0,0,0,60.8,7.415h0a16.576,16.576,0,0,0-11.789,4.894h0l-.037.037-3.893,3.893a3.761,3.761,0,0,1-5.227,0l-3.967-3.93A16.557,16.557,0,0,0,24.1,7.415Z" transform="translate(0 0)" fill="#fff"/>
</svg>
