<svg id="Grupo_502" data-name="Grupo 502" xmlns="http://www.w3.org/2000/svg" width="75" height="75" viewBox="0 0 75 75">
  <g id="Grupo_500" data-name="Grupo 500">
    <path id="Trazado_692" data-name="Trazado 692" d="M37.5,75h0a37.5,37.5,0,1,1,0-75h.034A37.185,37.185,0,0,1,52.773,3.239a3.411,3.411,0,1,1-2.761,6.239A30.514,30.514,0,0,0,37.534,6.818h0A30.682,30.682,0,0,0,37.5,68.182h0A30.7,30.7,0,0,0,68.182,37.534V34.4A3.409,3.409,0,0,1,75,34.4v3.136A37.537,37.537,0,0,1,37.5,75Z" fill="#fff"/>
  </g>
  <g id="Grupo_501" data-name="Grupo 501" transform="translate(23.855 6.844)">
    <path id="Trazado_693" data-name="Trazado 693" d="M20.642,42.959a3.521,3.521,0,0,1-2.42-.989L7.995,31.743A3.4,3.4,0,0,1,12.8,26.936l7.841,7.773L52.313,3A3.4,3.4,0,0,1,57.12,7.811L23.029,41.936A3.271,3.271,0,0,1,20.642,42.959Z" transform="translate(-6.997 -2.007)" fill="#fff"/>
  </g>
</svg>
