<svg xmlns="http://www.w3.org/2000/svg" width="25.947" height="25.962" viewBox="0 0 25.947 25.962">
  <g id="Grupo_5445" data-name="Grupo 5445" transform="translate(-278.26 -894.286)">
    <g id="Grupo_5445-2" data-name="Grupo 5445" transform="translate(278.26 894.286)">
      <path id="Trazado_7925" data-name="Trazado 7925" d="M466.665,128.6c-.321,0-.645-.017-.966,0s-.642.058-.972.089c-.006-.021-.014-.053-.023-.085a5.97,5.97,0,0,0-.189-.642,5.036,5.036,0,0,0-1.489-2.035,4.926,4.926,0,0,0-6.835.6,4.845,4.845,0,0,0-.667,5.433,4.771,4.771,0,0,0,4.593,2.7,4.651,4.651,0,0,0,2.946-1.13,4.837,4.837,0,0,0,1.291-1.655,2.1,2.1,0,0,1,.1-.19.156.156,0,0,1,.079-.069c.279-.075.556-.161.839-.212a3.962,3.962,0,0,1,1.143-.027l.053.009a6.857,6.857,0,1,1,.1-2.779Z" transform="translate(-453.057 -116.747)" fill="#744774"/>
      <path id="Trazado_7926" data-name="Trazado 7926" d="M494.192,99.662c0,.269.015.542,0,.815a4.036,4.036,0,0,1-.242,1.2.2.2,0,0,1-.1.106,4.923,4.923,0,0,0-2.725,2.99c-.014.04-.024.081-.037.125a4.914,4.914,0,0,0-.278-9.5,4.783,4.783,0,0,0-3.752.634,4.864,4.864,0,0,0-2.186,3.122,7.433,7.433,0,0,0-1.957-.086c.061-.26.105-.512.182-.753a7.988,7.988,0,0,1,.349-.953,6.86,6.86,0,0,1,10.037-2.878,6.855,6.855,0,0,1-.187,11.54.128.128,0,0,1-.15.005,7.079,7.079,0,0,0-2.3-.781.1.1,0,0,1-.1-.1,7.06,7.06,0,0,0-.781-2.3.122.122,0,0,1,0-.143,6.828,6.828,0,0,1,4.113-3.037l.063-.015A.246.246,0,0,1,494.192,99.662Z" transform="translate(-476.723 -93.315)" fill="#744774"/>
      <path id="Trazado_7927" data-name="Trazado 7927" d="M517.509,131.774c.2.061.391.117.58.18.025.008.046.046.058.075a4.586,4.586,0,0,0,1.138,1.621,4.791,4.791,0,0,0,5.177,1.007,4.922,4.922,0,0,0,.44-8.97,4.693,4.693,0,0,0-1.1-.4l-.092-.024a7.459,7.459,0,0,0,.088-1.949c.141.028.274.051.405.082a6.859,6.859,0,0,1,5.236,5.6,6.856,6.856,0,0,1-10.311,6.954,6.764,6.764,0,0,1-2.277-2.242.162.162,0,0,1-.007-.19,7.027,7.027,0,0,0,.645-1.657Z" transform="translate(-503.582 -117.086)" fill="#744774"/>
      <path id="Trazado_7928" data-name="Trazado 7928" d="M483,190.539c.329,0,.652.014.974,0s.643-.058.97-.089a4.878,4.878,0,0,0,1.994,2.984,4.819,4.819,0,0,0,2.865.887,4.929,4.929,0,0,0,4.768-3.871c.324.031.648.075.972.09s.646,0,.967,0a6.85,6.85,0,0,1-13.511,0Z" transform="translate(-476.788 -170.291)" fill="#744774"/>
      <path id="Trazado_7929" data-name="Trazado 7929" d="M496.826,157.573a4,4,0,0,1-1.2-.019c-.275-.05-.545-.127-.815-.2a.2.2,0,0,1-.114-.1,4.917,4.917,0,0,0-5.966-2.744,4.851,4.851,0,0,0-3.078,2.749.171.171,0,0,1-.081.087,4.462,4.462,0,0,1-2.02.234.133.133,0,0,1-.025-.009,6.849,6.849,0,0,1,13.3,0Z" transform="translate(-477.202 -140.104)" fill="#744774"/>
      <path id="Trazado_7930" data-name="Trazado 7930" d="M483.49,134.209a4.325,4.325,0,0,1,1.051-.006,4.2,4.2,0,0,1,.988.229.179.179,0,0,1,.093.087,4.869,4.869,0,0,0,1.778,2.135c.215.144.446.263.67.394a.118.118,0,0,0,.035.012.208.208,0,0,1,.189.176,4.562,4.562,0,0,0,.156.484c-.273.087-.533.153-.781.252-.328.13-.649.282-.969.432a.158.158,0,0,1-.174-.009,6.877,6.877,0,0,1-3-4.049C483.512,134.3,483.5,134.262,483.49,134.209Z" transform="translate(-477.174 -125.694)" fill="#744774"/>
    </g>
  </g>
</svg>
