<svg xmlns="http://www.w3.org/2000/svg" width="67.188" height="75" viewBox="0 0 67.188 75">
  <path id="Trazado_771" data-name="Trazado 771" d="M524.814,119.469a6.773,6.773,0,0,1-6.718-6.818,6.872,6.872,0,0,1,.923-3.394l.03-.038.015-.046a6.673,6.673,0,0,1,5.75-3.348,6.823,6.823,0,0,1,0,13.644ZM484.5,95.606a6.819,6.819,0,1,1,6.718-6.818A6.773,6.773,0,0,1,484.5,95.606ZM524.814,58.1a6.819,6.819,0,1,1-6.718,6.818A6.773,6.773,0,0,1,524.814,58.1Zm0,40.917a13.291,13.291,0,0,0-9.525,4.031L497.382,92.458a12.361,12.361,0,0,0,0-7.356l17.892-10.6a13.3,13.3,0,0,0,9.54,4.046,13.638,13.638,0,1,0-13.436-13.636,13.768,13.768,0,0,0,.56,3.678l-17.892,10.6a13.3,13.3,0,0,0-9.54-4.046,13.638,13.638,0,0,0,0,27.273,13.3,13.3,0,0,0,9.54-4.046l17.9,10.588a13.382,13.382,0,1,0,12.869-9.943Z" transform="translate(-471.07 -51.28)" fill="#fff"/>
</svg>
