<svg xmlns="http://www.w3.org/2000/svg" width="17.994" height="17.965" viewBox="0 0 17.994 17.965">
  <g id="Layer_32" data-name="Layer 32" transform="translate(28.494 -10.554) rotate(90)">
    <path id="Trazado_6681" data-name="Trazado 6681" d="M29.124,14.116V11.128a.628.628,0,0,0-1.255,0v2.988a2.54,2.54,0,0,0,0,4.913v8.838a.628.628,0,0,0,1.255,0V19.028A2.542,2.542,0,0,0,29.124,14.116Z" transform="translate(-8.968)" fill="#7C7C7C"/>
    <path id="Trazado_6682" data-name="Trazado 6682" d="M44.564,17.041V11.128a.628.628,0,1,0-1.255,0v5.913a2.54,2.54,0,0,0,0,4.913v5.913a.628.628,0,0,0,1.255,0V21.954A2.537,2.537,0,0,0,44.564,17.041Z" transform="translate(-17.947)" fill="#7C7C7C"/>
    <path id="Trazado_6683" data-name="Trazado 6683" d="M13.7,21.59V11.128a.628.628,0,1,0-1.255,0V21.59a2.54,2.54,0,0,0,0,4.909v1.368a.628.628,0,1,0,1.255,0V26.5a2.54,2.54,0,0,0,0-4.913Z" fill="#7C7C7C"/>
  </g>
</svg>
