<svg xmlns="http://www.w3.org/2000/svg" width="20.223" height="20.223" viewBox="0 0 20.223 20.223">
  <g id="Icons" transform="translate(1 1)">
    <g id="Rounded" transform="translate(-1 -1)">
      <g id="Device" transform="translate(0)">
        <g id="_-Round-_-Device-_-gps_fixed" data-name="-Round-/-Device-/-gps_fixed" transform="translate(0 0)">
          <g id="Grupo_1763" data-name="Grupo 1763">
            <path id="Path" d="M0,0H20.223V20.223H0Z" fill="none" fill-rule="evenodd"/>
            <path id="_Icon-Color" data-name="🔹Icon-Color" d="M10.269,6.9a3.37,3.37,0,1,0,3.37,3.37A3.37,3.37,0,0,0,10.269,6.9ZM17.8,9.426a7.579,7.579,0,0,0-6.69-6.69V1.843a.843.843,0,0,0-1.685,0v.893a7.579,7.579,0,0,0-6.69,6.69H1.843a.843.843,0,0,0,0,1.685h.893a7.579,7.579,0,0,0,6.69,6.69v.893a.843.843,0,1,0,1.685,0V17.8a7.579,7.579,0,0,0,6.69-6.69h.893a.843.843,0,1,0,0-1.685Zm-7.533,6.741a5.9,5.9,0,1,1,5.9-5.9A5.894,5.894,0,0,1,10.269,16.167Z" transform="translate(-0.157 -0.157)" fill="#c00" fill-rule="evenodd"/>
          </g>
        </g>
      </g>
    </g>
  </g>
</svg>
