<svg xmlns="http://www.w3.org/2000/svg" width="30.505" height="20.835" viewBox="0 0 30.505 20.835">
  <g id="Grupo_6284" data-name="Grupo 6284" transform="translate(-5206.208 15449.711)">
    <path id="Trazado_268" data-name="Trazado 268" d="M674.671,10.417a10.427,10.427,0,0,1,3.722-7.983,8.381,8.381,0,0,0-2.976-.542,8.525,8.525,0,0,0,0,17.05,8.423,8.423,0,0,0,2.972-.538A10.448,10.448,0,0,1,674.671,10.417Zm5.587,9.223a10.318,10.318,0,0,1-4.841,1.195,10.417,10.417,0,1,1,0-20.835,10.318,10.318,0,0,1,4.841,1.195A10.266,10.266,0,0,1,685.088,0a10.417,10.417,0,1,1,0,20.835A10.266,10.266,0,0,1,680.258,19.64Zm4.83-.7a8.525,8.525,0,1,0-2.972-16.511,8.347,8.347,0,0,0-1.858.965,8.516,8.516,0,0,0,0,14.039,8.2,8.2,0,0,0,1.858.965A8.377,8.377,0,0,0,685.088,18.942Z" transform="translate(4541.208 -15449.711)" fill="#fff"/>
    <path id="Trazado_269" data-name="Trazado 269" d="M714.58,17.32a4.434,4.434,0,0,1,.858.083,4.28,4.28,0,0,1,.826.25,4.438,4.438,0,0,1,.76.406,4.373,4.373,0,0,1,.667.549,4.587,4.587,0,0,1,.549.667,4.432,4.432,0,0,1,.406.76,4.277,4.277,0,0,1,.25.826,4.457,4.457,0,0,1,0,1.715,4.361,4.361,0,0,1-.25.826,4.431,4.431,0,0,1-.406.76,4.375,4.375,0,0,1-.549.667,4.588,4.588,0,0,1-.667.549,4.438,4.438,0,0,1-.76.406,4.28,4.28,0,0,1-.826.25,4.455,4.455,0,0,1-1.715,0,4.28,4.28,0,0,1-.826-.25,4.438,4.438,0,0,1-.76-.406,4.379,4.379,0,0,1-.667-.549,4.591,4.591,0,0,1-.549-.667,4.44,4.44,0,0,1-.406-.76,4.282,4.282,0,0,1-.25-.826,4.46,4.46,0,0,1,0-1.715,4.286,4.286,0,0,1,.25-.826,4.444,4.444,0,0,1,.406-.76,4.375,4.375,0,0,1,.549-.667,4.594,4.594,0,0,1,.667-.549,4.438,4.438,0,0,1,.76-.406,4.28,4.28,0,0,1,.826-.25A4.406,4.406,0,0,1,714.58,17.32Z" transform="translate(4511.717 -15461.017)" fill="#c00"/>
  </g>
</svg>
