<svg xmlns="http://www.w3.org/2000/svg" width="85.617" height="98.781" viewBox="0 0 85.617 98.781">
  <g id="Grupo_1073" data-name="Grupo 1073" transform="translate(16909 12750.064)">
    <g id="Grupo_346" data-name="Grupo 346" transform="translate(-16909 -12750.064)">
      <path id="Trazado_557" data-name="Trazado 557" d="M76.065,18.656l4.288-4.288-3.3-3.173a4.1,4.1,0,0,0-5.746.043L69.848,12.7a42.927,42.927,0,0,0-61.1,7.032c-13.678,17.709-11.02,43.95,5.917,58.614A42.885,42.885,0,0,0,75.937,18.784Zm-33.188,61.4a34.3,34.3,0,1,1,34.3-34.3A34.293,34.293,0,0,1,42.878,80.057Z" transform="translate(0 9.987)" fill="#0e2d4f"/>
      <path id="Trazado_558" data-name="Trazado 558" d="M9.073,0H43.8a4.1,4.1,0,0,1,4.073,4.073V4.5A4.1,4.1,0,0,1,43.8,8.576H9.073A4.072,4.072,0,0,1,5,4.5V4.073A4.072,4.072,0,0,1,9.073,0Z" transform="translate(16.438)" fill="#0e2d4f"/>
      <path id="Trazado_559" data-name="Trazado 559" d="M17.576,29.168V10.559A3.55,3.55,0,0,0,14.017,7H12.559A3.55,3.55,0,0,0,9,10.559V37.744A3.55,3.55,0,0,0,12.559,41.3h22.9a3.55,3.55,0,0,0,3.559-3.559V36.286a3.55,3.55,0,0,0-3.559-3.559H21.134A3.55,3.55,0,0,1,17.576,29.168Z" transform="translate(27.875 23.872)" fill="#c00"/>
    </g>
  </g>
</svg>
