<svg xmlns="http://www.w3.org/2000/svg" width="109.934" height="82.485" viewBox="0 0 109.934 82.485">
  <g id="Grupo_1070" data-name="Grupo 1070" transform="translate(17716 12741.902)">
    <g id="Grupo_343" data-name="Grupo 343" transform="translate(-17716 -12741.902)">
      <g id="Grupo_169" data-name="Grupo 169" transform="translate(0)">
        <path id="Trazado_260" data-name="Trazado 260" d="M54.972,82.486C20.466,82.486,1.265,44.909.486,43.3a4.562,4.562,0,0,1,0-4.078C1.265,37.577,20.466,0,54.972,0s53.707,37.577,54.486,39.181a4.562,4.562,0,0,1,0,4.078C108.68,44.909,89.479,82.486,54.972,82.486ZM9.789,41.243C14.1,48.621,30.318,73.32,54.972,73.32c24.7,0,40.876-24.7,45.184-32.078C95.849,33.865,79.626,9.165,54.972,9.165,30.273,9.165,14.1,33.865,9.789,41.243Z" transform="translate(-0.005)" fill="#0e2d4f"/>
      </g>
      <g id="Grupo_170" data-name="Grupo 170" transform="translate(36.637 22.913)">
        <path id="Trazado_261" data-name="Trazado 261" d="M26.33,41.66A18.33,18.33,0,1,1,44.66,23.33,18.325,18.325,0,0,1,26.33,41.66Zm0-27.5A9.165,9.165,0,1,0,35.5,23.33,9.192,9.192,0,0,0,26.33,14.165Z" transform="translate(-8 -5)" fill="#c00"/>
      </g>
    </g>
  </g>
</svg>
