<svg xmlns="http://www.w3.org/2000/svg" width="21.43" height="23.17" viewBox="0 0 21.43 23.17">
  <g id="Grupo_6286" data-name="Grupo 6286" transform="translate(-5364 15450)">
    <g id="Grupo_3600" data-name="Grupo 3600" transform="translate(5364 -15450)">
      <g id="Grupo_557_1_" transform="translate(3.907 12.986)">
        <path id="Trazado_755_1_" d="M4.33,3.4a1.8,1.8,0,0,1-.3.98,1.155,1.155,0,0,1-1.18.53,1.2,1.2,0,0,1-.93-.96,1.87,1.87,0,0,1-.03-.34.251.251,0,0,1,.23-.28h.01c.13,0,.22.1.24.27a1.3,1.3,0,0,0,.07.33.67.67,0,0,0,.58.45.7.7,0,0,0,.65-.35,1.211,1.211,0,0,0,.12-.93,1.627,1.627,0,0,0-1.2-1.36A1.706,1.706,0,0,0,.51,2.94c-.02.06-.04.13-.07.2a.2.2,0,0,1-.26.11h0a.585.585,0,0,1-.17-.21.285.285,0,0,1,0-.13A2.265,2.265,0,0,1,2.2,1.13a2.075,2.075,0,0,1,2,1.57C4.26,2.93,4.29,3.17,4.33,3.4Z" fill="#fff"/>
        <path id="Trazado_756_1_" d="M5.3,3.35A3.832,3.832,0,0,1,4,6.27c-.03.03-.06.05-.09.08q-.225.18-.36,0a.311.311,0,0,1,.05-.42,3.87,3.87,0,0,0,.53-.54,3.115,3.115,0,0,0,.52-2.94,2.261,2.261,0,0,0-.17-.35.3.3,0,0,1,.04-.37.224.224,0,0,1,.32-.01.3.3,0,0,1,.05.07,2.4,2.4,0,0,1,.35,1A4.127,4.127,0,0,1,5.3,3.35Z" fill="#fff"/>
        <path id="Trazado_757_1_" d="M2.89,7.12A2.975,2.975,0,0,1,.28,5.29a2.542,2.542,0,0,1-.17-.46.417.417,0,0,1,.04-.29.251.251,0,0,1,.21-.1.3.3,0,0,1,.19.16c.09.19.14.39.24.57A2.516,2.516,0,0,0,2.63,6.55a2.186,2.186,0,0,0,.36.03c.2.01.3.1.3.26a.294.294,0,0,1-.27.29H2.98Z" fill="#fff"/>
        <path id="Trazado_758_1_" d="M2.15,2.23A1.142,1.142,0,0,1,3.31,3.24a1.816,1.816,0,0,1,.03.32.256.256,0,0,1-.25.26c-.13,0-.22-.09-.23-.25a2.061,2.061,0,0,0-.03-.26.694.694,0,0,0-.66-.54.724.724,0,0,0-.74.48c-.01.02-.01.05-.02.07a.246.246,0,0,1-.29.18.259.259,0,0,1-.17-.32A1.2,1.2,0,0,1,2.15,2.23Z" fill="#fff"/>
        <path id="Trazado_759_1_" d="M2.96,6.02A2.055,2.055,0,0,1,1.13,4.73a1.425,1.425,0,0,1-.11-.35.267.267,0,0,1,.18-.33c.14-.03.23.04.29.21A1.647,1.647,0,0,0,2.7,5.44a2.085,2.085,0,0,0,.35.04c.18.01.28.09.28.25a.278.278,0,0,1-.26.29H2.96Z" fill="#fff"/>
        <path id="Trazado_760_1_" d="M2.35-.01A2.9,2.9,0,0,1,4.38,1.01a.318.318,0,0,1,.01.41.225.225,0,0,1-.32.04.121.121,0,0,1-.05-.05A2.368,2.368,0,0,0,2.86.66,3.467,3.467,0,0,0,2.23.55c-.2-.02-.31-.1-.31-.27A.283.283,0,0,1,2.25,0Z" fill="#fff"/>
      </g>
      <g id="Grupo_3600-2" data-name="Grupo 3600">
        <g id="XMLID_4_">
          <path id="Trazado_6916" data-name="Trazado 6916" d="M13.25,9.51V19.94a3.237,3.237,0,0,1-3.24,3.23H3.24A3.237,3.237,0,0,1,0,19.94V3.23A3.244,3.244,0,0,1,3.24,0h6.77a3.244,3.244,0,0,1,3.24,3.23V4.62H11.6V3.23a1.594,1.594,0,0,0-1.59-1.59H3.24a1.6,1.6,0,0,0-1.6,1.59V19.94a1.6,1.6,0,0,0,1.6,1.59h6.77a1.588,1.588,0,0,0,1.59-1.59V9.51Z" fill="#fff"/>
        </g>
      </g>
      <g id="Grupo_3601" data-name="Grupo 3601">
        <g id="XMLID_3_">
          <path id="Trazado_6917" data-name="Trazado 6917" d="M19.77,7.12a.79.79,0,0,0-.73-.86H6.26a.6.6,0,0,0-.6.6v2.1a1.2,1.2,0,0,0,2.4,0V8.67a.817.817,0,0,1,.82-.82H19.04A.793.793,0,0,0,19.77,7.12ZM21.43,7a2.45,2.45,0,0,1-2.39,2.49H13.5v.02H11.86V9.5H9.64a2.84,2.84,0,0,1-5.63-.54V6.86A2.245,2.245,0,0,1,6.26,4.62H19.04A2.441,2.441,0,0,1,21.43,7Z" fill="#c00"/>
        </g>
      </g>
    </g>
  </g>
</svg>
