<?xml version="1.0" standalone="no"?>
<!DOCTYPE svg PUBLIC "-//W3C//DTD SVG 20010904//EN"
 "http://www.w3.org/TR/2001/REC-SVG-20010904/DTD/svg10.dtd">
<svg version="1.0" xmlns="http://www.w3.org/2000/svg"
 width="109.000000pt" height="40.000000pt" viewBox="0 0 109.000000 40.000000"
 preserveAspectRatio="xMidYMid meet">

<g transform="translate(0.000000,40.000000) scale(0.100000,-0.100000)"
fill="#000000" stroke="none">
<path d="M44 385 c-3 -8 -14 -17 -25 -20 -18 -6 -19 -18 -19 -165 0 -150 1
-159 20 -165 11 -3 20 -11 20 -16 0 -5 50 -9 113 -9 94 0 114 3 114 15 0 12
-18 15 -102 15 -65 0 -105 4 -113 12 -8 8 -12 57 -12 154 0 120 2 143 16 148
9 3 61 6 115 6 59 0 98 4 94 9 -3 5 -1 12 5 16 6 3 13 -1 16 -10 5 -13 9 -14
15 -4 10 17 50 19 56 2 4 -10 44 -13 185 -13 160 0 182 2 194 18 13 16 13 16
14 0 0 -10 5 -18 11 -18 5 0 8 4 4 9 -3 5 -1 12 5 16 6 3 13 -1 17 -10 5 -16
7 -16 15 -1 5 9 14 14 19 11 5 -4 7 -11 4 -16 -4 -5 35 -9 94 -9 54 0 106 -3
115 -6 14 -5 16 -28 16 -148 0 -97 -4 -146 -12 -154 -8 -8 -48 -12 -113 -12
-84 0 -102 -3 -102 -15 0 -12 20 -15 114 -15 63 0 113 4 113 9 0 5 9 13 20 16
19 6 20 15 20 165 0 147 -1 159 -19 165 -11 3 -22 12 -25 20 -8 22 -994 22
-1002 0z"/>
<path d="M57 343 c-4 -3 -7 -68 -7 -144 0 -116 2 -138 16 -143 24 -9 947 -7
962 2 9 7 12 43 10 148 l-3 139 -486 3 c-267 1 -489 -1 -492 -5z m609 -45 c22
3 24 0 24 -37 0 -23 -4 -41 -10 -41 -5 0 -10 14 -10 30 0 23 -4 30 -20 30 -18
0 -19 -3 -8 -20 10 -16 10 -22 -3 -35 -9 -9 -23 -13 -32 -9 -20 7 -23 34 -4
34 8 0 7 3 -3 10 -12 7 -12 12 0 34 11 21 16 24 28 13 8 -6 25 -10 38 -9z
m-484 -13 c-2 -5 -14 -9 -27 -7 -20 3 -25 -1 -25 -17 0 -17 6 -21 29 -19 19 1
31 9 35 21 3 14 12 18 33 15 22 -2 28 -8 28 -28 0 -24 -3 -25 -67 -27 -58 -2
-69 0 -78 17 -17 33 4 62 43 58 18 -2 31 -7 29 -13z m574 -2 c-3 -10 -1 -25 5
-33 9 -13 10 -13 8 0 -4 39 2 50 26 50 28 0 35 -19 8 -21 -17 -1 -17 -2 0 -6
9 -2 17 -10 18 -16 1 -7 4 -1 8 13 8 28 48 40 62 18 8 -11 10 -11 18 0 4 8 19
12 32 10 20 -2 24 -9 24 -38 0 -29 -4 -36 -24 -38 -13 -2 -28 2 -33 10 -7 10
-11 10 -15 1 -6 -16 -45 -17 -61 -1 -9 9 -12 9 -12 0 0 -7 -19 -10 -55 -9 -30
1 -55 7 -54 12 0 6 8 9 17 8 10 -1 11 0 5 3 -7 3 -13 12 -13 20 0 8 -4 14 -10
14 -5 0 -10 5 -10 10 0 6 14 10 31 10 24 0 29 -3 25 -17z m-398 -35 c2 -16 -1
-28 -7 -28 -6 0 -12 10 -12 23 l-2 22 -4 -22 c-2 -13 -11 -23 -19 -23 -8 0
-15 10 -15 23 l-2 22 -4 -22 c-6 -34 -23 -28 -23 8 0 29 1 30 43 27 38 -3 42
-6 45 -30z m72 20 c0 -9 2 -10 8 -2 4 6 31 12 60 13 51 1 52 0 52 -29 0 -27
-3 -30 -30 -30 -22 0 -33 6 -40 23 l-9 22 0 -22 c-1 -24 -30 -33 -32 -10 0 10
-2 10 -6 0 -2 -7 -13 -13 -24 -13 -10 0 -19 -7 -19 -15 0 -8 -4 -15 -10 -15
-5 0 -10 20 -10 45 0 43 1 45 30 45 17 0 30 -5 30 -12z m152 -116 c-10 -3 -10
-8 2 -21 15 -16 15 -20 -1 -38 -17 -19 -19 -19 -33 -4 -15 16 -13 29 5 23 5
-2 2 5 -8 15 -16 18 -16 21 0 40 15 19 18 19 32 5 12 -12 13 -16 3 -20z m286
-25 c-2 -25 -8 -33 -26 -35 -13 -2 -29 2 -37 8 -9 7 -15 8 -20 0 -9 -15 -45
-12 -51 5 -6 14 -8 14 -18 -1 -14 -18 -52 -15 -48 4 3 17 -18 15 -24 -3 -7
-18 -37 -20 -32 -3 3 7 -1 19 -8 26 -26 25 -5 40 57 41 56 0 79 -12 42 -22
-14 -4 -13 -5 3 -6 12 0 24 6 28 14 6 17 42 20 51 5 4 -7 14 -5 27 4 32 23 60
4 56 -37z m-593 31 c4 -9 26 -12 75 -10 l70 2 0 -39 c0 -31 -4 -41 -20 -46
-23 -7 -40 1 -40 19 0 8 -12 11 -35 8 -29 -3 -36 0 -43 19 l-9 22 -21 -21
c-32 -32 -42 -27 -42 18 0 38 2 40 30 40 17 0 33 -6 35 -12z m225 -38 c0 -27
-3 -30 -30 -30 -32 0 -47 18 -36 45 3 9 18 15 36 15 27 0 30 -3 30 -30z"/>
<path d="M215 250 c-3 -5 1 -10 9 -10 9 0 16 5 16 10 0 6 -4 10 -9 10 -6 0
-13 -4 -16 -10z"/>
<path d="M850 260 c0 -11 4 -20 9 -20 11 0 22 26 14 34 -12 12 -23 5 -23 -14z"/>
<path d="M930 260 c0 -11 5 -20 10 -20 6 0 10 9 10 20 0 11 -4 20 -10 20 -5 0
-10 -9 -10 -20z"/>
<path d="M390 250 c0 -5 5 -10 10 -10 6 0 10 5 10 10 0 6 -4 10 -10 10 -5 0
-10 -4 -10 -10z"/>
<path d="M505 250 c-3 -5 1 -10 9 -10 9 0 16 5 16 10 0 6 -4 10 -9 10 -6 0
-13 -4 -16 -10z"/>
<path d="M750 130 c0 -11 5 -20 10 -20 6 0 10 9 10 20 0 11 -4 20 -10 20 -5 0
-10 -9 -10 -20z"/>
<path d="M825 140 c-7 -12 2 -30 16 -30 5 0 9 9 9 20 0 21 -15 27 -25 10z"/>
<path d="M300 120 c0 -5 5 -10 10 -10 6 0 10 5 10 10 0 6 -4 10 -10 10 -5 0
-10 -4 -10 -10z"/>
<path d="M380 120 c0 -5 5 -10 10 -10 6 0 10 5 10 10 0 6 -4 10 -10 10 -5 0
-10 -4 -10 -10z"/>
<path d="M450 120 c0 -5 5 -10 10 -10 6 0 10 5 10 10 0 6 -4 10 -10 10 -5 0
-10 -4 -10 -10z"/>
<path d="M286 25 c8 -19 10 -19 18 0 3 9 0 15 -9 15 -9 0 -12 -6 -9 -15z"/>
<path d="M323 25 c0 -8 4 -15 9 -15 4 0 8 7 8 15 0 8 -4 15 -8 15 -5 0 -9 -7
-9 -15z"/>
<path d="M356 25 c9 -22 369 -22 378 0 5 13 -20 15 -189 15 -169 0 -194 -2
-189 -15z"/>
<path d="M750 25 c0 -8 5 -15 10 -15 6 0 10 7 10 15 0 8 -4 15 -10 15 -5 0
-10 -7 -10 -15z"/>
<path d="M786 25 c8 -19 10 -19 18 0 3 9 0 15 -9 15 -9 0 -12 -6 -9 -15z"/>
</g>
</svg>
