<svg xmlns="http://www.w3.org/2000/svg" width="28.59" height="26.568" viewBox="0 0 28.59 26.568">
  <g id="Grupo_3603" data-name="Grupo 3603" transform="translate(0 0.002)">
    <g id="Grupo_3602" data-name="Grupo 3602" transform="translate(0 -0.002)">
      <path id="Trazado_6918" data-name="Trazado 6918" d="M8.83,15.82c.013,0,.026.013.038.013h9.724c.013,0,.026-.013.038-.013Z" transform="translate(2.453 4.398)" fill="#0e2d4f"/>
      <path id="Trazado_6919" data-name="Trazado 6919" d="M22.771,20.19h.562c.575,0,1.15.013,1.725-.013a.776.776,0,0,0,.677-.716V19.4a.845.845,0,0,0-.894-.792c-1.878.013-3.744,0-5.622,0H7.718l-.243-1.367c.064,0,.115-.013.166-.013h17.89a.809.809,0,0,0,.843-.69c.064-.281.1-.575.166-.856.192-.971.4-1.93.588-2.9.256-1.265.5-2.543.754-3.808.217-1.124.447-2.262.677-3.386a.642.642,0,0,0,.026-.268.814.814,0,0,0-.856-.767H7.411c-.754,0-1.5.013-2.249,0-.051-.013-.141-.064-.153-.1-.064-.23-.1-.473-.153-.7C4.664,2.735,4.485,1.726,4.281.716A.825.825,0,0,0,3.386,0H.805A.8.8,0,0,0,0,.806V.818A.8.8,0,0,0,.818,1.6H2.671c.115,0,.153.026.179.141.166.831.319,1.661.473,2.5.23,1.188.46,2.364.69,3.552.166.843.319,1.7.486,2.53l.46,2.338c.2,1.035.383,2.057.588,3.092.2,1.124.422,2.236.639,3.361a3.159,3.159,0,0,0,.141.6.776.776,0,0,0,.792.473H9.379a1.259,1.259,0,0,1,.217.026c-.013,0-.026.013-.051.013h1.776c-.013,0-.026-.013-.038-.013h9.8c-.013,0-.026.013-.038.013h1.712C22.758,20.216,22.771,20.2,22.771,20.19ZM15.3,15.437c0,.153-.038.192-.192.192H11.845c-.153,0-.217-.051-.243-.2-.192-1.188-.383-2.364-.575-3.54-.077-.511-.166-1.009-.256-1.521-.013-.089-.026-.179-.038-.307h4.332c.23,0,.23,0,.23.23C15.283,12,15.283,13.725,15.3,15.437Zm5.942-4.357c-.153,1.035-.294,2.07-.447,3.092L20.6,15.514c-.013.1-.064.115-.141.115H17.749c-.23,0-.473-.013-.7,0-.128,0-.179-.026-.179-.179V10.185c0-.128.051-.153.166-.153h4.1c.064,0,.128.013.23.013C21.327,10.428,21.276,10.747,21.237,11.079Zm4.779-1a3.718,3.718,0,0,1-.051.4c-.166.856-.345,1.712-.511,2.568-.166.805-.319,1.623-.486,2.428a.179.179,0,0,1-.2.166H22.388c-.166,0-.192-.038-.166-.2.166-1.112.319-2.236.473-3.348l.268-1.878c.026-.089.038-.141.141-.141h2.824c.038,0,.077,0,.089.013ZM5.75,8.307c-.115-.613-.23-1.214-.345-1.827a2.277,2.277,0,0,1-.051-.332H26.809c-.013.089-.026.179-.038.256-.128.652-.256,1.3-.383,1.968-.026.115-.1.1-.179.1H5.955C5.827,8.46,5.776,8.434,5.75,8.307Zm1.406,7.169c-.192-1.009-.4-2.019-.588-3.041-.153-.716-.281-1.431-.422-2.16-.013-.064-.013-.128-.026-.217H8.932c.115,0,.166.026.179.153.2,1.265.422,2.517.639,3.782.077.486.166.971.243,1.457a.786.786,0,0,1,.013.179.905.905,0,0,1-.179.013H7.348C7.233,15.641,7.181,15.6,7.156,15.475Z" transform="translate(0 0.002)" fill="#0e2d4f"/>
    </g>
    <path id="Trazado_6920" data-name="Trazado 6920" d="M6.87,18.608a1.642,1.642,0,0,0,1.648,1.636A1.661,1.661,0,0,0,10.167,18.6a1.648,1.648,0,0,0-3.3.013Z" transform="translate(1.909 4.713)" fill="none"/>
    <path id="Trazado_6921" data-name="Trazado 6921" d="M17.5,16.96a1.655,1.655,0,1,0,.013,0Z" transform="translate(4.412 4.713)" fill="none"/>
    <path id="Trazado_6922" data-name="Trazado 6922" d="M5.668,19.445a3.24,3.24,0,0,0,6.236.626,3.131,3.131,0,0,0-.153-2.62A3.38,3.38,0,0,0,9.757,15.79H7.968A3.309,3.309,0,0,0,5.668,19.445Zm4.843-.524A1.648,1.648,0,1,1,8.85,17.285,1.652,1.652,0,0,1,10.511,18.921Z" transform="translate(1.565 4.388)" fill="#0e2d4f"/>
    <path id="Trazado_6923" data-name="Trazado 6923" d="M16.97,15.78a3.312,3.312,0,0,0-2.262,3.9,3.243,3.243,0,0,0,6.287.077,3.083,3.083,0,0,0-.141-2.057,3.242,3.242,0,0,0-2.172-1.9V15.78H16.97Zm2.543,3.169a1.642,1.642,0,1,1-1.661-1.661h.013A1.655,1.655,0,0,1,19.513,18.949Z" transform="translate(4.063 4.385)" fill="#0e2d4f"/>
  </g>
</svg>
