<svg xmlns="http://www.w3.org/2000/svg" width="20" height="22" viewBox="0 0 20 22">
  <g id="Grupo_6282" data-name="Grupo 6282" transform="translate(-5062 15449)">
    <g id="Grupo_1637" data-name="Grupo 1637" transform="translate(5062 -15449)">
      <g id="Grupo_1636" data-name="Grupo 1636">
        <path id="Trazado_2804" data-name="Trazado 2804" d="M13,22a1,1,0,0,1-1-1V12H8v9a1,1,0,0,1-2,0V11a1,1,0,0,1,1-1h6a1,1,0,0,1,1,1V21A1,1,0,0,1,13,22Z" fill="#c00"/>
      </g>
      <g id="Grupo_1635" data-name="Grupo 1635">
        <path id="Trazado_2803" data-name="Trazado 2803" d="M17,22H3a3.009,3.009,0,0,1-3-3V8a.985.985,0,0,1,.39-.79l9-7a1.006,1.006,0,0,1,1.23,0l9,7A1,1,0,0,1,20,8V19A3.009,3.009,0,0,1,17,22ZM2,8.49V19a1,1,0,0,0,1,1H17a1,1,0,0,0,1-1V8.49L10,2.27Z" fill="#fff"/>
      </g>
    </g>
  </g>
</svg>
