<svg xmlns="http://www.w3.org/2000/svg" width="67.33" height="84.164" viewBox="0 0 67.33 84.164">
  <g id="Grupo_1071" data-name="Grupo 1071" transform="translate(17430 12743.068)">
    <g id="Grupo_342" data-name="Grupo 342" transform="translate(-17430 -12743.068)">
      <g id="Grupo_172" data-name="Grupo 172" transform="translate(0)">
        <path id="Trazado_262" data-name="Trazado 262" d="M63.123,84.164a3.95,3.95,0,0,1-2.441-.8L33.665,64.091,6.649,83.364A4.187,4.187,0,0,1,0,79.955V12.625A12.662,12.662,0,0,1,12.625,0H54.706A12.662,12.662,0,0,1,67.331,12.625V79.955A4.2,4.2,0,0,1,65.058,83.7,4.512,4.512,0,0,1,63.123,84.164ZM33.665,54.706a4.036,4.036,0,0,1,2.441.8L58.915,71.792V12.625a4.221,4.221,0,0,0-4.208-4.208H12.625a4.221,4.221,0,0,0-4.208,4.208V71.792L31.225,55.506A4.036,4.036,0,0,1,33.665,54.706Z" transform="translate(0)" fill="#0e2d4f"/>
      </g>
      <g id="Grupo_173" data-name="Grupo 173" transform="translate(16.622 13.424)">
        <path id="Trazado_263" data-name="Trazado 263" d="M18.552,17.456a8.348,8.348,0,0,1-6.06,2.4,8.247,8.247,0,0,1-6.1-2.441A7.908,7.908,0,0,1,3.95,11.522,7.908,7.908,0,0,1,6.391,5.631a8.247,8.247,0,0,1,6.1-2.441,8.214,8.214,0,0,1,6.06,2.4,8.06,8.06,0,0,1,2.4,5.934A8.06,8.06,0,0,1,18.552,17.456ZM7.527,33.868,30.546,8.282l3.072,1.725L10.557,35.677Zm2.651-20.073a2.923,2.923,0,0,0,2.23.926,2.953,2.953,0,0,0,2.272-.926,3.278,3.278,0,0,0,.926-2.315,2.953,2.953,0,0,0-.926-2.272,3.114,3.114,0,0,0-2.23-.884,2.862,2.862,0,0,0-2.23.926,3.178,3.178,0,0,0-.926,2.272A3.213,3.213,0,0,0,10.178,13.795ZM35.6,37.4a8.247,8.247,0,0,1-6.06,2.441,8.336,8.336,0,0,1-8.5-8.332,7.908,7.908,0,0,1,2.441-5.891,8.247,8.247,0,0,1,6.06-2.441,8.336,8.336,0,0,1,8.5,8.332A7.908,7.908,0,0,1,35.6,37.4Zm-8.29-3.619a2.923,2.923,0,0,0,2.23.926,2.96,2.96,0,0,0,2.23-.968,3.418,3.418,0,0,0,0-4.587,2.923,2.923,0,0,0-2.23-.926,2.96,2.96,0,0,0-2.23.968,3.243,3.243,0,0,0-.884,2.314A3.076,3.076,0,0,0,27.305,33.783Z" transform="translate(-3.95 -3.19)" fill="#c00"/>
      </g>
    </g>
  </g>
</svg>
