<svg xmlns="http://www.w3.org/2000/svg" width="25.002" height="20.835" viewBox="0 0 25.002 20.835">
  <g id="Grupo_6283" data-name="Grupo 6283" transform="translate(-5134.329 15449.711)">
    <g id="Grupo_69" data-name="Grupo 69" transform="translate(5134.329 -15449.711)">
      <path id="Trazado_3" data-name="Trazado 3" d="M449.543,36h-8.334A5.215,5.215,0,0,0,436,41.209v2.083a1.042,1.042,0,0,0,2.083,0V41.209a3.13,3.13,0,0,1,3.125-3.125h8.334a3.13,3.13,0,0,1,3.125,3.125v2.083a1.042,1.042,0,1,0,2.083,0V41.209A5.215,5.215,0,0,0,449.543,36Z" transform="translate(-436 -23.499)" fill="#fff"/>
      <path id="Trazado_4" data-name="Trazado 4" d="M453.209,2.083a3.125,3.125,0,1,1-3.125,3.125A3.13,3.13,0,0,1,453.209,2.083Zm0,8.334A5.209,5.209,0,1,0,448,5.209,5.215,5.215,0,0,0,453.209,10.417Z" transform="translate(-443.833)" fill="#fff"/>
      <path id="Trazado_5" data-name="Trazado 5" d="M494.306,36.424a1.04,1.04,0,1,0-.521,2.014,3.127,3.127,0,0,1,2.344,3.024v2.083a1.042,1.042,0,0,0,2.083,0V41.462A5.207,5.207,0,0,0,494.306,36.424Z" transform="translate(-473.211 -23.753)" fill="#c00"/>
      <path id="Trazado_6" data-name="Trazado 6" d="M482.3.419a1.041,1.041,0,0,0-.517,2.017,3.125,3.125,0,0,1,0,6.056,1.043,1.043,0,0,0,.257,2.052,1.112,1.112,0,0,0,.26-.031,5.21,5.21,0,0,0,0-10.094Z" transform="translate(-465.371 -0.252)" fill="#c00"/>
    </g>
  </g>
</svg>
