<svg xmlns="http://www.w3.org/2000/svg" width="78.123" height="78.123" viewBox="0 0 78.123 78.123">
  <g id="Grupo_1072" data-name="Grupo 1072" transform="translate(17171 12740.736)">
    <g id="Grupo_345" data-name="Grupo 345" transform="translate(-17171 -12740.736)">
      <path id="Trazado_554" data-name="Trazado 554" d="M62.8,0H15.324A15.342,15.342,0,0,0,0,15.324V62.8A15.342,15.342,0,0,0,15.324,78.123H62.8A15.342,15.342,0,0,0,78.123,62.8V15.324A15.342,15.342,0,0,0,62.8,0Zm0,70.557H15.324A7.767,7.767,0,0,1,7.566,62.8V15.324a7.767,7.767,0,0,1,7.758-7.758h22.35a7.853,7.853,0,1,0,2.776,0H62.8a7.767,7.767,0,0,1,7.758,7.758V62.8A7.767,7.767,0,0,1,62.8,70.557ZM39.061,11.718A3.577,3.577,0,1,1,35.484,15.3,3.582,3.582,0,0,1,39.061,11.718Z" fill="#0e2d4f"/>
      <g id="Grupo_344" data-name="Grupo 344" transform="translate(19.389 33.456)">
        <path id="Trazado_555" data-name="Trazado 555" d="M133.284,203.42v3.946h-5.65v16.981H123.51V207.366h-5.62V203.42Z" transform="translate(-117.89 -203.42)" fill="#c00"/>
        <path id="Trazado_556" data-name="Trazado 556" d="M245.968,203.42v20.927h-4.1V210.775l-5.9,9.709-.482.016-5.875-9.674v13.521H225.49V203.42h4.245l6,9.881,5.97-9.881Z" transform="translate(-207.793 -203.42)" fill="#c00"/>
      </g>
    </g>
  </g>
</svg>
