<svg xmlns="http://www.w3.org/2000/svg" width="22.374" height="20.792" viewBox="0 0 22.374 20.792">
  <g id="Grupo_6285" data-name="Grupo 6285" transform="translate(-5283 15450)">
    <g id="Grupo_3603" data-name="Grupo 3603" transform="translate(5283 -15449.998)">
      <g id="Grupo_3602" data-name="Grupo 3602">
        <path id="Trazado_6918" data-name="Trazado 6918" d="M8.83,15.82c.01,0,.02.01.03.01h7.61c.01,0,.02-.01.03-.01Z" fill="#fff"/>
        <path id="Trazado_6919" data-name="Trazado 6919" d="M17.82,15.8h.44c.45,0,.9.01,1.35-.01a.608.608,0,0,0,.53-.56v-.05a.661.661,0,0,0-.7-.62c-1.47.01-2.93,0-4.4,0h-9l-.19-1.07c.05,0,.09-.01.13-.01h14a.633.633,0,0,0,.66-.54c.05-.22.08-.45.13-.67.15-.76.31-1.51.46-2.27.2-.99.39-1.99.59-2.98.17-.88.35-1.77.53-2.65a.5.5,0,0,0,.02-.21.637.637,0,0,0-.67-.6H5.8c-.59,0-1.17.01-1.76,0-.04-.01-.11-.05-.12-.08-.05-.18-.08-.37-.12-.55-.15-.79-.29-1.58-.45-2.37A.646.646,0,0,0,2.65,0H.63A.627.627,0,0,0,0,.63V.64a.625.625,0,0,0,.64.61H2.09c.09,0,.12.02.14.11.13.65.25,1.3.37,1.96.18.93.36,1.85.54,2.78.13.66.25,1.33.38,1.98l.36,1.83c.16.81.3,1.61.46,2.42.16.88.33,1.75.5,2.63a2.472,2.472,0,0,0,.11.47.607.607,0,0,0,.62.37H7.34a.985.985,0,0,1,.17.02c-.01,0-.02.01-.04.01H8.86c-.01,0-.02-.01-.03-.01H16.5c-.01,0-.02.01-.03.01h1.34C17.81,15.82,17.82,15.81,17.82,15.8Zm-5.85-3.72c0,.12-.03.15-.15.15H9.27c-.12,0-.17-.04-.19-.16-.15-.93-.3-1.85-.45-2.77-.06-.4-.13-.79-.2-1.19-.01-.07-.02-.14-.03-.24h3.39c.18,0,.18,0,.18.18C11.96,9.39,11.96,10.74,11.97,12.08Zm4.65-3.41c-.12.81-.23,1.62-.35,2.42l-.15,1.05c-.01.08-.05.09-.11.09H13.89c-.18,0-.37-.01-.55,0-.1,0-.14-.02-.14-.14V7.97c0-.1.04-.12.13-.12h3.21c.05,0,.1.01.18.01C16.69,8.16,16.65,8.41,16.62,8.67Zm3.74-.78a2.909,2.909,0,0,1-.04.31c-.13.67-.27,1.34-.4,2.01-.13.63-.25,1.27-.38,1.9a.14.14,0,0,1-.16.13H17.52c-.13,0-.15-.03-.13-.16.13-.87.25-1.75.37-2.62l.21-1.47c.02-.07.03-.11.11-.11h2.21c.03,0,.06,0,.07.01ZM4.5,6.5c-.09-.48-.18-.95-.27-1.43a1.782,1.782,0,0,1-.04-.26H20.98c-.01.07-.02.14-.03.2-.1.51-.2,1.02-.3,1.54-.02.09-.08.08-.14.08H4.66C4.56,6.62,4.52,6.6,4.5,6.5Zm1.1,5.61c-.15-.79-.31-1.58-.46-2.38-.12-.56-.22-1.12-.33-1.69-.01-.05-.01-.1-.02-.17h2.2c.09,0,.13.02.14.12.16.99.33,1.97.5,2.96.06.38.13.76.19,1.14a.615.615,0,0,1,.01.14.708.708,0,0,1-.14.01H5.75C5.66,12.24,5.62,12.21,5.6,12.11Z" fill="#fff"/>
      </g>
      <path id="Trazado_6920" data-name="Trazado 6920" d="M6.87,18.25a1.285,1.285,0,0,0,1.29,1.28,1.3,1.3,0,0,0,1.29-1.29,1.29,1.29,0,0,0-2.58.01Z" fill="none"/>
      <path id="Trazado_6921" data-name="Trazado 6921" d="M17.15,16.96a1.3,1.3,0,1,0,.01,0Z" fill="none"/>
      <path id="Trazado_6922" data-name="Trazado 6922" d="M5.66,18.65a2.536,2.536,0,0,0,4.88.49,2.45,2.45,0,0,0-.12-2.05,2.645,2.645,0,0,0-1.56-1.3H7.46A2.589,2.589,0,0,0,5.66,18.65Zm3.79-.41a1.29,1.29,0,1,1-1.3-1.28A1.293,1.293,0,0,1,9.45,18.24Z" fill="#c00"/>
      <path id="Trazado_6923" data-name="Trazado 6923" d="M16.46,15.78a2.592,2.592,0,0,0-1.77,3.05,2.538,2.538,0,0,0,4.92.06,2.412,2.412,0,0,0-.11-1.61,2.537,2.537,0,0,0-1.7-1.49v-.01H16.46Zm1.99,2.48a1.285,1.285,0,1,1-1.3-1.3h.01A1.3,1.3,0,0,1,18.45,18.26Z" fill="#c00"/>
    </g>
  </g>
</svg>
