<svg xmlns="http://www.w3.org/2000/svg" width="18.281" height="18.281" viewBox="0 0 18.281 18.281">
  <g id="Grupo_4038" data-name="Grupo 4038" transform="translate(-344.719 -20)">
    <g id="Grupo_2978" data-name="Grupo 2978" transform="translate(348.064 23.184)">
      <g id="Grupo_1113" data-name="Grupo 1113" transform="translate(0)">
        <g id="Grupo_1111" data-name="Grupo 1111">
          <path id="Trazado_1100" data-name="Trazado 1100" d="M297.193.177V5.014a.177.177,0,0,0,.177.177h4.837a.177.177,0,0,1,.177.177v.869a.177.177,0,0,1-.177.177H297.37a.177.177,0,0,0-.177.177v4.837a.177.177,0,0,1-.177.177h-.869a.177.177,0,0,1-.177-.177V6.59a.177.177,0,0,0-.177-.177h-4.837a.177.177,0,0,1-.177-.177V5.367a.177.177,0,0,1,.177-.177h4.837a.177.177,0,0,0,.177-.177V.177A.177.177,0,0,1,296.147,0h.869A.177.177,0,0,1,297.193.177Z" transform="translate(-290.78)" fill="#fff"/>
        </g>
        <g id="Grupo_1112" data-name="Grupo 1112" transform="translate(7.157 0.015)">
          <path id="Trazado_1101" data-name="Trazado 1101" d="M673.05,3.9V3.57l1.078-1.1a1.181,1.181,0,0,0,.432-.742.517.517,0,0,0-.157-.4.548.548,0,0,0-.384-.144.655.655,0,0,0-.628.41l-.34-.2a1.033,1.033,0,0,1,.4-.449,1.079,1.079,0,0,1,.565-.153.971.971,0,0,1,.668.253.868.868,0,0,1,.284.681,1.52,1.52,0,0,1-.545,1.009l-.779.776h1.381V3.9H673.05Z" transform="translate(-673.05 -0.79)" fill="#fff"/>
        </g>
      </g>
    </g>
    <g id="Grupo_2979" data-name="Grupo 2979" transform="translate(344.719 20)">
      <g id="Grupo_2968" data-name="Grupo 2968">
        <path id="Trazado_6732" data-name="Trazado 6732" d="M9.141,18.281a9.141,9.141,0,1,1,9.141-9.141A9.146,9.146,0,0,1,9.141,18.281Zm0-16.619a7.479,7.479,0,1,0,7.479,7.479A7.49,7.49,0,0,0,9.141,1.662Z" fill="#fff"/>
      </g>
    </g>
  </g>
</svg>
