<svg id="Grupo_5437" data-name="Grupo 5437" xmlns="http://www.w3.org/2000/svg" width="26.033" height="23" viewBox="0 0 26.033 23">
  <path id="Trazado_772" data-name="Trazado 772" d="M13.018,23a1.174,1.174,0,0,1-.807-.33L2.16,12.62a7.411,7.411,0,0,1,0-10.46,7.411,7.411,0,0,1,10.46,0l.4.4.4-.4.023-.023A7.374,7.374,0,0,1,18.646,0h0a7.381,7.381,0,0,1,5.23,2.16h0a7.4,7.4,0,0,1,0,10.448l-10.05,10.05A1.091,1.091,0,0,1,13.018,23ZM7.39,2.274a5.122,5.122,0,0,0-3.615,8.743l9.243,9.243,9.243-9.243a5.105,5.105,0,0,0,0-7.231h0a5.048,5.048,0,0,0-3.615-1.512h0a5.083,5.083,0,0,0-3.615,1.5h0l-.011.011L13.825,4.98a1.153,1.153,0,0,1-1.6,0L11.005,3.775A5.078,5.078,0,0,0,7.39,2.274Z" transform="translate(0 0)" fill="#0e2d4f"/>
</svg>
