<svg id="Grupo_342" data-name="Grupo 342" xmlns="http://www.w3.org/2000/svg" width="57.744" height="72.18" viewBox="0 0 57.744 72.18">
  <g id="Grupo_172" data-name="Grupo 172">
    <path id="Trazado_262" data-name="Trazado 262" d="M54.135,72.18a3.387,3.387,0,0,1-2.093-.686L28.872,54.965,5.7,71.494A3.591,3.591,0,0,1,0,68.571V10.827A10.859,10.859,0,0,1,10.827,0h36.09A10.859,10.859,0,0,1,57.744,10.827V68.571A3.6,3.6,0,0,1,55.8,71.783,3.87,3.87,0,0,1,54.135,72.18ZM28.872,46.917a3.462,3.462,0,0,1,2.093.686L50.526,61.57V10.827a3.62,3.62,0,0,0-3.609-3.609H10.827a3.62,3.62,0,0,0-3.609,3.609V61.57L26.779,47.6A3.462,3.462,0,0,1,28.872,46.917Z" fill="#fff"/>
  </g>
  <g id="Grupo_173" data-name="Grupo 173" transform="translate(14.256 11.513)">
    <path id="Trazado_263" data-name="Trazado 263" d="M16.473,15.425a7.16,7.16,0,0,1-5.2,2.057,7.073,7.073,0,0,1-5.233-2.093A6.782,6.782,0,0,1,3.95,10.336,6.782,6.782,0,0,1,6.043,5.283,7.073,7.073,0,0,1,11.276,3.19a7.044,7.044,0,0,1,5.2,2.057,6.912,6.912,0,0,1,2.057,5.089A6.912,6.912,0,0,1,16.473,15.425ZM7.018,29.5,26.759,7.557l2.635,1.48L9.616,31.052ZM9.291,12.285a2.507,2.507,0,0,0,1.913.794,2.532,2.532,0,0,0,1.949-.794,2.811,2.811,0,0,0,.794-1.985,2.532,2.532,0,0,0-.794-1.949,2.671,2.671,0,0,0-1.913-.758,2.455,2.455,0,0,0-1.913.794,2.726,2.726,0,0,0-.794,1.949A2.756,2.756,0,0,0,9.291,12.285Zm21.8,20.247a7.073,7.073,0,0,1-5.2,2.093,7.149,7.149,0,0,1-7.29-7.146A6.782,6.782,0,0,1,20.7,22.426a7.073,7.073,0,0,1,5.2-2.093,7.149,7.149,0,0,1,7.29,7.146A6.782,6.782,0,0,1,31.09,32.531Zm-7.11-3.1a2.507,2.507,0,0,0,1.913.794,2.539,2.539,0,0,0,1.913-.83,2.931,2.931,0,0,0,0-3.934,2.507,2.507,0,0,0-1.913-.794,2.539,2.539,0,0,0-1.913.83,2.781,2.781,0,0,0-.758,1.985A2.638,2.638,0,0,0,23.98,29.427Z" transform="translate(-3.95 -3.19)" fill="#c00"/>
  </g>
</svg>
