<svg xmlns="http://www.w3.org/2000/svg" width="94.282" height="70.741" viewBox="0 0 94.282 70.741">
  <g id="Grupo_343" data-name="Grupo 343" transform="translate(-0.005)">
    <g id="Grupo_169" data-name="Grupo 169" transform="translate(0.005)">
      <path id="Trazado_260" data-name="Trazado 260" d="M47.146,70.741c-29.593,0-46.06-32.226-46.728-33.6a3.912,3.912,0,0,1,0-3.5C1.086,32.226,17.553,0,47.146,0s46.06,32.226,46.728,33.6a3.912,3.912,0,0,1,0,3.5C93.206,38.515,76.739,70.741,47.146,70.741ZM8.4,35.371C12.09,41.7,26,62.881,47.146,62.881c21.183,0,35.056-21.183,38.75-27.51C82.2,29.043,68.29,7.86,47.146,7.86,25.963,7.86,12.09,29.043,8.4,35.371Z" transform="translate(-0.005)" fill="#c00"/>
    </g>
    <g id="Grupo_170" data-name="Grupo 170" transform="translate(31.426 19.65)">
      <path id="Trazado_261" data-name="Trazado 261" d="M23.72,36.44A15.72,15.72,0,1,1,39.44,20.72,15.716,15.716,0,0,1,23.72,36.44Zm0-23.58a7.86,7.86,0,1,0,7.86,7.86A7.883,7.883,0,0,0,23.72,12.86Z" transform="translate(-8 -5)" fill="#fff"/>
    </g>
  </g>
</svg>
