<svg id="Grupo_345" data-name="Grupo 345" xmlns="http://www.w3.org/2000/svg" width="67" height="67" viewBox="0 0 67 67">
  <path id="Trazado_554" data-name="Trazado 554" d="M53.858,0H13.142A13.157,13.157,0,0,0,0,13.142V53.858A13.157,13.157,0,0,0,13.142,67H53.858A13.157,13.157,0,0,0,67,53.858V13.142A13.157,13.157,0,0,0,53.858,0Zm0,60.511H13.142a6.661,6.661,0,0,1-6.653-6.653V13.142a6.661,6.661,0,0,1,6.653-6.653H32.309a6.735,6.735,0,1,0,2.381,0H53.858a6.661,6.661,0,0,1,6.653,6.653V53.858A6.661,6.661,0,0,1,53.858,60.511ZM33.5,10.05a3.068,3.068,0,1,1-3.068,3.068A3.072,3.072,0,0,1,33.5,10.05Z" fill="#fff"/>
  <g id="Grupo_344" data-name="Grupo 344" transform="translate(16.629 28.693)">
    <path id="Trazado_555" data-name="Trazado 555" d="M131.092,203.42V206.8h-4.845v14.564H122.71V206.8h-4.82V203.42Z" transform="translate(-117.89 -203.42)" fill="#c00"/>
    <path id="Trazado_556" data-name="Trazado 556" d="M243.052,203.42v17.947H239.54v-11.64l-5.061,8.326-.413.014-5.038-8.3v11.6H225.49V203.42h3.641l5.146,8.474,5.12-8.474Z" transform="translate(-210.313 -203.42)" fill="#c00"/>
  </g>
</svg>
