<svg xmlns="http://www.w3.org/2000/svg" width="73.426" height="84.716" viewBox="0 0 73.426 84.716">
  <g id="Grupo_346" data-name="Grupo 346" transform="translate(0)">
    <path id="Trazado_557" data-name="Trazado 557" d="M65.235,16.432l3.677-3.677-2.832-2.721a3.518,3.518,0,0,0-4.928.037L59.9,11.32A36.815,36.815,0,0,0,7.5,17.351C-4.229,32.538-1.949,55.043,12.576,67.62A36.779,36.779,0,0,0,65.125,16.542ZM36.773,69.091A29.418,29.418,0,1,1,66.191,39.672,29.41,29.41,0,0,1,36.773,69.091Z" transform="translate(0 8.133)" fill="#fff"/>
    <path id="Trazado_558" data-name="Trazado 558" d="M8.493,0H38.28a3.516,3.516,0,0,1,3.493,3.493v.368A3.516,3.516,0,0,1,38.28,7.355H8.493A3.492,3.492,0,0,1,5,3.861V3.493A3.492,3.492,0,0,1,8.493,0Z" transform="translate(13.386)" fill="#c00"/>
    <path id="Trazado_559" data-name="Trazado 559" d="M16.355,26.012V10.052A3.045,3.045,0,0,0,13.3,7h-1.25A3.045,3.045,0,0,0,9,10.052V33.366a3.045,3.045,0,0,0,3.052,3.052H31.689a3.045,3.045,0,0,0,3.052-3.052v-1.25a3.045,3.045,0,0,0-3.052-3.052H19.407A3.045,3.045,0,0,1,16.355,26.012Z" transform="translate(22.625 19.476)" fill="#c00"/>
  </g>
</svg>
