<svg id="Grupo_3789" data-name="Grupo 3789" xmlns="http://www.w3.org/2000/svg" width="18.807" height="18.933" viewBox="0 0 18.807 18.933">
  <path id="Trazado_33" data-name="Trazado 33" d="M811.9,15.7a1.321,1.321,0,0,1-1.32,1.32H798.232a1.32,1.32,0,0,1-1.318-1.32v-3.27a1.321,1.321,0,0,1,1.32-1.32h12.344a1.32,1.32,0,0,1,1.318,1.32V15.7Zm0-6.214a3.2,3.2,0,0,0-1.318-.288H798.233a3.183,3.183,0,0,0-1.32.289V7.832a1.321,1.321,0,0,1,1.32-1.32h12.344a1.32,1.32,0,0,1,1.318,1.32ZM798.232,1.912h12.344a1.32,1.32,0,0,1,1.318,1.32V4.888a3.2,3.2,0,0,0-1.318-.288H798.232a3.207,3.207,0,0,0-1.32.288V3.232A1.321,1.321,0,0,1,798.232,1.912ZM810.575,0H798.232A3.234,3.234,0,0,0,795,3.232V15.7a3.234,3.234,0,0,0,3.232,3.232h12.344a3.234,3.234,0,0,0,3.232-3.232V3.232A3.234,3.234,0,0,0,810.575,0Z" transform="translate(-795)" fill="#c00"/>
  <path id="Trazado_34" data-name="Trazado 34" d="M831.3,85.24h-9.021a.957.957,0,0,0,0,1.913H831.3a.957.957,0,0,0,0-1.913Z" transform="translate(-817.272 -72.129)" fill="#c00"/>
</svg>
