<svg xmlns="http://www.w3.org/2000/svg" width="19.723" height="18.09" viewBox="0 0 19.723 18.09">
  <g id="Grupo_980" data-name="Grupo 980" transform="translate(0)">
    <g id="Grupo_974" data-name="Grupo 974" transform="translate(0)">
      <path id="Trazado_965" data-name="Trazado 965" d="M11.988,78.821a.357.357,0,0,0-.072-.205q-.575-.689-.925-1.181a5.046,5.046,0,0,0,.328-.78l1.592-.246a.238.238,0,0,0,.164-.108.336.336,0,0,0,.072-.2V74.2a.305.305,0,0,0-.072-.2.3.3,0,0,0-.175-.108l-1.562-.236a7.026,7.026,0,0,0-.349-.842q.154-.226.462-.616t.431-.555a.344.344,0,0,0,.072-.2q0-.277-1.479-1.644a.341.341,0,0,0-.216-.082.3.3,0,0,0-.205.072l-1.212.914a4.483,4.483,0,0,0-.77-.318l-.236-1.572a.266.266,0,0,0-.1-.18.313.313,0,0,0-.205-.077H5.619a.3.3,0,0,0-.308.246,11.822,11.822,0,0,0-.236,1.582,4.97,4.97,0,0,0-.791.329L3.1,69.793a.371.371,0,0,0-.216-.072q-.2,0-.812.606a8.7,8.7,0,0,0-.842.914.3.3,0,0,0-.072.205.39.39,0,0,0,.072.205q.575.689.924,1.181a5.049,5.049,0,0,0-.328.781l-1.592.246a.238.238,0,0,0-.164.108.336.336,0,0,0-.072.2v1.9a.3.3,0,0,0,.072.2.253.253,0,0,0,.175.1l1.562.246a5.262,5.262,0,0,0,.359.842q-.165.226-.483.627t-.421.544a.345.345,0,0,0-.072.2q0,.278,1.479,1.644a.34.34,0,0,0,.216.082.278.278,0,0,0,.205-.072L4.3,79.562a4.512,4.512,0,0,0,.77.318l.236,1.572a.266.266,0,0,0,.1.18.313.313,0,0,0,.205.077H7.53a.3.3,0,0,0,.308-.246,12.3,12.3,0,0,0,.236-1.592,4.606,4.606,0,0,0,.791-.318l1.181.924a.37.37,0,0,0,.216.072q.2,0,.807-.611a10.736,10.736,0,0,0,.847-.919A.267.267,0,0,0,11.988,78.821ZM8.434,76.992a2.534,2.534,0,0,1-1.859.77,2.63,2.63,0,0,1,0-5.26,2.63,2.63,0,0,1,1.859,4.489Z" transform="translate(0 -66.093)" fill="#c00"/>
      <path id="Trazado_966" data-name="Trazado 966" d="M335.288,295.112a2.888,2.888,0,0,0-.308-.534,5.7,5.7,0,0,0,.524-1.418.088.088,0,0,0-.041-.072q-1.233-.719-1.274-.719l-.062.021a9.477,9.477,0,0,0-.945,1.151c-.137-.014-.24-.021-.308-.021s-.171.007-.308.021q-.143-.216-.534-.693t-.472-.478a2.508,2.508,0,0,0-.308.165q-.288.165-.606.349c-.213.123-.332.192-.359.205a.088.088,0,0,0-.041.072,5.693,5.693,0,0,0,.524,1.418,2.885,2.885,0,0,0-.308.534q-1.531.154-1.531.318v1.438q0,.165,1.531.318a2.985,2.985,0,0,0,.308.534,5.7,5.7,0,0,0-.524,1.418.089.089,0,0,0,.041.072q1.253.729,1.274.729.082,0,.472-.483t.534-.7c.137.013.24.02.308.02s.171-.007.308-.02q.144.216.534.7t.473.483q.021,0,1.274-.729a.088.088,0,0,0,.041-.072,5.71,5.71,0,0,0-.524-1.418,2.963,2.963,0,0,0,.308-.534q1.531-.154,1.531-.318v-1.438Q336.818,295.267,335.288,295.112Zm-1.485,1.967a1.3,1.3,0,1,1,.386-.93A1.265,1.265,0,0,1,333.8,297.079Z" transform="translate(-317.095 -281.851)" fill="#0e2d4f"/>
      <path id="Trazado_967" data-name="Trazado 967" d="M335.278,2.743a2.876,2.876,0,0,0-.308-.534,5.688,5.688,0,0,0,.524-1.418.088.088,0,0,0-.041-.072Q334.22,0,334.179,0l-.062.021a9.477,9.477,0,0,0-.945,1.151c-.137-.014-.24-.021-.308-.021s-.171.007-.308.021q-.143-.216-.534-.693T331.549,0a2.532,2.532,0,0,0-.308.164q-.288.165-.606.349c-.213.123-.332.192-.359.205a.088.088,0,0,0-.041.072,5.693,5.693,0,0,0,.524,1.418,2.876,2.876,0,0,0-.308.534q-1.531.154-1.531.318V4.5q0,.164,1.531.318a3,3,0,0,0,.308.534,5.693,5.693,0,0,0-.524,1.418.089.089,0,0,0,.041.072q1.253.729,1.274.729.082,0,.472-.483t.534-.7c.137.014.24.021.308.021s.171-.007.308-.021q.144.216.534.7t.473.483q.021,0,1.274-.729a.088.088,0,0,0,.041-.072,5.708,5.708,0,0,0-.524-1.418,2.98,2.98,0,0,0,.308-.534q1.531-.154,1.531-.318V3.061Q336.809,2.9,335.278,2.743ZM333.793,4.71a1.315,1.315,0,0,1-2.244-.93,1.264,1.264,0,0,1,.391-.925,1.29,1.29,0,0,1,1.849,0,1.3,1.3,0,0,1,0,1.854Z" transform="translate(-317.086 0)" fill="#0e2d4f"/>
    </g>
  </g>
</svg>
