<svg xmlns="http://www.w3.org/2000/svg" width="15.679" height="15.77" viewBox="0 0 15.679 15.77">
  <g id="Grupo_4031" data-name="Grupo 4031" transform="translate(-201 -347)">
    <path id="Trazado_6716" data-name="Trazado 6716" d="M20.893,15.493a.548.548,0,0,0-.231-.366.566.566,0,0,0-.422-.1c-.3.056-.665.051-.76-.118-.073-.135.006-.451.27-.755a.566.566,0,0,0-.023-.772,4.213,4.213,0,0,0-2.005-1.16.564.564,0,0,0-.676.383c-.118.4-.355.614-.473.614-.152,0-.36-.208-.467-.6a.568.568,0,0,0-.681-.4A3.922,3.922,0,0,0,13.4,13.415a.559.559,0,0,0,0,.743c.265.3.349.625.27.76-.068.118-.366.2-.749.118a.563.563,0,0,0-.614.3A2.572,2.572,0,0,0,12,16.6a6.973,6.973,0,0,0,.118,1.1.548.548,0,0,0,.231.366.566.566,0,0,0,.422.1c.3-.056.665-.051.76.118.073.135-.006.451-.27.755a.56.56,0,0,0,.028.772,4.213,4.213,0,0,0,2.005,1.16.564.564,0,0,0,.676-.383c.118-.4.355-.614.473-.614.152,0,.36.208.467.6a.565.565,0,0,0,.541.417.555.555,0,0,0,.135-.017,3.938,3.938,0,0,0,2.033-1.188.559.559,0,0,0,0-.743c-.265-.3-.349-.625-.27-.76.068-.118.366-.2.749-.118a.552.552,0,0,0,.642-.372,3.651,3.651,0,0,0,.141-1.194c0-.1.006-.2.011-.3A2.92,2.92,0,0,0,20.893,15.493Zm-1.11.738c-.006.124-.011.248-.011.372,0,.146,0,.282-.006.406a1.546,1.546,0,0,0-1.38.721,1.627,1.627,0,0,0,.084,1.611,3,3,0,0,1-.681.394,1.559,1.559,0,0,0-1.335-.879,1.578,1.578,0,0,0-1.329.879,3.059,3.059,0,0,1-.687-.406,1.619,1.619,0,0,0,.079-1.6,1.524,1.524,0,0,0-1.363-.721,3.348,3.348,0,0,1-.028-.406,1.835,1.835,0,0,1,.039-.406,1.531,1.531,0,0,0,1.464-.721,1.627,1.627,0,0,0-.084-1.611,3,3,0,0,1,.681-.394,1.559,1.559,0,0,0,1.335.879,1.578,1.578,0,0,0,1.329-.879,3.059,3.059,0,0,1,.687.406,1.633,1.633,0,0,0-.079,1.6,1.483,1.483,0,0,0,1.3.715A.359.359,0,0,0,19.784,16.231Z" transform="translate(195.759 341.661)" fill="#c00"/>
    <path id="Trazado_6717" data-name="Trazado 6717" d="M18.69,17.01a1.69,1.69,0,1,0,1.69,1.69A1.695,1.695,0,0,0,18.69,17.01Zm0,2.253a.563.563,0,1,1,.563-.563A.565.565,0,0,1,18.69,19.263Z" transform="translate(193.575 339.565)" fill="#c00"/>
    <path id="Trazado_6718" data-name="Trazado 6718" d="M6.2,14.654h-5a2.907,2.907,0,0,1,1.926-2.044A3.082,3.082,0,0,0,5.351,9.585a.57.57,0,0,0-.265-.479A2.7,2.7,0,0,1,3.942,6.769V6.205H10.7a.563.563,0,0,0,0-1.126h-.113V4.966A4.4,4.4,0,0,0,8.78,1.384l.045-.146A.563.563,0,0,0,8.544.584a5.077,5.077,0,0,0-4.692,0,.565.565,0,0,0-.282.653l.045.146A4.385,4.385,0,0,0,1.8,4.966v.113H1.69a.563.563,0,0,0,0,1.126H2.816v.563a3.881,3.881,0,0,0,1.391,3.1,1.924,1.924,0,0,1-1.369,1.656A4.115,4.115,0,0,0,.011,14.766.693.693,0,0,0,0,14.879a.875.875,0,0,0,.845.9H6.2a.563.563,0,0,0,0-1.126ZM2.929,4.966a3.308,3.308,0,0,1,1.019-2.4l.3,1.036a.565.565,0,1,0,1.087-.31l-.546-1.9a4.038,4.038,0,0,1,2.816,0l-.541,1.9a.57.57,0,0,0,.389.7.486.486,0,0,0,.158.023A.559.559,0,0,0,8.15,3.6l.3-1.036a3.287,3.287,0,0,1,1.019,2.4v.113H2.929Z" transform="translate(201 346.99)" fill="#c00"/>
  </g>
</svg>
