<svg xmlns="http://www.w3.org/2000/svg" xmlns:xlink="http://www.w3.org/1999/xlink" viewBox="0 0 525.79 599.78"><defs><style>.cls-1{isolation:isolate;}.cls-2{fill:#172e4d;}.cls-10,.cls-11,.cls-12,.cls-3,.cls-9{fill:#ca1517;}.cls-4{opacity:0.45;}.cls-4,.cls-5{mix-blend-mode:multiply;}.cls-5{fill:url(#Degradado_sin_nombre_2);}.cls-6{fill:url(#Degradado_sin_nombre_15);}.cls-7{fill:#182e4c;}.cls-8{fill:#fff;}.cls-10,.cls-11,.cls-12,.cls-9{fill-rule:evenodd;}.cls-9{opacity:0.3;}.cls-10{opacity:0.35;}.cls-11{opacity:0.15;}.cls-12{opacity:0.2;}</style><radialGradient id="Degradado_sin_nombre_2" cx="249.91" cy="31.75" r="228.35" gradientTransform="translate(13.08 360.14) scale(1 0.2)" gradientUnits="userSpaceOnUse"><stop offset="0" stop-color="#404040"/><stop offset="0.18" stop-color="#414141" stop-opacity="0.86"/><stop offset="0.47" stop-color="#434343" stop-opacity="0.49"/><stop offset="0.78" stop-color="#464646" stop-opacity="0"/></radialGradient><radialGradient id="Degradado_sin_nombre_15" cx="263" cy="183.77" r="179.42" gradientUnits="userSpaceOnUse"><stop offset="0" stop-color="#fff"/><stop offset="0.62" stop-color="#fdfdfd"/><stop offset="0.85" stop-color="#f7f8f6"/><stop offset="1" stop-color="#edeeeb"/></radialGradient></defs><g class="cls-1"><g id="Capa_2" data-name="Capa 2"><g id="Capa_1-2" data-name="Capa 1"><path class="cls-2" d="M489.64,599.78H36.15c-19.93,0-36.15-16-36.15-35.64V561c0-19.65,16.22-35.64,36.15-35.64H489.64c19.93,0,36.15,16,36.15,35.64v3.13C525.79,583.79,509.57,599.78,489.64,599.78ZM36.15,530.45A30.82,30.82,0,0,0,5.15,561v3.13a30.82,30.82,0,0,0,31,30.56H489.64a30.81,30.81,0,0,0,31-30.56V561a30.81,30.81,0,0,0-31-30.56Z"/><path class="cls-2" d="M102.61,399.86v98.4H83.35V434.44L55.6,480.09l-2.26.08L25.72,434.68v63.58H6.32v-98.4h20L54.5,446.32l28.07-46.46Z"/><path class="cls-2" d="M185.56,498.26l-6.26-17.71H138.88L133,498.26H112l34.44-98.4h24l34.71,98.4ZM145.2,462.42h27.69l-14.2-40.21Z"/><path class="cls-2" d="M246.13,500.23q-14.62,0-24.6-6.54a34.94,34.94,0,0,1-14.06-17.78l16.59-9.7q5.76,15,22.63,15,8.15,0,11.95-2.95a9.29,9.29,0,0,0-.85-15.53q-4.64-2.88-16.58-6.26A103.2,103.2,0,0,1,230,452.58a48.22,48.22,0,0,1-9.13-5.28,21.44,21.44,0,0,1-7-8.36,27.27,27.27,0,0,1-2.39-11.81q0-13.35,9.49-21.29t22.84-7.94a38,38,0,0,1,21,5.83A39.16,39.16,0,0,1,279,420l-16.31,9.42q-5.9-12.64-18.83-12.65-6,0-9.49,2.74a8.66,8.66,0,0,0-3.44,7.1,9,9,0,0,0,3.86,7.52q3.87,2.88,14.83,6.26,4.5,1.39,6.82,2.18c1.55.51,3.65,1.31,6.32,2.38a37.61,37.61,0,0,1,6.19,3,49,49,0,0,1,5,3.79,19.91,19.91,0,0,1,4.29,4.92,28.27,28.27,0,0,1,2.53,6.12,27.65,27.65,0,0,1,1.05,7.8q0,13.64-9.91,21.65T246.13,500.23Z"/><path class="cls-3" d="M331.59,399.86q13.64,0,22.7,9.07t9.07,22.56A30.67,30.67,0,0,1,354.29,454q-9.06,9.13-22.7,9.14H309v35.14H295.89v-98.4Zm0,51a18,18,0,0,0,13.5-5.55,20.72,20.72,0,0,0,0-27.77,18.1,18.1,0,0,0-13.5-5.48H309v38.8Z"/><path class="cls-3" d="M433.64,498.26l-8-22.07H381.37l-8,22.07H359.42l36.69-98.4h14.76l36.69,98.4ZM385.82,464h35.34l-17.67-48.58Z"/><path class="cls-3" d="M519.67,399.86l-34.86,58.62v39.78H471.74V458.34L437,399.86h14.61l26.77,46.19,26.65-46.19Z"/><g class="cls-4"><ellipse class="cls-5" cx="263" cy="366.51" rx="228.35" ry="45.83"/></g><path class="cls-3" d="M87.55,543.88h16.53a15.71,15.71,0,0,1,6.51,1.16,10.33,10.33,0,0,1,3.89,2.88,9.83,9.83,0,0,1,1.86,3.78,16.26,16.26,0,0,1,.5,3.78,15.9,15.9,0,0,1-.5,3.76,9.71,9.71,0,0,1-1.86,3.75,10,10,0,0,1-3.89,2.86,16.08,16.08,0,0,1-6.51,1.13h-10v14.39H87.55Zm6.56,17.75h9.61a8.54,8.54,0,0,0,2.25-.32,6.55,6.55,0,0,0,2.13-1,5.31,5.31,0,0,0,1.57-1.89,6.41,6.41,0,0,0,.61-3,7.64,7.64,0,0,0-.53-3,4.86,4.86,0,0,0-1.41-1.92,5,5,0,0,0-2-1,10.82,10.82,0,0,0-2.47-.26H94.11Z"/><path class="cls-3" d="M128.71,543.88h7l14.44,37.49h-7l-3.52-9.93h-15l-3.52,9.93h-6.77Zm-2.31,22.58h11.44l-5.62-16.12h-.15Z"/><path class="cls-3" d="M186.4,581.37h-4.2l-1-4.41A15.62,15.62,0,0,1,176,581.1a14.84,14.84,0,0,1-6,1.16,17.77,17.77,0,0,1-7.54-1.55,16.5,16.5,0,0,1-5.64-4.23,18.77,18.77,0,0,1-3.54-6.24,23.85,23.85,0,0,1,0-15.18,18.77,18.77,0,0,1,3.54-6.24,16.83,16.83,0,0,1,5.64-4.26,17.48,17.48,0,0,1,7.54-1.57,20.48,20.48,0,0,1,5.8.81,15.64,15.64,0,0,1,4.91,2.42,13.52,13.52,0,0,1,3.57,4A14.11,14.11,0,0,1,186,555.8h-6.4a8.06,8.06,0,0,0-3.31-5.57,9.52,9.52,0,0,0-2.94-1.41,12,12,0,0,0-3.41-.48,10.54,10.54,0,0,0-5.17,1.21,10.12,10.12,0,0,0-3.55,3.23,14.68,14.68,0,0,0-2,4.59,21.21,21.21,0,0,0,0,10.5,14.63,14.63,0,0,0,2,4.6,10.22,10.22,0,0,0,3.55,3.23,10.54,10.54,0,0,0,5.17,1.2,12.18,12.18,0,0,0,4.46-.65,9,9,0,0,0,3.28-2,8.57,8.57,0,0,0,2-3.28,13.89,13.89,0,0,0,.74-4.31h-10v-5h16Z"/><path class="cls-3" d="M209.5,543a17.4,17.4,0,0,1,7.53,1.57,16.77,16.77,0,0,1,5.65,4.26,18.77,18.77,0,0,1,3.54,6.24,24,24,0,0,1,0,15.18,18.77,18.77,0,0,1-3.54,6.24,16.44,16.44,0,0,1-5.65,4.23,19.07,19.07,0,0,1-15.06,0,16.44,16.44,0,0,1-5.65-4.23,18.77,18.77,0,0,1-3.54-6.24,24,24,0,0,1,0-15.18,18.77,18.77,0,0,1,3.54-6.24,16.77,16.77,0,0,1,5.65-4.26A17.4,17.4,0,0,1,209.5,543Zm0,5.35a10.56,10.56,0,0,0-5.17,1.21,10.3,10.3,0,0,0-3.55,3.23,14.68,14.68,0,0,0-2,4.59,21.53,21.53,0,0,0,0,10.5,14.63,14.63,0,0,0,2,4.6,10.4,10.4,0,0,0,3.55,3.23,11.74,11.74,0,0,0,10.34,0,10.27,10.27,0,0,0,3.54-3.23,14.65,14.65,0,0,0,2-4.6,21.53,21.53,0,0,0,0-10.5,14.69,14.69,0,0,0-2-4.59,10.18,10.18,0,0,0-3.54-3.23A10.56,10.56,0,0,0,209.5,548.34Z"/><path class="cls-3" d="M248,543.88h15.54a17.51,17.51,0,0,1,7.46,1.47,13.82,13.82,0,0,1,5.14,4,17.19,17.19,0,0,1,3,6,27.92,27.92,0,0,1,0,14.59,17.19,17.19,0,0,1-3,6,13.69,13.69,0,0,1-5.14,4,17.36,17.36,0,0,1-7.46,1.48H248ZM254.6,576h6.45a16.46,16.46,0,0,0,6.28-1,9.29,9.29,0,0,0,3.83-2.84,10.16,10.16,0,0,0,1.89-4.25,28.08,28.08,0,0,0,0-10.55,10.2,10.2,0,0,0-1.89-4.26,9.27,9.27,0,0,0-3.83-2.83,16.46,16.46,0,0,0-6.28-1H254.6Z"/><path class="cls-3" d="M285.94,543.88h6.56v37.49h-6.56Z"/><path class="cls-3" d="M333.24,581.37H329L328,577a15.62,15.62,0,0,1-5.25,4.14,14.86,14.86,0,0,1-6,1.16,17.69,17.69,0,0,1-7.53-1.55,16.5,16.5,0,0,1-5.64-4.23,18.79,18.79,0,0,1-3.55-6.24,24,24,0,0,1,0-15.18,18.79,18.79,0,0,1,3.55-6.24,16.83,16.83,0,0,1,5.64-4.26,17.4,17.4,0,0,1,7.53-1.57,20.43,20.43,0,0,1,5.8.81,15.54,15.54,0,0,1,4.91,2.42,13.25,13.25,0,0,1,3.57,4,14.12,14.12,0,0,1,1.79,5.57h-6.41a8.1,8.1,0,0,0-3.3-5.57,9.52,9.52,0,0,0-2.94-1.41,12.08,12.08,0,0,0-3.42-.48,10.56,10.56,0,0,0-5.17,1.21,10.18,10.18,0,0,0-3.54,3.23,14.45,14.45,0,0,0-2,4.59,21.21,21.21,0,0,0,0,10.5,14.41,14.41,0,0,0,2,4.6,10.27,10.27,0,0,0,3.54,3.23,10.56,10.56,0,0,0,5.17,1.2,12.23,12.23,0,0,0,4.47-.65,9.1,9.1,0,0,0,3.28-2,8.69,8.69,0,0,0,2-3.28,13.89,13.89,0,0,0,.73-4.31h-10v-5h16Z"/><path class="cls-3" d="M340.38,543.88h6.56v37.49h-6.56Z"/><path class="cls-3" d="M351.4,543.88h30.35v5.67H369.83v31.82h-6.56V549.55H351.4Z"/><path class="cls-3" d="M391.3,543.88h7l14.44,37.49h-7l-3.52-9.93h-15l-3.52,9.93h-6.77ZM389,566.46h11.45l-5.62-16.12h-.16Z"/><path class="cls-3" d="M416.29,543.88h6.56V575.7h19.06v5.67H416.29Z"/><circle class="cls-6" cx="263" cy="183.77" r="179.42"/><path class="cls-2" d="M263,367.54c-101.34,0-183.78-82.44-183.78-183.77S161.66,0,263,0,446.77,82.44,446.77,183.77,364.33,367.54,263,367.54ZM263,12.7c-94.33,0-171.07,76.74-171.07,171.07S168.67,354.84,263,354.84,434.06,278.1,434.06,183.77,357.32,12.7,263,12.7Z"/><path class="cls-7" d="M263,358.37C166.72,358.37,88.4,280,88.4,183.77S166.72,9.18,263,9.18s174.6,78.32,174.6,174.59S359.27,358.37,263,358.37Zm0-342.76C170.27,15.61,94.83,91,94.83,183.77S170.27,351.94,263,351.94,431.16,276.5,431.16,183.77,355.72,15.61,263,15.61Z"/><path class="cls-8" d="M263,359.65c-97,0-175.88-78.9-175.88-175.88S166,7.89,263,7.89s175.87,78.9,175.87,175.88S360,359.65,263,359.65Zm0-348.58c-95.24,0-172.71,77.47-172.71,172.7S167.76,356.48,263,356.48,435.7,279,435.7,183.77,358.23,11.07,263,11.07Z"/><path class="cls-9" d="M215.53,207.91h4.81v-1h-4.9a11.19,11.19,0,0,1,0-1.42h4.9v-1.13c-1.57-.06-3.23-.05-4.81-.09,0-2.87,3.4-4.43,5.85-2.83.11-.57.2-.71.28-1.21a5.46,5.46,0,0,0-7.82,4.13H212v1.13h1.79c-.05.5.08,1.19,0,1.42H212v1h2c.25,3.49,4.36,5.57,7.82,3.77-.07-.54-.12-.72-.18-1.22C219.33,212.13,215.55,210.73,215.53,207.91Z"/><path class="cls-9" d="M151.1,183.27h4.8v-1H151c0-.4,0-.92,0-1.41h4.9v-1.13c-1.57-.07-3.23-.06-4.8-.1,0-2.87,3.4-4.43,5.84-2.83.11-.57.2-.7.29-1.21a5.47,5.47,0,0,0-7.83,4.14h-1.89v1.13h1.8c-.06.49.08,1.19,0,1.41h-1.8v1h2c.25,3.49,4.37,5.56,7.83,3.77-.07-.55-.13-.73-.19-1.23C154.9,187.49,151.12,186.09,151.1,183.27Z"/><polygon class="cls-10" points="235.22 85.8 231.38 93.69 227.55 85.8 224.88 85.8 229.68 94.87 225.84 94.87 225.84 96.57 230.32 96.57 230.32 98.06 225.84 98.06 225.84 99.77 230.32 99.77 230.32 104.04 232.45 104.04 232.45 99.77 236.93 99.77 236.93 98.06 232.45 98.06 232.45 96.57 236.93 96.57 236.93 94.87 233.09 94.87 237.89 85.8 235.22 85.8"/><path class="cls-10" d="M356.18,207.68a4,4,0,0,0,0,.44,4.89,4.89,0,0,0,.7,1.52h-1.13l0,.82h1.58a3,3,0,0,1,.18.36,2.35,2.35,0,0,1,.12.76,3.61,3.61,0,0,1-.07.57,5.17,5.17,0,0,1-1.71,2.14l0,0,.71.9,0,.06a3.3,3.3,0,0,1,.51-.29,2.77,2.77,0,0,1,1.09-.2,2.83,2.83,0,0,1,.9.15l.27.11a6,6,0,0,0,1.84.37,2.5,2.5,0,0,0,1.87-.79l0,0-.61-1,0,0a2.09,2.09,0,0,1-1.17.42,4.73,4.73,0,0,1-1.12-.23,4.26,4.26,0,0,0-1.19-.22,3.15,3.15,0,0,0-1.48.39c.24-.25.45-.48.62-.69a2.94,2.94,0,0,0,.84-1.81h0a3.94,3.94,0,0,0-.26-1h2v-.85l-2.28,0-.21-.38-.13-.22c-.07-.12-.17-.34-.18-.34a2.55,2.55,0,0,1-.3-1.13v0a1.75,1.75,0,0,1,.22-.89,1.85,1.85,0,0,1,1.76-.89,1.71,1.71,0,0,1,1.69.91,3.1,3.1,0,0,1,.26,1.26h1.26v-.09a1.69,1.69,0,0,0,0-.23v-.13a3.26,3.26,0,0,0-.39-1.46l-.24-.36a2.9,2.9,0,0,0-2.5-1.06h0a3.52,3.52,0,0,0-2.27.71A2.88,2.88,0,0,0,356.18,207.68Z"/><polygon class="cls-10" points="172.12 148.48 168.82 155.28 165.51 148.48 163.22 148.48 167.35 156.29 164.04 156.29 164.04 157.76 167.9 157.76 167.9 159.04 164.04 159.04 164.04 160.51 167.9 160.51 167.9 164.19 169.74 164.19 169.74 160.51 173.59 160.51 173.59 159.04 169.74 159.04 169.74 157.76 173.59 157.76 173.59 156.29 170.29 156.29 174.42 148.48 172.12 148.48"/><path class="cls-11" d="M196.65,238.87c.59.17,1.31.34,2.06.55v8.43c-1.9-.16-3.38-1-3.11-3.5.12-1.09.28-2-1.15-2.3a2.13,2.13,0,0,0-2.39,2.52c.28,2.73,3.25,3.83,5.6,4.11.35,0,.69.08,1.05.1v4.37h.75v-4.34a12.36,12.36,0,0,0,1.82-.07v4.41H202v-4.52a7.64,7.64,0,0,0,3.56-1.54,5.36,5.36,0,0,0,.88-7.6h0a7.13,7.13,0,0,0-3.36-2.08c-.36-.09-.71-.21-1.07-.32v-8c1,.64,1.52,1.87,1.42,3.92-.06,1.23,1.65,1.77,2.72,1.11,1.29-.78,1.1-2.63.43-3.75a6.19,6.19,0,0,0-4.57-2.59v-5.92h-.75v5.83a14.07,14.07,0,0,0-1.82,0v-5.78h-.75v5.82c-2.77.28-5.52,1.85-6.13,4.76S193.93,237.84,196.65,238.87Zm5.38,1.77c1.43.75,2.51,1.8,2.53,3.4a3.34,3.34,0,0,1-2.53,3.49Zm-2.57-12.15a4.86,4.86,0,0,1,1.82.2v8.16c-.13,0-.26-.09-.4-.12h0l-1.42-.42Zm0,11.15c.61.19,1.23.4,1.82.65v7.43a8.92,8.92,0,0,1-1.07.14l-.75,0Zm-1.12-11a2.2,2.2,0,0,1,.37-.06v7.51l-.44-.14C194.81,234.54,194.21,229.4,198.34,228.63Z"/><polygon class="cls-12" points="239.84 222.62 235.76 231.02 231.67 222.62 228.84 222.62 233.94 232.27 229.86 232.27 229.86 234.08 234.62 234.08 234.62 235.67 229.86 235.67 229.86 237.49 234.62 237.49 234.62 242.03 236.9 242.03 236.9 237.49 241.66 237.49 241.66 235.67 236.9 235.67 236.9 234.08 241.66 234.08 241.66 232.27 237.57 232.27 242.68 222.62 239.84 222.62"/><path class="cls-9" d="M334.44,240.06h6.36v-1.37h-6.49c0-.53-.06-1.21,0-1.87h6.49v-1.49c-2.08-.09-4.28-.07-6.36-.13,0-3.79,4.49-5.86,7.73-3.74.15-.75.26-.93.37-1.6-4.85-2.47-9.66,1.13-10.35,5.47H329.7v1.49h2.37c-.07.66.11,1.58,0,1.87H329.7v1.37h2.62c.32,4.62,5.77,7.36,10.35,5-.09-.72-.17-1-.25-1.62C339.47,245.64,334.46,243.79,334.44,240.06Z"/><path class="cls-9" d="M322.57,154.64h7v-1.51h-7.17a17.82,17.82,0,0,1,0-2.07h7.17v-1.65c-2.3-.1-4.73-.08-7-.14,0-4.2,5-6.48,8.54-4.14.17-.83.29-1,.42-1.77-5.37-2.72-10.68,1.26-11.44,6h-2.76v1.65H320c-.08.73.12,1.74,0,2.07h-2.62v1.51h2.89c.36,5.1,6.38,8.14,11.44,5.52-.1-.8-.18-1.07-.27-1.79C328.13,160.81,322.6,158.76,322.57,154.64Z"/><path class="cls-12" d="M304.86,259.46c.6.18,1.32.36,2.08.57v8.56c-1.93-.17-3.42-1-3.15-3.56.12-1.11.29-2-1.17-2.33a2.16,2.16,0,0,0-2.43,2.56c.29,2.77,3.31,3.88,5.7,4.17.34,0,.7.08,1.05.1V274h.77v-4.41a12.77,12.77,0,0,0,1.85-.07V274h.76v-4.59a7.7,7.7,0,0,0,3.62-1.57,5.44,5.44,0,0,0,.88-7.72h0a7.24,7.24,0,0,0-3.41-2.1c-.37-.1-.73-.21-1.09-.33V249.5c1,.65,1.54,1.9,1.44,4-.06,1.24,1.68,1.79,2.77,1.12,1.3-.79,1.11-2.67.43-3.8a6.21,6.21,0,0,0-4.64-2.63v-6h-.76v5.92a14.58,14.58,0,0,0-1.85-.05v-5.87h-.77v5.92c-2.81.27-5.6,1.87-6.22,4.83S302.09,258.42,304.86,259.46Zm5.46,1.81c1.45.76,2.55,1.82,2.56,3.45a3.37,3.37,0,0,1-2.56,3.54Zm-2.61-12.35a5.23,5.23,0,0,1,1.85.21v8.28l-.41-.12h0l-1.44-.44Zm0,11.33a17.72,17.72,0,0,1,1.85.66v7.55a9.29,9.29,0,0,1-1.09.13c-.25,0-.51,0-.76,0Zm-1.14-11.19.37-.06v7.63l-.44-.13C303,255.07,302.37,249.85,306.57,249.06Z"/><path class="cls-9" d="M232,121.67s0,.41,0,.51a5.79,5.79,0,0,0,.81,1.76h-1.31l.05,1h1.84a3.07,3.07,0,0,1,.2.41,2.68,2.68,0,0,1,.15.89,5.46,5.46,0,0,1-.08.66,6.18,6.18,0,0,1-2,2.49l0,0,.83,1.05,0,.06a4.46,4.46,0,0,1,.6-.33,3.37,3.37,0,0,1,2.31,0l.31.11a7,7,0,0,0,2.14.43,2.92,2.92,0,0,0,2.17-.91l0,0-.7-1.18-.05,0a2.35,2.35,0,0,1-1.35.5,5.27,5.27,0,0,1-1.3-.27,4.6,4.6,0,0,0-1.39-.25,3.55,3.55,0,0,0-1.71.45c.28-.3.52-.56.72-.8a3.45,3.45,0,0,0,1-2.1v0a4.56,4.56,0,0,0-.3-1.17h2.26v-1h-2.65l-.25-.44-.15-.25c-.07-.14-.2-.39-.2-.4a2.85,2.85,0,0,1-.36-1.31v0a2.11,2.11,0,0,1,.26-1,2.16,2.16,0,0,1,2-1,2,2,0,0,1,2,1.05,3.49,3.49,0,0,1,.3,1.47h1.47v-.12a2.26,2.26,0,0,1,0-.26s0-.1,0-.15a3.59,3.59,0,0,0-.45-1.69c-.06-.11-.18-.28-.28-.42a3.35,3.35,0,0,0-2.9-1.23H236a4.13,4.13,0,0,0-2.64.82A3.34,3.34,0,0,0,232,121.67Z"/><polygon class="cls-11" points="326.87 200.9 323.03 208.79 319.19 200.9 316.53 200.9 321.33 209.97 317.49 209.97 317.49 211.67 321.96 211.67 321.96 213.16 317.49 213.16 317.49 214.87 321.96 214.87 321.96 219.13 324.1 219.13 324.1 214.87 328.58 214.87 328.58 213.16 324.1 213.16 324.1 211.67 328.58 211.67 328.58 209.97 324.74 209.97 329.54 200.9 326.87 200.9"/><path class="cls-12" d="M216.25,155.56h9.3v-2h-9.48a25,25,0,0,1,0-2.74h9.48v-2.18c-3-.13-6.26-.11-9.3-.19,0-5.55,6.58-8.57,11.31-5.47.21-1.1.38-1.36.55-2.34C221,137,214,142.3,213,148.64h-3.64v2.18h3.46c-.1,1,.16,2.31,0,2.74h-3.46v2h3.82c.48,6.75,8.44,10.76,15.14,7.29-.14-1-.25-1.4-.37-2.37C223.61,163.72,216.29,161,216.25,155.56Z"/><path class="cls-10" d="M324.82,118.34s0,.4,0,.51a5.88,5.88,0,0,0,.81,1.75h-1.31l0,1h1.84a2.67,2.67,0,0,1,.2.42,2.58,2.58,0,0,1,.15.88,5,5,0,0,1-.08.66,6.06,6.06,0,0,1-2,2.49l0,0,.83,1,0,.06a4.46,4.46,0,0,1,.6-.33,3.37,3.37,0,0,1,2.31,0l.31.12a7.25,7.25,0,0,0,2.14.43,2.9,2.9,0,0,0,2.17-.92l0,0-.7-1.18,0,0a2.41,2.41,0,0,1-1.35.49,5.27,5.27,0,0,1-1.3-.27,4.6,4.6,0,0,0-1.39-.25,3.55,3.55,0,0,0-1.71.45c.28-.29.52-.56.72-.8a3.45,3.45,0,0,0,1-2.1v0a4.56,4.56,0,0,0-.3-1.17h2.26v-1h-2.64l-.26-.44-.15-.25c-.07-.14-.19-.39-.2-.39a2.89,2.89,0,0,1-.36-1.32h0a2,2,0,0,1,2.3-2.07,2,2,0,0,1,2,1.06,3.4,3.4,0,0,1,.3,1.46h1.47v-.12c0-.08,0-.17,0-.26s0-.1,0-.15a3.62,3.62,0,0,0-.45-1.69c-.06-.11-.18-.28-.28-.42a3.35,3.35,0,0,0-2.9-1.23h-.05a4.13,4.13,0,0,0-2.64.82A3.35,3.35,0,0,0,324.82,118.34Z"/><path class="cls-12" d="M288,224.52h6.65v-1.43h-6.78a18.27,18.27,0,0,1,0-2h6.78v-1.56c-2.18-.09-4.48-.08-6.65-.13,0-4,4.7-6.13,8.08-3.91.15-.79.27-1,.39-1.68-5.07-2.57-10.09,1.19-10.81,5.72H283v1.56h2.48c-.08.69.11,1.65,0,2H283v1.43h2.74c.34,4.82,6,7.69,10.81,5.21-.1-.76-.17-1-.26-1.69C293.22,230.35,288,228.41,288,224.52Z"/><path class="cls-11" d="M222.39,263s0,.74.06.92a10.46,10.46,0,0,0,1.47,3.18h-2.37l.09,1.74H225a5.21,5.21,0,0,1,.37.75,5,5,0,0,1,.26,1.6,8.07,8.07,0,0,1-.15,1.19c-.35,1.24-1.56,2.76-3.59,4.51l-.06.05,1.49,1.9.08.11a8.32,8.32,0,0,1,1.08-.6,5.88,5.88,0,0,1,2.29-.42,6,6,0,0,1,1.88.32l.57.22a12.6,12.6,0,0,0,3.86.77,5.29,5.29,0,0,0,3.93-1.64l.06-.06-1.27-2.13-.08.06a4.37,4.37,0,0,1-2.45.88,9.77,9.77,0,0,1-2.36-.48,8.5,8.5,0,0,0-2.5-.45,6.46,6.46,0,0,0-3.1.81c.51-.53.95-1,1.3-1.44a6.29,6.29,0,0,0,1.77-3.81v0a8.36,8.36,0,0,0-.54-2.11h4.1v-1.78l-4.78,0-.46-.8-.27-.45c-.14-.26-.36-.72-.36-.72a5.08,5.08,0,0,1-.65-2.37v0a3.78,3.78,0,0,1,.46-1.89,3.92,3.92,0,0,1,3.7-1.85,3.58,3.58,0,0,1,3.56,1.91,6.6,6.6,0,0,1,.54,2.64h2.66v-.2c0-.16,0-.32,0-.48s0-.18,0-.27a6.69,6.69,0,0,0-.81-3.06c-.12-.2-.33-.51-.51-.76-1.13-1.57-3-2.22-5.25-2.23h-.09a7.51,7.51,0,0,0-4.77,1.5A6.08,6.08,0,0,0,222.39,263Z"/><path class="cls-9" d="M355.67,151.08l1.13.31v4.67c-1.05-.09-1.87-.57-1.72-1.94.07-.61.16-1.12-.63-1.28a1.18,1.18,0,0,0-1.33,1.4c.16,1.51,1.8,2.12,3.11,2.28l.57,0V159h.42v-2.4a6.77,6.77,0,0,0,1,0V159h.42v-2.5a4.21,4.21,0,0,0,2-.86,3,3,0,0,0,.49-4.21h0a4,4,0,0,0-1.86-1.15l-.59-.18v-4.45a2.28,2.28,0,0,1,.78,2.18c0,.68.92,1,1.51.61s.61-1.46.24-2.08a3.45,3.45,0,0,0-2.53-1.43v-3.28h-.42v3.23a8.71,8.71,0,0,0-1,0v-3.2h-.42v3.22a3.63,3.63,0,0,0-3.39,2.64A3.17,3.17,0,0,0,355.67,151.08Zm3,1a2.2,2.2,0,0,1,1.4,1.88,1.85,1.85,0,0,1-1.4,1.94Zm-1.43-6.73a2.73,2.73,0,0,1,1,.11V150l-.22-.07h0l-.79-.24Zm0,6.18a8.64,8.64,0,0,1,1,.36V156a5.6,5.6,0,0,1-.59.07h-.42Zm-.62-6.11.2,0v4.16l-.23-.07C354.64,148.68,354.31,145.83,356.6,145.4Z"/><polygon class="cls-10" points="171.33 207.4 168.82 212.56 166.31 207.4 164.56 207.4 167.7 213.33 165.19 213.33 165.19 214.45 168.12 214.45 168.12 215.42 165.19 215.42 165.19 216.54 168.12 216.54 168.12 219.33 169.52 219.33 169.52 216.54 172.45 216.54 172.45 215.42 169.52 215.42 169.52 214.45 172.45 214.45 172.45 213.33 169.93 213.33 173.08 207.4 171.33 207.4"/><polygon class="cls-10" points="371.79 177.27 369.27 182.44 366.76 177.27 365.02 177.27 368.16 183.21 365.65 183.21 365.65 184.32 368.58 184.32 368.58 185.3 365.65 185.3 365.65 186.42 368.58 186.42 368.58 189.21 369.97 189.21 369.97 186.42 372.9 186.42 372.9 185.3 369.97 185.3 369.97 184.32 372.9 184.32 372.9 183.21 370.39 183.21 373.53 177.27 371.79 177.27"/><path class="cls-12" d="M189.51,123.59l2.08.56v8.56c-1.93-.17-3.43-1-3.15-3.56.12-1.11.29-2.05-1.17-2.33a2.16,2.16,0,0,0-2.43,2.56c.29,2.77,3.31,3.88,5.69,4.17.35,0,.7.08,1.06.1v4.44h.76v-4.41a12.86,12.86,0,0,0,1.86-.07v4.48H195V133.5a7.7,7.7,0,0,0,3.62-1.57,5.45,5.45,0,0,0,.88-7.72h0a7.32,7.32,0,0,0-3.41-2.1c-.37-.1-.73-.21-1.09-.33v-8.15c1,.66,1.54,1.9,1.44,4-.06,1.24,1.68,1.79,2.77,1.12,1.3-.79,1.11-2.67.43-3.8A6.24,6.24,0,0,0,195,112.3v-6h-.76v5.92a16.82,16.82,0,0,0-1.86,0v-5.87h-.76v5.92c-2.81.28-5.6,1.87-6.22,4.83S186.74,122.54,189.51,123.59Zm5.46,1.8c1.45.76,2.55,1.83,2.56,3.45a3.39,3.39,0,0,1-2.56,3.55ZM192.35,113a5.26,5.26,0,0,1,1.86.21v8.28l-.41-.12h0l-1.45-.44Zm0,11.33a17.1,17.1,0,0,1,1.86.66v7.55a9.29,9.29,0,0,1-1.09.13c-.26,0-.51,0-.77,0Zm-1.13-11.18.37-.07v7.63l-.44-.13C187.63,119.19,187,114,191.22,113.19Z"/><polygon class="cls-12" points="298 134.75 292.92 145.19 287.85 134.75 284.32 134.75 290.67 146.74 285.59 146.74 285.59 148.99 291.51 148.99 291.51 150.97 285.59 150.97 285.59 153.22 291.51 153.22 291.51 158.87 294.34 158.87 294.34 153.22 300.26 153.22 300.26 150.97 294.34 150.97 294.34 148.99 300.26 148.99 300.26 146.74 295.18 146.74 301.53 134.75 298 134.75"/><path class="cls-3" d="M351.46,174.11H275a2.8,2.8,0,0,1-2.8-2.8V94.84A2.79,2.79,0,0,0,269.4,92H255.65a2.79,2.79,0,0,0-2.79,2.8v76.47a2.79,2.79,0,0,1-2.79,2.8H173.59a2.79,2.79,0,0,0-2.79,2.79v13.74a2.79,2.79,0,0,0,2.79,2.8h76.48a2.79,2.79,0,0,1,2.79,2.79v76.48a2.79,2.79,0,0,0,2.79,2.79H269.4a2.79,2.79,0,0,0,2.79-2.79V196.23a2.79,2.79,0,0,1,2.8-2.79h76.47a2.8,2.8,0,0,0,2.8-2.8V176.9A2.8,2.8,0,0,0,351.46,174.11Z"/><path class="cls-2" d="M304.3,122.45H288.92l8.68-8.64q6.06-6.09,6.07-11.24A9.68,9.68,0,0,0,300.51,95a10.82,10.82,0,0,0-7.44-2.82,12.06,12.06,0,0,0-6.29,1.7,11.54,11.54,0,0,0-4.45,5l3.79,2.24a7.29,7.29,0,0,1,7-4.57,6.1,6.1,0,0,1,4.28,1.6,5.75,5.75,0,0,1,1.75,4.47q0,3.45-4.81,8.26l-12,12.25v3.7h22Z"/><path class="cls-3" d="M218.59,35.51l2.61-.83,2.64-.78,2.65-.71,2.67-.67q5.34-1.28,10.78-2.17a147.94,147.94,0,0,1,65.52,4.24l.69.2v9.48l-1.25-.4a146,146,0,0,0-21.15-5,149.66,149.66,0,0,0-21.67-1.82,152.07,152.07,0,0,0-21.74,1.32c-3.6.47-7.2,1.08-10.76,1.83l-2.67.58-2.66.63-2.65.67-2.64.72,2.6-.85,2.62-.81,2.64-.74,2.65-.68c3.54-.89,7.13-1.64,10.74-2.25a139.26,139.26,0,0,1,21.87-1.89A141,141,0,0,1,305.48,42l-1.25.92V35.51l.69.92a153.47,153.47,0,0,0-21.28-4.74A158.37,158.37,0,0,0,261.89,30a161,161,0,0,0-21.82,1.29q-5.43.67-10.8,1.75l-2.69.57-2.67.6-2.67.65Z"/><rect class="cls-3" x="308.16" y="288.95" width="1.55" height="54.3"/><rect class="cls-3" x="299.75" y="292.35" width="1.55" height="54.3"/><rect class="cls-3" x="291.79" y="294.89" width="1.55" height="54.3"/><rect class="cls-3" x="283.83" y="296.6" width="1.55" height="54.3"/><rect class="cls-3" x="275.86" y="298.02" width="1.55" height="54.3"/><rect class="cls-3" x="269" y="298.84" width="1.55" height="54.3"/><rect class="cls-3" x="262.12" y="298.84" width="1.55" height="54.3"/><rect class="cls-3" x="255.01" y="298.84" width="1.55" height="54.3"/><rect class="cls-3" x="247.9" y="298.02" width="1.55" height="53.43"/><rect class="cls-3" x="241.28" y="296.94" width="1.55" height="54.3"/><rect class="cls-3" x="234.33" y="295.34" width="1.55" height="54.3"/><rect class="cls-3" x="227.38" y="293.39" width="1.55" height="54.3"/><rect class="cls-3" x="220.56" y="291.21" width="1.55" height="54.3"/><rect class="cls-3" x="214.07" y="288.77" width="1.55" height="54.3"/><path class="cls-7" d="M113.69,247.48l15.24-.2,15.25-.16c5.08-.05,10.16-.12,15.24-.15l15.24-.1H175l.19.24a109.52,109.52,0,0,0,61.71,39.36,109.73,109.73,0,0,0,49.26,0l.76-.16.75-.19,1.5-.41,3-.81.75-.2c.25-.07.49-.16.74-.24l1.47-.49,2.95-1c1-.3,1.94-.73,2.91-1.1l2.88-1.14.73-.29c.24-.09.47-.21.7-.32l1.41-.65,2.82-1.31a110.48,110.48,0,0,0,38.34-31.07l.19-.25h.3l15.44.1c5.15,0,10.3.09,15.44.14l15.45.17,15.44.2-15.44.21-15.45.17c-5.14,0-10.29.12-15.44.14l-15.44.1.49-.24A110.89,110.89,0,0,1,331.39,266a109.61,109.61,0,0,1-139.81,0,111.7,111.7,0,0,1-17.41-18.17l.49.23-15.24-.1c-5.08,0-10.16-.09-15.24-.14l-15.25-.16Z"/><path class="cls-7" d="M305.19,52.76a141.13,141.13,0,0,0-21.43-4.9q-5.43-.8-10.91-1.18c-3.65-.25-7.31-.34-11-.32a139.52,139.52,0,0,0-21.8,1.94,136.85,136.85,0,0,0-21.2,5.36l.64-.9v9l-1.28-.9A124.89,124.89,0,0,1,262,53.3a126.57,126.57,0,0,1,22.15,2.12,122.59,122.59,0,0,1,21.37,6.07l.24.09v.24L305.6,71c0,3.06-.12,6.12-.19,9.18-.07-3.06-.15-6.12-.2-9.18l-.15-9.18.23.33A129.9,129.9,0,0,0,240.12,57a127.66,127.66,0,0,0-21.21,5.68l-1.28.46v-11l.63-.22a131.86,131.86,0,0,1,21.53-5.27A133.87,133.87,0,0,1,261.89,45c3.69,0,7.38.23,11.05.57s7.33.83,11,1.49A129.13,129.13,0,0,1,305.19,52.76Z"/><path class="cls-3" d="M108.28,127.49l12-.16,12-.11,24.1-.23-.45.28a119,119,0,0,1,43.56-47.85,117.48,117.48,0,0,1,29.93-13.23,118.65,118.65,0,0,1,64.84,0,117.41,117.41,0,0,1,29.91,13.25,118.82,118.82,0,0,1,43.53,47.88l-.45-.27,24.68.22,12.35.12,12.34.16-12.34.16-12.35.12-24.68.23H367l-.14-.28a117.52,117.52,0,0,0-18.56-26.46,119.76,119.76,0,0,0-25-20.42,117.78,117.78,0,0,0-122.9-.06,119.77,119.77,0,0,0-25,20.4,117.76,117.76,0,0,0-18.57,26.44l-.14.28h-.3l-24.1-.23-12-.12Z"/><path class="cls-7" d="M106.62,233.94l12.46-.15,12.47-.12,24.93-.23h.3l.15.28a117.57,117.57,0,0,0,18.56,26.43,119.52,119.52,0,0,0,25,20.4,117.71,117.71,0,0,0,122.84,0,120.35,120.35,0,0,0,25-20.4,118.21,118.21,0,0,0,18.56-26.43l.14-.28h.31l24.71.23,12.35.12,12.36.15-12.36.16-12.35.12-24.71.23.45-.28A118.85,118.85,0,0,1,324.21,282a117.35,117.35,0,0,1-29.91,13.23,118.46,118.46,0,0,1-64.82,0A117.35,117.35,0,0,1,199.57,282,118.78,118.78,0,0,1,156,234.17l.45.28-24.93-.23-12.47-.12Z"/><path class="cls-7" d="M410.08,113.31l-15.24.2-15.24.17c-5.08,0-10.16.12-15.24.14l-15.24.1h-.3l-.18-.24a109.55,109.55,0,0,0-111-39.36l-.76.16-.75.2-1.5.41-3,.8-.75.21-.73.24-1.48.49-2.94,1c-1,.3-1.94.72-2.91,1.09L220,80.05l-.72.28-.71.32-1.41.66-2.81,1.3A110.42,110.42,0,0,0,176,113.69l-.19.24h-.3l-15.44-.1c-5.15,0-10.3-.09-15.45-.15l-15.44-.16-15.45-.21,15.45-.2,15.44-.17c5.15,0,10.3-.12,15.45-.14l15.44-.11-.49.24a111.28,111.28,0,0,1,17.41-18.17,109.55,109.55,0,0,1,139.8,0,110.48,110.48,0,0,1,17.41,18.17l-.48-.24,15.24.1c5.08,0,10.16.1,15.24.15l15.24.16Z"/><rect class="cls-3" x="104.15" y="133.1" width="41.72" height="1.31"/><rect class="cls-3" x="102.75" y="141.51" width="39.15" height="1.55"/><rect class="cls-3" x="101.12" y="149.47" width="39.15" height="1.55"/><rect class="cls-3" x="98.91" y="157.44" width="39.15" height="1.55"/><rect class="cls-3" x="97.89" y="165.4" width="39.15" height="1.55"/><rect class="cls-3" x="97.29" y="172.27" width="39.15" height="1.55"/><rect class="cls-3" x="97.29" y="179.15" width="39.15" height="1.55"/><rect class="cls-3" x="97.29" y="186.26" width="39.15" height="1.55"/><rect class="cls-3" x="97.29" y="193.36" width="39.15" height="1.55"/><rect class="cls-3" x="97.89" y="199.98" width="39.15" height="1.55"/><rect class="cls-3" x="99.05" y="206.93" width="39.15" height="1.55"/><rect class="cls-3" x="100.45" y="213.88" width="39.15" height="1.55"/><rect class="cls-3" x="102.15" y="220.71" width="39.15" height="1.55"/><rect class="cls-3" x="102.75" y="227.2" width="43.11" height="1.31"/><rect class="cls-3" x="379.44" y="133.1" width="42.18" height="1.31"/><rect class="cls-3" x="383.41" y="141.51" width="39.91" height="1.55"/><rect class="cls-3" x="385.8" y="149.47" width="39.15" height="1.55"/><rect class="cls-3" x="388.02" y="157.44" width="39.15" height="1.55"/><rect class="cls-3" x="389.04" y="165.4" width="39.15" height="1.55"/><rect class="cls-3" x="389.63" y="172.27" width="39.15" height="1.55"/><rect class="cls-3" x="389.63" y="179.15" width="39.15" height="1.55"/><rect class="cls-3" x="389.63" y="186.26" width="39.15" height="1.55"/><rect class="cls-3" x="389.63" y="193.36" width="39.15" height="1.55"/><rect class="cls-3" x="388.27" y="199.98" width="39.15" height="1.55"/><rect class="cls-3" x="387.11" y="206.93" width="39.15" height="1.55"/><rect class="cls-3" x="385.7" y="213.88" width="39.15" height="1.55"/><rect class="cls-3" x="383.62" y="220.71" width="40.6" height="1.55"/><rect class="cls-3" x="381.19" y="227.2" width="42.05" height="1.55"/><path class="cls-7" d="M262.89,335.06A152.81,152.81,0,0,1,178.68,54.75V40.93H181V56l-.52.35a150.47,150.47,0,1,0,166.71,1.26l-.51-.35V41.42L349,42.79V56a152.77,152.77,0,0,1-86.11,279Z"/><path class="cls-7" d="M262.89,327.28A145.06,145.06,0,0,1,137.71,109a145.93,145.93,0,0,1,51.56-51.7V35.65l2.32-1v24L191,59a142.61,142.61,0,0,0-70.83,123.3,142.7,142.7,0,1,0,266.49-71,143.69,143.69,0,0,0-49.8-51l-.56-.34V35.59l2.32.79v22.2a145,145,0,0,1,69.27,123.68,144.89,144.89,0,0,1-145,145Z"/><path class="cls-7" d="M262.89,318.73a136.49,136.49,0,0,1-116-208.34,137,137,0,0,1,52.66-49V31.09l2.32-1.26v33l-.63.33a134.14,134.14,0,1,0,125.62,1.2l-.61-.33V31.86h2.32V62.6a136.46,136.46,0,0,1-65.65,256.13Z"/><path class="cls-7" d="M262.89,310A127.75,127.75,0,0,1,209.08,66.38V27.44l2.32-.84V67.87l-.68.31a125.42,125.42,0,1,0,104.33,0l-.68-.31V26.53l2.32.7V66.38A127.75,127.75,0,0,1,262.89,310Z"/><path class="cls-3" d="M263,353.14c-93.38,0-169.36-76-169.36-169.37S169.61,14.41,263,14.41s169.37,76,169.37,169.36S356.38,353.14,263,353.14Zm0-333.9c-90.72,0-164.52,73.81-164.52,164.53S172.27,348.3,263,348.3s164.53-73.81,164.53-164.53S353.72,19.24,263,19.24Z"/></g></g></g></svg>