<svg id="Grupo_2533" data-name="Grupo 2533" xmlns="http://www.w3.org/2000/svg" width="18.895" height="18.895" viewBox="0 0 18.895 18.895">
  <path id="Trazado_6671" data-name="Trazado 6671" d="M9.447,0a9.447,9.447,0,1,0,9.447,9.447A9.453,9.453,0,0,0,9.447,0Zm0,17.177a7.73,7.73,0,1,1,7.73-7.73A7.741,7.741,0,0,1,9.447,17.177Z" fill="#0e2d4f"/>
  <path id="Trazado_6672" data-name="Trazado 6672" d="M13.121,9.684,11.154,11.66v-4.8a.859.859,0,0,0-1.718,0v4.8L7.47,9.693A.856.856,0,0,0,6.259,10.9l3.435,3.435a.82.82,0,0,0,.283.189.95.95,0,0,0,.318.06.891.891,0,0,0,.61-.258L14.34,10.9a.855.855,0,0,0,0-1.211A.866.866,0,0,0,13.121,9.684Z" transform="translate(-0.848 -0.847)" fill="#c00"/>
</svg>
