<svg id="Grupo_3832" data-name="Grupo 3832" xmlns="http://www.w3.org/2000/svg" width="17" height="17" viewBox="0 0 17 17">
  <path id="Trazado_6951" data-name="Trazado 6951" d="M12.042,19.068a.782.782,0,0,0-1.082.309.856.856,0,0,1-1.082.309.6.6,0,0,1-.309-.309.856.856,0,0,0-1.082-.309.856.856,0,0,0-.309,1.082,4.9,4.9,0,0,0,1,.85,2.181,2.181,0,0,0,1.159.309,2.329,2.329,0,0,0,2.009-1.159A.782.782,0,0,0,12.042,19.068Z" transform="translate(-1.842 -4.309)" fill="#c00"/>
  <path id="Trazado_6952" data-name="Trazado 6952" d="M16.227,11.591a1.55,1.55,0,0,1-1.545-1.545V6.182a6.182,6.182,0,1,0-12.364,0v3.864A1.55,1.55,0,0,1,.773,11.591a.773.773,0,0,0,0,1.545H16.227a.773.773,0,0,0,0-1.545Zm-12.75,0a3.517,3.517,0,0,0,.386-1.545V6.182a4.636,4.636,0,1,1,9.273,0v3.864a3.517,3.517,0,0,0,.386,1.545Z" fill="#0e2d4f"/>
</svg>
