<svg id="Grupo_2970" data-name="Grupo 2970" xmlns="http://www.w3.org/2000/svg" width="20" height="20" viewBox="0 0 20 20">
  <path id="Trazado_26" data-name="Trazado 26" d="M1,8A1,1,0,0,1,0,7V4A3,3,0,0,1,3,1H6A1,1,0,1,1,6,3H3A1,1,0,0,0,2,4V7A1,1,0,0,1,1,8ZM19,8a1,1,0,0,1-1-1V4a1,1,0,0,0-1-1H14a1,1,0,0,1,0-2h3a3,3,0,0,1,3,3V7A1,1,0,0,1,19,8ZM6,21H3a3,3,0,0,1-3-3V15a1,1,0,0,1,2,0v3a1,1,0,0,0,1,1H6a1,1,0,0,1,0,2Zm11,0H14a1,1,0,0,1,0-2h3a1,1,0,0,0,1-1V15a1,1,0,0,1,2,0v3A3,3,0,0,1,17,21Z" transform="translate(0 -1)" fill="#c00"/>
  <path id="Trazado_27" data-name="Trazado 27" d="M19,58.029H1a1,1,0,0,1,0-2H19a1,1,0,0,1,0,2Z" transform="translate(0 -47.029)" fill="#c00"/>
</svg>
