<svg xmlns="http://www.w3.org/2000/svg" width="16.405" height="16.15" viewBox="0 0 16.405 16.15">
  <g id="Grupo_4030" data-name="Grupo 4030" transform="translate(-233.75 -306.749)">
    <g id="Grupo_3271" data-name="Grupo 3271" transform="translate(239.882 309.435)">
      <g id="XMLID_2_">
        <g id="Grupo_3270" data-name="Grupo 3270">
          <path id="Trazado_6773" data-name="Trazado 6773" d="M79.905,29.153a.523.523,0,0,1,0,.739l-6.747,6.747-2.971-2.97a.523.523,0,0,1,.739-.739l1.994,1.994.238.238.238-.238,5.771-5.771a.522.522,0,0,1,.738,0Z" transform="translate(-70.035 -29)" fill="#c00" stroke="#c00" stroke-linecap="round" stroke-width="0.5"/>
        </g>
      </g>
    </g>
    <path id="Trazado_6774" data-name="Trazado 6774" d="M8.788,2.378c.1,0,.191,0,.287,0l.215.007V1.629A1.631,1.631,0,0,0,7.661,0H1.629A1.631,1.631,0,0,0,0,1.629V14.021A1.631,1.631,0,0,0,1.629,15.65H7.662a1.631,1.631,0,0,0,1.629-1.629V12.516l-.209.007c-.1,0-.2,0-.3,0l-.186-.007v.771a1.008,1.008,0,0,1-1.007,1.007H1.7A1.008,1.008,0,0,1,.7,13.285V1.743A1.008,1.008,0,0,1,1.7.736H7.586A1.008,1.008,0,0,1,8.593,1.743v.642Z" transform="translate(234 306.999)" fill="#c00" stroke="#c00" stroke-linecap="round" stroke-width="0.5"/>
    <path id="Trazado_6775" data-name="Trazado 6775" d="M59,36.171a4.16,4.16,0,1,1-.769-1.66l.42-.42a4.729,4.729,0,1,0,.832,1.6Z" transform="translate(188.007 277.412)" fill="#c00" stroke="#c00" stroke-linecap="round" stroke-width="0.5"/>
  </g>
</svg>
