<svg xmlns="http://www.w3.org/2000/svg" width="15.841" height="19.002" viewBox="0 0 15.841 19.002">
  <g id="Grupo_2531" data-name="Grupo 2531" transform="translate(0.005 0.003)">
    <path id="Trazado_6669" data-name="Trazado 6669" d="M.792,9.5a.794.794,0,0,0,.792-.792V7.124A2.382,2.382,0,0,1,3.958,4.749h9.175L11.321,6.562a.788.788,0,0,0,0,1.116.755.755,0,0,0,.554.237.811.811,0,0,0,.562-.23L15.6,4.52a.756.756,0,0,0,.174-.261A.794.794,0,0,0,15.6,3.4L12.437.229a.789.789,0,0,0-1.116,1.116l1.813,1.821H3.958A3.96,3.96,0,0,0,0,7.124V8.708A.794.794,0,0,0,.792,9.5Z" transform="translate(-0.001 0)" fill="#c00"/>
    <path id="Trazado_6670" data-name="Trazado 6670" d="M15.041,12a.794.794,0,0,0-.792.792v1.583a2.382,2.382,0,0,1-2.375,2.375H2.7l1.813-1.813A.789.789,0,0,0,3.4,13.821L.229,16.987a.756.756,0,0,0-.174.261.794.794,0,0,0,.174.863L3.4,21.278a.839.839,0,0,0,.562.222.811.811,0,0,0,.562-.23.788.788,0,0,0,0-1.116L2.7,18.333h9.175a3.96,3.96,0,0,0,3.958-3.958V12.792A.794.794,0,0,0,15.041,12Z" transform="translate(0 -2.501)" fill="#0e2d4f"/>
  </g>
</svg>
