<svg id="Grupo_2514" data-name="Grupo 2514" xmlns="http://www.w3.org/2000/svg" width="17.444" height="17.439" viewBox="0 0 17.444 17.439">
  <g id="Grupo_175" data-name="Grupo 175" transform="translate(0.001 0)">
    <path id="Trazado_264" data-name="Trazado 264" d="M8.721,9.515a.816.816,0,0,1-.357-.087L.436,5.464a.789.789,0,0,1,0-1.411L8.365.088a.789.789,0,0,1,.706,0L17,4.053a.786.786,0,0,1,.008,1.411L9.078,9.428A.816.816,0,0,1,8.721,9.515ZM2.569,4.758,8.721,7.834l6.153-3.076L8.721,1.682Z" transform="translate(0 -0.005)" fill="#c00"/>
  </g>
  <g id="Grupo_176" data-name="Grupo 176" transform="translate(0 11.883)">
    <path id="Trazado_265" data-name="Trazado 265" d="M8.721,20.548a.816.816,0,0,1-.357-.087L.436,16.5a.8.8,0,0,1-.357-1.062.8.8,0,0,1,1.062-.357l7.58,3.79,7.572-3.79A.792.792,0,0,1,17,16.5L9.07,20.461A.758.758,0,0,1,8.721,20.548Z" transform="translate(0.001 -14.992)" fill="#0e2d4f"/>
  </g>
  <g id="Grupo_177" data-name="Grupo 177" transform="translate(0 7.919)">
    <path id="Trazado_266" data-name="Trazado 266" d="M8.721,15.548a.816.816,0,0,1-.357-.087L.436,11.5a.8.8,0,0,1-.357-1.062.794.794,0,0,1,1.062-.357l7.58,3.79,7.572-3.79A.792.792,0,0,1,17,11.5L9.07,15.461A.758.758,0,0,1,8.721,15.548Z" transform="translate(0.001 -9.992)" fill="#0e2d4f"/>
  </g>
</svg>
