<svg xmlns="http://www.w3.org/2000/svg" width="12.876" height="16.94" viewBox="0 0 12.876 16.94">
  <g id="Grupo_4029" data-name="Grupo 4029" transform="translate(-65 -306.998)">
    <path id="Trazado_6701" data-name="Trazado 6701" d="M11.86,1.357H7.455V1.018A1.023,1.023,0,0,0,6.221.028L.8,1.235a1,1,0,0,0-.8.989v12.5a1,1,0,0,0,.8.989l5.422,1.206a.761.761,0,0,0,.217.027,1.028,1.028,0,0,0,1-.8,1.122,1.122,0,0,0,.02-.217v-.339H11.86a1.015,1.015,0,0,0,1.017-1.017V2.373A1.015,1.015,0,0,0,11.86,1.357ZM6.1,15.507,1.355,14.45V2.5L6.1,1.438Zm5.422-1.274H7.455V2.712h4.066Z" transform="translate(65 306.994)" fill="#c00"/>
    <circle id="Elipse_143" data-name="Elipse 143" cx="1" cy="1" r="1" transform="translate(68.872 314.268)" fill="#c00"/>
  </g>
</svg>
