<svg xmlns="http://www.w3.org/2000/svg" width="16.334" height="15.715" viewBox="0 0 16.334 15.715">
  <g id="Grupo_4032" data-name="Grupo 4032" transform="translate(-27 -345)">
    <rect id="Rectángulo_1269" data-name="Rectángulo 1269" width="1.347" height="1.347" transform="translate(29.016 354.016)" fill="#c00"/>
    <rect id="Rectángulo_1270" data-name="Rectángulo 1270" width="1.347" height="1.347" transform="translate(31.397 354.016)" fill="#c00"/>
    <rect id="Rectángulo_1271" data-name="Rectángulo 1271" width="1.347" height="1.347" transform="translate(29.016 356.445)" fill="#c00"/>
    <rect id="Rectángulo_1272" data-name="Rectángulo 1272" width="1.347" height="1.347" transform="translate(31.397 356.445)" fill="#c00"/>
    <rect id="Rectángulo_1273" data-name="Rectángulo 1273" width="1.347" height="1.347" transform="translate(39.393 356.445)" fill="#c00"/>
    <rect id="Rectángulo_1274" data-name="Rectángulo 1274" width="1.347" height="1.347" transform="translate(39.393 354.016)" fill="#c00"/>
    <rect id="Rectángulo_1275" data-name="Rectángulo 1275" width="1.347" height="1.347" transform="translate(32.051 349.286)" fill="#c00"/>
    <rect id="Rectángulo_1276" data-name="Rectángulo 1276" width="1.347" height="1.347" transform="translate(34.43 349.286)" fill="#c00"/>
    <path id="Trazado_6726" data-name="Trazado 6726" d="M10.714,6.092V5.118h0V0L3.1,2.891v3.2H0v9.623H16.334V6.092ZM.916,14.8V7.007h5.93V14.8ZM9.8,5.118H9.774V14.8H7.455V6.4H4.02V3.522L9.8,1.327V5.118ZM15.418,14.8h-4.7V7.007h4.7Z" transform="translate(27 345)" fill="#c00"/>
  </g>
</svg>
