<svg xmlns="http://www.w3.org/2000/svg" width="18.183" height="20" viewBox="0 0 18.183 20">
  <path id="Trazado_6734" data-name="Trazado 6734" d="M485.615,69.464a1.807,1.807,0,0,1-1.568-2.723l.008-.01,0-.012a1.815,1.815,0,1,1,1.556,2.746ZM474.7,63.1a1.818,1.818,0,1,1,1.818-1.818A1.819,1.819,0,0,1,474.7,63.1Zm10.911-10a1.818,1.818,0,1,1-1.818,1.818A1.819,1.819,0,0,1,485.615,53.1Zm0,10.911a3.624,3.624,0,0,0-2.578,1.075l-4.846-2.823a3.25,3.25,0,0,0,0-1.962l4.842-2.826a3.856,3.856,0,1,0-.9-1.577l-4.842,2.826a3.636,3.636,0,1,0,0,5.115l4.844,2.824a3.56,3.56,0,0,0-.151.983,3.636,3.636,0,1,0,3.634-3.634Z" transform="translate(-471.07 -51.28)" fill="#c00"/>
</svg>
