<svg xmlns="http://www.w3.org/2000/svg" width="25.421" height="20" viewBox="0 0 25.421 20">
  <g id="Grupo_2974" data-name="Grupo 2974" transform="translate(-4 -2.75)">
    <path id="Trazado_6735" data-name="Trazado 6735" d="M14.95,2.475A2.475,2.475,0,1,1,12.475,4.95,2.483,2.483,0,0,1,14.95,2.475M14.95,0A4.95,4.95,0,1,0,19.9,4.95,4.949,4.949,0,0,0,14.95,0Z" transform="translate(6.079 2.75)" fill="#c00"/>
    <path id="Trazado_6736" data-name="Trazado 6736" d="M6.931,7.158V4.386a1.386,1.386,0,1,0-2.772,0V7.158H1.386a1.386,1.386,0,1,0,0,2.772H4.158V12.7a1.386,1.386,0,0,0,2.772,0V9.931H9.7a1.386,1.386,0,0,0,0-2.772Z" transform="translate(4 3.314)" fill="#c00" fill-rule="evenodd"/>
    <path id="Trazado_6737" data-name="Trazado 6737" d="M14.4,12.964c2.833,0,6.087,1.912,6.3,2.964H8.1c.241-1.067,3.474-2.964,6.3-2.964M14.4,10c-2.8,0-8.4,1.986-8.4,5.927v1.482c0,.815.472,1.482,1.049,1.482H21.742c.577,0,1.049-.667,1.049-1.482V15.927C22.791,11.986,17.2,10,14.4,10Z" transform="translate(6.63 3.859)" fill="#c00"/>
  </g>
</svg>
