<svg xmlns="http://www.w3.org/2000/svg" width="18.004" height="16.367" viewBox="0 0 18.004 16.367">
  <g id="Grupo_5160" data-name="Grupo 5160" transform="translate(-27.998 -494.996)">
    <path id="Sustracci贸n_18" data-name="Sustracci贸n 18" d="M22608,16513.361a.859.859,0,0,1-.5-.146v-15.125a3.894,3.894,0,0,1,.5.549,4.175,4.175,0,0,1,3.275-1.641h4.9a.778.778,0,0,1,.822.822v12.271a.777.777,0,0,1-.822.818h-5.723a1.639,1.639,0,0,0-1.641,1.635A.773.773,0,0,1,22608,16513.361Zm3.275-14.723a2.4,2.4,0,0,0-2.459,2.451v8.594a3.658,3.658,0,0,1,1.641-.408h4.9v-10.637Z" transform="translate(-22571 -16002)" fill="#0e2d4f"/>
    <path id="Sustracci贸n_20" data-name="Sustracci贸n 20" d="M22607,16512.363h0a.774.774,0,0,1-.816-.818,1.639,1.639,0,0,0-1.641-1.635h-5.723a.777.777,0,0,1-.822-.818v-12.271a.78.78,0,0,1,.822-.824h4.906a4.181,4.181,0,0,1,3.275,1.641v14.727Zm-7.363-14.729v10.641h4.9a3.683,3.683,0,0,1,1.641.408v-8.594a2.4,2.4,0,0,0-2.457-2.453h-4.088Z" transform="translate(-22570.002 -16001)" fill="#c00"/>
  </g>
</svg>
