<svg xmlns="http://www.w3.org/2000/svg" xmlns:xlink="http://www.w3.org/1999/xlink" viewBox="0 0 490.58 599.78"><defs><style>.cls-1{isolation:isolate;}.cls-2{fill:#cb0000;}.cls-3{opacity:0.45;}.cls-3,.cls-4{mix-blend-mode:multiply;}.cls-4{fill:url(#Degradado_sin_nombre_2);}.cls-5{fill:#0e2d4f;}.cls-6{fill:#172e4d;}.cls-7{fill:url(#Degradado_sin_nombre_15);}.cls-8{fill:#ca1517;}.cls-9{opacity:0.15;}.cls-10{fill:#00254d;}.cls-11{fill:#a60000;}.cls-12{opacity:0.25;}.cls-13{fill:#fff;}</style><radialGradient id="Degradado_sin_nombre_2" cx="232.38" cy="31.75" r="228.35" gradientTransform="translate(13.08 360.14) scale(1 0.2)" gradientUnits="userSpaceOnUse"><stop offset="0" stop-color="#404040"/><stop offset="0.18" stop-color="#414141" stop-opacity="0.86"/><stop offset="0.47" stop-color="#434343" stop-opacity="0.49"/><stop offset="0.78" stop-color="#464646" stop-opacity="0"/></radialGradient><radialGradient id="Degradado_sin_nombre_15" cx="245.46" cy="183.77" r="179.42" gradientUnits="userSpaceOnUse"><stop offset="0" stop-color="#fff"/><stop offset="0.62" stop-color="#fdfdfd"/><stop offset="0.85" stop-color="#f7f8f6"/><stop offset="1" stop-color="#edeeeb"/></radialGradient></defs><g class="cls-1"><g id="Capa_2" data-name="Capa 2"><g id="Capa_1-2" data-name="Capa 1"><path class="cls-2" d="M456.85,599.78H33.73c-18.6,0-33.73-16-33.73-35.64V561c0-19.65,15.13-35.64,33.73-35.64H456.85c18.6,0,33.73,16,33.73,35.64v3.13C490.58,583.79,475.45,599.78,456.85,599.78ZM33.73,530.45c-15.95,0-28.92,13.71-28.92,30.56v3.13c0,16.85,13,30.56,28.92,30.56H456.85c15.95,0,28.92-13.71,28.92-30.56V561c0-16.85-13-30.56-28.92-30.56Z"/><g class="cls-3"><ellipse class="cls-4" cx="245.46" cy="366.51" rx="228.35" ry="45.83"/></g><path class="cls-2" d="M103.4,399.24v99.64H83.9V434.26L55.79,480.49l-2.29.08-28-46.07v64.38H5.89V399.24H26.1l28.57,47.05L83.1,399.24Z"/><path class="cls-2" d="M187.4,498.88,181.06,481H140.13l-6,17.93H112.94l34.88-99.64h24.34l35.15,99.64Zm-40.87-36.3h28l-14.38-40.71Z"/><path class="cls-2" d="M248.74,500.88q-14.81,0-24.91-6.62a35.4,35.4,0,0,1-14.24-18l16.8-9.82q5.84,15.22,22.92,15.23,8.25,0,12.1-3a9.41,9.41,0,0,0-.86-15.73q-4.69-2.91-16.79-6.33a103.31,103.31,0,0,1-11.32-4,48.58,48.58,0,0,1-9.25-5.34,21.68,21.68,0,0,1-7.05-8.47,27.61,27.61,0,0,1-2.42-12q0-13.52,9.61-21.56t23.13-8a38.51,38.51,0,0,1,21.28,5.9,39.76,39.76,0,0,1,14.31,16.44l-16.51,9.54q-6-12.81-19.08-12.81-6.12,0-9.61,2.78a8.75,8.75,0,0,0-3.49,7.19,9.06,9.06,0,0,0,3.92,7.61q3.91,2.93,15,6.34,4.55,1.42,6.9,2.2c1.57.52,3.7,1.33,6.41,2.42a38.52,38.52,0,0,1,6.26,3.06,49.06,49.06,0,0,1,5.05,3.85,19.42,19.42,0,0,1,4.34,5,28.28,28.28,0,0,1,3.63,14.09q0,13.82-10,21.92T248.74,500.88Z"/><path class="cls-5" d="M356.07,447.21a26.63,26.63,0,0,1,10.89,9.4A25,25,0,0,1,371,470.7a26.79,26.79,0,0,1-8.4,20.07,28.4,28.4,0,0,1-20.5,8.11h-43V399.24H339a27.42,27.42,0,0,1,19.78,7.83,25.83,25.83,0,0,1,8.12,19.36A24,24,0,0,1,356.07,447.21ZM339,411.62H312.37v30.47H339a14.06,14.06,0,0,0,10.53-4.42,15.65,15.65,0,0,0-.07-21.56A14,14,0,0,0,339,411.62Zm3.13,74.88a15,15,0,0,0,11.24-4.7,15.91,15.91,0,0,0,4.56-11.53,15.63,15.63,0,0,0-4.63-11.39,15.1,15.1,0,0,0-11.17-4.69H312.37V486.5Z"/><path class="cls-5" d="M386.67,399.24h13.24v99.64H386.67Z"/><path class="cls-5" d="M485,399.24v12.53H455.57v87.11H442.48V411.77H413.15V399.24Z"/><path class="cls-6" d="M73.66,568.87a8.41,8.41,0,0,0,.74,3.68,6.64,6.64,0,0,0,2,2.49,8.68,8.68,0,0,0,3,1.42,14.89,14.89,0,0,0,3.7.44,11.63,11.63,0,0,0,3.67-.5,7.44,7.44,0,0,0,2.47-1.28,4.68,4.68,0,0,0,1.36-1.81,5.48,5.48,0,0,0,.42-2.08,4.46,4.46,0,0,0-1-3.17A5.48,5.48,0,0,0,88,566.61a45,45,0,0,0-4.65-1.39c-1.77-.44-3.95-1-6.54-1.7a14.07,14.07,0,0,1-4-1.66,9.51,9.51,0,0,1-2.55-2.28,8.13,8.13,0,0,1-1.34-2.68,10.83,10.83,0,0,1-.39-2.89,9.75,9.75,0,0,1,1.18-4.91,10.57,10.57,0,0,1,3.12-3.43,13.91,13.91,0,0,1,4.41-2,20,20,0,0,1,10.53.11A13.81,13.81,0,0,1,92.33,546a11.25,11.25,0,0,1,3.12,3.76A11.1,11.1,0,0,1,96.61,555H90c-.17-2.42-1-4.12-2.46-5.12a9.8,9.8,0,0,0-5.62-1.5,12,12,0,0,0-2.36.24,7.54,7.54,0,0,0-2.21.79,4.71,4.71,0,0,0-1.65,1.49,4.58,4.58,0,0,0,.57,5.49,8.14,8.14,0,0,0,3.23,1.71l1.66.44,3.23.87,3.49.92,2.44.65a11,11,0,0,1,3.2,1.58,9.87,9.87,0,0,1,2.28,2.28,9.37,9.37,0,0,1,1.37,2.76,10,10,0,0,1,.45,2.94,10.58,10.58,0,0,1-1.29,5.38A11,11,0,0,1,93,579.53a14.88,14.88,0,0,1-4.77,2.07,22.79,22.79,0,0,1-5.46.66,22.26,22.26,0,0,1-6-.79,14,14,0,0,1-4.94-2.42,11.74,11.74,0,0,1-3.36-4.17,14,14,0,0,1-1.31-6Z"/><path class="cls-6" d="M103,543.88h6.56v21.84c0,1.26.06,2.54.18,3.83a9,9,0,0,0,1,3.49,6.67,6.67,0,0,0,2.63,2.55,12.8,12.8,0,0,0,9.92,0,6.67,6.67,0,0,0,2.63-2.55,9,9,0,0,0,1-3.49c.12-1.29.18-2.57.18-3.83V543.88h6.56v24a16.54,16.54,0,0,1-1.1,6.3,12.25,12.25,0,0,1-3.12,4.49,13.11,13.11,0,0,1-4.86,2.71,22.74,22.74,0,0,1-12.6,0,13.11,13.11,0,0,1-4.86-2.71,12.25,12.25,0,0,1-3.12-4.49,16.54,16.54,0,0,1-1.1-6.3Z"/><path class="cls-6" d="M141.18,543.88h9.24l10.34,29.35h.1l10.08-29.35h9.14v37.49h-6.25V552.44h-.1l-10.4,28.93h-5.41l-10.39-28.93h-.11v28.93h-6.24Z"/><path class="cls-6" d="M198,543.88h7l14.44,37.49h-7l-3.51-9.93h-15l-3.51,9.93H183.6Zm-2.31,22.58h11.44l-5.61-16.12h-.16Z"/><path class="cls-6" d="M237.56,543.88H253.1a17.51,17.51,0,0,1,7.46,1.47,13.82,13.82,0,0,1,5.14,4,17.19,17.19,0,0,1,3,6,27.92,27.92,0,0,1,0,14.59,17.19,17.19,0,0,1-3,6,13.69,13.69,0,0,1-5.14,4,17.36,17.36,0,0,1-7.46,1.48H237.56ZM244.13,576h6.45a16.46,16.46,0,0,0,6.28-1,9.29,9.29,0,0,0,3.83-2.84,10.29,10.29,0,0,0,1.89-4.25,28.08,28.08,0,0,0,0-10.55,10.33,10.33,0,0,0-1.89-4.26,9.27,9.27,0,0,0-3.83-2.83,16.46,16.46,0,0,0-6.28-1h-6.45Z"/><path class="cls-6" d="M275.47,543.88H282v37.49h-6.56Z"/><path class="cls-6" d="M322.77,581.37h-4.2l-1-4.41a15.62,15.62,0,0,1-5.25,4.14,14.86,14.86,0,0,1-6,1.16,17.69,17.69,0,0,1-7.53-1.55,16.4,16.4,0,0,1-5.64-4.23,18.62,18.62,0,0,1-3.55-6.24,24,24,0,0,1,0-15.18,18.62,18.62,0,0,1,3.55-6.24,16.73,16.73,0,0,1,5.64-4.26,17.4,17.4,0,0,1,7.53-1.57,20.43,20.43,0,0,1,5.8.81,15.54,15.54,0,0,1,4.91,2.42,13.25,13.25,0,0,1,3.57,4,14.12,14.12,0,0,1,1.79,5.57h-6.41a8.1,8.1,0,0,0-3.3-5.57,9.52,9.52,0,0,0-2.94-1.41,12.08,12.08,0,0,0-3.42-.48,10.56,10.56,0,0,0-5.17,1.21,10.18,10.18,0,0,0-3.54,3.23,14.45,14.45,0,0,0-2,4.59,21.21,21.21,0,0,0,0,10.5,14.41,14.41,0,0,0,2,4.6,10.27,10.27,0,0,0,3.54,3.23,10.56,10.56,0,0,0,5.17,1.2,12.15,12.15,0,0,0,4.46-.65,9.05,9.05,0,0,0,3.29-2,8.69,8.69,0,0,0,2-3.28,13.89,13.89,0,0,0,.73-4.31h-10v-5h16Z"/><path class="cls-6" d="M329.91,543.88h6.56v37.49h-6.56Z"/><path class="cls-6" d="M340.93,543.88h30.35v5.67H359.36v31.82H352.8V549.55H340.93Z"/><path class="cls-6" d="M380.83,543.88h7l14.44,37.49h-7l-3.52-9.93h-15l-3.52,9.93h-6.77Zm-2.31,22.58H390l-5.62-16.12h-.16Z"/><path class="cls-6" d="M405.82,543.88h6.56V575.7h19.06v5.67H405.82Z"/><circle class="cls-7" cx="245.46" cy="183.77" r="179.42"/><path class="cls-6" d="M201,35.51l2.62-.83,2.63-.78,2.65-.71,2.67-.67q5.35-1.28,10.79-2.17a148,148,0,0,1,65.52,4.24l.68.2v9.48l-1.24-.4a146.08,146.08,0,0,0-21.16-5,149.66,149.66,0,0,0-21.67-1.82,152.16,152.16,0,0,0-21.74,1.32q-5.4.71-10.76,1.83l-2.67.58-2.66.63-2.65.67-2.64.72L204,42l2.62-.81,2.64-.74,2.65-.68q5.33-1.34,10.74-2.25a139.28,139.28,0,0,1,21.88-1.89A140.88,140.88,0,0,1,287.9,42l-1.25.92V35.51l.69.92a153.47,153.47,0,0,0-21.28-4.74A158.24,158.24,0,0,0,244.31,30a160.71,160.71,0,0,0-21.81,1.29q-5.43.67-10.81,1.75l-2.68.57-2.68.6-2.67.65Z"/><rect class="cls-6" x="290.59" y="288.95" width="1.55" height="54.3"/><rect class="cls-6" x="282.18" y="292.35" width="1.55" height="54.3"/><rect class="cls-6" x="274.21" y="294.89" width="1.55" height="54.3"/><rect class="cls-6" x="266.25" y="296.6" width="1.55" height="54.3"/><rect class="cls-6" x="258.29" y="298.02" width="1.55" height="54.3"/><rect class="cls-6" x="251.42" y="298.84" width="1.55" height="54.3"/><rect class="cls-6" x="244.54" y="298.84" width="1.55" height="54.3"/><rect class="cls-6" x="237.43" y="298.84" width="1.55" height="54.3"/><rect class="cls-6" x="230.33" y="298.84" width="1.55" height="54.3"/><rect class="cls-6" x="223.7" y="296.94" width="1.55" height="54.3"/><rect class="cls-6" x="216.76" y="295.34" width="1.55" height="54.3"/><rect class="cls-6" x="209.81" y="293.39" width="1.55" height="54.3"/><rect class="cls-6" x="202.98" y="291.21" width="1.55" height="54.3"/><rect class="cls-6" x="196.49" y="288.77" width="1.55" height="54.3"/><path class="cls-8" d="M96.12,247.48l15.24-.2,15.24-.16c5.08-.05,10.16-.12,15.24-.15l15.24-.1h.3l.18.24a109.52,109.52,0,0,0,61.71,39.36,109.77,109.77,0,0,0,49.27,0l.76-.16.75-.19,1.5-.41,3-.81.75-.2c.25-.07.5-.16.74-.24l1.48-.49,2.94-1c1-.3,1.94-.73,2.91-1.1l2.89-1.14.72-.29c.24-.09.47-.21.71-.32l1.4-.65,2.82-1.31a110.48,110.48,0,0,0,38.34-31.07l.19-.25h.3l15.44.1c5.15,0,10.3.09,15.45.14l15.44.17,15.45.2-15.45.21-15.44.17c-5.15,0-10.3.12-15.45.14l-15.44.1.49-.24A110.89,110.89,0,0,1,313.81,266a109.62,109.62,0,0,1-118.68,13.73A108.55,108.55,0,0,1,174,266a111.28,111.28,0,0,1-17.41-18.17l.48.23-15.24-.1c-5.08,0-10.16-.09-15.24-.14l-15.24-.16Z"/><path class="cls-8" d="M287.61,52.76a140.74,140.74,0,0,0-21.42-4.9q-5.44-.8-10.92-1.18c-3.65-.25-7.3-.34-11-.32a139.63,139.63,0,0,0-21.8,1.94,136.85,136.85,0,0,0-21.2,5.36l.64-.9,0,9-1.29-.9a124.89,124.89,0,0,1,43.75-7.54,126.57,126.57,0,0,1,22.15,2.12A122.09,122.09,0,0,1,288,61.49l.24.09v.24L288,71c0,3.06-.13,6.12-.2,9.18-.06-3.06-.15-6.12-.19-9.18l-.16-9.18.23.33A129.86,129.86,0,0,0,222.55,57a127.14,127.14,0,0,0-21.21,5.68l-1.29.46V61.74l0-9v-.67l.64-.22a131.74,131.74,0,0,1,21.52-5.27A133.87,133.87,0,0,1,244.31,45c3.69,0,7.38.23,11.05.57s7.33.83,11,1.49A128.87,128.87,0,0,1,287.61,52.76Z"/><path class="cls-6" d="M90.7,127.49l12-.16,12-.11,24.1-.23-.44.28A118.88,118.88,0,0,1,182,79.42a117.26,117.26,0,0,1,29.92-13.23,118.65,118.65,0,0,1,64.84,0A117.32,117.32,0,0,1,306.7,79.47a118.86,118.86,0,0,1,43.52,47.88l-.45-.27,24.69.22,12.34.12,12.34.16-12.34.16-12.34.12-24.69.23h-.31l-.14-.28a117.8,117.8,0,0,0-18.55-26.46,119.81,119.81,0,0,0-25-20.42,117.77,117.77,0,0,0-122.89-.06,119.26,119.26,0,0,0-25,20.4,117.8,117.8,0,0,0-18.58,26.44l-.14.28h-.3l-24.1-.23-12-.12Z"/><path class="cls-8" d="M89,233.94l12.47-.15,12.46-.12,24.93-.23h.3l.15.28a117.89,117.89,0,0,0,18.56,26.43,119.78,119.78,0,0,0,25,20.4,117.71,117.71,0,0,0,122.84,0,120.09,120.09,0,0,0,25-20.4,117.89,117.89,0,0,0,18.56-26.43l.15-.28h.3l24.71.23,12.36.12,12.35.15-12.35.16-12.36.12-24.71.23.45-.28A118.78,118.78,0,0,1,306.63,282a117.35,117.35,0,0,1-29.91,13.23,118.46,118.46,0,0,1-64.82,0A117.35,117.35,0,0,1,182,282a118.85,118.85,0,0,1-43.54-47.83l.45.28L114,234.22l-12.46-.12Z"/><path class="cls-8" d="M392.51,113.31l-15.25.2-15.24.17c-5.08,0-10.16.12-15.24.14l-15.24.1h-.29l-.19-.24a109.55,109.55,0,0,0-111-39.36l-.76.16-.75.2-1.49.41-3,.8-.75.21c-.25.07-.49.16-.74.24l-1.47.49-3,1c-1,.3-1.94.72-2.91,1.09l-2.88,1.15-.73.28-.7.32-1.41.66-2.82,1.3a110.51,110.51,0,0,0-38.34,31.08l-.19.24h-.3l-15.44-.1c-5.15,0-10.3-.09-15.45-.15l-15.44-.16-15.44-.21,15.44-.2,15.44-.17c5.15,0,10.3-.12,15.45-.14l15.44-.11-.49.24a111.7,111.7,0,0,1,17.41-18.17,109.55,109.55,0,0,1,139.8,0A110.54,110.54,0,0,1,332,112.94l-.49-.24,15.24.1c5.08,0,10.16.1,15.24.15l15.24.16Z"/><rect class="cls-6" x="86.57" y="133.1" width="41.72" height="1.31"/><rect class="cls-6" x="85.17" y="141.51" width="39.15" height="1.55"/><rect class="cls-6" x="83.55" y="149.47" width="39.15" height="1.55"/><rect class="cls-6" x="81.33" y="157.44" width="39.15" height="1.55"/><rect class="cls-6" x="80.31" y="165.4" width="39.15" height="1.55"/><rect class="cls-6" x="79.71" y="172.27" width="39.15" height="1.55"/><rect class="cls-6" x="79.71" y="179.15" width="39.15" height="1.55"/><rect class="cls-6" x="79.71" y="186.26" width="39.15" height="1.55"/><rect class="cls-6" x="79.71" y="193.36" width="39.15" height="1.55"/><rect class="cls-6" x="80.31" y="199.98" width="39.15" height="1.55"/><rect class="cls-6" x="81.47" y="206.93" width="39.15" height="1.55"/><rect class="cls-6" x="82.87" y="213.88" width="39.15" height="1.55"/><rect class="cls-6" x="84.57" y="220.71" width="39.15" height="1.55"/><rect class="cls-6" x="85.17" y="227.2" width="43.11" height="1.31"/><rect class="cls-6" x="361.86" y="133.1" width="42.18" height="1.31"/><rect class="cls-6" x="365.84" y="141.51" width="39.91" height="1.55"/><rect class="cls-6" x="368.22" y="149.47" width="39.15" height="1.55"/><rect class="cls-6" x="370.44" y="157.44" width="39.15" height="1.55"/><rect class="cls-6" x="371.46" y="165.4" width="39.15" height="1.55"/><rect class="cls-6" x="372.06" y="172.27" width="39.15" height="1.55"/><rect class="cls-6" x="372.06" y="179.15" width="39.15" height="1.55"/><rect class="cls-6" x="372.06" y="186.26" width="39.15" height="1.55"/><rect class="cls-6" x="372.06" y="193.36" width="39.15" height="1.55"/><rect class="cls-6" x="370.69" y="199.98" width="39.15" height="1.55"/><rect class="cls-6" x="369.53" y="206.93" width="39.15" height="1.55"/><rect class="cls-6" x="368.12" y="213.88" width="39.15" height="1.55"/><rect class="cls-6" x="366.04" y="220.71" width="40.6" height="1.55"/><rect class="cls-6" x="363.61" y="227.2" width="42.05" height="1.55"/><path class="cls-8" d="M245.31,335.06A152.81,152.81,0,0,1,161.1,54.75V40.93h2.32V56l-.52.35a150.47,150.47,0,1,0,166.71,1.26l-.5-.35V41.42l2.32,1.37V56a152.78,152.78,0,0,1-86.12,279Z"/><path class="cls-8" d="M245.31,327.28A145.06,145.06,0,0,1,120.13,109a145.93,145.93,0,0,1,51.56-51.7V35.65l2.32-1v24l-.57.34a142.66,142.66,0,0,0-70.83,123.3,142.7,142.7,0,1,0,266.49-71,143.69,143.69,0,0,0-49.8-51l-.56-.34V35.59l2.32.79v22.2a145,145,0,0,1,69.27,123.68,144.88,144.88,0,0,1-145,145Z"/><path class="cls-8" d="M245.31,318.73a136.49,136.49,0,0,1-116-208.34,137.11,137.11,0,0,1,52.66-49V31.09l2.32-1.26v33l-.63.33a134.16,134.16,0,0,0,61.68,253.3,134.16,134.16,0,0,0,63.94-252.1l-.61-.33V31.86H311V62.6a136.46,136.46,0,0,1-65.65,256.13Z"/><path class="cls-8" d="M245.31,310A127.76,127.76,0,0,1,191.5,66.38V27.44l2.32-.84V67.87l-.67.31a125.41,125.41,0,1,0,104.32,0l-.68-.31V26.53l2.32.7V66.38A127.75,127.75,0,0,1,245.31,310Z"/><g class="cls-9"><path class="cls-10" d="M281.24,212.87h-8.13a.3.3,0,0,1-.29-.3v-8.13a.31.31,0,0,0-.3-.3h-1.46a.31.31,0,0,0-.3.3v8.13a.3.3,0,0,1-.29.3h-8.13a.29.29,0,0,0-.3.29v1.46a.29.29,0,0,0,.3.3h8.13a.29.29,0,0,1,.29.3v8.12a.3.3,0,0,0,.3.3h1.46a.3.3,0,0,0,.3-.3v-8.12a.29.29,0,0,1,.29-.3h8.13a.3.3,0,0,0,.3-.3v-1.46A.3.3,0,0,0,281.24,212.87Z"/><path class="cls-11" d="M276.23,207.38h-1.64l.93-.92a1.79,1.79,0,0,0,.64-1.2,1,1,0,0,0-.33-.8,1.16,1.16,0,0,0-.79-.3,1.27,1.27,0,0,0-.67.18,1.3,1.3,0,0,0-.48.53l.41.24a.78.78,0,0,1,.74-.49.69.69,0,0,1,.46.17.65.65,0,0,1,.18.48,1.41,1.41,0,0,1-.51.88l-1.28,1.3v.39h2.34Z"/></g><g class="cls-9"><path class="cls-10" d="M224.76,254.23h-8a.29.29,0,0,1-.3-.29v-8.06a.29.29,0,0,0-.29-.29h-1.45a.29.29,0,0,0-.29.29v8.06a.3.3,0,0,1-.3.29H206a.29.29,0,0,0-.3.29V256a.29.29,0,0,0,.3.3h8.05a.3.3,0,0,1,.3.29v8.06a.29.29,0,0,0,.29.29h1.45a.29.29,0,0,0,.29-.29v-8.06a.29.29,0,0,1,.3-.29h8a.29.29,0,0,0,.3-.3v-1.45A.29.29,0,0,0,224.76,254.23Z"/><path class="cls-11" d="M219.8,248.79h-1.62l.91-.91a1.77,1.77,0,0,0,.64-1.18,1,1,0,0,0-.33-.8,1.16,1.16,0,0,0-.79-.3,1.26,1.26,0,0,0-.66.18,1.16,1.16,0,0,0-.47.53l.4.23a.77.77,0,0,1,.74-.48.64.64,0,0,1,.45.17.61.61,0,0,1,.18.47,1.42,1.42,0,0,1-.5.87l-1.27,1.29v.39h2.32Z"/></g><g class="cls-9"><path class="cls-10" d="M193.86,207.33h-5.78a.21.21,0,0,1-.21-.21v-5.79a.22.22,0,0,0-.22-.21h-1a.22.22,0,0,0-.21.21v5.79a.21.21,0,0,1-.21.21h-5.78a.21.21,0,0,0-.22.21v1a.21.21,0,0,0,.22.21h5.78a.21.21,0,0,1,.21.21v5.79a.21.21,0,0,0,.21.21h1a.21.21,0,0,0,.22-.21V209a.21.21,0,0,1,.21-.21h5.78a.21.21,0,0,0,.21-.21v-1A.21.21,0,0,0,193.86,207.33Z"/><path class="cls-11" d="M190.29,203.42h-1.16l.66-.65a1.32,1.32,0,0,0,.46-.85.75.75,0,0,0-.24-.58.83.83,0,0,0-.56-.21.86.86,0,0,0-.48.13.9.9,0,0,0-.34.38l.29.17a.56.56,0,0,1,.53-.35.45.45,0,0,1,.32.12.44.44,0,0,1,.13.34,1,1,0,0,1-.36.63l-.91.92v.28h1.66Z"/></g><g class="cls-9"><path class="cls-10" d="M185.4,124.68H180a.2.2,0,0,1-.2-.19v-5.38a.19.19,0,0,0-.2-.19h-1a.19.19,0,0,0-.2.19v5.38a.2.2,0,0,1-.19.19H172.9a.19.19,0,0,0-.19.2v1a.19.19,0,0,0,.19.2h5.38a.2.2,0,0,1,.19.2v5.37a.2.2,0,0,0,.2.2h1a.2.2,0,0,0,.2-.2v-5.37a.2.2,0,0,1,.2-.2h5.37a.2.2,0,0,0,.2-.2v-1A.2.2,0,0,0,185.4,124.68Z"/><path class="cls-11" d="M182.09,121.05H181l.61-.61a1.17,1.17,0,0,0,.42-.78.67.67,0,0,0-.22-.54.77.77,0,0,0-.52-.2.83.83,0,0,0-.44.12.81.81,0,0,0-.32.36l.27.15a.52.52,0,0,1,.49-.32.44.44,0,0,1,.3.11.43.43,0,0,1,.13.32,1,1,0,0,1-.34.58l-.85.86v.26h1.55Z"/></g><g class="cls-9"><path class="cls-10" d="M189.27,244.92h-5.38a.2.2,0,0,1-.19-.2v-5.37a.2.2,0,0,0-.2-.2h-1a.2.2,0,0,0-.2.2v5.37a.2.2,0,0,1-.2.2h-5.37a.2.2,0,0,0-.2.2v1a.2.2,0,0,0,.2.2h5.37a.2.2,0,0,1,.2.19v5.38a.19.19,0,0,0,.2.19h1a.19.19,0,0,0,.2-.19v-5.38a.2.2,0,0,1,.19-.19h5.38a.19.19,0,0,0,.19-.2v-1A.19.19,0,0,0,189.27,244.92Z"/><path class="cls-11" d="M186,241.29h-1.08l.61-.61a1.15,1.15,0,0,0,.43-.79.7.7,0,0,0-.22-.53.79.79,0,0,0-.53-.2.86.86,0,0,0-.44.12.81.81,0,0,0-.31.35l.27.16a.51.51,0,0,1,.49-.32.44.44,0,0,1,.3.11.42.42,0,0,1,.12.32.92.92,0,0,1-.34.58l-.84.86v.26H186Z"/></g><g class="cls-9"><path class="cls-10" d="M226.25,103.33H217a.34.34,0,0,1-.34-.34V93.72a.34.34,0,0,0-.34-.34h-1.67a.34.34,0,0,0-.34.34V103a.34.34,0,0,1-.33.34H204.7a.34.34,0,0,0-.34.34v1.66a.34.34,0,0,0,.34.34H214a.34.34,0,0,1,.33.34v9.27a.35.35,0,0,0,.34.34h1.67a.34.34,0,0,0,.34-.34V106a.34.34,0,0,1,.34-.34h9.26a.34.34,0,0,0,.34-.34v-1.66A.34.34,0,0,0,226.25,103.33Z"/><path class="cls-11" d="M220.54,97.07h-1.87l1.06-1a2,2,0,0,0,.73-1.36,1.18,1.18,0,0,0-.38-.92,1.31,1.31,0,0,0-.9-.34,1.49,1.49,0,0,0-.76.2,1.4,1.4,0,0,0-.54.61l.46.27a.87.87,0,0,1,.84-.55.73.73,0,0,1,.52.19.7.7,0,0,1,.21.54,1.6,1.6,0,0,1-.58,1l-1.45,1.48v.45h2.66Z"/></g><g class="cls-9"><path class="cls-10" d="M229.87,213.55H221a.33.33,0,0,1-.33-.33v-8.91a.33.33,0,0,0-.32-.33H218.7a.32.32,0,0,0-.32.33v8.91a.33.33,0,0,1-.33.33h-8.91a.32.32,0,0,0-.33.32v1.6a.33.33,0,0,0,.33.33h8.91a.32.32,0,0,1,.33.32V225a.32.32,0,0,0,.32.32h1.61a.32.32,0,0,0,.32-.32v-8.92a.32.32,0,0,1,.33-.32h8.91a.33.33,0,0,0,.33-.33v-1.6A.32.32,0,0,0,229.87,213.55Z"/><path class="cls-11" d="M224.37,207.52h-1.79l1-1a2,2,0,0,0,.71-1.31,1.13,1.13,0,0,0-.37-.89,1.28,1.28,0,0,0-.87-.32,1.32,1.32,0,0,0-1.25.78l.44.26a.85.85,0,0,1,.82-.53.73.73,0,0,1,.5.18.7.7,0,0,1,.2.52,1.53,1.53,0,0,1-.56,1l-1.4,1.42V208h2.56Z"/></g><g class="cls-9"><path class="cls-10" d="M222.25,149.24h-9a.33.33,0,0,1-.33-.33v-9a.32.32,0,0,0-.32-.33H211a.33.33,0,0,0-.33.33v9a.33.33,0,0,1-.33.33h-9a.33.33,0,0,0-.33.33v1.62a.33.33,0,0,0,.33.33h9a.32.32,0,0,1,.33.32v9a.33.33,0,0,0,.33.33h1.62a.32.32,0,0,0,.32-.33v-9a.32.32,0,0,1,.33-.32h9a.33.33,0,0,0,.33-.33v-1.62A.33.33,0,0,0,222.25,149.24Z"/><path class="cls-11" d="M216.69,143.15h-1.81l1-1a2,2,0,0,0,.71-1.32,1.13,1.13,0,0,0-.37-.9,1.28,1.28,0,0,0-.87-.33,1.48,1.48,0,0,0-.75.2,1.37,1.37,0,0,0-.52.59l.45.26a.86.86,0,0,1,.82-.53.76.76,0,0,1,.51.18.72.72,0,0,1,.2.53,1.57,1.57,0,0,1-.57,1l-1.41,1.44v.43h2.59Z"/></g><g class="cls-9"><path class="cls-10" d="M290.78,153h-9.27a.34.34,0,0,1-.34-.34v-9.27a.34.34,0,0,0-.34-.34h-1.67a.34.34,0,0,0-.34.34v9.27a.34.34,0,0,1-.34.34h-9.27a.34.34,0,0,0-.34.34V155a.34.34,0,0,0,.34.34h9.27a.34.34,0,0,1,.34.34V165a.34.34,0,0,0,.34.34h1.67a.34.34,0,0,0,.34-.34v-9.27a.34.34,0,0,1,.34-.34h9.27a.34.34,0,0,0,.34-.34v-1.67A.34.34,0,0,0,290.78,153Z"/><path class="cls-11" d="M285.06,146.77H283.2l1.05-1.05a2.07,2.07,0,0,0,.74-1.36,1.16,1.16,0,0,0-.39-.92,1.28,1.28,0,0,0-.9-.34,1.42,1.42,0,0,0-.76.2,1.4,1.4,0,0,0-.54.61l.46.27a.87.87,0,0,1,.85-.55.76.76,0,0,1,.52.19.7.7,0,0,1,.21.54,1.58,1.58,0,0,1-.59,1l-1.45,1.49v.45h2.66Z"/></g><g class="cls-9"><path class="cls-10" d="M309.45,243.06h-7.82a.28.28,0,0,1-.29-.28V235a.29.29,0,0,0-.29-.29h-1.4a.29.29,0,0,0-.29.29v7.82a.28.28,0,0,1-.28.28h-7.83a.29.29,0,0,0-.28.29v1.41a.29.29,0,0,0,.28.28h7.83a.29.29,0,0,1,.28.29v7.82a.28.28,0,0,0,.29.28h1.4a.28.28,0,0,0,.29-.28v-7.82a.29.29,0,0,1,.29-.29h7.82a.29.29,0,0,0,.28-.28v-1.41A.29.29,0,0,0,309.45,243.06Z"/><path class="cls-11" d="M304.62,237.78h-1.57l.89-.88a1.76,1.76,0,0,0,.62-1.15,1,1,0,0,0-.32-.78,1.13,1.13,0,0,0-.76-.29,1.22,1.22,0,0,0-.65.18,1.13,1.13,0,0,0-.45.51l.38.23a.76.76,0,0,1,.72-.47.64.64,0,0,1,.44.17.57.57,0,0,1,.18.45,1.36,1.36,0,0,1-.5.85l-1.22,1.25v.38h2.24Z"/></g><g class="cls-12"><path class="cls-10" d="M334.78,227.87h-3.89a.15.15,0,0,1-.15-.14v-3.89a.15.15,0,0,0-.14-.15h-.7a.15.15,0,0,0-.14.15v3.89a.14.14,0,0,1-.14.14h-3.89a.14.14,0,0,0-.14.14v.7a.14.14,0,0,0,.14.14h3.89a.14.14,0,0,1,.14.14v3.89a.15.15,0,0,0,.14.15h.7a.15.15,0,0,0,.14-.15V229a.15.15,0,0,1,.15-.14h3.89a.14.14,0,0,0,.14-.14V228A.14.14,0,0,0,334.78,227.87Z"/><path class="cls-11" d="M332.38,225.24h-.79l.45-.44a.88.88,0,0,0,.31-.57.51.51,0,0,0-.17-.39.55.55,0,0,0-.37-.14.57.57,0,0,0-.32.09.51.51,0,0,0-.23.25l.19.12a.38.38,0,0,1,.36-.24.35.35,0,0,1,.22.08.32.32,0,0,1,.09.23.68.68,0,0,1-.25.42l-.61.63v.18h1.12Z"/></g><g class="cls-12"><path class="cls-10" d="M351.57,206.63h-3.9a.14.14,0,0,1-.14-.14V202.6a.15.15,0,0,0-.14-.15h-.7a.15.15,0,0,0-.14.15v3.89a.14.14,0,0,1-.14.14h-3.89a.15.15,0,0,0-.15.14v.7a.15.15,0,0,0,.15.14h3.89a.14.14,0,0,1,.14.14v3.9a.14.14,0,0,0,.14.14h.7a.14.14,0,0,0,.14-.14v-3.9a.15.15,0,0,1,.14-.14h3.9a.14.14,0,0,0,.14-.14v-.7A.14.14,0,0,0,351.57,206.63Z"/><path class="cls-11" d="M349.17,204h-.79l.45-.44a.84.84,0,0,0,.3-.57.5.5,0,0,0-.16-.39.55.55,0,0,0-.37-.14.63.63,0,0,0-.33.09.6.6,0,0,0-.22.25l.19.12a.38.38,0,0,1,.36-.24.29.29,0,0,1,.3.31.66.66,0,0,1-.24.42l-.61.63v.18h1.12Z"/></g><g class="cls-12"><path class="cls-10" d="M169,225.36h-6a.22.22,0,0,1-.22-.22v-6a.22.22,0,0,0-.22-.22h-1.08a.22.22,0,0,0-.22.22v6a.22.22,0,0,1-.22.22h-6a.22.22,0,0,0-.22.22v1.08a.22.22,0,0,0,.22.22h6a.22.22,0,0,1,.22.22v6a.21.21,0,0,0,.22.22h1.08a.22.22,0,0,0,.22-.22v-6a.22.22,0,0,1,.22-.22h6a.22.22,0,0,0,.22-.22v-1.08A.22.22,0,0,0,169,225.36Z"/><path class="cls-11" d="M165.3,221.29h-1.21l.68-.68a1.33,1.33,0,0,0,.48-.88.76.76,0,0,0-.25-.6.82.82,0,0,0-.58-.22,1.06,1.06,0,0,0-.5.13,1,1,0,0,0-.35.4l.3.17a.57.57,0,0,1,.55-.35.49.49,0,0,1,.34.12.47.47,0,0,1,.14.35,1,1,0,0,1-.38.65l-1,1v.29h1.73Z"/></g><g class="cls-12"><path class="cls-10" d="M279.18,255.67h-6.36a.23.23,0,0,1-.23-.23v-6.35a.23.23,0,0,0-.23-.23h-1.14a.23.23,0,0,0-.23.23v6.35a.23.23,0,0,1-.24.23H264.4a.23.23,0,0,0-.23.24v1.14a.23.23,0,0,0,.23.23h6.35a.23.23,0,0,1,.24.23v6.35a.23.23,0,0,0,.23.24h1.14a.23.23,0,0,0,.23-.24v-6.35a.23.23,0,0,1,.23-.23h6.36a.23.23,0,0,0,.23-.23v-1.14A.23.23,0,0,0,279.18,255.67Z"/><path class="cls-11" d="M275.26,251.38H274l.72-.72a1.37,1.37,0,0,0,.51-.93.8.8,0,0,0-.27-.63.91.91,0,0,0-.61-.23,1,1,0,0,0-.9.55l.32.19a.6.6,0,0,1,.58-.38.57.57,0,0,1,.36.13.52.52,0,0,1,.14.38,1.05,1.05,0,0,1-.4.68l-1,1v.31h1.83Z"/></g><g class="cls-12"><path class="cls-10" d="M316,211.39h-5.38a.2.2,0,0,1-.2-.2v-5.38a.2.2,0,0,0-.19-.2h-1a.2.2,0,0,0-.2.2v5.38a.2.2,0,0,1-.19.2h-5.38a.2.2,0,0,0-.2.19v1a.2.2,0,0,0,.2.2h5.38a.2.2,0,0,1,.19.19v5.39a.2.2,0,0,0,.2.19h1a.2.2,0,0,0,.19-.19v-5.39a.2.2,0,0,1,.2-.19H316a.2.2,0,0,0,.2-.2v-1A.2.2,0,0,0,316,211.39Z"/><path class="cls-11" d="M312.67,207.75h-1.08l.61-.61a1.15,1.15,0,0,0,.43-.79.7.7,0,0,0-.22-.53.79.79,0,0,0-.53-.2.83.83,0,0,0-.44.12.81.81,0,0,0-.31.35l.26.16a.53.53,0,0,1,.5-.32.48.48,0,0,1,.3.11.42.42,0,0,1,.12.32.92.92,0,0,1-.34.58l-.84.86v.26h1.54Z"/></g><g class="cls-12"><path class="cls-10" d="M144.21,196h-6.07a.22.22,0,0,1-.22-.22v-6.07a.22.22,0,0,0-.22-.22h-1.09a.22.22,0,0,0-.23.22v6.07a.22.22,0,0,1-.22.22h-6.07a.22.22,0,0,0-.22.22v1.09a.22.22,0,0,0,.22.22h6.07a.22.22,0,0,1,.22.23v6.06a.23.23,0,0,0,.23.23h1.09a.22.22,0,0,0,.22-.23v-6.06a.22.22,0,0,1,.22-.23h6.07a.22.22,0,0,0,.22-.22v-1.09A.22.22,0,0,0,144.21,196Z"/><path class="cls-11" d="M140.46,191.85h-1.22l.69-.68a1.36,1.36,0,0,0,.48-.89.76.76,0,0,0-.25-.61.83.83,0,0,0-.59-.22.89.89,0,0,0-.85.53l.3.18a.58.58,0,0,1,.56-.36.52.52,0,0,1,.34.12.49.49,0,0,1,.14.36,1,1,0,0,1-.39.65l-.95,1v.29h1.74Z"/></g><g class="cls-12"><path class="cls-10" d="M181.26,158.38h-6.19a.23.23,0,0,1-.23-.23V152a.22.22,0,0,0-.22-.23h-1.11a.23.23,0,0,0-.23.23v6.18a.23.23,0,0,1-.23.23h-6.18a.22.22,0,0,0-.23.22v1.12a.22.22,0,0,0,.23.22h6.18a.23.23,0,0,1,.23.23v6.19a.22.22,0,0,0,.23.22h1.11a.22.22,0,0,0,.22-.22v-6.19a.23.23,0,0,1,.23-.23h6.19a.22.22,0,0,0,.22-.22V158.6A.22.22,0,0,0,181.26,158.38Z"/><path class="cls-11" d="M177.44,154.2H176.2l.7-.7a1.36,1.36,0,0,0,.49-.91.76.76,0,0,0-.25-.61.91.91,0,0,0-.61-.23,1,1,0,0,0-.51.14.94.94,0,0,0-.36.4l.31.18a.61.61,0,0,1,.57-.37.51.51,0,0,1,.34.13.47.47,0,0,1,.15.37,1.07,1.07,0,0,1-.39.66l-1,1v.3h1.78Z"/></g><g class="cls-12"><path class="cls-10" d="M143,157.89H138.7a.15.15,0,0,1-.15-.15v-4.28a.16.16,0,0,0-.16-.16h-.77a.16.16,0,0,0-.16.16v4.28a.15.15,0,0,1-.15.15H133a.16.16,0,0,0-.16.16v.77a.16.16,0,0,0,.16.16h4.28a.15.15,0,0,1,.15.15v4.28a.16.16,0,0,0,.16.16h.77a.16.16,0,0,0,.16-.16v-4.28a.15.15,0,0,1,.15-.15H143a.16.16,0,0,0,.16-.16v-.77A.16.16,0,0,0,143,157.89Z"/><path class="cls-11" d="M140.34,155h-.86l.49-.48a1,1,0,0,0,.34-.63.52.52,0,0,0-.18-.42.6.6,0,0,0-.42-.16.64.64,0,0,0-.35.1.63.63,0,0,0-.25.28l.22.12a.4.4,0,0,1,.39-.25.41.41,0,0,1,.24.08.35.35,0,0,1,.09.25.75.75,0,0,1-.27.47l-.67.68v.21h1.23Z"/></g><g class="cls-12"><path class="cls-10" d="M358.15,177.8h-4.27a.16.16,0,0,1-.16-.15v-4.28a.16.16,0,0,0-.16-.16h-.76a.16.16,0,0,0-.16.16v4.28a.16.16,0,0,1-.16.15H348.2a.16.16,0,0,0-.15.16v.77a.16.16,0,0,0,.15.16h4.28a.16.16,0,0,1,.16.15v4.28a.16.16,0,0,0,.16.16h.76a.16.16,0,0,0,.16-.16V179a.16.16,0,0,1,.16-.15h4.27a.16.16,0,0,0,.16-.16V178A.16.16,0,0,0,358.15,177.8Z"/><path class="cls-11" d="M355.52,174.92h-.86l.48-.49a.93.93,0,0,0,.34-.63.53.53,0,0,0-.18-.42.56.56,0,0,0-.41-.16.6.6,0,0,0-.35.1.57.57,0,0,0-.25.28l.21.12a.4.4,0,0,1,.39-.25.32.32,0,0,1,.24.09.3.3,0,0,1,.1.25.75.75,0,0,1-.27.46l-.67.68v.21h1.23Z"/></g><g class="cls-12"><path class="cls-10" d="M349.6,143.55h-6.21a.22.22,0,0,1-.23-.22v-6.22a.23.23,0,0,0-.23-.23h-1.11a.23.23,0,0,0-.23.23v6.22a.22.22,0,0,1-.23.22h-6.21a.23.23,0,0,0-.23.23v1.12a.22.22,0,0,0,.23.22h6.21a.23.23,0,0,1,.23.23v6.22a.23.23,0,0,0,.23.23h1.11a.23.23,0,0,0,.23-.23v-6.22a.23.23,0,0,1,.23-.23h6.21a.22.22,0,0,0,.23-.22v-1.12A.23.23,0,0,0,349.6,143.55Z"/><path class="cls-11" d="M345.77,139.35h-1.25l.71-.7a1.4,1.4,0,0,0,.49-.91.81.81,0,0,0-.26-.62.88.88,0,0,0-.6-.23,1,1,0,0,0-.51.14.93.93,0,0,0-.37.41l.31.18a.59.59,0,0,1,.57-.37.46.46,0,0,1,.49.49,1.06,1.06,0,0,1-.39.67l-1,1v.3h1.79Z"/></g><g class="cls-12"><path class="cls-10" d="M163.79,137.74h-6.21a.23.23,0,0,1-.23-.23v-6.22a.22.22,0,0,0-.23-.22H156a.22.22,0,0,0-.22.22v6.22a.23.23,0,0,1-.23.23h-6.22a.22.22,0,0,0-.22.22v1.12a.22.22,0,0,0,.22.23h6.22a.23.23,0,0,1,.23.23v6.21a.22.22,0,0,0,.22.23h1.12a.23.23,0,0,0,.23-.23v-6.21a.23.23,0,0,1,.23-.23h6.21a.23.23,0,0,0,.23-.23V138A.22.22,0,0,0,163.79,137.74Z"/><path class="cls-11" d="M160,133.54h-1.25l.7-.7a1.4,1.4,0,0,0,.5-.92.77.77,0,0,0-.26-.61.84.84,0,0,0-.6-.23.91.91,0,0,0-.88.54l.31.18a.61.61,0,0,1,.57-.37.54.54,0,0,1,.35.13.5.5,0,0,1,.14.37,1.08,1.08,0,0,1-.39.67l-1,1v.3H160Z"/></g><g class="cls-12"><path class="cls-10" d="M325.8,157.23h-5.57a.2.2,0,0,1-.2-.2v-5.57a.2.2,0,0,0-.2-.2h-1a.2.2,0,0,0-.21.2V157a.2.2,0,0,1-.2.2h-5.57a.2.2,0,0,0-.2.2v1a.2.2,0,0,0,.2.21h5.57a.2.2,0,0,1,.2.2v5.56a.21.21,0,0,0,.21.21h1a.2.2,0,0,0,.2-.21v-5.56a.2.2,0,0,1,.2-.2h5.57a.2.2,0,0,0,.2-.21v-1A.2.2,0,0,0,325.8,157.23Z"/><path class="cls-11" d="M322.37,153.47h-1.12l.63-.63a1.22,1.22,0,0,0,.44-.81.72.72,0,0,0-.23-.56.8.8,0,0,0-.54-.2.9.9,0,0,0-.46.12.83.83,0,0,0-.32.37l.27.16a.54.54,0,0,1,.51-.33.47.47,0,0,1,.31.11.42.42,0,0,1,.13.33,1,1,0,0,1-.35.6l-.87.89v.27h1.6Z"/></g><g class="cls-12"><path class="cls-10" d="M320.53,123H314a.24.24,0,0,1-.24-.24v-6.56a.24.24,0,0,0-.24-.24h-1.18a.24.24,0,0,0-.24.24v6.56a.24.24,0,0,1-.24.24h-6.55a.24.24,0,0,0-.24.24v1.18a.24.24,0,0,0,.24.24h6.55a.23.23,0,0,1,.24.24v6.55a.24.24,0,0,0,.24.24h1.18a.24.24,0,0,0,.24-.24v-6.55a.24.24,0,0,1,.24-.24h6.56a.24.24,0,0,0,.24-.24v-1.18A.24.24,0,0,0,320.53,123Z"/><path class="cls-11" d="M316.48,118.59h-1.31l.74-.74a1.45,1.45,0,0,0,.52-1,.82.82,0,0,0-.27-.65.89.89,0,0,0-.64-.25,1,1,0,0,0-.92.58l.33.19a.62.62,0,0,1,.6-.39.48.48,0,0,1,.36.14.49.49,0,0,1,.15.38,1.15,1.15,0,0,1-.41.71l-1,1.05V119h1.88Z"/></g><path class="cls-8" d="M245.46,367.54c-101.33,0-183.77-82.44-183.77-183.77S144.13,0,245.46,0,429.23,82.44,429.23,183.77,346.79,367.54,245.46,367.54Zm0-354.84c-94.32,0-171.07,76.74-171.07,171.07s76.75,171.07,171.07,171.07S416.53,278.1,416.53,183.77,339.79,12.7,245.46,12.7Z"/><path class="cls-8" d="M245.46,358.37c-96.27,0-174.59-78.33-174.59-174.6S149.19,9.18,245.46,9.18s174.6,78.32,174.6,174.59S341.73,358.37,245.46,358.37Zm0-342.76C152.74,15.61,77.3,91,77.3,183.77s75.44,168.17,168.16,168.17S413.63,276.5,413.63,183.77,338.19,15.61,245.46,15.61Z"/><path class="cls-6" d="M245.46,353.14c-93.39,0-169.36-76-169.36-169.37s76-169.36,169.36-169.36,169.37,76,169.37,169.36S338.85,353.14,245.46,353.14Zm0-333.9c-90.72,0-164.53,73.81-164.53,164.53S154.74,348.3,245.46,348.3,410,274.49,410,183.77,336.18,19.24,245.46,19.24Z"/><path class="cls-13" d="M245.46,359.65c-97,0-175.87-78.9-175.87-175.88S148.48,7.89,245.46,7.89s175.88,78.9,175.88,175.88S342.44,359.65,245.46,359.65Zm0-348.58c-95.23,0-172.7,77.47-172.7,172.7s77.47,172.71,172.7,172.71S418.17,279,418.17,183.77,340.69,11.07,245.46,11.07Z"/><path class="cls-6" d="M335,174.11H258.55a2.8,2.8,0,0,1-2.8-2.8V94.84A2.79,2.79,0,0,0,253,92H239.22a2.8,2.8,0,0,0-2.8,2.8v76.47a2.79,2.79,0,0,1-2.79,2.8H157.15a2.79,2.79,0,0,0-2.79,2.79v13.74a2.79,2.79,0,0,0,2.79,2.8h76.48a2.79,2.79,0,0,1,2.79,2.79v76.48a2.79,2.79,0,0,0,2.8,2.79H253a2.79,2.79,0,0,0,2.79-2.79V196.23a2.79,2.79,0,0,1,2.8-2.79H335a2.8,2.8,0,0,0,2.8-2.8V176.9A2.79,2.79,0,0,0,335,174.11Z"/><path class="cls-8" d="M287.86,122.45H272.48l8.68-8.64q6.07-6.09,6.07-11.24A9.65,9.65,0,0,0,284.07,95a10.8,10.8,0,0,0-7.43-2.82,12.07,12.07,0,0,0-6.3,1.7,11.6,11.6,0,0,0-4.45,5l3.8,2.24a7.28,7.28,0,0,1,7-4.57,6.1,6.1,0,0,1,4.28,1.6,5.75,5.75,0,0,1,1.75,4.47q0,3.45-4.81,8.26l-12,12.25v3.7h22Z"/></g></g></g></svg>