<svg xmlns="http://www.w3.org/2000/svg" width="18.077" height="18.088" viewBox="0 0 18.077 18.088">
  <g id="Grupo_5445" data-name="Grupo 5445" transform="translate(-278.26 -894.286)">
    <g id="Grupo_5445-2" data-name="Grupo 5445" transform="translate(278.26 894.286)">
      <path id="Trazado_7925" data-name="Trazado 7925" d="M462.537,126.865c-.224,0-.449-.012-.673,0s-.447.04-.677.062c0-.015-.01-.037-.016-.059a4.154,4.154,0,0,0-.132-.447A3.509,3.509,0,0,0,460,125a3.432,3.432,0,0,0-4.762.417,3.376,3.376,0,0,0-.465,3.785,3.324,3.324,0,0,0,3.2,1.879,3.241,3.241,0,0,0,2.053-.787,3.37,3.37,0,0,0,.9-1.153,1.465,1.465,0,0,1,.066-.132.108.108,0,0,1,.055-.048c.194-.052.387-.112.584-.148a2.761,2.761,0,0,1,.8-.019l.037.006a4.777,4.777,0,1,1,.071-1.936Z" transform="translate(-453.057 -118.608)" fill="#fff"/>
      <path id="Trazado_7926" data-name="Trazado 7926" d="M490.773,97.737c0,.187.01.378,0,.568a2.811,2.811,0,0,1-.168.836.142.142,0,0,1-.068.074,3.43,3.43,0,0,0-1.9,2.083c-.01.028-.017.056-.026.087a3.424,3.424,0,0,0-.194-6.619,3.333,3.333,0,0,0-2.614.442,3.389,3.389,0,0,0-1.523,2.175,5.179,5.179,0,0,0-1.363-.06c.043-.181.073-.356.127-.525a5.568,5.568,0,0,1,.243-.664,4.779,4.779,0,0,1,6.993-2,4.776,4.776,0,0,1-.13,8.04.089.089,0,0,1-.1,0,4.932,4.932,0,0,0-1.6-.544.072.072,0,0,1-.071-.071,4.918,4.918,0,0,0-.544-1.6.085.085,0,0,1,0-.1,4.757,4.757,0,0,1,2.866-2.116l.044-.01A.171.171,0,0,1,490.773,97.737Z" transform="translate(-478.603 -93.315)" fill="#fff"/>
      <path id="Trazado_7927" data-name="Trazado 7927" d="M517.3,129.207c.139.042.272.082.4.125.017.006.032.032.041.052a3.2,3.2,0,0,0,.793,1.13,3.338,3.338,0,0,0,3.607.7,3.429,3.429,0,0,0,.306-6.249,3.269,3.269,0,0,0-.768-.28l-.064-.017a5.2,5.2,0,0,0,.061-1.358c.1.02.191.036.282.057a4.779,4.779,0,0,1,3.648,3.9,4.777,4.777,0,0,1-7.184,4.845,4.712,4.712,0,0,1-1.587-1.562.113.113,0,0,1,0-.132,4.9,4.9,0,0,0,.449-1.154Z" transform="translate(-507.595 -118.975)" fill="#fff"/>
      <path id="Trazado_7928" data-name="Trazado 7928" d="M483,190.512c.229,0,.454.01.679,0s.448-.04.676-.062a3.4,3.4,0,0,0,1.389,2.079,3.357,3.357,0,0,0,2,.618,3.434,3.434,0,0,0,3.322-2.7c.226.022.451.052.677.062s.45,0,.674,0a4.773,4.773,0,0,1-9.413,0Z" transform="translate(-478.673 -176.405)" fill="#fff"/>
      <path id="Trazado_7929" data-name="Trazado 7929" d="M492.792,155.991a2.787,2.787,0,0,1-.838-.013c-.191-.035-.38-.088-.568-.139a.14.14,0,0,1-.079-.072,3.426,3.426,0,0,0-4.156-1.912,3.379,3.379,0,0,0-2.144,1.916.119.119,0,0,1-.057.061,3.109,3.109,0,0,1-1.407.163.094.094,0,0,1-.017-.006,4.772,4.772,0,0,1,9.267,0Z" transform="translate(-479.119 -143.821)" fill="#fff"/>
      <path id="Trazado_7930" data-name="Trazado 7930" d="M483.49,134.2a3.014,3.014,0,0,1,.732,0,2.928,2.928,0,0,1,.688.159.125.125,0,0,1,.065.06,3.392,3.392,0,0,0,1.239,1.488c.15.1.311.184.467.274a.082.082,0,0,0,.024.008.145.145,0,0,1,.131.122,3.179,3.179,0,0,0,.109.337c-.19.06-.372.107-.544.175-.229.091-.452.2-.675.3a.11.11,0,0,1-.121-.006,4.791,4.791,0,0,1-2.092-2.821C483.505,134.265,483.5,134.236,483.49,134.2Z" transform="translate(-479.09 -128.266)" fill="#fff"/>
    </g>
  </g>
</svg>
