<svg id="Grupo_1749" data-name="Grupo 1749" xmlns="http://www.w3.org/2000/svg" width="42.54" height="33.087" viewBox="0 0 42.54 33.087">
  <g id="Grupo_1113" data-name="Grupo 1113" transform="translate(10.297)">
    <g id="Grupo_1111" data-name="Grupo 1111">
      <path id="Trazado_1100" data-name="Trazado 1100" d="M302.91.334V9.483a.334.334,0,0,0,.334.334h9.149a.334.334,0,0,1,.334.334V11.8a.334.334,0,0,1-.334.334h-9.149a.334.334,0,0,0-.334.334v9.149a.334.334,0,0,1-.334.334h-1.644a.334.334,0,0,1-.334-.334V12.464a.334.334,0,0,0-.334-.334h-9.149a.334.334,0,0,1-.334-.334V10.151a.334.334,0,0,1,.334-.334h9.149a.334.334,0,0,0,.334-.334V.334A.334.334,0,0,1,300.932,0h1.644A.334.334,0,0,1,302.91.334Z" transform="translate(-290.78)" fill="#c00"/>
    </g>
    <g id="Grupo_1112" data-name="Grupo 1112" transform="translate(13.536 0.028)">
      <path id="Trazado_1101" data-name="Trazado 1101" d="M673.05,5.221V4.748l1.535-1.566a1.682,1.682,0,0,0,.615-1.056.735.735,0,0,0-.224-.572.78.78,0,0,0-.547-.205.933.933,0,0,0-.895.584l-.484-.286a1.47,1.47,0,0,1,.569-.64,1.537,1.537,0,0,1,.8-.217,1.382,1.382,0,0,1,.951.36,1.235,1.235,0,0,1,.4.97A2.165,2.165,0,0,1,675,3.556l-1.109,1.106h1.966v.559H673.05Z" transform="translate(-673.05 -0.79)" fill="#0e2d4f"/>
    </g>
  </g>
  <g id="Grupo_1114" data-name="Grupo 1114" transform="translate(0 23.311)">
    <path id="Trazado_1102" data-name="Trazado 1102" d="M4.962,661.17v5.071H3.97v-3.289L2.54,665.3l-.116,0L1,662.965v3.276H0V661.17H1.029l1.454,2.394,1.447-2.394Z" transform="translate(0 -661.068)" fill="#0e2d4f"/>
    <path id="Trazado_1103" data-name="Trazado 1103" d="M172.579,666.241l-.323-.913h-2.083l-.3.913H168.79l1.775-5.071H171.8l1.789,5.071Zm-2.08-1.847h1.427l-.732-2.072Z" transform="translate(-162.813 -661.068)" fill="#0e2d4f"/>
    <path id="Trazado_1104" data-name="Trazado 1104" d="M324.632,663.574a2.265,2.265,0,0,1-1.268-.337,1.8,1.8,0,0,1-.725-.916l.855-.5a1.139,1.139,0,0,0,1.166.775,1,1,0,0,0,.616-.152.479.479,0,0,0-.044-.8,3.707,3.707,0,0,0-.855-.323,5.3,5.3,0,0,1-.576-.2,2.5,2.5,0,0,1-.471-.272,1.109,1.109,0,0,1-.359-.431,1.411,1.411,0,0,1-.123-.609,1.358,1.358,0,0,1,.489-1.1,1.775,1.775,0,0,1,1.177-.409,1.959,1.959,0,0,1,1.083.3,2.02,2.02,0,0,1,.728.837l-.84.485a1.013,1.013,0,0,0-.971-.652.765.765,0,0,0-.489.141.446.446,0,0,0-.177.366.462.462,0,0,0,.2.388,2.776,2.776,0,0,0,.764.322q.232.073.351.112t.326.123a1.965,1.965,0,0,1,.319.156,2.612,2.612,0,0,1,.257.2,1,1,0,0,1,.221.254,1.449,1.449,0,0,1,.184.717,1.361,1.361,0,0,1-.511,1.116A2.047,2.047,0,0,1,324.632,663.574Z" transform="translate(-311.215 -658.3)" fill="#0e2d4f"/>
    <path id="Trazado_1105" data-name="Trazado 1105" d="M465.2,661.17a2.311,2.311,0,0,1,1.742.732,2.677,2.677,0,0,1,0,3.608,2.31,2.31,0,0,1-1.742.732H463.19V661.17Zm0,4.115a1.405,1.405,0,0,0,1.072-.438,1.783,1.783,0,0,0,0-2.282,1.407,1.407,0,0,0-1.072-.438H464.19v3.159Z" transform="translate(-446.788 -661.068)" fill="#0e2d4f"/>
    <path id="Trazado_1106" data-name="Trazado 1106" d="M609.8,666.241l-.323-.913h-2.083l-.3.913H606.01l1.775-5.071h1.239l1.789,5.071Zm-2.08-1.847h1.427l-.732-2.072Z" transform="translate(-584.551 -661.068)" fill="#0e2d4f"/>
    <path id="Trazado_1107" data-name="Trazado 1107" d="M775.452,661.17v5.071h-.992v-3.289l-1.43,2.353-.116,0-1.424-2.344v3.276h-1V661.17h1.029l1.454,2.394,1.447-2.394Z" transform="translate(-743.207 -661.068)" fill="#0e2d4f"/>
    <path id="Trazado_1108" data-name="Trazado 1108" d="M943.079,666.241l-.322-.913h-2.083l-.3.913H939.29l1.775-5.071H942.3l1.789,5.071ZM941,664.394h1.427l-.732-2.072Z" transform="translate(-906.03 -661.068)" fill="#0e2d4f"/>
    <path id="Trazado_1109" data-name="Trazado 1109" d="M1095.122,663.574a2.265,2.265,0,0,1-1.268-.337,1.8,1.8,0,0,1-.724-.916l.855-.5a1.139,1.139,0,0,0,1.166.775,1,1,0,0,0,.616-.152.479.479,0,0,0-.044-.8,3.7,3.7,0,0,0-.855-.323,5.291,5.291,0,0,1-.576-.2,2.5,2.5,0,0,1-.471-.272,1.111,1.111,0,0,1-.359-.431,1.413,1.413,0,0,1-.123-.609,1.358,1.358,0,0,1,.489-1.1,1.776,1.776,0,0,1,1.177-.409,1.959,1.959,0,0,1,1.083.3,2.023,2.023,0,0,1,.728.837l-.84.485a1.013,1.013,0,0,0-.971-.652.765.765,0,0,0-.489.141.446.446,0,0,0-.177.366.461.461,0,0,0,.2.388,2.781,2.781,0,0,0,.764.322q.232.073.351.112t.326.123a1.973,1.973,0,0,1,.319.156,2.634,2.634,0,0,1,.257.2.989.989,0,0,1,.221.254,1.446,1.446,0,0,1,.185.717,1.361,1.361,0,0,1-.511,1.116A2.047,2.047,0,0,1,1095.122,663.574Z" transform="translate(-1054.422 -658.3)" fill="#0e2d4f"/>
  </g>
  <g id="Grupo_1115" data-name="Grupo 1115" transform="translate(6.879 29.111)">
    <path id="Trazado_1110" data-name="Trazado 1110" d="M194.723,848.926a.219.219,0,0,0,.126.194,1.355,1.355,0,0,0,.3.124l.351.1a.613.613,0,0,1,.3.194.541.541,0,0,1,.122.365.562.562,0,0,1-.225.466.907.907,0,0,1-.575.175,1,1,0,0,1-.534-.137.762.762,0,0,1-.316-.363l.32-.184a.452.452,0,0,0,.192.244.616.616,0,0,0,.338.09.589.589,0,0,0,.3-.071.238.238,0,0,0,.12-.22.224.224,0,0,0-.124-.2,1.317,1.317,0,0,0-.3-.127l-.351-.105a.652.652,0,0,1-.3-.19.5.5,0,0,1-.124-.351.569.569,0,0,1,.216-.458.817.817,0,0,1,.541-.179.91.91,0,0,1,.464.118.751.751,0,0,1,.306.327l-.312.175a.448.448,0,0,0-.457-.274.48.48,0,0,0-.269.073A.234.234,0,0,0,194.723,848.926Z" transform="translate(-194.27 -847.372)" fill="#ffc2c2"/>
    <path id="Trazado_1111" data-name="Trazado 1111" d="M263.742,849.87h.372v2.137h-.372V851.7a.761.761,0,0,1-.693.363.794.794,0,0,1-.6-.237.892.892,0,0,1-.227-.643V849.87h.372v1.291a.552.552,0,0,0,.141.4.521.521,0,0,0,.389.143.6.6,0,0,0,.449-.173.731.731,0,0,0,.171-.532Z" transform="translate(-259.814 -848.887)" fill="#ffc2c2"/>
    <path id="Trazado_1112" data-name="Trazado 1112" d="M344.818,848.3a.767.767,0,0,1,.581.233.877.877,0,0,1,.222.631v1.33h-.372v-1.317a.542.542,0,0,0-.128-.385.447.447,0,0,0-.342-.137.488.488,0,0,0-.383.161.716.716,0,0,0-.143.489v1.188h-.372v-1.317a.56.56,0,0,0-.122-.385.422.422,0,0,0-.331-.137.519.519,0,0,0-.391.163.678.678,0,0,0-.156.487v1.188h-.372v-2.137h.372v.287a.709.709,0,0,1,.637-.342.664.664,0,0,1,.629.363A.734.734,0,0,1,344.818,848.3Z" transform="translate(-337.261 -847.372)" fill="#ffc2c2"/>
    <path id="Trazado_1113" data-name="Trazado 1113" d="M454.379,848.346h.372v2.137h-.372v-.368a.907.907,0,0,1-.808.423,1.025,1.025,0,0,1-.765-.327,1.163,1.163,0,0,1,0-1.594,1.026,1.026,0,0,1,.765-.327.907.907,0,0,1,.808.423Zm-.761,1.834a.732.732,0,0,0,.543-.22.79.79,0,0,0,0-1.09.774.774,0,0,0-1.081,0,.79.79,0,0,0,0,1.09A.727.727,0,0,0,453.618,850.18Z" transform="translate(-443.346 -847.363)" fill="#ffc2c2"/>
    <path id="Trazado_1114" data-name="Trazado 1114" d="M579.884,833.937h-.569V835.1a.324.324,0,0,0,.062.224.255.255,0,0,0,.19.068q.128,0,.316-.006v.334a1.1,1.1,0,0,1-.714-.079.59.59,0,0,1-.227-.541v-1.159h-.423v-.359h.423v-.487l.372-.111v.6h.569v.359Z" transform="translate(-564.914 -832.595)" fill="#ffc2c2"/>
    <path id="Trazado_1115" data-name="Trazado 1115" d="M640.892,849.87h.372v2.137h-.372V851.7a.761.761,0,0,1-.693.363.794.794,0,0,1-.6-.237.892.892,0,0,1-.227-.643V849.87h.372v1.291a.552.552,0,0,0,.141.4.521.521,0,0,0,.389.143.6.6,0,0,0,.449-.173.731.731,0,0,0,.171-.532Z" transform="translate(-623.609 -848.887)" fill="#ffc2c2"/>
    <path id="Trazado_1116" data-name="Trazado 1116" d="M761.88,848.3a1.025,1.025,0,0,1,.765.327,1.163,1.163,0,0,1,0,1.594,1.026,1.026,0,0,1-.765.327.907.907,0,0,1-.808-.423v1.223H760.7v-2.993h.372v.368A.907.907,0,0,1,761.88,848.3Zm-.047,1.89a.727.727,0,0,0,.539-.22.79.79,0,0,0,0-1.09.774.774,0,0,0-1.081,0,.79.79,0,0,0,0,1.09A.732.732,0,0,0,761.833,850.189Z" transform="translate(-740.642 -847.372)" fill="#ffc2c2"/>
    <path id="Trazado_1117" data-name="Trazado 1117" d="M847.98,825.231V822.11h.372v3.121Z" transform="translate(-824.832 -822.11)" fill="#ffc2c2"/>
    <path id="Trazado_1118" data-name="Trazado 1118" d="M885.592,849.87h.372v2.137h-.372V851.7a.761.761,0,0,1-.693.363.794.794,0,0,1-.6-.237.893.893,0,0,1-.227-.643V849.87h.372v1.291a.552.552,0,0,0,.141.4.521.521,0,0,0,.389.143.6.6,0,0,0,.449-.173.73.73,0,0,0,.171-.532Z" transform="translate(-859.644 -848.887)" fill="#ffc2c2"/>
    <path id="Trazado_1119" data-name="Trazado 1119" d="M960.953,848.926a.22.22,0,0,0,.126.194,1.356,1.356,0,0,0,.3.124l.351.1a.614.614,0,0,1,.3.194.541.541,0,0,1,.122.365.561.561,0,0,1-.225.466.906.906,0,0,1-.575.175,1,1,0,0,1-.534-.137.762.762,0,0,1-.316-.363l.321-.184a.453.453,0,0,0,.192.244.617.617,0,0,0,.338.09.589.589,0,0,0,.3-.071.237.237,0,0,0,.12-.22.224.224,0,0,0-.124-.2,1.313,1.313,0,0,0-.3-.127l-.35-.105a.651.651,0,0,1-.3-.19.5.5,0,0,1-.124-.351.569.569,0,0,1,.216-.458.817.817,0,0,1,.541-.179.911.911,0,0,1,.464.118.752.752,0,0,1,.306.327l-.312.175a.448.448,0,0,0-.458-.274.478.478,0,0,0-.269.073A.234.234,0,0,0,960.953,848.926Z" transform="translate(-933.367 -847.372)" fill="#ffc2c2"/>
  </g>
  <g id="Grupo_1123" data-name="Grupo 1123" transform="translate(0 30.772)">
    <g id="Grupo_1116" data-name="Grupo 1116">
      <path id="Trazado_1120" data-name="Trazado 1120" d="M.839,869.373H.5v-.343a.03.03,0,0,0-.03-.03H.4a.03.03,0,0,0-.03.03v.343H.03a.03.03,0,0,0-.03.03v.062a.03.03,0,0,0,.03.03H.373v.343a.03.03,0,0,0,.03.03H.466a.03.03,0,0,0,.03-.03V869.5H.839a.03.03,0,0,0,.03-.03V869.4A.031.031,0,0,0,.839,869.373Z" transform="translate(0 -869)" fill="#b8d6e8"/>
      <path id="Trazado_1121" data-name="Trazado 1121" d="M35.059,869.373h-.343v-.343a.03.03,0,0,0-.03-.03h-.062a.03.03,0,0,0-.03.03v.343H34.25a.03.03,0,0,0-.03.03v.062a.03.03,0,0,0,.03.03h.343v.343a.03.03,0,0,0,.03.03h.062a.03.03,0,0,0,.03-.03V869.5h.343a.03.03,0,0,0,.03-.03V869.4A.03.03,0,0,0,35.059,869.373Z" transform="translate(-33.008 -869)" fill="#b8d6e8"/>
      <path id="Trazado_1122" data-name="Trazado 1122" d="M35.059,869.373h-.343v-.343a.03.03,0,0,0-.03-.03h-.062a.03.03,0,0,0-.03.03v.343H34.25a.03.03,0,0,0-.03.03v.062a.03.03,0,0,0,.03.03h.343v.343a.03.03,0,0,0,.03.03h.062a.03.03,0,0,0,.03-.03V869.5h.343a.03.03,0,0,0,.03-.03V869.4A.03.03,0,0,0,35.059,869.373Z" transform="translate(-33.008 -869)" fill="#b8d6e8"/>
      <path id="Trazado_1123" data-name="Trazado 1123" d="M69.289,869.373h-.343v-.343a.03.03,0,0,0-.03-.03h-.062a.03.03,0,0,0-.03.03v.343H68.48a.03.03,0,0,0-.03.03v.062a.03.03,0,0,0,.03.03h.343v.343a.03.03,0,0,0,.03.03h.062a.03.03,0,0,0,.03-.03V869.5h.343a.03.03,0,0,0,.03-.03V869.4A.03.03,0,0,0,69.289,869.373Z" transform="translate(-66.026 -869)" fill="#b8d6e8"/>
      <path id="Trazado_1124" data-name="Trazado 1124" d="M69.289,869.373h-.343v-.343a.03.03,0,0,0-.03-.03h-.062a.03.03,0,0,0-.03.03v.343H68.48a.03.03,0,0,0-.03.03v.062a.03.03,0,0,0,.03.03h.343v.343a.03.03,0,0,0,.03.03h.062a.03.03,0,0,0,.03-.03V869.5h.343a.03.03,0,0,0,.03-.03V869.4A.03.03,0,0,0,69.289,869.373Z" transform="translate(-66.026 -869)" fill="#b8d6e8"/>
      <path id="Trazado_1125" data-name="Trazado 1125" d="M103.519,869.373h-.343v-.343a.03.03,0,0,0-.03-.03h-.062a.03.03,0,0,0-.03.03v.343h-.343a.03.03,0,0,0-.03.03v.062a.03.03,0,0,0,.03.03h.343v.343a.03.03,0,0,0,.03.03h.062a.03.03,0,0,0,.03-.03V869.5h.343a.03.03,0,0,0,.03-.03V869.4A.03.03,0,0,0,103.519,869.373Z" transform="translate(-99.044 -869)" fill="#b8d6e8"/>
      <path id="Trazado_1126" data-name="Trazado 1126" d="M103.519,869.373h-.343v-.343a.03.03,0,0,0-.03-.03h-.062a.03.03,0,0,0-.03.03v.343h-.343a.03.03,0,0,0-.03.03v.062a.03.03,0,0,0,.03.03h.343v.343a.03.03,0,0,0,.03.03h.062a.03.03,0,0,0,.03-.03V869.5h.343a.03.03,0,0,0,.03-.03V869.4A.03.03,0,0,0,103.519,869.373Z" transform="translate(-99.044 -869)" fill="#b8d6e8"/>
      <path id="Trazado_1127" data-name="Trazado 1127" d="M137.749,869.373h-.343v-.343a.03.03,0,0,0-.03-.03h-.062a.03.03,0,0,0-.03.03v.343h-.343a.03.03,0,0,0-.03.03v.062a.03.03,0,0,0,.03.03h.343v.343a.03.03,0,0,0,.03.03h.062a.03.03,0,0,0,.03-.03V869.5h.343a.03.03,0,0,0,.03-.03V869.4A.03.03,0,0,0,137.749,869.373Z" transform="translate(-132.062 -869)" fill="#b8d6e8"/>
    </g>
    <g id="Grupo_1122" data-name="Grupo 1122" transform="translate(0.569 0)">
      <g id="Grupo_1117" data-name="Grupo 1117">
        <path id="Trazado_1128" data-name="Trazado 1128" d="M16.06,869.2v-.021l.067-.068a.072.072,0,0,0,.027-.046.032.032,0,0,0-.01-.025.034.034,0,0,0-.024-.009.04.04,0,0,0-.039.025l-.021-.012a.063.063,0,0,1,.025-.028.066.066,0,0,1,.035-.01.06.06,0,0,1,.041.016.053.053,0,0,1,.017.042.1.1,0,0,1-.034.062l-.048.048h.085v.024Z" transform="translate(-16.06 -869.01)" fill="#ffc2c2"/>
      </g>
      <g id="Grupo_1118" data-name="Grupo 1118" transform="translate(1.21)">
        <path id="Trazado_1129" data-name="Trazado 1129" d="M50.23,869.2v-.021l.067-.068a.072.072,0,0,0,.027-.046.032.032,0,0,0-.01-.025.034.034,0,0,0-.024-.009.04.04,0,0,0-.039.025l-.021-.012a.063.063,0,0,1,.025-.028.066.066,0,0,1,.035-.01.06.06,0,0,1,.041.016.053.053,0,0,1,.017.042.1.1,0,0,1-.034.062l-.048.048h.085v.024Z" transform="translate(-50.23 -869.01)" fill="#ffc2c2"/>
      </g>
      <g id="Grupo_1119" data-name="Grupo 1119" transform="translate(2.42)">
        <path id="Trazado_1130" data-name="Trazado 1130" d="M84.41,869.2v-.021l.067-.068a.072.072,0,0,0,.027-.046.032.032,0,0,0-.01-.025.034.034,0,0,0-.024-.009.04.04,0,0,0-.039.025l-.021-.012a.063.063,0,0,1,.025-.028.066.066,0,0,1,.035-.01.06.06,0,0,1,.041.016.053.053,0,0,1,.017.042.1.1,0,0,1-.034.062l-.048.048h.085v.024Z" transform="translate(-84.41 -869.01)" fill="#ffc2c2"/>
      </g>
      <g id="Grupo_1120" data-name="Grupo 1120" transform="translate(3.63)">
        <path id="Trazado_1131" data-name="Trazado 1131" d="M118.58,869.2v-.021l.067-.068a.072.072,0,0,0,.027-.046.032.032,0,0,0-.01-.025.034.034,0,0,0-.024-.009.04.04,0,0,0-.039.025l-.021-.012a.063.063,0,0,1,.025-.028.066.066,0,0,1,.035-.01.059.059,0,0,1,.041.016.053.053,0,0,1,.017.042.1.1,0,0,1-.034.062l-.048.048h.085v.024Z" transform="translate(-118.58 -869.01)" fill="#ffc2c2"/>
      </g>
      <g id="Grupo_1121" data-name="Grupo 1121" transform="translate(4.841)">
        <path id="Trazado_1132" data-name="Trazado 1132" d="M152.76,869.2v-.021l.067-.068a.072.072,0,0,0,.027-.046.032.032,0,0,0-.01-.025.034.034,0,0,0-.024-.009.04.04,0,0,0-.039.025l-.021-.012a.063.063,0,0,1,.025-.028.066.066,0,0,1,.035-.01.06.06,0,0,1,.041.016.053.053,0,0,1,.017.042.094.094,0,0,1-.034.062l-.048.048h.085v.024Z" transform="translate(-152.76 -869.01)" fill="#ffc2c2"/>
      </g>
    </g>
  </g>
  <g id="Grupo_1131" data-name="Grupo 1131" transform="translate(36.787 30.772)">
    <g id="Grupo_1124" data-name="Grupo 1124">
      <path id="Trazado_1133" data-name="Trazado 1133" d="M1039.729,869.373h-.343v-.343a.03.03,0,0,0-.03-.03h-.062a.03.03,0,0,0-.03.03v.343h-.343a.03.03,0,0,0-.03.03v.062a.03.03,0,0,0,.03.03h.343v.343a.03.03,0,0,0,.03.03h.063a.03.03,0,0,0,.03-.03V869.5h.343a.03.03,0,0,0,.03-.03V869.4A.03.03,0,0,0,1039.729,869.373Z" transform="translate(-1038.89 -869)" fill="#b8d6e8"/>
      <path id="Trazado_1134" data-name="Trazado 1134" d="M1073.959,869.373h-.343v-.343a.03.03,0,0,0-.03-.03h-.062a.03.03,0,0,0-.03.03v.343h-.343a.03.03,0,0,0-.03.03v.062a.03.03,0,0,0,.03.03h.343v.343a.03.03,0,0,0,.03.03h.062a.03.03,0,0,0,.03-.03V869.5h.343a.03.03,0,0,0,.03-.03V869.4A.03.03,0,0,0,1073.959,869.373Z" transform="translate(-1071.908 -869)" fill="#b8d6e8"/>
      <path id="Trazado_1135" data-name="Trazado 1135" d="M1073.959,869.373h-.343v-.343a.03.03,0,0,0-.03-.03h-.062a.03.03,0,0,0-.03.03v.343h-.343a.03.03,0,0,0-.03.03v.062a.03.03,0,0,0,.03.03h.343v.343a.03.03,0,0,0,.03.03h.062a.03.03,0,0,0,.03-.03V869.5h.343a.03.03,0,0,0,.03-.03V869.4A.03.03,0,0,0,1073.959,869.373Z" transform="translate(-1071.908 -869)" fill="#b8d6e8"/>
      <path id="Trazado_1136" data-name="Trazado 1136" d="M1108.189,869.373h-.343v-.343a.03.03,0,0,0-.03-.03h-.062a.03.03,0,0,0-.03.03v.343h-.343a.03.03,0,0,0-.03.03v.062a.03.03,0,0,0,.03.03h.343v.343a.03.03,0,0,0,.03.03h.062a.03.03,0,0,0,.03-.03V869.5h.343a.03.03,0,0,0,.03-.03V869.4A.03.03,0,0,0,1108.189,869.373Z" transform="translate(-1104.926 -869)" fill="#b8d6e8"/>
      <path id="Trazado_1137" data-name="Trazado 1137" d="M1108.189,869.373h-.343v-.343a.03.03,0,0,0-.03-.03h-.062a.03.03,0,0,0-.03.03v.343h-.343a.03.03,0,0,0-.03.03v.062a.03.03,0,0,0,.03.03h.343v.343a.03.03,0,0,0,.03.03h.062a.03.03,0,0,0,.03-.03V869.5h.343a.03.03,0,0,0,.03-.03V869.4A.03.03,0,0,0,1108.189,869.373Z" transform="translate(-1104.926 -869)" fill="#b8d6e8"/>
      <path id="Trazado_1138" data-name="Trazado 1138" d="M1142.429,869.373h-.343v-.343a.03.03,0,0,0-.03-.03h-.062a.03.03,0,0,0-.03.03v.343h-.343a.03.03,0,0,0-.03.03v.062a.03.03,0,0,0,.03.03h.343v.343a.03.03,0,0,0,.03.03h.062a.03.03,0,0,0,.03-.03V869.5h.343a.03.03,0,0,0,.03-.03V869.4A.03.03,0,0,0,1142.429,869.373Z" transform="translate(-1137.954 -869)" fill="#b8d6e8"/>
      <path id="Trazado_1139" data-name="Trazado 1139" d="M1142.429,869.373h-.343v-.343a.03.03,0,0,0-.03-.03h-.062a.03.03,0,0,0-.03.03v.343h-.343a.03.03,0,0,0-.03.03v.062a.03.03,0,0,0,.03.03h.343v.343a.03.03,0,0,0,.03.03h.062a.03.03,0,0,0,.03-.03V869.5h.343a.03.03,0,0,0,.03-.03V869.4A.03.03,0,0,0,1142.429,869.373Z" transform="translate(-1137.954 -869)" fill="#b8d6e8"/>
      <path id="Trazado_1140" data-name="Trazado 1140" d="M1176.659,869.373h-.343v-.343a.03.03,0,0,0-.03-.03h-.062a.03.03,0,0,0-.03.03v.343h-.343a.03.03,0,0,0-.03.03v.062a.03.03,0,0,0,.03.03h.343v.343a.03.03,0,0,0,.03.03h.063a.03.03,0,0,0,.03-.03V869.5h.343a.03.03,0,0,0,.03-.03V869.4A.031.031,0,0,0,1176.659,869.373Z" transform="translate(-1170.972 -869)" fill="#b8d6e8"/>
    </g>
    <g id="Grupo_1130" data-name="Grupo 1130" transform="translate(0.569 0)">
      <g id="Grupo_1125" data-name="Grupo 1125">
        <path id="Trazado_1141" data-name="Trazado 1141" d="M1054.96,869.2v-.021l.067-.068a.072.072,0,0,0,.026-.046.033.033,0,0,0-.01-.025.034.034,0,0,0-.024-.009.04.04,0,0,0-.039.025l-.021-.012a.063.063,0,0,1,.025-.028.066.066,0,0,1,.035-.01.06.06,0,0,1,.041.016.053.053,0,0,1,.017.042.094.094,0,0,1-.034.062l-.048.048h.085v.024Z" transform="translate(-1054.96 -869.01)" fill="#ffc2c2"/>
      </g>
      <g id="Grupo_1126" data-name="Grupo 1126" transform="translate(1.21)">
        <path id="Trazado_1142" data-name="Trazado 1142" d="M1089.14,869.2v-.021l.067-.068a.072.072,0,0,0,.027-.046.033.033,0,0,0-.01-.025.033.033,0,0,0-.024-.009.04.04,0,0,0-.039.025l-.021-.012a.063.063,0,0,1,.025-.028.066.066,0,0,1,.035-.01.059.059,0,0,1,.041.016.053.053,0,0,1,.017.042.1.1,0,0,1-.034.062l-.048.048h.085v.024Z" transform="translate(-1089.14 -869.01)" fill="#ffc2c2"/>
      </g>
      <g id="Grupo_1127" data-name="Grupo 1127" transform="translate(2.42)">
        <path id="Trazado_1143" data-name="Trazado 1143" d="M1123.31,869.2v-.021l.067-.068a.071.071,0,0,0,.027-.046.033.033,0,0,0-.01-.025.034.034,0,0,0-.024-.009.04.04,0,0,0-.039.025l-.021-.012a.064.064,0,0,1,.025-.028.066.066,0,0,1,.035-.01.06.06,0,0,1,.041.016.053.053,0,0,1,.017.042.094.094,0,0,1-.034.062l-.048.048h.085v.024Z" transform="translate(-1123.31 -869.01)" fill="#ffc2c2"/>
      </g>
      <g id="Grupo_1128" data-name="Grupo 1128" transform="translate(3.631)">
        <path id="Trazado_1144" data-name="Trazado 1144" d="M1157.49,869.2v-.021l.067-.068a.072.072,0,0,0,.027-.046.033.033,0,0,0-.01-.025.034.034,0,0,0-.024-.009.041.041,0,0,0-.039.025l-.021-.012a.064.064,0,0,1,.025-.028.066.066,0,0,1,.035-.01.06.06,0,0,1,.041.016.053.053,0,0,1,.017.042.094.094,0,0,1-.034.062l-.048.048h.085v.024Z" transform="translate(-1157.49 -869.01)" fill="#ffc2c2"/>
      </g>
      <g id="Grupo_1129" data-name="Grupo 1129" transform="translate(4.841)">
        <path id="Trazado_1145" data-name="Trazado 1145" d="M1191.66,869.2v-.021l.066-.068a.072.072,0,0,0,.027-.046.033.033,0,0,0-.01-.025.034.034,0,0,0-.024-.009.04.04,0,0,0-.038.025l-.021-.012a.061.061,0,0,1,.025-.028.066.066,0,0,1,.035-.01.059.059,0,0,1,.041.016.053.053,0,0,1,.018.042.1.1,0,0,1-.034.062l-.048.048h.085v.024Z" transform="translate(-1191.66 -869.01)" fill="#ffc2c2"/>
      </g>
    </g>
  </g>
</svg>
