<svg id="Grupo_3322" data-name="Grupo 3322" xmlns="http://www.w3.org/2000/svg" width="11.333" height="17" viewBox="0 0 11.333 17">
  <path id="Trazado_3697" data-name="Trazado 3697" d="M6.833,11.333A2.833,2.833,0,0,0,9.667,8.5V2.833A2.833,2.833,0,0,0,4,2.833V8.5A2.833,2.833,0,0,0,6.833,11.333Zm-1.417-8.5a1.417,1.417,0,0,1,2.833,0V8.5a1.417,1.417,0,0,1-2.833,0Z" transform="translate(-1.167)" fill="#0e2d4f"/>
  <path id="Trazado_3698" data-name="Trazado 3698" d="M10.625,9a.71.71,0,0,0-.708.708v1.417a4.25,4.25,0,1,1-8.5,0V9.708A.708.708,0,0,0,0,9.708v1.417a5.67,5.67,0,0,0,4.958,5.617v1.466H2.833a.708.708,0,0,0,0,1.417H8.5a.708.708,0,0,0,0-1.417H6.375V16.742a5.67,5.67,0,0,0,4.958-5.617V9.708A.71.71,0,0,0,10.625,9Z" transform="translate(0 -2.625)" fill="#0e2d4f"/>
</svg>
