<svg xmlns="http://www.w3.org/2000/svg" width="25.709" height="23" viewBox="0 0 25.709 23">
  <path id="_5115803551535797977" data-name="5115803551535797977" d="M34.024,30.614a15.024,15.024,0,0,0-1.387-5.364,15.033,15.033,0,0,0-3.068-4.615c-1.226-1.18-2.4-1.612-3.306-1.221l-.022.007-1.064.475V17.4s0-.007,0-.011c0-1.975-3.408-3.465-7.928-3.465s-7.913,1.484-7.927,3.453c0,0,0,.008,0,.012v4.464a.339.339,0,0,1,0,.138c0,.04,0,.08.006.119a.419.419,0,0,0-.006.064v4.464a.345.345,0,0,1,0,.139c0,.05,0,.1.008.149a.422.422,0,0,0-.008.08v4.464a.339.339,0,0,1,0,.138c0,1.975,3.409,3.464,7.929,3.464,2.871,0,5.488-.655,6.866-1.691,1.233,1.6,2.559,2.544,3.67,2.544a1.756,1.756,0,0,0,.723-.15l4.186-1.87.013,0C33.617,33.494,34.085,32.327,34.024,30.614ZM22.167,21.242l-.127.056c-.874.391-1.316,1.468-1.331,2.944a16.382,16.382,0,0,1-3.459.358c-4.169,0-7.074-1.375-7.074-2.609a.339.339,0,0,1,0-.138V19c1.284,1.118,3.905,1.851,7.074,1.851s5.788-.732,7.073-1.85v1.275Zm-12,5.466a.414.414,0,0,0,.007-.069V23.6c1.285,1.118,3.906,1.85,7.074,1.85a17.462,17.462,0,0,0,3.5-.34,14.468,14.468,0,0,0,.874,3.637,14.192,14.192,0,0,1-4.37.635c-4.169,0-7.074-1.375-7.074-2.608A.415.415,0,0,0,10.169,26.708ZM17.25,14.78c4.165,0,7.068,1.373,7.073,2.607,0,0,0,0,0,0V17.4C24.31,18.63,21.409,20,17.25,20s-7.073-1.376-7.073-2.61S13.081,14.78,17.25,14.78Zm0,19.438c-4.169,0-7.074-1.375-7.074-2.609a.339.339,0,0,1,0-.138v-3.08c1.285,1.118,3.906,1.85,7.074,1.85a14.991,14.991,0,0,0,4.684-.693q.084.2.174.4a17.983,17.983,0,0,0,1.511,2.739C22.415,33.612,19.926,34.218,17.25,34.218Zm11.026.723L28.156,35c-1.129.5-3.567-1.59-5.267-5.4s-1.626-7.02-.5-7.523l2.735-1.221a5.742,5.742,0,0,0-.2,1.851,15.04,15.04,0,0,0,1.387,5.366,15.034,15.034,0,0,0,3.068,4.613,5.732,5.732,0,0,0,1.513,1.086Zm4.083-1.822h-.005c-.563.249-1.432-.133-2.383-1.049a14.17,14.17,0,0,1-2.88-4.346,14.182,14.182,0,0,1-1.314-5.047c-.046-1.323.25-2.225.813-2.476a.916.916,0,0,1,.376-.076,3.323,3.323,0,0,1,2.01,1.124,14.17,14.17,0,0,1,2.88,4.348,14.165,14.165,0,0,1,1.314,5.045C33.217,31.965,32.921,32.867,32.36,33.119Z" transform="translate(-8.821 -13.425)" fill="#777" stroke="#777" stroke-width="1"/>
</svg>
