<svg xmlns="http://www.w3.org/2000/svg" width="16.816" height="30.269" viewBox="0 0 16.816 30.269">
  <g id="Grupo_1777" data-name="Grupo 1777" transform="translate(-223 -138)">
    <g id="Grupo_1691" data-name="Grupo 1691" transform="translate(223 138)">
      <path id="_xD83D__xDD39_-Icon-Color_1_" d="M8.912,13.285C5.1,12.292,3.868,11.267,3.868,9.669c0-1.833,1.7-3.111,4.54-3.111,2.388,0,3.582.908,4.019,2.354A1.556,1.556,0,0,0,13.89,10.09h.5a1.594,1.594,0,0,0,1.513-2.136A6.72,6.72,0,0,0,10.93,3.683V2.522a2.522,2.522,0,1,0-5.045,0v1.11C2.623,4.339,0,6.457,0,9.7c0,3.884,3.212,5.818,7.9,6.945,4.2,1.009,5.045,2.489,5.045,4.053,0,1.16-.824,3.01-4.54,3.01-2.775,0-4.2-.992-4.759-2.4a1.655,1.655,0,0,0-1.513-1.127H1.665a1.6,1.6,0,0,0-1.5,2.186A7.565,7.565,0,0,0,5.886,26.62v1.127a2.522,2.522,0,1,0,5.045,0V26.653c3.279-.622,5.886-2.522,5.886-5.97C16.816,15.908,12.73,14.277,8.912,13.285Z" transform="translate(0 0)" fill="#0e2d4f" fill-rule="evenodd"/>
    </g>
    <g id="Grupo_1692" data-name="Grupo 1692" transform="translate(229.652 145.9)">
      <line id="Línea_49" data-name="Línea 49" y2="14.137" fill="none" stroke="#c00" stroke-linecap="round" stroke-width="2"/>
      <line id="Línea_50" data-name="Línea 50" y2="14.137" transform="translate(3.326)" fill="none" stroke="#c00" stroke-linecap="round" stroke-width="2"/>
    </g>
  </g>
</svg>
