<svg id="Grupo_1808" data-name="Grupo 1808" xmlns="http://www.w3.org/2000/svg" width="27.058" height="24.591" viewBox="0 0 27.058 24.591">
  <path id="Trazado_2844" data-name="Trazado 2844" d="M14.168,48.967a6.057,6.057,0,0,1-2.093,1.09,13.587,13.587,0,0,1-5.46.549,9.96,9.96,0,0,1-3.685-.966,3.123,3.123,0,0,1-1.7-1.725,1.954,1.954,0,0,0,.582,1.727,5.37,5.37,0,0,0,2.211,1.25,13.341,13.341,0,0,0,5.58.5,9.939,9.939,0,0,0,3.688-1.037,2.866,2.866,0,0,0,1.772-2.117,3.111,3.111,0,0,0,1.519,1.335,7.045,7.045,0,0,0,.98.392,13.746,13.746,0,0,0,6.487.351,7.669,7.669,0,0,0,2.84-1.007,2.109,2.109,0,0,0,1.1-1.911,1.955,1.955,0,0,0-.837-1.686,5.824,5.824,0,0,0-1.921-.915,13.743,13.743,0,0,0-6.609-.245,5.239,5.239,0,0,0-3.573,1.915v-.531a3.076,3.076,0,0,1-1.525,1.709,7.139,7.139,0,0,1-.694.345,11.847,11.847,0,0,1-4.118.87,12.532,12.532,0,0,1-5.223-.735,3.559,3.559,0,0,1-2.311-1.968,2.03,2.03,0,0,0,.866,1.974,6.024,6.024,0,0,0,2.1,1.035,13.7,13.7,0,0,0,6.928.192,5.6,5.6,0,0,0,3.873-2.248,1.593,1.593,0,0,1-.314,1.39A4.91,4.91,0,0,1,14.168,48.967Zm7.42.517c-.016.029-.082.041-.125.041a12.476,12.476,0,0,1-2.54-.255c.11-.218.2-.408.3-.588a.186.186,0,0,1,.151-.067c.821.1,1.642.2,2.491.306C21.792,49.079,21.7,49.285,21.588,49.485Zm4.361-.815a1.639,1.639,0,0,1-1.823.084,2.222,2.222,0,0,0-.28-.118c-.012,0-.016-.024-.008-.01a13.864,13.864,0,0,0,1.366-.682.586.586,0,0,1,.651-.065c.259.122.533.21.872.341C26.429,48.389,26.188,48.528,25.949,48.669Zm.466-2.957a.131.131,0,0,1,.088.024,1.96,1.96,0,0,1,.835,1.019c-.512.071-.99.135-1.446.2a4.448,4.448,0,0,0-.345-.59,4.306,4.306,0,0,0-.517-.464C25.512,45.829,25.963,45.769,26.416,45.712ZM21.322,44.6a.193.193,0,0,1,.151-.078c.794.051,1.586.11,2.379.167l.029.1c-.08.169-.155.339-.247.5a.183.183,0,0,1-.151.067c-.8-.09-1.6-.184-2.411-.282C21.142,44.936,21.224,44.761,21.322,44.6Zm2.7,1.233a3,3,0,0,1,.929.572.754.754,0,0,1,0,1.194,2.836,2.836,0,0,1-1.225.668,7.743,7.743,0,0,1-2.352.316A6.458,6.458,0,0,1,18.586,48a2.437,2.437,0,0,1-.527-.349.818.818,0,0,1,.018-1.378,3.1,3.1,0,0,1,1.258-.61A7.693,7.693,0,0,1,24.023,45.831Zm-6.4-.725a1.022,1.022,0,0,1,.982.006,6,6,0,0,0,.66.257,5.259,5.259,0,0,0-.615.2c-.345.163-.678.351-1.017.521-.063.031-.151.073-.208.051-.337-.118-.67-.253-1-.382-.008-.033-.014-.065-.022-.1C16.8,45.481,17.216,45.3,17.62,45.106Zm-.531,1.852a1.49,1.49,0,0,0,.76,1.078c-.235.035-.414.063-.594.088a3.774,3.774,0,0,1-.419.053c-.2.006-.451.067-.6-.025a1.478,1.478,0,0,1-.676-.986Z" transform="translate(-0.928 -35.587)" fill="#0e2d4f"/>
  <path id="Trazado_2845" data-name="Trazado 2845" d="M2.106,5.982a11.965,11.965,0,0,0,4.31.833A15.834,15.834,0,0,0,10.8,6.331a6.826,6.826,0,0,0,2.518-1.17,1.893,1.893,0,0,0,.823-1.343,4.02,4.02,0,0,0,.006-.868,1.824,1.824,0,0,0-.265-.806,3.974,3.974,0,0,0-.86-.809A5.642,5.642,0,0,0,11.179.526,15.184,15.184,0,0,0,3.737.4,7.436,7.436,0,0,0,1,1.543a2,2,0,0,0-.976,2,1.931,1.931,0,0,1,.014.282A1.6,1.6,0,0,0,.505,4.942,4.281,4.281,0,0,0,2.106,5.982Zm5.172-.335a.191.191,0,0,1-.155.071c-.888-.067-1.778-.139-2.665-.212a.276.276,0,0,1-.069-.029.3.3,0,0,1,0-.045c.1-.212.155-.506.325-.608.155-.094.435.024.66.039.6.041,1.2.076,1.8.112.123.008.249,0,.419,0C7.486,5.216,7.39,5.436,7.279,5.647Zm4.837-1.009A1.823,1.823,0,0,1,9.93,4.8c-.1-.037-.2-.076-.319-.125.359-.145.694-.259,1.007-.412.251-.123.474-.3.713-.447.061-.037.147-.094.2-.076.406.135.807.286,1.278.455C12.547,4.367,12.337,4.516,12.116,4.638Zm-.365-3.053a1.256,1.256,0,0,1,.21-.029c.218,0,.437-.155.657.008A2.1,2.1,0,0,1,13.454,2.6l-1.6.249c-.194-.521-.194-.521-.925-1.133C11.226,1.669,11.488,1.628,11.751,1.584Zm-.817.76a.733.733,0,0,1,.053,1.078,2.8,2.8,0,0,1-.8.627,7.167,7.167,0,0,1-3.195.643,7.239,7.239,0,0,1-2.916-.539A3.091,3.091,0,0,1,3.361,3.7a.85.85,0,0,1-.029-1.4,2.824,2.824,0,0,1,.845-.537,8.066,8.066,0,0,1,5.831-.047A3.021,3.021,0,0,1,10.934,2.345ZM6.891.356A.206.206,0,0,1,7.043.277a13.714,13.714,0,0,1,2.642.21c-.1.223-.186.415-.284.6a.17.17,0,0,1-.151.063A11.062,11.062,0,0,0,6.589.965C6.7.742,6.787.544,6.891.356ZM1.944,1.416c.433-.2.874-.382,1.313-.566a.336.336,0,0,1,.2-.037c.382.127.758.267,1.2.425a6.763,6.763,0,0,0-.7.247c-.363.178-.711.386-1.068.578-.059.031-.135.082-.184.065C2.326,2,1.95,1.851,1.517,1.69A3.779,3.779,0,0,1,1.944,1.416Zm.38,1.591A1.609,1.609,0,0,0,3.2,4.168l-1.613.241a.142.142,0,0,1-.09-.018A1.9,1.9,0,0,1,.674,3.256C1.242,3.168,1.773,3.09,2.324,3.007Z" transform="translate(-0.002 -0.001)" fill="#0e2d4f"/>
  <path id="Trazado_2846" data-name="Trazado 2846" d="M26.4,70.167a10.053,10.053,0,0,1-2.987.7,12.99,12.99,0,0,1-5.615-.582,3.562,3.562,0,0,1-2.315-1.766,5.215,5.215,0,0,1-.18.813,2.383,2.383,0,0,1-.839.994A7.549,7.549,0,0,1,11.3,71.635a14.884,14.884,0,0,1-2.379.265,11.59,11.59,0,0,1-4.955-.778,3.646,3.646,0,0,1-2.246-1.944,3.083,3.083,0,0,0,.024.647,2.226,2.226,0,0,0,1.031,1.433A7.594,7.594,0,0,0,5.6,72.415a14.326,14.326,0,0,0,5.644.022,8.486,8.486,0,0,0,2.728-.978,3.026,3.026,0,0,0,1.4-1.468,5.02,5.02,0,0,0,.151-.643,2.668,2.668,0,0,0,1.215,1.213,7.233,7.233,0,0,0,1.131.513,13.349,13.349,0,0,0,7.328.251,6.125,6.125,0,0,0,2.369-1.049,1.808,1.808,0,0,0,.794-1.8A3.2,3.2,0,0,1,26.4,70.167Z" transform="translate(-1.377 -55.059)" fill="#0e2d4f"/>
  <path id="Trazado_2847" data-name="Trazado 2847" d="M27.206,78.1a8.659,8.659,0,0,1-3.263.99,12.942,12.942,0,0,1-5.786-.478,3.706,3.706,0,0,1-2.534-1.948,2.259,2.259,0,0,1-1.019,2,2.576,2.576,0,0,1-.21.151,8.6,8.6,0,0,1-3.459,1.256,14.236,14.236,0,0,1-4,.086,11.174,11.174,0,0,1-2.42-.555,3.973,3.973,0,0,1-2.579-2.1c-.006.01-.02.02-.022.031A2.2,2.2,0,0,0,2.9,79.519a6.737,6.737,0,0,0,2.279,1.068,13.6,13.6,0,0,0,7.344-.112,6.482,6.482,0,0,0,2.056-1.007,2.234,2.234,0,0,0,1.052-1.938s.022-.01.033-.016a2.762,2.762,0,0,0,1.243,1.3,6.926,6.926,0,0,0,.692.349,10.707,10.707,0,0,0,3.591.776,12.372,12.372,0,0,0,5.07-.647,4.568,4.568,0,0,0,1.687-1,1.613,1.613,0,0,0,.515-1.55A2.548,2.548,0,0,1,27.206,78.1Z" transform="translate(-1.538 -61.636)" fill="#0e2d4f"/>
  <path id="Trazado_2848" data-name="Trazado 2848" d="M1.373,28.02a5.332,5.332,0,0,0,.729.427,11.014,11.014,0,0,0,4.257.974,13.768,13.768,0,0,0,5.6-.753,5.018,5.018,0,0,0,1.95-1.192,1.828,1.828,0,0,0,.49-1.627,3.028,3.028,0,0,1-1.576,1.588A9.111,9.111,0,0,1,11.456,28a14.435,14.435,0,0,1-5.511.555,11.238,11.238,0,0,1-3.561-.8A3.856,3.856,0,0,1,.667,26.522,4.8,4.8,0,0,1,.375,26,1.977,1.977,0,0,0,1.373,28.02Z" transform="translate(-0.282 -20.784)" fill="#0e2d4f"/>
  <path id="Trazado_2849" data-name="Trazado 2849" d="M2.885,37.746a11.959,11.959,0,0,0,4.18.79,13.426,13.426,0,0,0,5.129-.76,5.146,5.146,0,0,0,1.919-1.154,1.794,1.794,0,0,0,.533-1.731,2.174,2.174,0,0,1-.743,1.1,5.5,5.5,0,0,1-1.736.964,14.015,14.015,0,0,1-6.046.692A10.515,10.515,0,0,1,2.6,36.8,3.249,3.249,0,0,1,.711,35.062a1.879,1.879,0,0,0,.568,1.685A4.7,4.7,0,0,0,2.885,37.746Z" transform="translate(-0.557 -28.052)" fill="#0e2d4f"/>
  <path id="Trazado_2850" data-name="Trazado 2850" d="M3.27,46.721a12.731,12.731,0,0,0,5.058.745,12.125,12.125,0,0,0,4.331-.872,4.779,4.779,0,0,0,1.7-1.111,1.929,1.929,0,0,0,.5-1.742,2.215,2.215,0,0,1-.79,1.2A5.954,5.954,0,0,1,12,46.019a14.243,14.243,0,0,1-6.646.435A8.355,8.355,0,0,1,2.17,45.361a2.7,2.7,0,0,1-1.2-1.35,1.8,1.8,0,0,0,.5,1.586A4.759,4.759,0,0,0,3.27,46.721Z" transform="translate(-0.761 -35.168)" fill="#0e2d4f"/>
  <path id="Trazado_2851" data-name="Trazado 2851" d="M15.065,89.4a5.837,5.837,0,0,1-2.215,1.239,13.156,13.156,0,0,1-7.555.137A5.626,5.626,0,0,1,2.9,89.536a2,2,0,0,1-.67-.968.558.558,0,0,0-.061-.116.4.4,0,0,0-.029.094,2.338,2.338,0,0,0,.913,1.9,6.207,6.207,0,0,0,2.123,1.082,9.5,9.5,0,0,0,2.464.453c.662.027,1.325.074,1.985.047a13.125,13.125,0,0,0,1.789-.221A7.64,7.64,0,0,0,14.8,90.422a2.259,2.259,0,0,0,.986-2.252A2.26,2.26,0,0,1,15.065,89.4Z" transform="translate(-1.721 -70.89)" fill="#0e2d4f"/>
  <path id="Trazado_2852" data-name="Trazado 2852" d="M14.865,99a9.184,9.184,0,0,1-1.6.837,10.187,10.187,0,0,1-2.83.611,12.441,12.441,0,0,1-4.837-.427,8.692,8.692,0,0,1-1.617-.666,3.123,3.123,0,0,1-1.505-1.627,2.025,2.025,0,0,0,.839,1.919,5.454,5.454,0,0,0,1.968,1.062,12.448,12.448,0,0,0,5.154.525A9.945,9.945,0,0,0,14.3,100.15,3.635,3.635,0,0,0,15.8,98.8a1.736,1.736,0,0,0,.2-1.266A2.6,2.6,0,0,1,14.865,99Z" transform="translate(-1.971 -78.415)" fill="#0e2d4f"/>
  <path id="Trazado_2853" data-name="Trazado 2853" d="M15.012,107.6a6.976,6.976,0,0,1-.976.559,10.8,10.8,0,0,1-4.314.917,10.856,10.856,0,0,1-5.037-.927,3.452,3.452,0,0,1-1.972-1.909,1.92,1.92,0,0,0,.39,1.442,4.209,4.209,0,0,0,1.911,1.358,12.06,12.06,0,0,0,8.747-.014,4.626,4.626,0,0,0,1.981-1.346,1.933,1.933,0,0,0,.463-1.633A2.8,2.8,0,0,1,15.012,107.6Z" transform="translate(-2.169 -85.266)" fill="#0e2d4f"/>
  <path id="Trazado_2854" data-name="Trazado 2854" d="M83.235,86.563a6.176,6.176,0,0,1-.809.374,12.326,12.326,0,0,1-5.325.641,9.862,9.862,0,0,1-3.671-.921,3.3,3.3,0,0,1-1.372-1.109,5.364,5.364,0,0,1-.257-.5c-.014.216-.025.412-.037.606l0-.008c0,.006,0,.01,0,.016s0,0,0-.006a2.823,2.823,0,0,0,1.593,1.713,8.063,8.063,0,0,0,1.127.465,12.715,12.715,0,0,0,5.019.5,10.1,10.1,0,0,0,3.232-.77,3.941,3.941,0,0,0,1.491-1.039,1.729,1.729,0,0,0,.378-1.419A2.7,2.7,0,0,1,83.235,86.563Z" transform="translate(-57.696 -68.381)" fill="#0e2d4f"/>
  <path id="Trazado_2855" data-name="Trazado 2855" d="M84.31,94.4a4.116,4.116,0,0,1-1.842,1.133,12.416,12.416,0,0,1-7.271.243,4.242,4.242,0,0,1-3.177-2.146,1.8,1.8,0,0,0,.67,1.689,4.842,4.842,0,0,0,1.621.933,12.568,12.568,0,0,0,6.742.429,6.78,6.78,0,0,0,2.83-1.147,1.913,1.913,0,0,0,.9-1.846A5.791,5.791,0,0,1,84.31,94.4Z" transform="translate(-57.887 -75.28)" fill="#0e2d4f"/>
  <path id="Trazado_2856" data-name="Trazado 2856" d="M83.853,102.7a7,7,0,0,1-1.219.649,11.8,11.8,0,0,1-5.482.641,9.207,9.207,0,0,1-3.449-.935,2.817,2.817,0,0,1-1.591-1.687,1.936,1.936,0,0,0,.674,1.8,4.985,4.985,0,0,0,1.593.933,12.056,12.056,0,0,0,5.415.639,9.593,9.593,0,0,0,3.22-.809,3.953,3.953,0,0,0,1.386-.99,1.809,1.809,0,0,0,.41-1.5A2.205,2.205,0,0,1,83.853,102.7Z" transform="translate(-57.962 -81.503)" fill="#0e2d4f"/>
  <path id="Trazado_2857" data-name="Trazado 2857" d="M96.271,54.251c-.027.092-.047.157-.073.247.216.02.417.047.619.053.051,0,.1-.071.157-.1a1.078,1.078,0,0,1,.276-.155c.339-.08.69-.122,1.023-.223a.406.406,0,0,0,.231-.308.43.43,0,0,0-.245-.294c-.288-.12-.594-.2-.892-.292-.12-.039-.237-.088-.357-.133l.006-.071a.972.972,0,0,1,.282-.055c.288.027.576.063.86.118.335.065.429.033.633-.292l-.835-.165c.016-.069.027-.125.049-.227-.29.08-.61-.247-.827.161-.018.033-.116.024-.176.033a7.492,7.492,0,0,0-.894.171c-.125.039-.29.2-.3.31s.161.259.284.312c.27.118.564.18.849.272.12.039.233.09.351.135,0,.029-.006.057-.01.086a1.1,1.1,0,0,1-.3.053c-.349-.037-.7-.074-1.045-.145-.363-.074-.429-.063-.684.3.176.043.339.088.506.123S96.1,54.219,96.271,54.251Z" transform="translate(-76.591 -42.051)" fill="#c00"/>
  <path id="Trazado_2858" data-name="Trazado 2858" d="M26.8,9.223a.485.485,0,0,0-.3.337c0,.11.174.27.306.323.31.125.643.2.964.294.122.037.237.09.355.135,0,.029,0,.059,0,.088a1.07,1.07,0,0,1-.292.063c-.4-.037-.809-.074-1.209-.145a.537.537,0,0,0-.688.357l1.082.212c-.024.09-.043.171-.067.261.223.02.427.049.629.047a.278.278,0,0,0,.208-.127c.061-.127.149-.145.274-.169a8.584,8.584,0,0,0,1.137-.253.464.464,0,0,0,.249-.349c0-.1-.155-.255-.272-.3-.312-.123-.641-.2-.962-.3-.135-.041-.267-.094-.4-.141,0-.027.006-.055.008-.082a1.079,1.079,0,0,1,.276-.055,4.25,4.25,0,0,1,.953.11c.351.11.515-.067.725-.323l-.943-.174c.014-.078.024-.145.037-.227-.131-.012-.247-.025-.363-.033-.194-.01-.41-.094-.51.184-.014.039-.137.043-.212.059A8.452,8.452,0,0,0,26.8,9.223Z" transform="translate(-20.856 -7.036)" fill="#c00"/>
</svg>
