<svg xmlns="http://www.w3.org/2000/svg" width="21.002" height="21" viewBox="0 0 21.002 21">
  <path id="Trazado_252" data-name="Trazado 252" d="M1.05,21A1.057,1.057,0,0,1,.3,20.7a1.039,1.039,0,0,1-.252-1.071l1.859-5.586A10.048,10.048,0,0,1,1.05,9.975,9.993,9.993,0,0,1,11,0h.546A9.955,9.955,0,0,1,21,9.387v.588a9.992,9.992,0,0,1-9.975,9.975,10.011,10.011,0,0,1-4.064-.861L1.376,20.948A1.112,1.112,0,0,1,1.05,21ZM11,2.1A7.875,7.875,0,0,0,3.98,13.493a1.078,1.078,0,0,1,.063.809l-1.334,3.99L6.7,16.958a1.035,1.035,0,0,1,.809.063,7.39,7.39,0,0,0,3.517.83A7.876,7.876,0,0,0,18.9,9.975h0V9.45A7.83,7.83,0,0,0,11.487,2.1H11Z" transform="translate(0.002 0)" fill="#c00"/>
</svg>
