<svg id="Grupo_1789" data-name="Grupo 1789" xmlns="http://www.w3.org/2000/svg" width="12.791" height="14.07" viewBox="0 0 12.791 14.07">
  <g id="Grupo_544" data-name="Grupo 544" transform="translate(0 2.558)">
    <path id="Trazado_746" data-name="Trazado 746" d="M12.151,5.279H.64A.64.64,0,0,1,.64,4H12.151a.64.64,0,0,1,0,1.279Z" transform="translate(0 -4)" fill="#0e2d4f"/>
  </g>
  <g id="Grupo_545" data-name="Grupo 545" transform="translate(1.279)">
    <path id="Trazado_747" data-name="Trazado 747" d="M10.314,14.07h-6.4A1.924,1.924,0,0,1,2,12.151V3.2a.64.64,0,0,1,1.279,0v8.954a.641.641,0,0,0,.64.64h6.4a.641.641,0,0,0,.64-.64V3.2a.64.64,0,0,1,1.279,0v8.954A1.924,1.924,0,0,1,10.314,14.07ZM9.675,3.837a.641.641,0,0,1-.64-.64V1.919a.641.641,0,0,0-.64-.64H5.837a.641.641,0,0,0-.64.64V3.2a.64.64,0,1,1-1.279,0V1.919A1.924,1.924,0,0,1,5.837,0H8.4a1.924,1.924,0,0,1,1.919,1.919V3.2A.641.641,0,0,1,9.675,3.837Z" transform="translate(-2)" fill="#0e2d4f"/>
  </g>
  <g id="Grupo_546" data-name="Grupo 546" transform="translate(4.477 5.756)">
    <path id="Trazado_748" data-name="Trazado 748" d="M7.64,14.116a.641.641,0,0,1-.64-.64V9.64a.64.64,0,1,1,1.279,0v3.837A.641.641,0,0,1,7.64,14.116Z" transform="translate(-7 -9)" fill="#0e2d4f"/>
  </g>
  <g id="Grupo_547" data-name="Grupo 547" transform="translate(7.035 5.756)">
    <path id="Trazado_749" data-name="Trazado 749" d="M11.64,14.116a.641.641,0,0,1-.64-.64V9.64a.64.64,0,1,1,1.279,0v3.837A.641.641,0,0,1,11.64,14.116Z" transform="translate(-11 -9)" fill="#0e2d4f"/>
  </g>
</svg>
