<svg id="Grupo_1729" data-name="Grupo 1729" xmlns="http://www.w3.org/2000/svg" width="18.751" height="20.835" viewBox="0 0 18.751 20.835">
  <path id="Trazado_3" data-name="Trazado 3" d="M449.543,36h-8.334A5.215,5.215,0,0,0,436,41.209v2.083a1.042,1.042,0,0,0,2.083,0V41.209a3.13,3.13,0,0,1,3.125-3.125h8.334a3.13,3.13,0,0,1,3.125,3.125v2.083a1.042,1.042,0,1,0,2.083,0V41.209A5.215,5.215,0,0,0,449.543,36Z" transform="translate(-436 -23.499)" fill="#0e2d4f"/>
  <path id="Trazado_4" data-name="Trazado 4" d="M453.209,2.083a3.125,3.125,0,1,1-3.125,3.125A3.13,3.13,0,0,1,453.209,2.083Zm0,8.334A5.209,5.209,0,1,0,448,5.209,5.215,5.215,0,0,0,453.209,10.417Z" transform="translate(-443.833)" fill="#0e2d4f"/>
</svg>
