<svg xmlns="http://www.w3.org/2000/svg" width="29.049" height="19.361" viewBox="0 0 29.049 19.361">
  <g id="Grupo_7111" data-name="Grupo 7111" transform="translate(24383.672 18854.711)">
    <path id="Trazado_3" data-name="Trazado 3" d="M448.585,36H440.84A4.846,4.846,0,0,0,436,40.84v1.936a.968.968,0,0,0,1.936,0V40.84a2.909,2.909,0,0,1,2.9-2.9h7.744a2.909,2.909,0,0,1,2.9,2.9v1.936a.968.968,0,1,0,1.936,0V40.84A4.846,4.846,0,0,0,448.585,36Z" transform="translate(-24819.672 -18879.096)" fill="#0e2d4f"/>
    <path id="Trazado_4" data-name="Trazado 4" d="M452.84,1.936a2.9,2.9,0,1,1-2.9,2.9A2.908,2.908,0,0,1,452.84,1.936Zm0,7.744A4.84,4.84,0,1,0,448,4.84,4.846,4.846,0,0,0,452.84,9.681Z" transform="translate(-24827.801 -18854.711)" fill="#0e2d4f"/>
    <path id="Trazado_5" data-name="Trazado 5" d="M494.214,36.421a.967.967,0,1,0-.484,1.872,2.906,2.906,0,0,1,2.178,2.811V43.04a.968.968,0,0,0,1.936,0V41.1A4.839,4.839,0,0,0,494.214,36.421Z" transform="translate(-24858.283 -18879.357)" fill="#c00"/>
    <path id="Trazado_7770" data-name="Trazado 7770" d="M494.214,36.421a.967.967,0,1,0-.484,1.872,2.906,2.906,0,0,1,2.178,2.811V43.04a.968.968,0,0,0,1.936,0V41.1A4.839,4.839,0,0,0,494.214,36.421Z" transform="translate(-24852.467 -18879.357)" fill="#c00"/>
    <path id="Trazado_6" data-name="Trazado 6" d="M482.2.416a.968.968,0,1,0-.481,1.875,2.9,2.9,0,0,1,0,5.628.969.969,0,0,0,.239,1.907A1.033,1.033,0,0,0,482.2,9.8a4.842,4.842,0,0,0,0-9.38Z" transform="translate(-24850.148 -18854.973)" fill="#c00"/>
    <path id="Trazado_7769" data-name="Trazado 7769" d="M482.2.416a.968.968,0,1,0-.481,1.875,2.9,2.9,0,0,1,0,5.628.969.969,0,0,0,.239,1.907A1.033,1.033,0,0,0,482.2,9.8a4.842,4.842,0,0,0,0-9.38Z" transform="translate(-24844.332 -18854.973)" fill="#c00"/>
  </g>
</svg>
