<svg xmlns="http://www.w3.org/2000/svg" width="30.373" height="30.618" viewBox="0 0 30.373 30.618">
  <g id="Grupo_2328" data-name="Grupo 2328" transform="translate(-0.01)">
    <path id="Trazado_3715" data-name="Trazado 3715" d="M14.727,0h1.5a1.807,1.807,0,0,0,.288.061,13.927,13.927,0,0,1,3.4.633A14.917,14.917,0,0,1,17.5,29.714a14.732,14.732,0,0,1-8.981-1.571.7.7,0,0,0-.591-.047Q4.146,29.32.36,30.528c-.106.033-.215.055-.35.09.039-.122.061-.2.086-.273q1.246-3.711,2.5-7.418a.576.576,0,0,0-.058-.528,14.665,14.665,0,0,1-1.86-9.476A14.53,14.53,0,0,1,4.928,4.376a14.6,14.6,0,0,1,8.409-4.2C13.8.109,14.264.059,14.727,0ZM3.7,26.983c.177-.053.281-.083.384-.116,1.4-.448,2.807-.9,4.215-1.337a.64.64,0,0,1,.462.059,12.36,12.36,0,0,0,11.934.77A12.556,12.556,0,1,0,9.606,3.841,12.142,12.142,0,0,0,2.892,15.113,11.852,11.852,0,0,0,5.13,22.1a.461.461,0,0,1,.062.467c-.274.79-.537,1.584-.8,2.377C4.167,25.6,3.946,26.256,3.7,26.983Z" fill="#0e2d4f"/>
    <path id="Trazado_3716" data-name="Trazado 3716" d="M73.686,70.722c.77.006.84.053,1.133.758q.544,1.31,1.091,2.62a.752.752,0,0,1-.088.817c-.256.318-.531.621-.8.932-.35.414-.364.557-.085,1.012a9.839,9.839,0,0,0,4.769,4.147.85.85,0,0,0,1.221-.318c.258-.33.5-.674.747-1.011.3-.406.56-.5,1-.3.967.448,1.922.922,2.883,1.384a.488.488,0,0,1,.293.507c-.075,1.542-.53,2.421-2.408,3.087a4.224,4.224,0,0,1-2.557-.084,14.4,14.4,0,0,1-8.2-6,8.854,8.854,0,0,1-1.526-2.925,4.122,4.122,0,0,1,.993-4.076A1.864,1.864,0,0,1,73.686,70.722Z" transform="translate(-62.817 -62.571)" fill="#0e2d4f"/>
  </g>
</svg>
